<svg width="48" height="24" viewBox="0 0 48 24" fill="none" xmlns="http://www.w3.org/2000/svg">
<path d="M14.4991 11.2239C14.4991 11.0449 14.5781 10.8733 14.7188 10.7467C14.8594 10.6201 15.0502 10.549 15.2491 10.549C15.448 10.549 15.6387 10.4779 15.7793 10.3513C15.92 10.2247 15.999 10.0531 15.999 9.87408C15.999 9.69508 15.92 9.52341 15.7793 9.39684C15.6387 9.27027 15.448 9.19916 15.2491 9.19916C14.6524 9.19916 14.0801 9.41248 13.6582 9.7922C13.2363 10.1719 12.9993 10.6869 12.9993 11.2239C12.9993 11.4029 13.0783 11.5746 13.2189 11.7012C13.3596 11.8277 13.5503 11.8988 13.7492 11.8988C13.9481 11.8988 14.1388 11.8277 14.2795 11.7012C14.4201 11.5746 14.4991 11.4029 14.4991 11.2239ZM9.99955 11.4489C9.99955 10.1362 10.579 8.87732 11.6103 7.94913C12.6417 7.02093 14.0405 6.49947 15.499 6.49947C16.9576 6.49947 18.3564 7.02093 19.3878 7.94913C20.4191 8.87732 20.9985 10.1362 20.9985 11.4489C20.9985 12.7616 20.4191 14.0205 19.3878 14.9487C18.3564 15.8769 16.9576 16.3983 15.499 16.3983C14.0405 16.3983 12.6417 15.8769 11.6103 14.9487C10.579 14.0205 9.99955 12.7616 9.99955 11.4489ZM15.499 7.84932C14.4383 7.84932 13.421 8.22856 12.6709 8.90361C11.9208 9.57866 11.4994 10.4942 11.4994 11.4489C11.4994 12.4036 11.9208 13.3191 12.6709 13.9942C13.421 14.6692 14.4383 15.0485 15.499 15.0485C16.5598 15.0485 17.5771 14.6692 18.3272 13.9942C19.0773 13.3191 19.4987 12.4036 19.4987 11.4489C19.4987 10.4942 19.0773 9.57866 18.3272 8.90361C17.5771 8.22856 16.5598 7.84932 15.499 7.84932ZM9.21462 6.04413C10.6875 3.64231 13.3822 2 16.499 2C21.2585 2 24.9982 5.79846 24.9982 10.3465C24.9982 10.8559 24.9512 11.3553 24.8622 11.8404C24.8052 12.1499 24.8172 12.4793 24.8862 12.8149C25.1152 13.9228 24.9972 15.0661 24.5455 16.117C24.0938 17.168 23.3262 18.0852 22.3285 18.766C21.3308 19.4468 20.1423 19.8644 18.8959 19.9722C17.6496 20.0799 16.3945 19.8735 15.2711 19.3761C14.4733 19.032 13.5787 18.9125 12.7043 19.0332C12.3883 19.0765 12.0691 19.0981 11.7494 19.098C7.96673 19.098 5 16.1247 5 12.5738C5 10.2601 6.24789 8.20927 8.15971 7.04841C8.60567 6.77574 8.97364 6.43558 9.21462 6.04413ZM16.499 3.34984C13.9982 3.34984 11.7724 4.66729 10.5275 6.69655C10.1525 7.30668 9.60558 7.79712 8.99764 8.16608C7.51277 9.07047 6.49986 10.6966 6.49986 12.5738C6.49986 15.4831 8.90564 17.7482 11.7494 17.7482C11.9974 17.7482 12.2403 17.7311 12.4793 17.6987C13.6564 17.5366 14.8605 17.6991 15.933 18.1648C16.807 18.5516 17.7833 18.712 18.7527 18.628C19.7221 18.544 20.6465 18.219 21.4224 17.6892C22.1983 17.1595 22.7952 16.4459 23.1463 15.6283C23.4973 14.8107 23.5888 13.9214 23.4103 13.0597C23.3083 12.5848 23.2989 12.0977 23.3823 11.6199C23.4583 11.2077 23.4983 10.7821 23.4983 10.3465C23.4983 6.42028 20.2986 3.34984 16.499 3.34984Z" fill="#555555"/>
</svg>
