<svg width="48" height="24" viewBox="0 0 48 24" fill="none" xmlns="http://www.w3.org/2000/svg">
<path d="M14 14.0769L7.11118 4.05231C7.04129 3.94805 7.003 3.82885 7.00017 3.70681C6.99734 3.58477 7.03008 3.46422 7.09507 3.35738C7.16006 3.25054 7.25499 3.16121 7.37023 3.09845C7.48548 3.03569 7.61694 3.00172 7.75129 3H20.2487C20.3831 3.00172 20.5145 3.03569 20.6298 3.09845C20.745 3.16121 20.8399 3.25054 20.9049 3.35738C20.9699 3.46422 21.0027 3.58477 20.9998 3.70681C20.997 3.82885 20.9587 3.94805 20.8888 4.05231L14 14.0769ZM14 14.0769V21M10.1898 21H17.8102M8.75718 6.46154H19.2428" stroke="#555555" stroke-width="1.6" stroke-linecap="round" stroke-linejoin="round"/>
</svg>
