<svg width="48" height="24" viewBox="0 0 48 24" fill="none" xmlns="http://www.w3.org/2000/svg">
<path d="M8.71472 9.90899C8.71472 9.74104 8.77771 9.57996 8.88985 9.4612C9.00198 9.34244 9.15406 9.27572 9.31264 9.27572H14.5098C14.6684 9.27572 14.8204 9.34244 14.9326 9.4612C15.0447 9.57996 15.1077 9.74104 15.1077 9.90899V15.0891C15.1077 15.2571 15.0447 15.4182 14.9326 15.5369C14.8204 15.6557 14.6684 15.7224 14.5098 15.7224H9.31264C9.15406 15.7224 9.00198 15.6557 8.88985 15.5369C8.77771 15.4182 8.71472 15.2571 8.71472 15.0891V9.90899ZM9.91056 14.4559H13.9119V10.5423H9.91056V14.4559ZM3.41115 6.13976C4.13583 4.4008 5.77414 3 7.72576 3H19.5969C21.7064 3 24 4.84789 24 7.66341C24 9.34538 23.0852 10.7766 22.4729 11.4744C22.4586 12.3711 22.4944 13.5731 22.5351 14.8561L22.547 15.2335C22.5889 16.5115 22.632 17.835 22.632 18.947C22.632 19.9831 22.5255 20.8709 21.936 21.4193C21.6418 21.6929 21.2818 21.831 20.9028 21.9057C20.4709 21.9773 20.0339 22.0082 19.5969 21.9981H7.42081C6.0157 21.9981 5.15589 21.5536 4.7206 20.7835C4.37022 20.1642 4.38098 19.441 4.38576 19.061L4.38815 18.947V11.4922C2.83236 9.93052 2.7056 7.83313 3.41115 6.13976ZM7.72576 4.26654C6.3302 4.26654 5.07457 5.28358 4.50535 6.65018C3.94808 7.98511 4.08321 9.56576 5.37353 10.7272C5.43938 10.7865 5.4923 10.8603 5.52863 10.9434C5.56497 11.0264 5.58386 11.1169 5.584 11.2085V19.0674C5.58161 19.4891 5.58041 19.8399 5.74544 20.1313C5.88057 20.3706 6.23932 20.7316 7.42081 20.7316H16.5535C17.0306 20.7316 17.3667 20.7113 17.6118 20.6607C17.851 20.6113 17.9502 20.5441 18.0016 20.4922C18.0519 20.4403 18.1164 20.3377 18.1655 20.0844C18.2157 19.8248 18.2372 19.4638 18.2372 18.947C18.2372 18.158 18.2324 17.2879 18.2265 16.4089C18.2145 14.6167 18.2025 12.7828 18.2384 11.5137C18.2425 11.3518 18.305 11.1977 18.413 11.0831C18.5446 10.945 18.6677 10.8234 18.7837 10.7082C19.0624 10.4346 19.3027 10.1965 19.5287 9.84566C19.8193 9.39224 20.0728 8.74757 20.1279 7.64821C20.1231 6.79456 19.6615 5.95484 18.938 5.30511C18.2073 4.64777 17.2961 4.26654 16.5535 4.26654H7.72576ZM19.3374 20.339C19.3111 20.4732 19.2776 20.6049 19.2334 20.7316H19.5969C20.0728 20.7316 20.422 20.7113 20.6851 20.6594C20.9446 20.6087 21.0726 20.5366 21.1467 20.4682C21.2902 20.3339 21.4361 20.0122 21.4361 18.947C21.4361 17.8578 21.3943 16.5571 21.3524 15.2741L21.3404 14.8979C21.295 13.5072 21.2567 12.1558 21.2818 11.1907C21.2866 11.0235 21.3537 10.865 21.4684 10.75C21.9443 10.2712 22.8042 9.02874 22.8042 7.66341C22.8042 5.65721 21.1635 4.28554 19.6292 4.26654L19.7117 4.33874C20.6122 5.14806 21.3237 6.31708 21.3237 7.66341V7.69634C21.2603 9.00341 20.9494 9.88493 20.5165 10.5587C20.2092 11.0362 19.8253 11.4149 19.5204 11.7163L19.4271 11.8075C19.4008 13.0361 19.4115 14.7067 19.4223 16.3646C19.4283 17.2511 19.4343 18.1352 19.4343 18.947C19.4343 19.4815 19.4127 19.9476 19.3374 20.3377V20.339Z" fill="#555555"/>
</svg>
