<svg width="48" height="24" viewBox="0 0 48 24" fill="none" xmlns="http://www.w3.org/2000/svg">
<path d="M3 21V19.2H17.7V21H3ZM3 17.4V15.6H8.25V13.8H12.45V15.6H17.7V17.4H3ZM19.8 21V15.51C19.17 14.895 18.6625 14.2875 18.2775 13.6875C17.8925 13.0875 17.7 12.36 17.7 11.505V3H24V11.505C24 12.36 23.812 13.0914 23.4361 13.6992C23.0602 14.307 22.5482 14.9106 21.9 15.51V19.2H24V21H19.8ZM19.8 8.4H21.9V4.8H19.8V8.4ZM20.85 13.845C21.165 13.53 21.4187 13.17 21.6112 12.765C21.8037 12.36 21.9 11.94 21.9 11.505V10.2H19.8V11.505C19.8 11.94 19.8875 12.36 20.0625 12.765C20.2375 13.17 20.5 13.53 20.85 13.845Z" fill="#555555"/>
</svg>
