<svg width="48" height="24" viewBox="0 0 48 24" fill="none" xmlns="http://www.w3.org/2000/svg">
<path d="M14.5 21C19.7467 21 24 16.9706 24 12C24 7.02944 19.7467 3 14.5 3C9.25329 3 5 7.02944 5 12C5 16.9706 9.25329 21 14.5 21Z" stroke="#555555" stroke-width="1.38746"/>
<path d="M14.5004 14.6988C16.0744 14.6988 17.3504 13.49 17.3504 11.9988C17.3504 10.5077 16.0744 9.29883 14.5004 9.29883C12.9264 9.29883 11.6504 10.5077 11.6504 11.9988C11.6504 13.49 12.9264 14.6988 14.5004 14.6988Z" stroke="#555555" stroke-width="1.38746"/>
<path d="M5 12.9004C5 12.9004 7.09 14.7004 8.8 14.7004C9.9514 14.7004 11.2757 13.8832 12.0176 13.3504M16.4 14.002C16.8474 14.3755 17.4336 14.7004 18.1148 14.7004C19.7203 14.7004 19.7202 12.9004 21.3257 12.9004C22.3489 12.9004 23.1545 13.633 23.6048 14.1631" stroke="#555555" stroke-width="1.38746"/>
<path d="M16.8746 7.50078L18.2996 5.70078M21.1496 7.50078L22.0996 6.60078M14.4996 5.70078L13.5496 4.80078M13.0746 7.50078L11.7769 7.83018M18.9171 9.28008L18.9798 10.5509M22.7437 10.2773L21.1496 11.6075M9.74964 5.70078L8.79964 4.80078M9.55204 9.43038L8.99629 8.27118M8.48139 12.5786L9.27464 11.5508M6.59849 10.5158L6.52344 9.24498" stroke="#555555" stroke-width="1.38746" stroke-linecap="round"/>
</svg>
