<svg width="48" height="24" viewBox="0 0 48 24" fill="none" xmlns="http://www.w3.org/2000/svg">
<path d="M16.4869 18.8366C18.2625 18.1843 19.7651 16.9025 20.7354 15.2127C21.2423 15.9659 21.9424 16.553 22.7546 16.9061C23.0001 17.0151 23.2676 17.0587 23.5331 17.0331C23.7986 17.0074 24.0539 16.9132 24.2762 16.7589C24.4985 16.6047 24.681 16.3951 24.8073 16.149C24.9336 15.9028 24.9998 15.6277 25 15.3482V10.9284C24.9998 10.6488 24.9336 10.3737 24.8073 10.1276C24.681 9.88143 24.4985 9.67187 24.2762 9.5176C24.0539 9.36334 23.7986 9.26916 23.5331 9.24348C23.2676 9.21779 23.0001 9.2614 22.7546 9.3704C21.9401 9.7194 21.239 10.3074 20.7354 11.0638C19.12 8.42209 14.7262 6.37305 10.3162 6.37305C8.62777 6.41288 7.02136 7.14408 5.84085 8.4101C4.66035 9.67613 3.99957 11.3763 4 13.1467C4.10424 14.9167 4.86643 16.5732 6.12289 17.7606C7.37936 18.9479 9.02988 19.5714 10.72 19.4971H12.4646" stroke="#555555" stroke-width="1.6" stroke-linecap="round" stroke-linejoin="round"/>
<path d="M9.65144 12.2852C10.0975 12.2852 10.4591 11.9061 10.4591 11.4385C10.4591 10.9709 10.0975 10.5918 9.65144 10.5918C9.20537 10.5918 8.84375 10.9709 8.84375 11.4385C8.84375 11.9061 9.20537 12.2852 9.65144 12.2852Z" stroke="#555555" stroke-width="1.6" stroke-linecap="round" stroke-linejoin="round"/>
<path d="M8.41211 6.66241C9.65596 4.64724 12.5798 2.37805 19.0575 3.15703C18.3713 5.10801 18.3713 7.25156 19.0575 9.20254M10.6898 16.2472C10.9799 17.7517 11.8154 19.0796 13.0206 19.9514C14.2258 20.8231 15.7066 21.1707 17.1513 20.921L15.5198 15.3497" stroke="#555555" stroke-width="1.6" stroke-linecap="round" stroke-linejoin="round"/>
</svg>
