<svg width="48" height="24" viewBox="0 0 48 24" fill="none" xmlns="http://www.w3.org/2000/svg">
<path d="M14.5 3C14.1308 3.24053 13.8316 3.55903 13.6283 3.92798C13.4251 4.29693 13.3238 4.70524 13.3333 5.11765C13.3238 5.53005 13.4251 5.93837 13.6283 6.30732C13.8316 6.67627 14.1308 6.99476 14.5 7.23529M19.1667 3C18.7974 3.24053 18.4983 3.55903 18.295 3.92798C18.0917 4.29693 17.9905 4.70524 18 5.11765C17.9905 5.53005 18.0917 5.93837 18.295 6.30732C18.4983 6.67627 18.7974 6.99476 19.1667 7.23529M9.83333 3C9.46409 3.24053 9.16492 3.55903 8.96166 3.92798C8.75839 4.29693 8.65715 4.70524 8.66667 5.11765C8.65715 5.53005 8.75839 5.93837 8.96166 6.30732C9.16492 6.67627 9.46409 6.99476 9.83333 7.23529M5.16667 10.4118H23.8333C24.1428 10.4118 24.4395 10.5233 24.6583 10.7219C24.8771 10.9205 25 11.1898 25 11.4706V12C25 13.5882 22.0635 17.9008 20.3333 18.8824V19.9412C20.3333 20.222 20.2104 20.4913 19.9916 20.6899C19.7728 20.8884 19.4761 21 19.1667 21H9.83333C9.52391 21 9.22717 20.8884 9.00838 20.6899C8.78958 20.4913 8.66667 20.222 8.66667 19.9412V18.8824C6.6985 17.7664 4 13.5882 4 12V11.4706C4 11.1898 4.12292 10.9205 4.34171 10.7219C4.5605 10.5233 4.85725 10.4118 5.16667 10.4118Z" stroke="#555555" stroke-width="1.6" stroke-linecap="round" stroke-linejoin="round"/>
</svg>
