<svg width="99" height="40" viewBox="0 0 99 40" fill="none" xmlns="http://www.w3.org/2000/svg">
<path d="M1.11743 1.70874C1.06688 1.74781 1.03002 1.80191 1.01211 1.86326C0.99421 1.9246 0.996196 1.99005 1.01778 2.0502C3.62287 9.25733 7.43151 22.1624 4.20446 33.787L3.08427 38.2683C3.06247 38.3552 3.06076 38.4458 3.07928 38.5335C3.0978 38.6211 3.13606 38.7033 3.19114 38.7739C3.24623 38.8444 3.31668 38.9015 3.39714 38.9407C3.4776 38.9799 3.56594 39.0002 3.65544 39.0001H4.41091C4.54291 39.0007 4.67215 38.9624 4.78253 38.89C4.8929 38.8175 4.97952 38.7142 5.03158 38.5928C5.84176 36.7005 8.53868 28.7251 8.75229 25.6096C8.75612 25.5307 8.78997 25.4563 8.8469 25.4017C8.90382 25.347 8.9795 25.3163 9.05839 25.3157H20.8705C20.9447 25.3156 21.0164 25.3423 21.0724 25.3909C21.1284 25.4395 21.1649 25.5068 21.1753 25.5802L22.358 38.4267C22.3808 38.5859 22.4601 38.7315 22.5816 38.8368C22.703 38.9422 22.8583 39.0002 23.0191 39.0001H23.785C23.9465 39.0001 24.1013 38.9359 24.2155 38.8217C24.3297 38.7074 24.3939 38.5524 24.3939 38.3908V25.3906C24.3942 25.3425 24.4054 25.2951 24.4265 25.2518C24.5697 24.9521 25.0986 23.5752 24.3939 20.7542C23.7426 18.1476 23.2542 18.1281 22.4401 18.1476C19.357 18.2213 10.7263 18.6911 9.04797 18.7836C8.97025 18.7877 8.89395 18.7617 8.83489 18.711C8.77584 18.6603 8.73856 18.5887 8.7308 18.5113C8.49179 16.4514 6.96716 3.96928 4.85573 1.85666C4.62101 1.59967 4.33768 1.39182 4.02214 1.24512C3.70659 1.09843 3.3651 1.01581 3.01743 1.00206C2.66977 0.988299 2.32282 1.04367 1.99669 1.16498C1.67055 1.28628 1.3717 1.4711 1.11743 1.70874Z" stroke="url(#paint0_linear_1107_5561)" stroke-width="1.30328" stroke-linecap="round" stroke-linejoin="round"/>
<path d="M9.08883 25.3164H5.50684M24.7194 25.3164H20.1605" stroke="url(#paint1_linear_1107_5561)" stroke-width="1.30328" stroke-miterlimit="10"/>
<path d="M97.8826 1.70874C97.9331 1.74781 97.97 1.80191 97.9879 1.86326C98.0058 1.9246 98.0038 1.99005 97.9822 2.0502C95.3771 9.25733 91.5685 22.1624 94.7955 33.787L95.9157 38.2683C95.9375 38.3552 95.9392 38.4458 95.9207 38.5335C95.9022 38.6211 95.8639 38.7033 95.8088 38.7739C95.7538 38.8444 95.6833 38.9015 95.6029 38.9407C95.5224 38.9799 95.4341 39.0002 95.3446 39.0001H94.5891C94.4571 39.0007 94.3278 38.9624 94.2175 38.89C94.1071 38.8175 94.0205 38.7142 93.9684 38.5928C93.1582 36.7005 90.4613 28.7251 90.2477 25.6096C90.2439 25.5307 90.21 25.4563 90.1531 25.4017C90.0962 25.347 90.0205 25.3163 89.9416 25.3157H78.1295C78.0553 25.3156 77.9836 25.3423 77.9276 25.3909C77.8716 25.4395 77.835 25.5068 77.8247 25.5802L76.642 38.4267C76.6192 38.5859 76.5399 38.7315 76.4184 38.8368C76.297 38.9422 76.1416 39.0002 75.9809 39.0001H75.215C75.0535 39.0001 74.8986 38.9359 74.7844 38.8217C74.6702 38.7074 74.6061 38.5524 74.6061 38.3908V25.3906C74.6058 25.3425 74.5946 25.2951 74.5735 25.2518C74.4302 24.9521 73.9014 23.5752 74.6061 20.7542C75.2574 18.1476 75.7458 18.1281 76.5599 18.1476C79.643 18.2213 88.2737 18.6911 89.952 18.7836C90.0297 18.7877 90.106 18.7617 90.1651 18.711C90.2242 18.6603 90.2614 18.5887 90.2692 18.5113C90.5082 16.4514 92.0328 3.96928 94.1443 1.85666C94.379 1.59967 94.6623 1.39182 94.9779 1.24512C95.2934 1.09843 95.6349 1.01581 95.9826 1.00206C96.3302 0.988299 96.6772 1.04367 97.0033 1.16498C97.3294 1.28628 97.6283 1.4711 97.8826 1.70874Z" stroke="url(#paint2_linear_1107_5561)" stroke-width="1.30328" stroke-linecap="round" stroke-linejoin="round"/>
<path d="M89.9112 25.3164H93.4932M74.2806 25.3164H78.8395" stroke="url(#paint3_linear_1107_5561)" stroke-width="1.30328" stroke-miterlimit="10"/>
<path d="M68.9637 18.7173L66.1693 8.94272C66.0556 8.53235 65.8105 8.17058 65.4717 7.91283C65.1329 7.65508 64.7189 7.51555 64.2932 7.51563H34.7069C33.8276 7.51563 33.0654 8.1021 32.8309 8.94272L30.0364 18.7173C29.6847 19.9489 30.6227 21.2001 31.9125 21.2001H36.2117L33.8666 38.7943H37.775L39.0843 29.0197H59.9354L61.2252 38.7943H65.1335L62.7885 21.2001H67.0877C68.3775 21.2001 69.3155 19.9489 68.9637 18.7173ZM39.5924 25.1099L40.12 21.2001H58.8802L59.4078 25.1099H39.5924Z" fill="url(#paint4_linear_1107_5561)"/>
<defs>
<linearGradient id="paint0_linear_1107_5561" x1="12.8759" y1="1" x2="12.8759" y2="39.0001" gradientUnits="userSpaceOnUse">
<stop stop-color="#C9C9C9"/>
<stop offset="1" stop-color="#B4B4B4"/>
</linearGradient>
<linearGradient id="paint1_linear_1107_5561" x1="15.1131" y1="25.3164" x2="15.1131" y2="26.3164" gradientUnits="userSpaceOnUse">
<stop stop-color="#C9C9C9"/>
<stop offset="1" stop-color="#B4B4B4"/>
</linearGradient>
<linearGradient id="paint2_linear_1107_5561" x1="86.1241" y1="1" x2="86.1241" y2="39.0001" gradientUnits="userSpaceOnUse">
<stop stop-color="#C9C9C9"/>
<stop offset="1" stop-color="#B4B4B4"/>
</linearGradient>
<linearGradient id="paint3_linear_1107_5561" x1="83.8869" y1="25.3164" x2="83.8869" y2="26.3164" gradientUnits="userSpaceOnUse">
<stop stop-color="#C9C9C9"/>
<stop offset="1" stop-color="#B4B4B4"/>
</linearGradient>
<linearGradient id="paint4_linear_1107_5561" x1="49.5001" y1="7.51562" x2="49.5001" y2="38.7943" gradientUnits="userSpaceOnUse">
<stop stop-color="#CDCDCD"/>
<stop offset="1" stop-color="#B4B4B4"/>
</linearGradient>
</defs>
</svg>
