<svg width="42" height="58" viewBox="0 0 42 58" fill="none" xmlns="http://www.w3.org/2000/svg">
<path d="M30.5466 34.2C32.1212 34.2 33.5068 33.298 34.2206 31.934L41.7365 15.656C41.9134 15.3225 42.0042 14.9464 41.9999 14.5649C41.9955 14.1834 41.8961 13.8097 41.7116 13.4808C41.5271 13.1519 41.2638 12.8791 40.9478 12.6896C40.6319 12.5 40.2741 12.4002 39.91 12.4H8.83857L6.86511 8H0V12.4H4.19884L11.7568 31.098L8.92254 36.466C7.38996 39.414 9.40541 43 12.5965 43H37.7896V38.6H12.5965L14.9059 34.2H30.5466ZM10.833 16.8H36.341L30.5466 29.8H15.8086L10.833 16.8ZM12.5965 45.2C10.2872 45.2 8.41868 47.18 8.41868 49.6C8.41868 52.02 10.2872 54 12.5965 54C14.9059 54 16.7954 52.02 16.7954 49.6C16.7954 47.18 14.9059 45.2 12.5965 45.2ZM33.5908 45.2C31.2814 45.2 29.4129 47.18 29.4129 49.6C29.4129 52.02 31.2814 54 33.5908 54C35.9001 54 37.7896 52.02 37.7896 49.6C37.7896 47.18 35.9001 45.2 33.5908 45.2Z" fill="#B3D9E2"/>
</svg>
