<svg width="42" height="58" viewBox="0 0 42 58" fill="none" xmlns="http://www.w3.org/2000/svg">
<path d="M24.3158 34.875V52.875H42V34.875H24.3158ZM28.7368 39.375H37.5789V48.375H28.7368V39.375ZM22.1053 9L9.94737 28.2155H34.2632L22.1053 9ZM22.1053 17.685L26.3495 23.7155H17.8611L22.1053 17.685ZM9.94737 32.75C4.42105 32.75 0 37.25 0 42.875C0 48.5 4.42105 53 9.94737 53C15.4737 53 19.8947 48.5 19.8947 42.875C19.8947 37.25 15.4737 32.75 9.94737 32.75ZM9.94737 37.25C11.413 37.25 12.8187 37.8426 13.8551 38.8975C14.8915 39.9524 15.4737 41.3832 15.4737 42.875C15.4737 44.3668 14.8915 45.7976 13.8551 46.8525C12.8187 47.9074 11.413 48.5 9.94737 48.5C8.4817 48.5 7.07606 47.9074 6.03967 46.8525C5.00329 45.7976 4.42105 44.3668 4.42105 42.875C4.42105 41.3832 5.00329 39.9524 6.03967 38.8975C7.07606 37.8426 8.4817 37.25 9.94737 37.25Z" fill="#FFCAFD"/>
</svg>
