<svg width="39" height="58" viewBox="0 0 39 58" fill="none" xmlns="http://www.w3.org/2000/svg">
<path d="M31.75 39L33.5 39L33.5 39L31.75 39ZM7.25 33.0219H9C9 32.3263 8.58805 31.6968 7.95065 31.4183L7.25 33.0219ZM31.75 33.0219L31.0493 31.4183C30.4119 31.6968 30 32.3263 30 33.0219L31.75 33.0219ZM25.625 19.75C25.625 20.7165 26.4085 21.5 27.375 21.5C28.3415 21.5 29.125 20.7165 29.125 19.75H25.625ZM9.875 19.75C9.875 20.7165 10.6585 21.5 11.625 21.5C12.5915 21.5 13.375 20.7165 13.375 19.75H9.875ZM10.75 14.5C4.95101 14.5 0.25 19.201 0.25 25H3.75C3.75 21.134 6.88401 18 10.75 18V14.5ZM28.25 18C32.116 18 35.25 21.134 35.25 25H38.75C38.75 19.201 34.049 14.5 28.25 14.5V18ZM24.75 44.25H14.25V47.75H24.75V44.25ZM14.25 44.25C12.5506 44.25 11.4521 44.2463 10.6427 44.1375C9.88369 44.0354 9.64578 43.8707 9.51256 43.7374L7.03769 46.2123C7.9296 47.1042 9.02921 47.452 10.1764 47.6063C11.2732 47.7537 12.6496 47.75 14.25 47.75V44.25ZM5.5 39C5.5 40.6004 5.49628 41.9768 5.64375 43.0736C5.79798 44.2208 6.14578 45.3204 7.03769 46.2123L9.51256 43.7374C9.37935 43.6042 9.21459 43.3663 9.11254 42.6073C9.00372 41.7979 9 40.6994 9 39H5.5ZM30 39C30 40.6994 29.9963 41.7979 29.8875 42.6073C29.7854 43.3663 29.6207 43.6042 29.4874 43.7374L31.9623 46.2123C32.8542 45.3204 33.202 44.2208 33.3563 43.0736C33.5037 41.9768 33.5 40.6004 33.5 39H30ZM24.75 47.75C26.3504 47.75 27.7268 47.7537 28.8236 47.6063C29.9708 47.452 31.0704 47.1042 31.9623 46.2123L29.4874 43.7374C29.3542 43.8707 29.1163 44.0354 28.3573 44.1375C27.5479 44.2463 26.4494 44.25 24.75 44.25V47.75ZM10.75 18C11.1025 18 11.4478 18.0259 11.7845 18.0757L12.2963 14.6133C11.7907 14.5386 11.2743 14.5 10.75 14.5V18ZM19.5 9.25C15.2635 9.25 11.6705 11.986 10.3831 15.7825L13.6977 16.9065C14.5181 14.4872 16.8085 12.75 19.5 12.75V9.25ZM10.3831 15.7825C10.0532 16.7553 9.875 17.7962 9.875 18.875H13.375C13.375 18.1834 13.4889 17.5221 13.6977 16.9065L10.3831 15.7825ZM28.25 14.5C27.7257 14.5 27.2093 14.5386 26.7037 14.6133L27.2155 18.0757C27.5522 18.0259 27.8975 18 28.25 18V14.5ZM19.5 12.75C22.1915 12.75 24.4819 14.4872 25.3023 16.9065L28.6169 15.7825C27.3295 11.986 23.7365 9.25 19.5 9.25V12.75ZM25.3023 16.9065C25.5111 17.5221 25.625 18.1834 25.625 18.875H29.125C29.125 17.7962 28.9468 16.7553 28.6169 15.7825L25.3023 16.9065ZM9 39V33.0219H5.5V39H9ZM7.95065 31.4183C5.47472 30.3365 3.75 27.8677 3.75 25H0.25C0.25 29.3084 2.84461 33.0069 6.54935 34.6255L7.95065 31.4183ZM30 33.0219L30 39L33.5 39L33.5 33.0219L30 33.0219ZM35.25 25C35.25 27.8677 33.5253 30.3365 31.0493 31.4183L32.4506 34.6255C36.1554 33.0069 38.75 29.3084 38.75 25H35.25ZM25.625 18.875V19.75H29.125V18.875H25.625ZM9.875 18.875V19.75H13.375V18.875H9.875Z" fill="#B3D9E2"/>
<path d="M14.25 39H24.75" stroke="#B3D9E2" stroke-width="3.5" stroke-linecap="round" stroke-linejoin="round"/>
</svg>
