<svg width="596" height="47" viewBox="0 0 596 47" fill="none" xmlns="http://www.w3.org/2000/svg">
<rect y="11" width="596" height="2" fill="#DDDDDD"/>
<rect y="11" width="338" height="2" fill="#9CDA9C"/>
<circle cx="28" cy="11" r="10" fill="#54BA54" stroke="white" stroke-width="2"/>
<path d="M24 10.6L26.2857 13L32 8" stroke="white" stroke-width="1.5" stroke-linecap="round" stroke-linejoin="round"/>
<path d="M2.06675 41C1.86142 41 1.70275 40.9487 1.59075 40.846C1.48808 40.734 1.43675 40.5753 1.43675 40.37V31.76C1.43675 31.5547 1.48808 31.4007 1.59075 31.298C1.70275 31.186 1.86142 31.13 2.06675 31.13H7.27475C7.43342 31.13 7.55475 31.172 7.63875 31.256C7.72275 31.34 7.76475 31.4567 7.76475 31.606C7.76475 31.7647 7.72275 31.886 7.63875 31.97C7.55475 32.054 7.43342 32.096 7.27475 32.096H2.55675V35.512H6.98075C7.13942 35.512 7.26075 35.554 7.34475 35.638C7.42875 35.7127 7.47075 35.8293 7.47075 35.988C7.47075 36.1467 7.42875 36.268 7.34475 36.352C7.26075 36.436 7.13942 36.478 6.98075 36.478H2.55675V40.034H7.27475C7.43342 40.034 7.55475 40.076 7.63875 40.16C7.72275 40.244 7.76475 40.3607 7.76475 40.51C7.76475 40.6687 7.72275 40.79 7.63875 40.874C7.55475 40.958 7.43342 41 7.27475 41H2.06675ZM10.0049 41.098C9.81819 41.098 9.67819 41.0467 9.58486 40.944C9.49153 40.8413 9.44486 40.6967 9.44486 40.51V34.672C9.44486 34.4853 9.49153 34.3453 9.58486 34.252C9.67819 34.1493 9.81353 34.098 9.99086 34.098C10.1682 34.098 10.3035 34.1493 10.3969 34.252C10.4995 34.3453 10.5509 34.4853 10.5509 34.672V35.876L10.3969 35.708C10.5929 35.1667 10.9102 34.7607 11.3489 34.49C11.7969 34.21 12.3102 34.07 12.8889 34.07C13.4302 34.07 13.8782 34.168 14.2329 34.364C14.5969 34.56 14.8675 34.8587 15.0449 35.26C15.2222 35.652 15.3109 36.1513 15.3109 36.758V40.51C15.3109 40.6967 15.2595 40.8413 15.1569 40.944C15.0635 41.0467 14.9282 41.098 14.7509 41.098C14.5642 41.098 14.4195 41.0467 14.3169 40.944C14.2235 40.8413 14.1769 40.6967 14.1769 40.51V36.828C14.1769 36.1933 14.0509 35.7313 13.7989 35.442C13.5562 35.1433 13.1642 34.994 12.6229 34.994C11.9975 34.994 11.4982 35.19 11.1249 35.582C10.7609 35.9647 10.5789 36.478 10.5789 37.122V40.51C10.5789 40.902 10.3875 41.098 10.0049 41.098ZM20.4119 43.646C19.9172 43.646 19.4319 43.5853 18.9559 43.464C18.4892 43.352 18.0646 43.17 17.6819 42.918C17.5699 42.8527 17.4952 42.7733 17.4579 42.68C17.4299 42.5867 17.4252 42.4933 17.4439 42.4C17.4626 42.316 17.5046 42.2367 17.5699 42.162C17.6352 42.0967 17.7099 42.0547 17.7939 42.036C17.8872 42.0173 17.9806 42.0313 18.0739 42.078C18.4846 42.33 18.8766 42.5027 19.2499 42.596C19.6232 42.6893 19.9919 42.736 20.3559 42.736C21.0186 42.736 21.5179 42.5587 21.8539 42.204C22.1992 41.8493 22.3719 41.336 22.3719 40.664V39.082H22.5119C22.3719 39.6233 22.0732 40.0527 21.6159 40.37C21.1679 40.6873 20.6406 40.846 20.0339 40.846C19.4086 40.846 18.8672 40.706 18.4099 40.426C17.9526 40.1367 17.5979 39.7353 17.3459 39.222C17.1032 38.7087 16.9819 38.116 16.9819 37.444C16.9819 36.94 17.0519 36.4827 17.1919 36.072C17.3319 35.652 17.5326 35.2973 17.7939 35.008C18.0646 34.7093 18.3866 34.4807 18.7599 34.322C19.1426 34.154 19.5672 34.07 20.0339 34.07C20.6499 34.07 21.1819 34.2287 21.6299 34.546C22.0779 34.854 22.3672 35.274 22.4979 35.806L22.3579 35.974V34.672C22.3579 34.4853 22.4046 34.3453 22.4979 34.252C22.6006 34.1493 22.7406 34.098 22.9179 34.098C23.1046 34.098 23.2446 34.1493 23.3379 34.252C23.4312 34.3453 23.4779 34.4853 23.4779 34.672V40.51C23.4779 41.546 23.2166 42.3253 22.6939 42.848C22.1806 43.38 21.4199 43.646 20.4119 43.646ZM20.2439 39.922C20.6826 39.922 21.0606 39.824 21.3779 39.628C21.6952 39.4227 21.9379 39.1333 22.1059 38.76C22.2832 38.3867 22.3719 37.948 22.3719 37.444C22.3719 36.688 22.1806 36.0907 21.7979 35.652C21.4152 35.204 20.8972 34.98 20.2439 34.98C19.8146 34.98 19.4412 35.0827 19.1239 35.288C18.8066 35.484 18.5592 35.7687 18.3819 36.142C18.2139 36.506 18.1299 36.94 18.1299 37.444C18.1299 38.2 18.3212 38.802 18.7039 39.25C19.0866 39.698 19.5999 39.922 20.2439 39.922ZM27.747 41.126C27.2803 41.126 26.8603 41.0373 26.487 40.86C26.123 40.6733 25.8337 40.4213 25.619 40.104C25.4043 39.7867 25.297 39.432 25.297 39.04C25.297 38.536 25.423 38.1393 25.675 37.85C25.9363 37.5607 26.361 37.3553 26.949 37.234C27.5463 37.1127 28.3583 37.052 29.385 37.052H30.015V37.794H29.399C28.643 37.794 28.0457 37.8313 27.607 37.906C27.1777 37.9713 26.8743 38.088 26.697 38.256C26.529 38.424 26.445 38.662 26.445 38.97C26.445 39.3527 26.5757 39.6653 26.837 39.908C27.1077 40.1507 27.4717 40.272 27.929 40.272C28.3023 40.272 28.629 40.1833 28.909 40.006C29.1983 39.8287 29.4223 39.586 29.581 39.278C29.749 38.97 29.833 38.6153 29.833 38.214V36.618C29.833 36.0393 29.7163 35.624 29.483 35.372C29.2497 35.1107 28.867 34.98 28.335 34.98C28.0083 34.98 27.6817 35.022 27.355 35.106C27.0283 35.19 26.683 35.3253 26.319 35.512C26.1883 35.5773 26.0763 35.6007 25.983 35.582C25.8897 35.554 25.815 35.5027 25.759 35.428C25.703 35.3533 25.6703 35.2693 25.661 35.176C25.6517 35.0733 25.6703 34.9753 25.717 34.882C25.773 34.7887 25.857 34.714 25.969 34.658C26.3797 34.4527 26.7857 34.3033 27.187 34.21C27.5883 34.1167 27.971 34.07 28.335 34.07C28.923 34.07 29.4083 34.168 29.791 34.364C30.1737 34.5507 30.4583 34.84 30.645 35.232C30.8317 35.6147 30.925 36.1093 30.925 36.716V40.51C30.925 40.6967 30.8783 40.8413 30.785 40.944C30.701 41.0467 30.575 41.098 30.407 41.098C30.2297 41.098 30.0943 41.0467 30.001 40.944C29.9077 40.8413 29.861 40.6967 29.861 40.51V39.418H29.987C29.9123 39.7727 29.7677 40.076 29.553 40.328C29.3477 40.58 29.091 40.776 28.783 40.916C28.475 41.056 28.1297 41.126 27.747 41.126ZM36.0388 43.646C35.5442 43.646 35.0588 43.5853 34.5828 43.464C34.1162 43.352 33.6915 43.17 33.3088 42.918C33.1968 42.8527 33.1222 42.7733 33.0848 42.68C33.0568 42.5867 33.0522 42.4933 33.0708 42.4C33.0895 42.316 33.1315 42.2367 33.1968 42.162C33.2622 42.0967 33.3368 42.0547 33.4208 42.036C33.5142 42.0173 33.6075 42.0313 33.7008 42.078C34.1115 42.33 34.5035 42.5027 34.8768 42.596C35.2502 42.6893 35.6188 42.736 35.9828 42.736C36.6455 42.736 37.1448 42.5587 37.4808 42.204C37.8262 41.8493 37.9988 41.336 37.9988 40.664V39.082H38.1388C37.9988 39.6233 37.7002 40.0527 37.2428 40.37C36.7948 40.6873 36.2675 40.846 35.6608 40.846C35.0355 40.846 34.4942 40.706 34.0368 40.426C33.5795 40.1367 33.2248 39.7353 32.9728 39.222C32.7302 38.7087 32.6088 38.116 32.6088 37.444C32.6088 36.94 32.6788 36.4827 32.8188 36.072C32.9588 35.652 33.1595 35.2973 33.4208 35.008C33.6915 34.7093 34.0135 34.4807 34.3868 34.322C34.7695 34.154 35.1942 34.07 35.6608 34.07C36.2768 34.07 36.8088 34.2287 37.2568 34.546C37.7048 34.854 37.9942 35.274 38.1248 35.806L37.9848 35.974V34.672C37.9848 34.4853 38.0315 34.3453 38.1248 34.252C38.2275 34.1493 38.3675 34.098 38.5448 34.098C38.7315 34.098 38.8715 34.1493 38.9648 34.252C39.0582 34.3453 39.1048 34.4853 39.1048 34.672V40.51C39.1048 41.546 38.8435 42.3253 38.3208 42.848C37.8075 43.38 37.0468 43.646 36.0388 43.646ZM35.8708 39.922C36.3095 39.922 36.6875 39.824 37.0048 39.628C37.3222 39.4227 37.5648 39.1333 37.7328 38.76C37.9102 38.3867 37.9988 37.948 37.9988 37.444C37.9988 36.688 37.8075 36.0907 37.4248 35.652C37.0422 35.204 36.5242 34.98 35.8708 34.98C35.4415 34.98 35.0682 35.0827 34.7508 35.288C34.4335 35.484 34.1862 35.7687 34.0088 36.142C33.8408 36.506 33.7568 36.94 33.7568 37.444C33.7568 38.2 33.9482 38.802 34.3308 39.25C34.7135 39.698 35.2268 39.922 35.8708 39.922ZM44.298 41.126C43.5793 41.126 42.9586 40.986 42.436 40.706C41.9226 40.4167 41.5213 40.0107 41.232 39.488C40.952 38.9653 40.812 38.34 40.812 37.612C40.812 36.9027 40.952 36.2867 41.232 35.764C41.512 35.232 41.8946 34.8167 42.38 34.518C42.8746 34.2193 43.444 34.07 44.088 34.07C44.5453 34.07 44.956 34.1493 45.32 34.308C45.684 34.4573 45.992 34.6767 46.244 34.966C46.5053 35.2553 46.7013 35.6053 46.832 36.016C46.972 36.4267 47.042 36.8887 47.042 37.402C47.042 37.5513 47 37.6633 46.916 37.738C46.832 37.8033 46.7106 37.836 46.552 37.836H41.68V37.094H46.286L46.062 37.276C46.062 36.772 45.9873 36.3473 45.838 36.002C45.6886 35.6473 45.4693 35.3767 45.18 35.19C44.9 35.0033 44.5453 34.91 44.116 34.91C43.64 34.91 43.234 35.022 42.898 35.246C42.5713 35.4607 42.324 35.764 42.156 36.156C41.988 36.5387 41.904 36.9867 41.904 37.5V37.584C41.904 38.4427 42.1093 39.096 42.52 39.544C42.94 39.992 43.5326 40.216 44.298 40.216C44.6153 40.216 44.928 40.174 45.236 40.09C45.5533 40.006 45.8613 39.866 46.16 39.67C46.2906 39.586 46.4073 39.5487 46.51 39.558C46.622 39.558 46.7106 39.5907 46.776 39.656C46.8413 39.712 46.8833 39.7867 46.902 39.88C46.93 39.964 46.9206 40.0573 46.874 40.16C46.8366 40.2627 46.7573 40.3513 46.636 40.426C46.328 40.65 45.964 40.8227 45.544 40.944C45.124 41.0653 44.7086 41.126 44.298 41.126ZM51.2731 41.126C50.6665 41.126 50.1345 40.9813 49.6771 40.692C49.2291 40.4027 48.8791 39.9967 48.6271 39.474C48.3845 38.942 48.2631 38.3167 48.2631 37.598C48.2631 36.87 48.3845 36.2447 48.6271 35.722C48.8791 35.19 49.2291 34.784 49.6771 34.504C50.1345 34.2147 50.6665 34.07 51.2731 34.07C51.8891 34.07 52.4165 34.224 52.8551 34.532C53.2938 34.84 53.5878 35.2553 53.7371 35.778H53.5831V31.606C53.5831 31.4193 53.6298 31.2793 53.7231 31.186C53.8258 31.0833 53.9705 31.032 54.1571 31.032C54.3345 31.032 54.4698 31.0833 54.5631 31.186C54.6658 31.2793 54.7171 31.4193 54.7171 31.606V40.51C54.7171 40.6967 54.6705 40.8413 54.5771 40.944C54.4838 41.0467 54.3438 41.098 54.1571 41.098C53.9798 41.098 53.8398 41.0467 53.7371 40.944C53.6438 40.8413 53.5971 40.6967 53.5971 40.51V39.18L53.7511 39.376C53.6018 39.908 53.3031 40.3327 52.8551 40.65C52.4165 40.9673 51.8891 41.126 51.2731 41.126ZM51.5111 40.216C51.9311 40.216 52.2998 40.1133 52.6171 39.908C52.9345 39.7027 53.1771 39.404 53.3451 39.012C53.5225 38.62 53.6111 38.1487 53.6111 37.598C53.6111 36.7487 53.4198 36.1 53.0371 35.652C52.6638 35.204 52.1551 34.98 51.5111 34.98C51.0818 34.98 50.7085 35.0827 50.3911 35.288C50.0831 35.484 49.8405 35.778 49.6631 36.17C49.4951 36.5527 49.4111 37.0287 49.4111 37.598C49.4111 38.438 49.6025 39.0867 49.9851 39.544C50.3678 39.992 50.8765 40.216 51.5111 40.216Z" fill="#555555"/>
<circle cx="176.5" cy="11" r="10" fill="#54BA54" stroke="white" stroke-width="2"/>
<path d="M172.5 10.6L174.786 13L180.5 8" stroke="white" stroke-width="1.5" stroke-linecap="round" stroke-linejoin="round"/>
<path d="M129.238 41.098C129.042 41.098 128.888 41.0467 128.776 40.944C128.674 40.832 128.622 40.6733 128.622 40.468V31.76C128.622 31.5547 128.674 31.4007 128.776 31.298C128.888 31.186 129.047 31.13 129.252 31.13H134.334C134.493 31.13 134.614 31.172 134.698 31.256C134.782 31.34 134.824 31.4567 134.824 31.606C134.824 31.7647 134.782 31.886 134.698 31.97C134.614 32.054 134.493 32.096 134.334 32.096H129.77V35.54H134.04C134.199 35.54 134.32 35.582 134.404 35.666C134.498 35.75 134.544 35.8667 134.544 36.016C134.544 36.1747 134.498 36.296 134.404 36.38C134.32 36.464 134.199 36.506 134.04 36.506H129.77V40.468C129.77 40.888 129.593 41.098 129.238 41.098ZM138.706 41.126C138.044 41.126 137.47 40.9813 136.984 40.692C136.499 40.4027 136.121 39.9967 135.85 39.474C135.589 38.942 135.458 38.3167 135.458 37.598C135.458 37.0567 135.533 36.5713 135.682 36.142C135.832 35.7033 136.051 35.33 136.34 35.022C136.63 34.714 136.97 34.4807 137.362 34.322C137.764 34.154 138.212 34.07 138.706 34.07C139.369 34.07 139.943 34.2147 140.428 34.504C140.914 34.7933 141.287 35.204 141.548 35.736C141.819 36.2587 141.954 36.8793 141.954 37.598C141.954 38.1393 141.88 38.6247 141.73 39.054C141.581 39.4833 141.362 39.8567 141.072 40.174C140.783 40.482 140.438 40.72 140.036 40.888C139.644 41.0467 139.201 41.126 138.706 41.126ZM138.706 40.216C139.126 40.216 139.495 40.1133 139.812 39.908C140.13 39.7027 140.372 39.404 140.54 39.012C140.718 38.62 140.806 38.1487 140.806 37.598C140.806 36.7487 140.615 36.1 140.232 35.652C139.859 35.204 139.35 34.98 138.706 34.98C138.277 34.98 137.904 35.0827 137.586 35.288C137.278 35.484 137.036 35.778 136.858 36.17C136.69 36.5527 136.606 37.0287 136.606 37.598C136.606 38.438 136.798 39.0867 137.18 39.544C137.563 39.992 138.072 40.216 138.706 40.216ZM146.486 41.126C145.823 41.126 145.249 40.9813 144.764 40.692C144.278 40.4027 143.9 39.9967 143.63 39.474C143.368 38.942 143.238 38.3167 143.238 37.598C143.238 37.0567 143.312 36.5713 143.462 36.142C143.611 35.7033 143.83 35.33 144.12 35.022C144.409 34.714 144.75 34.4807 145.142 34.322C145.543 34.154 145.991 34.07 146.486 34.07C147.148 34.07 147.722 34.2147 148.208 34.504C148.693 34.7933 149.066 35.204 149.328 35.736C149.598 36.2587 149.734 36.8793 149.734 37.598C149.734 38.1393 149.659 38.6247 149.51 39.054C149.36 39.4833 149.141 39.8567 148.852 40.174C148.562 40.482 148.217 40.72 147.816 40.888C147.424 41.0467 146.98 41.126 146.486 41.126ZM146.486 40.216C146.906 40.216 147.274 40.1133 147.592 39.908C147.909 39.7027 148.152 39.404 148.32 39.012C148.497 38.62 148.586 38.1487 148.586 37.598C148.586 36.7487 148.394 36.1 148.012 35.652C147.638 35.204 147.13 34.98 146.486 34.98C146.056 34.98 145.683 35.0827 145.366 35.288C145.058 35.484 144.815 35.778 144.638 36.17C144.47 36.5527 144.386 37.0287 144.386 37.598C144.386 38.438 144.577 39.0867 144.96 39.544C145.342 39.992 145.851 40.216 146.486 40.216ZM154.027 41.126C153.42 41.126 152.888 40.9813 152.431 40.692C151.983 40.4027 151.633 39.9967 151.381 39.474C151.138 38.942 151.017 38.3167 151.017 37.598C151.017 36.87 151.138 36.2447 151.381 35.722C151.633 35.19 151.983 34.784 152.431 34.504C152.888 34.2147 153.42 34.07 154.027 34.07C154.643 34.07 155.17 34.224 155.609 34.532C156.048 34.84 156.342 35.2553 156.491 35.778H156.337V31.606C156.337 31.4193 156.384 31.2793 156.477 31.186C156.58 31.0833 156.724 31.032 156.911 31.032C157.088 31.032 157.224 31.0833 157.317 31.186C157.42 31.2793 157.471 31.4193 157.471 31.606V40.51C157.471 40.6967 157.424 40.8413 157.331 40.944C157.238 41.0467 157.098 41.098 156.911 41.098C156.734 41.098 156.594 41.0467 156.491 40.944C156.398 40.8413 156.351 40.6967 156.351 40.51V39.18L156.505 39.376C156.356 39.908 156.057 40.3327 155.609 40.65C155.17 40.9673 154.643 41.126 154.027 41.126ZM154.265 40.216C154.685 40.216 155.054 40.1133 155.371 39.908C155.688 39.7027 155.931 39.404 156.099 39.012C156.276 38.62 156.365 38.1487 156.365 37.598C156.365 36.7487 156.174 36.1 155.791 35.652C155.418 35.204 154.909 34.98 154.265 34.98C153.836 34.98 153.462 35.0827 153.145 35.288C152.837 35.484 152.594 35.778 152.417 36.17C152.249 36.5527 152.165 37.0287 152.165 37.598C152.165 38.438 152.356 39.0867 152.739 39.544C153.122 39.992 153.63 40.216 154.265 40.216ZM165.351 41.126C164.884 41.126 164.464 41.0373 164.091 40.86C163.727 40.6733 163.437 40.4213 163.223 40.104C163.008 39.7867 162.901 39.432 162.901 39.04C162.901 38.536 163.027 38.1393 163.279 37.85C163.54 37.5607 163.965 37.3553 164.553 37.234C165.15 37.1127 165.962 37.052 166.989 37.052H167.619V37.794H167.003C166.247 37.794 165.649 37.8313 165.211 37.906C164.781 37.9713 164.478 38.088 164.301 38.256C164.133 38.424 164.049 38.662 164.049 38.97C164.049 39.3527 164.179 39.6653 164.441 39.908C164.711 40.1507 165.075 40.272 165.533 40.272C165.906 40.272 166.233 40.1833 166.513 40.006C166.802 39.8287 167.026 39.586 167.185 39.278C167.353 38.97 167.437 38.6153 167.437 38.214V36.618C167.437 36.0393 167.32 35.624 167.087 35.372C166.853 35.1107 166.471 34.98 165.939 34.98C165.612 34.98 165.285 35.022 164.959 35.106C164.632 35.19 164.287 35.3253 163.923 35.512C163.792 35.5773 163.68 35.6007 163.587 35.582C163.493 35.554 163.419 35.5027 163.363 35.428C163.307 35.3533 163.274 35.2693 163.265 35.176C163.255 35.0733 163.274 34.9753 163.321 34.882C163.377 34.7887 163.461 34.714 163.573 34.658C163.983 34.4527 164.389 34.3033 164.791 34.21C165.192 34.1167 165.575 34.07 165.939 34.07C166.527 34.07 167.012 34.168 167.395 34.364C167.777 34.5507 168.062 34.84 168.249 35.232C168.435 35.6147 168.529 36.1093 168.529 36.716V40.51C168.529 40.6967 168.482 40.8413 168.389 40.944C168.305 41.0467 168.179 41.098 168.011 41.098C167.833 41.098 167.698 41.0467 167.605 40.944C167.511 40.8413 167.465 40.6967 167.465 40.51V39.418H167.591C167.516 39.7727 167.371 40.076 167.157 40.328C166.951 40.58 166.695 40.776 166.387 40.916C166.079 41.056 165.733 41.126 165.351 41.126ZM171.192 41.098C171.006 41.098 170.866 41.0467 170.772 40.944C170.679 40.8413 170.632 40.6967 170.632 40.51V34.672C170.632 34.4853 170.679 34.3453 170.772 34.252C170.866 34.1493 171.001 34.098 171.178 34.098C171.356 34.098 171.491 34.1493 171.584 34.252C171.687 34.3453 171.738 34.4853 171.738 34.672V35.876L171.584 35.708C171.78 35.1667 172.098 34.7607 172.536 34.49C172.984 34.21 173.498 34.07 174.076 34.07C174.618 34.07 175.066 34.168 175.42 34.364C175.784 34.56 176.055 34.8587 176.232 35.26C176.41 35.652 176.498 36.1513 176.498 36.758V40.51C176.498 40.6967 176.447 40.8413 176.344 40.944C176.251 41.0467 176.116 41.098 175.938 41.098C175.752 41.098 175.607 41.0467 175.504 40.944C175.411 40.8413 175.364 40.6967 175.364 40.51V36.828C175.364 36.1933 175.238 35.7313 174.986 35.442C174.744 35.1433 174.352 34.994 173.81 34.994C173.185 34.994 172.686 35.19 172.312 35.582C171.948 35.9647 171.766 36.478 171.766 37.122V40.51C171.766 40.902 171.575 41.098 171.192 41.098ZM181.179 41.126C180.573 41.126 180.041 40.9813 179.583 40.692C179.135 40.4027 178.785 39.9967 178.533 39.474C178.291 38.942 178.169 38.3167 178.169 37.598C178.169 36.87 178.291 36.2447 178.533 35.722C178.785 35.19 179.135 34.784 179.583 34.504C180.041 34.2147 180.573 34.07 181.179 34.07C181.795 34.07 182.323 34.224 182.761 34.532C183.2 34.84 183.494 35.2553 183.643 35.778H183.489V31.606C183.489 31.4193 183.536 31.2793 183.629 31.186C183.732 31.0833 183.877 31.032 184.063 31.032C184.241 31.032 184.376 31.0833 184.469 31.186C184.572 31.2793 184.623 31.4193 184.623 31.606V40.51C184.623 40.6967 184.577 40.8413 184.483 40.944C184.39 41.0467 184.25 41.098 184.063 41.098C183.886 41.098 183.746 41.0467 183.643 40.944C183.55 40.8413 183.503 40.6967 183.503 40.51V39.18L183.657 39.376C183.508 39.908 183.209 40.3327 182.761 40.65C182.323 40.9673 181.795 41.126 181.179 41.126ZM181.417 40.216C181.837 40.216 182.206 40.1133 182.523 39.908C182.841 39.7027 183.083 39.404 183.251 39.012C183.429 38.62 183.517 38.1487 183.517 37.598C183.517 36.7487 183.326 36.1 182.943 35.652C182.57 35.204 182.061 34.98 181.417 34.98C180.988 34.98 180.615 35.0827 180.297 35.288C179.989 35.484 179.747 35.778 179.569 36.17C179.401 36.5527 179.317 37.0287 179.317 37.598C179.317 38.438 179.509 39.0867 179.891 39.544C180.274 39.992 180.783 40.216 181.417 40.216ZM194.659 41.126C193.744 41.126 192.946 40.9207 192.265 40.51C191.593 40.09 191.07 39.502 190.697 38.746C190.333 37.99 190.151 37.094 190.151 36.058C190.151 35.274 190.254 34.574 190.459 33.958C190.674 33.3327 190.977 32.8053 191.369 32.376C191.761 31.9373 192.232 31.6013 192.783 31.368C193.343 31.1253 193.968 31.004 194.659 31.004C195.592 31.004 196.395 31.2093 197.067 31.62C197.748 32.0307 198.271 32.614 198.635 33.37C199.008 34.1167 199.195 35.008 199.195 36.044C199.195 36.828 199.088 37.5327 198.873 38.158C198.658 38.7833 198.355 39.3153 197.963 39.754C197.571 40.1927 197.095 40.5333 196.535 40.776C195.984 41.0093 195.359 41.126 194.659 41.126ZM194.659 40.104C195.368 40.104 195.966 39.9453 196.451 39.628C196.946 39.3107 197.324 38.8487 197.585 38.242C197.846 37.6353 197.977 36.9073 197.977 36.058C197.977 34.7793 197.688 33.79 197.109 33.09C196.54 32.3807 195.723 32.026 194.659 32.026C193.968 32.026 193.376 32.1847 192.881 32.502C192.396 32.8193 192.022 33.2813 191.761 33.888C191.5 34.4853 191.369 35.2087 191.369 36.058C191.369 37.3273 191.658 38.3213 192.237 39.04C192.816 39.7493 193.623 40.104 194.659 40.104ZM201.667 41.098C201.481 41.098 201.336 41.0467 201.233 40.944C201.14 40.8413 201.093 40.6967 201.093 40.51V34.672C201.093 34.4853 201.14 34.3453 201.233 34.252C201.327 34.1493 201.462 34.098 201.639 34.098C201.817 34.098 201.952 34.1493 202.045 34.252C202.148 34.3453 202.199 34.4853 202.199 34.672V35.806H202.059C202.209 35.2553 202.493 34.8307 202.913 34.532C203.333 34.2333 203.851 34.0747 204.467 34.056C204.607 34.0467 204.719 34.0793 204.803 34.154C204.887 34.2193 204.934 34.336 204.943 34.504C204.953 34.6627 204.915 34.7887 204.831 34.882C204.747 34.9753 204.617 35.0313 204.439 35.05L204.215 35.078C203.581 35.134 203.091 35.3393 202.745 35.694C202.409 36.0393 202.241 36.5153 202.241 37.122V40.51C202.241 40.6967 202.19 40.8413 202.087 40.944C201.994 41.0467 201.854 41.098 201.667 41.098ZM208.619 41.126C208.012 41.126 207.48 40.9813 207.023 40.692C206.575 40.4027 206.225 39.9967 205.973 39.474C205.73 38.942 205.609 38.3167 205.609 37.598C205.609 36.87 205.73 36.2447 205.973 35.722C206.225 35.19 206.575 34.784 207.023 34.504C207.48 34.2147 208.012 34.07 208.619 34.07C209.235 34.07 209.762 34.224 210.201 34.532C210.64 34.84 210.934 35.2553 211.083 35.778H210.929V31.606C210.929 31.4193 210.976 31.2793 211.069 31.186C211.172 31.0833 211.316 31.032 211.503 31.032C211.68 31.032 211.816 31.0833 211.909 31.186C212.012 31.2793 212.063 31.4193 212.063 31.606V40.51C212.063 40.6967 212.016 40.8413 211.923 40.944C211.83 41.0467 211.69 41.098 211.503 41.098C211.326 41.098 211.186 41.0467 211.083 40.944C210.99 40.8413 210.943 40.6967 210.943 40.51V39.18L211.097 39.376C210.948 39.908 210.649 40.3327 210.201 40.65C209.762 40.9673 209.235 41.126 208.619 41.126ZM208.857 40.216C209.277 40.216 209.646 40.1133 209.963 39.908C210.28 39.7027 210.523 39.404 210.691 39.012C210.868 38.62 210.957 38.1487 210.957 37.598C210.957 36.7487 210.766 36.1 210.383 35.652C210.01 35.204 209.501 34.98 208.857 34.98C208.428 34.98 208.054 35.0827 207.737 35.288C207.429 35.484 207.186 35.778 207.009 36.17C206.841 36.5527 206.757 37.0287 206.757 37.598C206.757 38.438 206.948 39.0867 207.331 39.544C207.714 39.992 208.222 40.216 208.857 40.216ZM217.257 41.126C216.538 41.126 215.918 40.986 215.395 40.706C214.882 40.4167 214.48 40.0107 214.191 39.488C213.911 38.9653 213.771 38.34 213.771 37.612C213.771 36.9027 213.911 36.2867 214.191 35.764C214.471 35.232 214.854 34.8167 215.339 34.518C215.834 34.2193 216.403 34.07 217.047 34.07C217.504 34.07 217.915 34.1493 218.279 34.308C218.643 34.4573 218.951 34.6767 219.203 34.966C219.464 35.2553 219.66 35.6053 219.791 36.016C219.931 36.4267 220.001 36.8887 220.001 37.402C220.001 37.5513 219.959 37.6633 219.875 37.738C219.791 37.8033 219.67 37.836 219.511 37.836H214.639V37.094H219.245L219.021 37.276C219.021 36.772 218.946 36.3473 218.797 36.002C218.648 35.6473 218.428 35.3767 218.139 35.19C217.859 35.0033 217.504 34.91 217.075 34.91C216.599 34.91 216.193 35.022 215.857 35.246C215.53 35.4607 215.283 35.764 215.115 36.156C214.947 36.5387 214.863 36.9867 214.863 37.5V37.584C214.863 38.4427 215.068 39.096 215.479 39.544C215.899 39.992 216.492 40.216 217.257 40.216C217.574 40.216 217.887 40.174 218.195 40.09C218.512 40.006 218.82 39.866 219.119 39.67C219.25 39.586 219.366 39.5487 219.469 39.558C219.581 39.558 219.67 39.5907 219.735 39.656C219.8 39.712 219.842 39.7867 219.861 39.88C219.889 39.964 219.88 40.0573 219.833 40.16C219.796 40.2627 219.716 40.3513 219.595 40.426C219.287 40.65 218.923 40.8227 218.503 40.944C218.083 41.0653 217.668 41.126 217.257 41.126ZM222.216 41.098C222.029 41.098 221.885 41.0467 221.782 40.944C221.689 40.8413 221.642 40.6967 221.642 40.51V34.672C221.642 34.4853 221.689 34.3453 221.782 34.252C221.875 34.1493 222.011 34.098 222.188 34.098C222.365 34.098 222.501 34.1493 222.594 34.252C222.697 34.3453 222.748 34.4853 222.748 34.672V35.806H222.608C222.757 35.2553 223.042 34.8307 223.462 34.532C223.882 34.2333 224.4 34.0747 225.016 34.056C225.156 34.0467 225.268 34.0793 225.352 34.154C225.436 34.2193 225.483 34.336 225.492 34.504C225.501 34.6627 225.464 34.7887 225.38 34.882C225.296 34.9753 225.165 35.0313 224.988 35.05L224.764 35.078C224.129 35.134 223.639 35.3393 223.294 35.694C222.958 36.0393 222.79 36.5153 222.79 37.122V40.51C222.79 40.6967 222.739 40.8413 222.636 40.944C222.543 41.0467 222.403 41.098 222.216 41.098Z" fill="#555555"/>
<circle cx="351" cy="11" r="11" fill="#D9D9D9"/>
<circle cx="351" cy="11" r="9" fill="url(#paint0_radial_3480_10162)"/>
<rect x="338" y="11" width="2" height="2" fill="white"/>
<rect x="362" y="11" width="2" height="2" fill="white"/>
<path d="M299.288 41C299.083 41 298.924 40.9487 298.812 40.846C298.71 40.734 298.658 40.5753 298.658 40.37V31.76C298.658 31.5547 298.71 31.4007 298.812 31.298C298.924 31.186 299.083 31.13 299.288 31.13H302.606C303.288 31.13 303.862 31.2327 304.328 31.438C304.804 31.634 305.168 31.9233 305.42 32.306C305.672 32.6887 305.798 33.1553 305.798 33.706C305.798 34.322 305.616 34.8353 305.252 35.246C304.898 35.6567 304.412 35.9273 303.796 36.058V35.862C304.496 35.946 305.042 36.198 305.434 36.618C305.836 37.038 306.036 37.5933 306.036 38.284C306.036 39.1613 305.752 39.8333 305.182 40.3C304.613 40.7667 303.81 41 302.774 41H299.288ZM299.778 40.076H302.662C303.409 40.076 303.969 39.9267 304.342 39.628C304.716 39.3293 304.902 38.8767 304.902 38.27C304.902 37.654 304.716 37.2013 304.342 36.912C303.969 36.6133 303.409 36.464 302.662 36.464H299.778V40.076ZM299.778 35.54H302.438C303.166 35.54 303.717 35.3907 304.09 35.092C304.473 34.7933 304.664 34.364 304.664 33.804C304.664 33.2253 304.473 32.7913 304.09 32.502C303.717 32.2033 303.166 32.054 302.438 32.054H299.778V35.54ZM308.525 41.07C308.339 41.07 308.199 41.0187 308.105 40.916C308.012 40.804 307.965 40.65 307.965 40.454V34.728C307.965 34.532 308.012 34.3827 308.105 34.28C308.199 34.1773 308.339 34.126 308.525 34.126C308.703 34.126 308.843 34.1773 308.945 34.28C309.048 34.3827 309.099 34.532 309.099 34.728V40.454C309.099 40.65 309.048 40.804 308.945 40.916C308.852 41.0187 308.712 41.07 308.525 41.07ZM308.525 32.558C308.292 32.558 308.11 32.4973 307.979 32.376C307.849 32.2453 307.783 32.0727 307.783 31.858C307.783 31.634 307.849 31.466 307.979 31.354C308.11 31.2327 308.292 31.172 308.525 31.172C308.768 31.172 308.95 31.2327 309.071 31.354C309.202 31.466 309.267 31.634 309.267 31.858C309.267 32.0727 309.202 32.2453 309.071 32.376C308.95 32.4973 308.768 32.558 308.525 32.558ZM313.291 41.126C312.619 41.126 312.106 40.9207 311.751 40.51C311.397 40.0993 311.219 39.5113 311.219 38.746V31.606C311.219 31.4193 311.266 31.2793 311.359 31.186C311.453 31.0833 311.593 31.032 311.779 31.032C311.957 31.032 312.097 31.0833 312.199 31.186C312.302 31.2793 312.353 31.4193 312.353 31.606V38.662C312.353 39.166 312.451 39.544 312.647 39.796C312.853 40.0387 313.151 40.16 313.543 40.16C313.627 40.16 313.702 40.1553 313.767 40.146C313.833 40.1367 313.898 40.132 313.963 40.132C314.066 40.1227 314.136 40.146 314.173 40.202C314.22 40.258 314.243 40.37 314.243 40.538C314.243 40.706 314.206 40.832 314.131 40.916C314.057 41 313.935 41.056 313.767 41.084C313.693 41.0933 313.613 41.1027 313.529 41.112C313.445 41.1213 313.366 41.126 313.291 41.126ZM317.434 41.126C316.762 41.126 316.249 40.9207 315.894 40.51C315.539 40.0993 315.362 39.5113 315.362 38.746V31.606C315.362 31.4193 315.409 31.2793 315.502 31.186C315.595 31.0833 315.735 31.032 315.922 31.032C316.099 31.032 316.239 31.0833 316.342 31.186C316.445 31.2793 316.496 31.4193 316.496 31.606V38.662C316.496 39.166 316.594 39.544 316.79 39.796C316.995 40.0387 317.294 40.16 317.686 40.16C317.77 40.16 317.845 40.1553 317.91 40.146C317.975 40.1367 318.041 40.132 318.106 40.132C318.209 40.1227 318.279 40.146 318.316 40.202C318.363 40.258 318.386 40.37 318.386 40.538C318.386 40.706 318.349 40.832 318.274 40.916C318.199 41 318.078 41.056 317.91 41.084C317.835 41.0933 317.756 41.1027 317.672 41.112C317.588 41.1213 317.509 41.126 317.434 41.126ZM325.256 41.126C324.789 41.126 324.369 41.0373 323.996 40.86C323.632 40.6733 323.342 40.4213 323.128 40.104C322.913 39.7867 322.806 39.432 322.806 39.04C322.806 38.536 322.932 38.1393 323.184 37.85C323.445 37.5607 323.87 37.3553 324.458 37.234C325.055 37.1127 325.867 37.052 326.894 37.052H327.524V37.794H326.908C326.152 37.794 325.554 37.8313 325.116 37.906C324.686 37.9713 324.383 38.088 324.206 38.256C324.038 38.424 323.954 38.662 323.954 38.97C323.954 39.3527 324.084 39.6653 324.346 39.908C324.616 40.1507 324.98 40.272 325.438 40.272C325.811 40.272 326.138 40.1833 326.418 40.006C326.707 39.8287 326.931 39.586 327.09 39.278C327.258 38.97 327.342 38.6153 327.342 38.214V36.618C327.342 36.0393 327.225 35.624 326.992 35.372C326.758 35.1107 326.376 34.98 325.844 34.98C325.517 34.98 325.19 35.022 324.864 35.106C324.537 35.19 324.192 35.3253 323.828 35.512C323.697 35.5773 323.585 35.6007 323.492 35.582C323.398 35.554 323.324 35.5027 323.268 35.428C323.212 35.3533 323.179 35.2693 323.17 35.176C323.16 35.0733 323.179 34.9753 323.226 34.882C323.282 34.7887 323.366 34.714 323.478 34.658C323.888 34.4527 324.294 34.3033 324.696 34.21C325.097 34.1167 325.48 34.07 325.844 34.07C326.432 34.07 326.917 34.168 327.3 34.364C327.682 34.5507 327.967 34.84 328.154 35.232C328.34 35.6147 328.434 36.1093 328.434 36.716V40.51C328.434 40.6967 328.387 40.8413 328.294 40.944C328.21 41.0467 328.084 41.098 327.916 41.098C327.738 41.098 327.603 41.0467 327.51 40.944C327.416 40.8413 327.37 40.6967 327.37 40.51V39.418H327.496C327.421 39.7727 327.276 40.076 327.062 40.328C326.856 40.58 326.6 40.776 326.292 40.916C325.984 41.056 325.638 41.126 325.256 41.126ZM331.098 41.098C330.911 41.098 330.771 41.0467 330.678 40.944C330.584 40.8413 330.538 40.6967 330.538 40.51V34.672C330.538 34.4853 330.584 34.3453 330.678 34.252C330.771 34.1493 330.906 34.098 331.084 34.098C331.261 34.098 331.396 34.1493 331.49 34.252C331.592 34.3453 331.644 34.4853 331.644 34.672V35.876L331.49 35.708C331.686 35.1667 332.003 34.7607 332.442 34.49C332.89 34.21 333.403 34.07 333.982 34.07C334.523 34.07 334.971 34.168 335.326 34.364C335.69 34.56 335.96 34.8587 336.138 35.26C336.315 35.652 336.404 36.1513 336.404 36.758V40.51C336.404 40.6967 336.352 40.8413 336.25 40.944C336.156 41.0467 336.021 41.098 335.844 41.098C335.657 41.098 335.512 41.0467 335.41 40.944C335.316 40.8413 335.27 40.6967 335.27 40.51V36.828C335.27 36.1933 335.144 35.7313 334.892 35.442C334.649 35.1433 334.257 34.994 333.716 34.994C333.09 34.994 332.591 35.19 332.218 35.582C331.854 35.9647 331.672 36.478 331.672 37.122V40.51C331.672 40.902 331.48 41.098 331.098 41.098ZM341.085 41.126C340.478 41.126 339.946 40.9813 339.489 40.692C339.041 40.4027 338.691 39.9967 338.439 39.474C338.196 38.942 338.075 38.3167 338.075 37.598C338.075 36.87 338.196 36.2447 338.439 35.722C338.691 35.19 339.041 34.784 339.489 34.504C339.946 34.2147 340.478 34.07 341.085 34.07C341.701 34.07 342.228 34.224 342.667 34.532C343.105 34.84 343.399 35.2553 343.549 35.778H343.395V31.606C343.395 31.4193 343.441 31.2793 343.535 31.186C343.637 31.0833 343.782 31.032 343.969 31.032C344.146 31.032 344.281 31.0833 344.375 31.186C344.477 31.2793 344.529 31.4193 344.529 31.606V40.51C344.529 40.6967 344.482 40.8413 344.389 40.944C344.295 41.0467 344.155 41.098 343.969 41.098C343.791 41.098 343.651 41.0467 343.549 40.944C343.455 40.8413 343.409 40.6967 343.409 40.51V39.18L343.563 39.376C343.413 39.908 343.115 40.3327 342.667 40.65C342.228 40.9673 341.701 41.126 341.085 41.126ZM341.323 40.216C341.743 40.216 342.111 40.1133 342.429 39.908C342.746 39.7027 342.989 39.404 343.157 39.012C343.334 38.62 343.423 38.1487 343.423 37.598C343.423 36.7487 343.231 36.1 342.849 35.652C342.475 35.204 341.967 34.98 341.323 34.98C340.893 34.98 340.52 35.0827 340.203 35.288C339.895 35.484 339.652 35.778 339.475 36.17C339.307 36.5527 339.223 37.0287 339.223 37.598C339.223 38.438 339.414 39.0867 339.797 39.544C340.179 39.992 340.688 40.216 341.323 40.216ZM350.994 41.098C350.807 41.098 350.663 41.0467 350.56 40.944C350.467 40.832 350.42 40.6827 350.42 40.496V31.718C350.42 31.522 350.471 31.3773 350.574 31.284C350.677 31.1813 350.821 31.13 351.008 31.13H354.326C355.381 31.13 356.193 31.3913 356.762 31.914C357.331 32.4273 357.616 33.1553 357.616 34.098C357.616 35.0313 357.331 35.7593 356.762 36.282C356.193 36.8047 355.381 37.066 354.326 37.066H351.568V40.496C351.568 40.6827 351.521 40.832 351.428 40.944C351.335 41.0467 351.19 41.098 350.994 41.098ZM351.568 36.1H354.186C354.942 36.1 355.511 35.932 355.894 35.596C356.286 35.2507 356.482 34.7513 356.482 34.098C356.482 33.4353 356.286 32.936 355.894 32.6C355.511 32.2547 354.942 32.082 354.186 32.082H351.568V36.1ZM360.926 41.126C360.459 41.126 360.039 41.0373 359.666 40.86C359.302 40.6733 359.012 40.4213 358.798 40.104C358.583 39.7867 358.476 39.432 358.476 39.04C358.476 38.536 358.602 38.1393 358.854 37.85C359.115 37.5607 359.54 37.3553 360.128 37.234C360.725 37.1127 361.537 37.052 362.564 37.052H363.194V37.794H362.578C361.822 37.794 361.224 37.8313 360.786 37.906C360.356 37.9713 360.053 38.088 359.876 38.256C359.708 38.424 359.624 38.662 359.624 38.97C359.624 39.3527 359.754 39.6653 360.016 39.908C360.286 40.1507 360.65 40.272 361.108 40.272C361.481 40.272 361.808 40.1833 362.088 40.006C362.377 39.8287 362.601 39.586 362.76 39.278C362.928 38.97 363.012 38.6153 363.012 38.214V36.618C363.012 36.0393 362.895 35.624 362.662 35.372C362.428 35.1107 362.046 34.98 361.514 34.98C361.187 34.98 360.86 35.022 360.534 35.106C360.207 35.19 359.862 35.3253 359.498 35.512C359.367 35.5773 359.255 35.6007 359.162 35.582C359.068 35.554 358.994 35.5027 358.938 35.428C358.882 35.3533 358.849 35.2693 358.84 35.176C358.83 35.0733 358.849 34.9753 358.896 34.882C358.952 34.7887 359.036 34.714 359.148 34.658C359.558 34.4527 359.964 34.3033 360.366 34.21C360.767 34.1167 361.15 34.07 361.514 34.07C362.102 34.07 362.587 34.168 362.97 34.364C363.352 34.5507 363.637 34.84 363.824 35.232C364.01 35.6147 364.104 36.1093 364.104 36.716V40.51C364.104 40.6967 364.057 40.8413 363.964 40.944C363.88 41.0467 363.754 41.098 363.586 41.098C363.408 41.098 363.273 41.0467 363.18 40.944C363.086 40.8413 363.04 40.6967 363.04 40.51V39.418H363.166C363.091 39.7727 362.946 40.076 362.732 40.328C362.526 40.58 362.27 40.776 361.962 40.916C361.654 41.056 361.308 41.126 360.926 41.126ZM367.651 43.618C367.511 43.618 367.399 43.5807 367.315 43.506C367.231 43.4313 367.18 43.3287 367.161 43.198C367.152 43.0767 367.175 42.9507 367.231 42.82L368.197 40.65V41.14L365.509 34.896C365.453 34.756 365.435 34.6253 365.453 34.504C365.472 34.3827 365.528 34.2847 365.621 34.21C365.715 34.1353 365.845 34.098 366.013 34.098C366.163 34.098 366.279 34.1307 366.363 34.196C366.447 34.2613 366.522 34.378 366.587 34.546L368.883 40.174H368.505L370.829 34.546C370.904 34.378 370.983 34.2613 371.067 34.196C371.151 34.1307 371.273 34.098 371.431 34.098C371.581 34.098 371.693 34.1353 371.767 34.21C371.851 34.2847 371.898 34.3827 371.907 34.504C371.926 34.616 371.907 34.742 371.851 34.882L368.267 43.17C368.193 43.338 368.109 43.4547 368.015 43.52C367.931 43.5853 367.81 43.618 367.651 43.618ZM373.919 41.098C373.732 41.098 373.592 41.0467 373.499 40.944C373.405 40.8413 373.359 40.6967 373.359 40.51V34.672C373.359 34.4853 373.405 34.3453 373.499 34.252C373.592 34.1493 373.727 34.098 373.905 34.098C374.082 34.098 374.217 34.1493 374.311 34.252C374.413 34.3453 374.465 34.4853 374.465 34.672V35.904L374.311 35.708C374.488 35.1853 374.773 34.784 375.165 34.504C375.566 34.2147 376.042 34.07 376.593 34.07C377.171 34.07 377.638 34.21 377.993 34.49C378.357 34.7607 378.599 35.1853 378.721 35.764H378.511C378.679 35.2413 378.977 34.8307 379.407 34.532C379.845 34.224 380.354 34.07 380.933 34.07C381.446 34.07 381.866 34.168 382.193 34.364C382.529 34.56 382.781 34.8587 382.949 35.26C383.117 35.652 383.201 36.1513 383.201 36.758V40.51C383.201 40.6967 383.149 40.8413 383.047 40.944C382.953 41.0467 382.813 41.098 382.627 41.098C382.449 41.098 382.309 41.0467 382.207 40.944C382.113 40.8413 382.067 40.6967 382.067 40.51V36.814C382.067 36.1887 381.959 35.7313 381.745 35.442C381.53 35.1433 381.166 34.994 380.653 34.994C380.093 34.994 379.649 35.19 379.323 35.582C379.005 35.9647 378.847 36.4873 378.847 37.15V40.51C378.847 40.6967 378.795 40.8413 378.693 40.944C378.599 41.0467 378.459 41.098 378.273 41.098C378.095 41.098 377.955 41.0467 377.853 40.944C377.759 40.8413 377.713 40.6967 377.713 40.51V36.814C377.713 36.1887 377.601 35.7313 377.377 35.442C377.162 35.1433 376.803 34.994 376.299 34.994C375.739 34.994 375.295 35.19 374.969 35.582C374.651 35.9647 374.493 36.4873 374.493 37.15V40.51C374.493 40.902 374.301 41.098 373.919 41.098ZM388.387 41.126C387.668 41.126 387.048 40.986 386.525 40.706C386.012 40.4167 385.61 40.0107 385.321 39.488C385.041 38.9653 384.901 38.34 384.901 37.612C384.901 36.9027 385.041 36.2867 385.321 35.764C385.601 35.232 385.984 34.8167 386.469 34.518C386.964 34.2193 387.533 34.07 388.177 34.07C388.634 34.07 389.045 34.1493 389.409 34.308C389.773 34.4573 390.081 34.6767 390.333 34.966C390.594 35.2553 390.79 35.6053 390.921 36.016C391.061 36.4267 391.131 36.8887 391.131 37.402C391.131 37.5513 391.089 37.6633 391.005 37.738C390.921 37.8033 390.8 37.836 390.641 37.836H385.769V37.094H390.375L390.151 37.276C390.151 36.772 390.076 36.3473 389.927 36.002C389.778 35.6473 389.558 35.3767 389.269 35.19C388.989 35.0033 388.634 34.91 388.205 34.91C387.729 34.91 387.323 35.022 386.987 35.246C386.66 35.4607 386.413 35.764 386.245 36.156C386.077 36.5387 385.993 36.9867 385.993 37.5V37.584C385.993 38.4427 386.198 39.096 386.609 39.544C387.029 39.992 387.622 40.216 388.387 40.216C388.704 40.216 389.017 40.174 389.325 40.09C389.642 40.006 389.95 39.866 390.249 39.67C390.38 39.586 390.496 39.5487 390.599 39.558C390.711 39.558 390.8 39.5907 390.865 39.656C390.93 39.712 390.972 39.7867 390.991 39.88C391.019 39.964 391.01 40.0573 390.963 40.16C390.926 40.2627 390.846 40.3513 390.725 40.426C390.417 40.65 390.053 40.8227 389.633 40.944C389.213 41.0653 388.798 41.126 388.387 41.126ZM393.332 41.098C393.145 41.098 393.005 41.0467 392.912 40.944C392.819 40.8413 392.772 40.6967 392.772 40.51V34.672C392.772 34.4853 392.819 34.3453 392.912 34.252C393.005 34.1493 393.141 34.098 393.318 34.098C393.495 34.098 393.631 34.1493 393.724 34.252C393.827 34.3453 393.878 34.4853 393.878 34.672V35.876L393.724 35.708C393.92 35.1667 394.237 34.7607 394.676 34.49C395.124 34.21 395.637 34.07 396.216 34.07C396.757 34.07 397.205 34.168 397.56 34.364C397.924 34.56 398.195 34.8587 398.372 35.26C398.549 35.652 398.638 36.1513 398.638 36.758V40.51C398.638 40.6967 398.587 40.8413 398.484 40.944C398.391 41.0467 398.255 41.098 398.078 41.098C397.891 41.098 397.747 41.0467 397.644 40.944C397.551 40.8413 397.504 40.6967 397.504 40.51V36.828C397.504 36.1933 397.378 35.7313 397.126 35.442C396.883 35.1433 396.491 34.994 395.95 34.994C395.325 34.994 394.825 35.19 394.452 35.582C394.088 35.9647 393.906 36.478 393.906 37.122V40.51C393.906 40.902 393.715 41.098 393.332 41.098ZM403.459 41.126C402.927 41.126 402.479 41.0327 402.115 40.846C401.76 40.65 401.494 40.37 401.317 40.006C401.14 39.6327 401.051 39.18 401.051 38.648V35.078H400.113C399.954 35.078 399.833 35.0407 399.749 34.966C399.665 34.882 399.623 34.77 399.623 34.63C399.623 34.49 399.665 34.3827 399.749 34.308C399.833 34.2333 399.954 34.196 400.113 34.196H401.051V32.586C401.051 32.3993 401.102 32.2593 401.205 32.166C401.308 32.0633 401.448 32.012 401.625 32.012C401.802 32.012 401.938 32.0633 402.031 32.166C402.134 32.2593 402.185 32.3993 402.185 32.586V34.196H403.949C404.108 34.196 404.229 34.2333 404.313 34.308C404.397 34.3827 404.439 34.49 404.439 34.63C404.439 34.77 404.397 34.882 404.313 34.966C404.229 35.0407 404.108 35.078 403.949 35.078H402.185V38.536C402.185 39.068 402.297 39.474 402.521 39.754C402.745 40.0247 403.109 40.16 403.613 40.16C403.79 40.16 403.94 40.1413 404.061 40.104C404.192 40.0667 404.299 40.048 404.383 40.048C404.467 40.0387 404.537 40.0667 404.593 40.132C404.649 40.1973 404.677 40.3093 404.677 40.468C404.677 40.58 404.654 40.6827 404.607 40.776C404.57 40.8693 404.5 40.9347 404.397 40.972C404.285 41.0093 404.136 41.042 403.949 41.07C403.772 41.1073 403.608 41.126 403.459 41.126Z" fill="#555555"/>
<circle cx="536" cy="11" r="11" fill="#D9D9D9"/>
<circle cx="536" cy="11" r="8" fill="#EEEEEE"/>
<path d="M478.121 41.098C477.934 41.098 477.79 41.0467 477.687 40.944C477.594 40.832 477.547 40.6827 477.547 40.496V31.718C477.547 31.522 477.598 31.3773 477.701 31.284C477.804 31.1813 477.948 31.13 478.135 31.13H481.453C482.508 31.13 483.32 31.3773 483.889 31.872C484.458 32.3667 484.743 33.0713 484.743 33.986C484.743 34.5647 484.612 35.0687 484.351 35.498C484.099 35.918 483.726 36.24 483.231 36.464C482.736 36.6787 482.144 36.786 481.453 36.786L481.593 36.604H481.873C482.237 36.604 482.554 36.6973 482.825 36.884C483.096 37.0707 483.343 37.3693 483.567 37.78L484.911 40.286C484.986 40.4167 485.018 40.5473 485.009 40.678C485.009 40.7993 484.967 40.902 484.883 40.986C484.799 41.0607 484.678 41.098 484.519 41.098C484.36 41.098 484.23 41.0607 484.127 40.986C484.024 40.9113 483.936 40.804 483.861 40.664L482.335 37.836C482.12 37.4347 481.873 37.1687 481.593 37.038C481.313 36.898 480.944 36.828 480.487 36.828H478.695V40.496C478.695 40.6827 478.648 40.832 478.555 40.944C478.462 41.0467 478.317 41.098 478.121 41.098ZM478.695 35.918H481.285C482.05 35.918 482.629 35.7593 483.021 35.442C483.413 35.1153 483.609 34.63 483.609 33.986C483.609 33.3607 483.413 32.8893 483.021 32.572C482.629 32.2453 482.05 32.082 481.285 32.082H478.695V35.918ZM488.873 41.126C488.406 41.126 487.986 41.0373 487.613 40.86C487.249 40.6733 486.96 40.4213 486.745 40.104C486.53 39.7867 486.423 39.432 486.423 39.04C486.423 38.536 486.549 38.1393 486.801 37.85C487.062 37.5607 487.487 37.3553 488.075 37.234C488.672 37.1127 489.484 37.052 490.511 37.052H491.141V37.794H490.525C489.769 37.794 489.172 37.8313 488.733 37.906C488.304 37.9713 488 38.088 487.823 38.256C487.655 38.424 487.571 38.662 487.571 38.97C487.571 39.3527 487.702 39.6653 487.963 39.908C488.234 40.1507 488.598 40.272 489.055 40.272C489.428 40.272 489.755 40.1833 490.035 40.006C490.324 39.8287 490.548 39.586 490.707 39.278C490.875 38.97 490.959 38.6153 490.959 38.214V36.618C490.959 36.0393 490.842 35.624 490.609 35.372C490.376 35.1107 489.993 34.98 489.461 34.98C489.134 34.98 488.808 35.022 488.481 35.106C488.154 35.19 487.809 35.3253 487.445 35.512C487.314 35.5773 487.202 35.6007 487.109 35.582C487.016 35.554 486.941 35.5027 486.885 35.428C486.829 35.3533 486.796 35.2693 486.787 35.176C486.778 35.0733 486.796 34.9753 486.843 34.882C486.899 34.7887 486.983 34.714 487.095 34.658C487.506 34.4527 487.912 34.3033 488.313 34.21C488.714 34.1167 489.097 34.07 489.461 34.07C490.049 34.07 490.534 34.168 490.917 34.364C491.3 34.5507 491.584 34.84 491.771 35.232C491.958 35.6147 492.051 36.1093 492.051 36.716V40.51C492.051 40.6967 492.004 40.8413 491.911 40.944C491.827 41.0467 491.701 41.098 491.533 41.098C491.356 41.098 491.22 41.0467 491.127 40.944C491.034 40.8413 490.987 40.6967 490.987 40.51V39.418H491.113C491.038 39.7727 490.894 40.076 490.679 40.328C490.474 40.58 490.217 40.776 489.909 40.916C489.601 41.056 489.256 41.126 488.873 41.126ZM496.885 41.126C496.353 41.126 495.905 41.0327 495.541 40.846C495.186 40.65 494.92 40.37 494.743 40.006C494.565 39.6327 494.477 39.18 494.477 38.648V35.078H493.539C493.38 35.078 493.259 35.0407 493.175 34.966C493.091 34.882 493.049 34.77 493.049 34.63C493.049 34.49 493.091 34.3827 493.175 34.308C493.259 34.2333 493.38 34.196 493.539 34.196H494.477V32.586C494.477 32.3993 494.528 32.2593 494.631 32.166C494.733 32.0633 494.873 32.012 495.051 32.012C495.228 32.012 495.363 32.0633 495.457 32.166C495.559 32.2593 495.611 32.3993 495.611 32.586V34.196H497.375C497.533 34.196 497.655 34.2333 497.739 34.308C497.823 34.3827 497.865 34.49 497.865 34.63C497.865 34.77 497.823 34.882 497.739 34.966C497.655 35.0407 497.533 35.078 497.375 35.078H495.611V38.536C495.611 39.068 495.723 39.474 495.947 39.754C496.171 40.0247 496.535 40.16 497.039 40.16C497.216 40.16 497.365 40.1413 497.487 40.104C497.617 40.0667 497.725 40.048 497.809 40.048C497.893 40.0387 497.963 40.0667 498.019 40.132C498.075 40.1973 498.103 40.3093 498.103 40.468C498.103 40.58 498.079 40.6827 498.033 40.776C497.995 40.8693 497.925 40.9347 497.823 40.972C497.711 41.0093 497.561 41.042 497.375 41.07C497.197 41.1073 497.034 41.126 496.885 41.126ZM502.047 41.126C501.328 41.126 500.708 40.986 500.185 40.706C499.672 40.4167 499.27 40.0107 498.981 39.488C498.701 38.9653 498.561 38.34 498.561 37.612C498.561 36.9027 498.701 36.2867 498.981 35.764C499.261 35.232 499.644 34.8167 500.129 34.518C500.624 34.2193 501.193 34.07 501.837 34.07C502.294 34.07 502.705 34.1493 503.069 34.308C503.433 34.4573 503.741 34.6767 503.993 34.966C504.254 35.2553 504.45 35.6053 504.581 36.016C504.721 36.4267 504.791 36.8887 504.791 37.402C504.791 37.5513 504.749 37.6633 504.665 37.738C504.581 37.8033 504.46 37.836 504.301 37.836H499.429V37.094H504.035L503.811 37.276C503.811 36.772 503.736 36.3473 503.587 36.002C503.438 35.6473 503.218 35.3767 502.929 35.19C502.649 35.0033 502.294 34.91 501.865 34.91C501.389 34.91 500.983 35.022 500.647 35.246C500.32 35.4607 500.073 35.764 499.905 36.156C499.737 36.5387 499.653 36.9867 499.653 37.5V37.584C499.653 38.4427 499.858 39.096 500.269 39.544C500.689 39.992 501.282 40.216 502.047 40.216C502.364 40.216 502.677 40.174 502.985 40.09C503.302 40.006 503.61 39.866 503.909 39.67C504.04 39.586 504.156 39.5487 504.259 39.558C504.371 39.558 504.46 39.5907 504.525 39.656C504.59 39.712 504.632 39.7867 504.651 39.88C504.679 39.964 504.67 40.0573 504.623 40.16C504.586 40.2627 504.506 40.3513 504.385 40.426C504.077 40.65 503.713 40.8227 503.293 40.944C502.873 41.0653 502.458 41.126 502.047 41.126ZM512.184 41.126C511.717 41.126 511.297 41.0373 510.924 40.86C510.56 40.6733 510.27 40.4213 510.056 40.104C509.841 39.7867 509.734 39.432 509.734 39.04C509.734 38.536 509.86 38.1393 510.112 37.85C510.373 37.5607 510.798 37.3553 511.386 37.234C511.983 37.1127 512.795 37.052 513.822 37.052H514.452V37.794H513.836C513.08 37.794 512.482 37.8313 512.044 37.906C511.614 37.9713 511.311 38.088 511.134 38.256C510.966 38.424 510.882 38.662 510.882 38.97C510.882 39.3527 511.012 39.6653 511.274 39.908C511.544 40.1507 511.908 40.272 512.366 40.272C512.739 40.272 513.066 40.1833 513.346 40.006C513.635 39.8287 513.859 39.586 514.018 39.278C514.186 38.97 514.27 38.6153 514.27 38.214V36.618C514.27 36.0393 514.153 35.624 513.92 35.372C513.686 35.1107 513.304 34.98 512.772 34.98C512.445 34.98 512.118 35.022 511.792 35.106C511.465 35.19 511.12 35.3253 510.756 35.512C510.625 35.5773 510.513 35.6007 510.42 35.582C510.326 35.554 510.252 35.5027 510.196 35.428C510.14 35.3533 510.107 35.2693 510.098 35.176C510.088 35.0733 510.107 34.9753 510.154 34.882C510.21 34.7887 510.294 34.714 510.406 34.658C510.816 34.4527 511.222 34.3033 511.624 34.21C512.025 34.1167 512.408 34.07 512.772 34.07C513.36 34.07 513.845 34.168 514.228 34.364C514.61 34.5507 514.895 34.84 515.082 35.232C515.268 35.6147 515.362 36.1093 515.362 36.716V40.51C515.362 40.6967 515.315 40.8413 515.222 40.944C515.138 41.0467 515.012 41.098 514.844 41.098C514.666 41.098 514.531 41.0467 514.438 40.944C514.344 40.8413 514.298 40.6967 514.298 40.51V39.418H514.424C514.349 39.7727 514.204 40.076 513.99 40.328C513.784 40.58 513.528 40.776 513.22 40.916C512.912 41.056 512.566 41.126 512.184 41.126ZM518.025 41.098C517.839 41.098 517.699 41.0467 517.605 40.944C517.512 40.8413 517.465 40.6967 517.465 40.51V34.672C517.465 34.4853 517.512 34.3453 517.605 34.252C517.699 34.1493 517.834 34.098 518.011 34.098C518.189 34.098 518.324 34.1493 518.417 34.252C518.52 34.3453 518.571 34.4853 518.571 34.672V35.876L518.417 35.708C518.613 35.1667 518.931 34.7607 519.369 34.49C519.817 34.21 520.331 34.07 520.909 34.07C521.451 34.07 521.899 34.168 522.253 34.364C522.617 34.56 522.888 34.8587 523.065 35.26C523.243 35.652 523.331 36.1513 523.331 36.758V40.51C523.331 40.6967 523.28 40.8413 523.177 40.944C523.084 41.0467 522.949 41.098 522.771 41.098C522.585 41.098 522.44 41.0467 522.337 40.944C522.244 40.8413 522.197 40.6967 522.197 40.51V36.828C522.197 36.1933 522.071 35.7313 521.819 35.442C521.577 35.1433 521.185 34.994 520.643 34.994C520.018 34.994 519.519 35.19 519.145 35.582C518.781 35.9647 518.599 36.478 518.599 37.122V40.51C518.599 40.902 518.408 41.098 518.025 41.098ZM528.012 41.126C527.406 41.126 526.874 40.9813 526.416 40.692C525.968 40.4027 525.618 39.9967 525.366 39.474C525.124 38.942 525.002 38.3167 525.002 37.598C525.002 36.87 525.124 36.2447 525.366 35.722C525.618 35.19 525.968 34.784 526.416 34.504C526.874 34.2147 527.406 34.07 528.012 34.07C528.628 34.07 529.156 34.224 529.594 34.532C530.033 34.84 530.327 35.2553 530.476 35.778H530.322V31.606C530.322 31.4193 530.369 31.2793 530.462 31.186C530.565 31.0833 530.71 31.032 530.896 31.032C531.074 31.032 531.209 31.0833 531.302 31.186C531.405 31.2793 531.456 31.4193 531.456 31.606V40.51C531.456 40.6967 531.41 40.8413 531.316 40.944C531.223 41.0467 531.083 41.098 530.896 41.098C530.719 41.098 530.579 41.0467 530.476 40.944C530.383 40.8413 530.336 40.6967 530.336 40.51V39.18L530.49 39.376C530.341 39.908 530.042 40.3327 529.594 40.65C529.156 40.9673 528.628 41.126 528.012 41.126ZM528.25 40.216C528.67 40.216 529.039 40.1133 529.356 39.908C529.674 39.7027 529.916 39.404 530.084 39.012C530.262 38.62 530.35 38.1487 530.35 37.598C530.35 36.7487 530.159 36.1 529.776 35.652C529.403 35.204 528.894 34.98 528.25 34.98C527.821 34.98 527.448 35.0827 527.13 35.288C526.822 35.484 526.58 35.778 526.402 36.17C526.234 36.5527 526.15 37.0287 526.15 37.598C526.15 38.438 526.342 39.0867 526.724 39.544C527.107 39.992 527.616 40.216 528.25 40.216ZM537.964 41.098C537.768 41.098 537.614 41.0467 537.502 40.944C537.399 40.832 537.348 40.6733 537.348 40.468V31.76C537.348 31.5547 537.399 31.4007 537.502 31.298C537.614 31.186 537.773 31.13 537.978 31.13H543.06C543.219 31.13 543.34 31.172 543.424 31.256C543.508 31.34 543.55 31.4567 543.55 31.606C543.55 31.7647 543.508 31.886 543.424 31.97C543.34 32.054 543.219 32.096 543.06 32.096H538.496V35.54H542.766C542.925 35.54 543.046 35.582 543.13 35.666C543.223 35.75 543.27 35.8667 543.27 36.016C543.27 36.1747 543.223 36.296 543.13 36.38C543.046 36.464 542.925 36.506 542.766 36.506H538.496V40.468C538.496 40.888 538.319 41.098 537.964 41.098ZM547.67 41.126C546.951 41.126 546.331 40.986 545.808 40.706C545.295 40.4167 544.893 40.0107 544.604 39.488C544.324 38.9653 544.184 38.34 544.184 37.612C544.184 36.9027 544.324 36.2867 544.604 35.764C544.884 35.232 545.267 34.8167 545.752 34.518C546.247 34.2193 546.816 34.07 547.46 34.07C547.917 34.07 548.328 34.1493 548.692 34.308C549.056 34.4573 549.364 34.6767 549.616 34.966C549.877 35.2553 550.073 35.6053 550.204 36.016C550.344 36.4267 550.414 36.8887 550.414 37.402C550.414 37.5513 550.372 37.6633 550.288 37.738C550.204 37.8033 550.083 37.836 549.924 37.836H545.052V37.094H549.658L549.434 37.276C549.434 36.772 549.359 36.3473 549.21 36.002C549.061 35.6473 548.841 35.3767 548.552 35.19C548.272 35.0033 547.917 34.91 547.488 34.91C547.012 34.91 546.606 35.022 546.27 35.246C545.943 35.4607 545.696 35.764 545.528 36.156C545.36 36.5387 545.276 36.9867 545.276 37.5V37.584C545.276 38.4427 545.481 39.096 545.892 39.544C546.312 39.992 546.905 40.216 547.67 40.216C547.987 40.216 548.3 40.174 548.608 40.09C548.925 40.006 549.233 39.866 549.532 39.67C549.663 39.586 549.779 39.5487 549.882 39.558C549.994 39.558 550.083 39.5907 550.148 39.656C550.213 39.712 550.255 39.7867 550.274 39.88C550.302 39.964 550.293 40.0573 550.246 40.16C550.209 40.2627 550.129 40.3513 550.008 40.426C549.7 40.65 549.336 40.8227 548.916 40.944C548.496 41.0653 548.081 41.126 547.67 41.126ZM555.121 41.126C554.403 41.126 553.782 40.986 553.259 40.706C552.746 40.4167 552.345 40.0107 552.055 39.488C551.775 38.9653 551.635 38.34 551.635 37.612C551.635 36.9027 551.775 36.2867 552.055 35.764C552.335 35.232 552.718 34.8167 553.203 34.518C553.698 34.2193 554.267 34.07 554.911 34.07C555.369 34.07 555.779 34.1493 556.143 34.308C556.507 34.4573 556.815 34.6767 557.067 34.966C557.329 35.2553 557.525 35.6053 557.655 36.016C557.795 36.4267 557.865 36.8887 557.865 37.402C557.865 37.5513 557.823 37.6633 557.739 37.738C557.655 37.8033 557.534 37.836 557.375 37.836H552.503V37.094H557.109L556.885 37.276C556.885 36.772 556.811 36.3473 556.661 36.002C556.512 35.6473 556.293 35.3767 556.003 35.19C555.723 35.0033 555.369 34.91 554.939 34.91C554.463 34.91 554.057 35.022 553.721 35.246C553.395 35.4607 553.147 35.764 552.979 36.156C552.811 36.5387 552.727 36.9867 552.727 37.5V37.584C552.727 38.4427 552.933 39.096 553.343 39.544C553.763 39.992 554.356 40.216 555.121 40.216C555.439 40.216 555.751 40.174 556.059 40.09C556.377 40.006 556.685 39.866 556.983 39.67C557.114 39.586 557.231 39.5487 557.333 39.558C557.445 39.558 557.534 39.5907 557.599 39.656C557.665 39.712 557.707 39.7867 557.725 39.88C557.753 39.964 557.744 40.0573 557.697 40.16C557.66 40.2627 557.581 40.3513 557.459 40.426C557.151 40.65 556.787 40.8227 556.367 40.944C555.947 41.0653 555.532 41.126 555.121 41.126ZM562.096 41.126C561.49 41.126 560.958 40.9813 560.5 40.692C560.052 40.4027 559.702 39.9967 559.45 39.474C559.208 38.942 559.086 38.3167 559.086 37.598C559.086 36.87 559.208 36.2447 559.45 35.722C559.702 35.19 560.052 34.784 560.5 34.504C560.958 34.2147 561.49 34.07 562.096 34.07C562.712 34.07 563.24 34.224 563.678 34.532C564.117 34.84 564.411 35.2553 564.56 35.778H564.406V31.606C564.406 31.4193 564.453 31.2793 564.546 31.186C564.649 31.0833 564.794 31.032 564.98 31.032C565.158 31.032 565.293 31.0833 565.386 31.186C565.489 31.2793 565.54 31.4193 565.54 31.606V40.51C565.54 40.6967 565.494 40.8413 565.4 40.944C565.307 41.0467 565.167 41.098 564.98 41.098C564.803 41.098 564.663 41.0467 564.56 40.944C564.467 40.8413 564.42 40.6967 564.42 40.51V39.18L564.574 39.376C564.425 39.908 564.126 40.3327 563.678 40.65C563.24 40.9673 562.712 41.126 562.096 41.126ZM562.334 40.216C562.754 40.216 563.123 40.1133 563.44 39.908C563.758 39.7027 564 39.404 564.168 39.012C564.346 38.62 564.434 38.1487 564.434 37.598C564.434 36.7487 564.243 36.1 563.86 35.652C563.487 35.204 562.978 34.98 562.334 34.98C561.905 34.98 561.532 35.0827 561.214 35.288C560.906 35.484 560.664 35.778 560.486 36.17C560.318 36.5527 560.234 37.0287 560.234 37.598C560.234 38.438 560.426 39.0867 560.808 39.544C561.191 39.992 561.7 40.216 562.334 40.216ZM571.112 41.126C570.496 41.126 569.964 40.9673 569.516 40.65C569.078 40.3327 568.784 39.908 568.634 39.376L568.788 39.222V40.51C568.788 40.6967 568.737 40.8413 568.634 40.944C568.541 41.0467 568.406 41.098 568.228 41.098C568.042 41.098 567.902 41.0467 567.808 40.944C567.715 40.8413 567.668 40.6967 567.668 40.51V31.606C567.668 31.4193 567.715 31.2793 567.808 31.186C567.902 31.0833 568.042 31.032 568.228 31.032C568.406 31.032 568.546 31.0833 568.648 31.186C568.751 31.2793 568.802 31.4193 568.802 31.606V35.778H568.634C568.793 35.2553 569.092 34.84 569.53 34.532C569.969 34.224 570.496 34.07 571.112 34.07C571.728 34.07 572.26 34.2147 572.708 34.504C573.156 34.784 573.502 35.19 573.744 35.722C573.996 36.2447 574.122 36.87 574.122 37.598C574.122 38.3167 573.996 38.942 573.744 39.474C573.502 39.9967 573.152 40.4027 572.694 40.692C572.246 40.9813 571.719 41.126 571.112 41.126ZM570.874 40.216C571.304 40.216 571.672 40.1133 571.98 39.908C572.298 39.7027 572.54 39.404 572.708 39.012C572.886 38.62 572.974 38.1487 572.974 37.598C572.974 36.7487 572.783 36.1 572.4 35.652C572.027 35.204 571.518 34.98 570.874 34.98C570.454 34.98 570.086 35.0827 569.768 35.288C569.451 35.484 569.204 35.778 569.026 36.17C568.858 36.5527 568.774 37.0287 568.774 37.598C568.774 38.438 568.966 39.0867 569.348 39.544C569.731 39.992 570.24 40.216 570.874 40.216ZM577.973 41.126C577.506 41.126 577.086 41.0373 576.713 40.86C576.349 40.6733 576.059 40.4213 575.845 40.104C575.63 39.7867 575.523 39.432 575.523 39.04C575.523 38.536 575.649 38.1393 575.901 37.85C576.162 37.5607 576.587 37.3553 577.175 37.234C577.772 37.1127 578.584 37.052 579.611 37.052H580.241V37.794H579.625C578.869 37.794 578.271 37.8313 577.833 37.906C577.403 37.9713 577.1 38.088 576.923 38.256C576.755 38.424 576.671 38.662 576.671 38.97C576.671 39.3527 576.801 39.6653 577.063 39.908C577.333 40.1507 577.697 40.272 578.155 40.272C578.528 40.272 578.855 40.1833 579.135 40.006C579.424 39.8287 579.648 39.586 579.807 39.278C579.975 38.97 580.059 38.6153 580.059 38.214V36.618C580.059 36.0393 579.942 35.624 579.709 35.372C579.475 35.1107 579.093 34.98 578.561 34.98C578.234 34.98 577.907 35.022 577.581 35.106C577.254 35.19 576.909 35.3253 576.545 35.512C576.414 35.5773 576.302 35.6007 576.209 35.582C576.115 35.554 576.041 35.5027 575.985 35.428C575.929 35.3533 575.896 35.2693 575.887 35.176C575.877 35.0733 575.896 34.9753 575.943 34.882C575.999 34.7887 576.083 34.714 576.195 34.658C576.605 34.4527 577.011 34.3033 577.413 34.21C577.814 34.1167 578.197 34.07 578.561 34.07C579.149 34.07 579.634 34.168 580.017 34.364C580.399 34.5507 580.684 34.84 580.871 35.232C581.057 35.6147 581.151 36.1093 581.151 36.716V40.51C581.151 40.6967 581.104 40.8413 581.011 40.944C580.927 41.0467 580.801 41.098 580.633 41.098C580.455 41.098 580.32 41.0467 580.227 40.944C580.133 40.8413 580.087 40.6967 580.087 40.51V39.418H580.213C580.138 39.7727 579.993 40.076 579.779 40.328C579.573 40.58 579.317 40.776 579.009 40.916C578.701 41.056 578.355 41.126 577.973 41.126ZM586.138 41.126C585.457 41.126 584.869 40.9767 584.374 40.678C583.88 40.3793 583.497 39.964 583.226 39.432C582.965 38.8907 582.834 38.2653 582.834 37.556C582.834 37.0147 582.909 36.5293 583.058 36.1C583.208 35.6707 583.427 35.3067 583.716 35.008C584.006 34.7 584.351 34.4667 584.752 34.308C585.163 34.1493 585.625 34.07 586.138 34.07C586.474 34.07 586.824 34.1213 587.188 34.224C587.552 34.3267 587.884 34.504 588.182 34.756C588.276 34.8213 588.336 34.9007 588.364 34.994C588.392 35.0873 588.392 35.1807 588.364 35.274C588.336 35.358 588.29 35.4327 588.224 35.498C588.159 35.554 588.075 35.5867 587.972 35.596C587.879 35.6053 587.781 35.5727 587.678 35.498C587.436 35.3113 587.188 35.1807 586.936 35.106C586.684 35.0313 586.442 34.994 586.208 34.994C585.844 34.994 585.527 35.0547 585.256 35.176C584.986 35.288 584.757 35.4513 584.57 35.666C584.384 35.8807 584.239 36.1467 584.136 36.464C584.043 36.7813 583.996 37.15 583.996 37.57C583.996 38.382 584.188 39.026 584.57 39.502C584.953 39.9687 585.499 40.202 586.208 40.202C586.442 40.202 586.68 40.1647 586.922 40.09C587.174 40.0153 587.426 39.8847 587.678 39.698C587.781 39.6233 587.879 39.5907 587.972 39.6C588.066 39.6093 588.145 39.6467 588.21 39.712C588.276 39.768 588.318 39.8427 588.336 39.936C588.364 40.0293 588.364 40.1227 588.336 40.216C588.308 40.3 588.248 40.3747 588.154 40.44C587.856 40.6827 587.529 40.86 587.174 40.972C586.82 41.0747 586.474 41.126 586.138 41.126ZM590.295 41.098C590.108 41.098 589.968 41.0467 589.875 40.944C589.782 40.8413 589.735 40.6967 589.735 40.51V31.606C589.735 31.4193 589.782 31.2793 589.875 31.186C589.968 31.0833 590.108 31.032 590.295 31.032C590.472 31.032 590.612 31.0833 590.715 31.186C590.818 31.2793 590.869 31.4193 590.869 31.606V37.22H590.897L593.767 34.476C593.898 34.3547 594.01 34.2613 594.103 34.196C594.206 34.1307 594.341 34.098 594.509 34.098C594.658 34.098 594.775 34.14 594.859 34.224C594.943 34.2987 594.98 34.3967 594.971 34.518C594.971 34.63 594.915 34.7513 594.803 34.882L591.751 37.78V37.164L595.069 40.286C595.2 40.4167 595.265 40.5427 595.265 40.664C595.265 40.7853 595.218 40.888 595.125 40.972C595.041 41.056 594.929 41.098 594.789 41.098C594.621 41.098 594.486 41.0653 594.383 41C594.28 40.9253 594.154 40.818 594.005 40.678L590.897 37.808H590.869V40.51C590.869 40.902 590.678 41.098 590.295 41.098Z" fill="#555555"/>
<rect x="523" y="11" width="2" height="2" fill="white"/>
<rect x="547" y="11" width="2" height="2" fill="white"/>
<defs>
<radialGradient id="paint0_radial_3480_10162" cx="0" cy="0" r="1" gradientUnits="userSpaceOnUse" gradientTransform="translate(351 11) rotate(90) scale(9)">
<stop stop-color="#6A6A6A"/>
<stop offset="1" stop-color="#292929" stop-opacity="0"/>
</radialGradient>
</defs>
</svg>
