<svg width="536" height="47" viewBox="0 0 536 47" fill="none" xmlns="http://www.w3.org/2000/svg">
<rect y="11" width="536" height="2" fill="#DDDDDD"/>
<rect y="11" width="338" height="2" fill="#9CDA9C"/>
<circle cx="28" cy="11" r="10" fill="#54BA54" stroke="white" stroke-width="2"/>
<path d="M24 10.6L26.2857 13L32 8" stroke="white" stroke-width="1.5" stroke-linecap="round" stroke-linejoin="round"/>
<path d="M2.06675 41C1.86142 41 1.70275 40.9487 1.59075 40.846C1.48808 40.734 1.43675 40.5753 1.43675 40.37V31.76C1.43675 31.5547 1.48808 31.4007 1.59075 31.298C1.70275 31.186 1.86142 31.13 2.06675 31.13H7.27475C7.43342 31.13 7.55475 31.172 7.63875 31.256C7.72275 31.34 7.76475 31.4567 7.76475 31.606C7.76475 31.7647 7.72275 31.886 7.63875 31.97C7.55475 32.054 7.43342 32.096 7.27475 32.096H2.55675V35.512H6.98075C7.13942 35.512 7.26075 35.554 7.34475 35.638C7.42875 35.7127 7.47075 35.8293 7.47075 35.988C7.47075 36.1467 7.42875 36.268 7.34475 36.352C7.26075 36.436 7.13942 36.478 6.98075 36.478H2.55675V40.034H7.27475C7.43342 40.034 7.55475 40.076 7.63875 40.16C7.72275 40.244 7.76475 40.3607 7.76475 40.51C7.76475 40.6687 7.72275 40.79 7.63875 40.874C7.55475 40.958 7.43342 41 7.27475 41H2.06675ZM10.0049 41.098C9.81819 41.098 9.67819 41.0467 9.58486 40.944C9.49153 40.8413 9.44486 40.6967 9.44486 40.51V34.672C9.44486 34.4853 9.49153 34.3453 9.58486 34.252C9.67819 34.1493 9.81353 34.098 9.99086 34.098C10.1682 34.098 10.3035 34.1493 10.3969 34.252C10.4995 34.3453 10.5509 34.4853 10.5509 34.672V35.876L10.3969 35.708C10.5929 35.1667 10.9102 34.7607 11.3489 34.49C11.7969 34.21 12.3102 34.07 12.8889 34.07C13.4302 34.07 13.8782 34.168 14.2329 34.364C14.5969 34.56 14.8675 34.8587 15.0449 35.26C15.2222 35.652 15.3109 36.1513 15.3109 36.758V40.51C15.3109 40.6967 15.2595 40.8413 15.1569 40.944C15.0635 41.0467 14.9282 41.098 14.7509 41.098C14.5642 41.098 14.4195 41.0467 14.3169 40.944C14.2235 40.8413 14.1769 40.6967 14.1769 40.51V36.828C14.1769 36.1933 14.0509 35.7313 13.7989 35.442C13.5562 35.1433 13.1642 34.994 12.6229 34.994C11.9975 34.994 11.4982 35.19 11.1249 35.582C10.7609 35.9647 10.5789 36.478 10.5789 37.122V40.51C10.5789 40.902 10.3875 41.098 10.0049 41.098ZM20.4119 43.646C19.9172 43.646 19.4319 43.5853 18.9559 43.464C18.4892 43.352 18.0646 43.17 17.6819 42.918C17.5699 42.8527 17.4952 42.7733 17.4579 42.68C17.4299 42.5867 17.4252 42.4933 17.4439 42.4C17.4626 42.316 17.5046 42.2367 17.5699 42.162C17.6352 42.0967 17.7099 42.0547 17.7939 42.036C17.8872 42.0173 17.9806 42.0313 18.0739 42.078C18.4846 42.33 18.8766 42.5027 19.2499 42.596C19.6232 42.6893 19.9919 42.736 20.3559 42.736C21.0186 42.736 21.5179 42.5587 21.8539 42.204C22.1992 41.8493 22.3719 41.336 22.3719 40.664V39.082H22.5119C22.3719 39.6233 22.0732 40.0527 21.6159 40.37C21.1679 40.6873 20.6406 40.846 20.0339 40.846C19.4086 40.846 18.8672 40.706 18.4099 40.426C17.9526 40.1367 17.5979 39.7353 17.3459 39.222C17.1032 38.7087 16.9819 38.116 16.9819 37.444C16.9819 36.94 17.0519 36.4827 17.1919 36.072C17.3319 35.652 17.5326 35.2973 17.7939 35.008C18.0646 34.7093 18.3866 34.4807 18.7599 34.322C19.1426 34.154 19.5672 34.07 20.0339 34.07C20.6499 34.07 21.1819 34.2287 21.6299 34.546C22.0779 34.854 22.3672 35.274 22.4979 35.806L22.3579 35.974V34.672C22.3579 34.4853 22.4046 34.3453 22.4979 34.252C22.6006 34.1493 22.7406 34.098 22.9179 34.098C23.1046 34.098 23.2446 34.1493 23.3379 34.252C23.4312 34.3453 23.4779 34.4853 23.4779 34.672V40.51C23.4779 41.546 23.2166 42.3253 22.6939 42.848C22.1806 43.38 21.4199 43.646 20.4119 43.646ZM20.2439 39.922C20.6826 39.922 21.0606 39.824 21.3779 39.628C21.6952 39.4227 21.9379 39.1333 22.1059 38.76C22.2832 38.3867 22.3719 37.948 22.3719 37.444C22.3719 36.688 22.1806 36.0907 21.7979 35.652C21.4152 35.204 20.8972 34.98 20.2439 34.98C19.8146 34.98 19.4412 35.0827 19.1239 35.288C18.8066 35.484 18.5592 35.7687 18.3819 36.142C18.2139 36.506 18.1299 36.94 18.1299 37.444C18.1299 38.2 18.3212 38.802 18.7039 39.25C19.0866 39.698 19.5999 39.922 20.2439 39.922ZM27.747 41.126C27.2803 41.126 26.8603 41.0373 26.487 40.86C26.123 40.6733 25.8337 40.4213 25.619 40.104C25.4043 39.7867 25.297 39.432 25.297 39.04C25.297 38.536 25.423 38.1393 25.675 37.85C25.9363 37.5607 26.361 37.3553 26.949 37.234C27.5463 37.1127 28.3583 37.052 29.385 37.052H30.015V37.794H29.399C28.643 37.794 28.0457 37.8313 27.607 37.906C27.1777 37.9713 26.8743 38.088 26.697 38.256C26.529 38.424 26.445 38.662 26.445 38.97C26.445 39.3527 26.5757 39.6653 26.837 39.908C27.1077 40.1507 27.4717 40.272 27.929 40.272C28.3023 40.272 28.629 40.1833 28.909 40.006C29.1983 39.8287 29.4223 39.586 29.581 39.278C29.749 38.97 29.833 38.6153 29.833 38.214V36.618C29.833 36.0393 29.7163 35.624 29.483 35.372C29.2497 35.1107 28.867 34.98 28.335 34.98C28.0083 34.98 27.6817 35.022 27.355 35.106C27.0283 35.19 26.683 35.3253 26.319 35.512C26.1883 35.5773 26.0763 35.6007 25.983 35.582C25.8897 35.554 25.815 35.5027 25.759 35.428C25.703 35.3533 25.6703 35.2693 25.661 35.176C25.6517 35.0733 25.6703 34.9753 25.717 34.882C25.773 34.7887 25.857 34.714 25.969 34.658C26.3797 34.4527 26.7857 34.3033 27.187 34.21C27.5883 34.1167 27.971 34.07 28.335 34.07C28.923 34.07 29.4083 34.168 29.791 34.364C30.1737 34.5507 30.4583 34.84 30.645 35.232C30.8317 35.6147 30.925 36.1093 30.925 36.716V40.51C30.925 40.6967 30.8783 40.8413 30.785 40.944C30.701 41.0467 30.575 41.098 30.407 41.098C30.2297 41.098 30.0943 41.0467 30.001 40.944C29.9077 40.8413 29.861 40.6967 29.861 40.51V39.418H29.987C29.9123 39.7727 29.7677 40.076 29.553 40.328C29.3477 40.58 29.091 40.776 28.783 40.916C28.475 41.056 28.1297 41.126 27.747 41.126ZM36.0388 43.646C35.5442 43.646 35.0588 43.5853 34.5828 43.464C34.1162 43.352 33.6915 43.17 33.3088 42.918C33.1968 42.8527 33.1222 42.7733 33.0848 42.68C33.0568 42.5867 33.0522 42.4933 33.0708 42.4C33.0895 42.316 33.1315 42.2367 33.1968 42.162C33.2622 42.0967 33.3368 42.0547 33.4208 42.036C33.5142 42.0173 33.6075 42.0313 33.7008 42.078C34.1115 42.33 34.5035 42.5027 34.8768 42.596C35.2502 42.6893 35.6188 42.736 35.9828 42.736C36.6455 42.736 37.1448 42.5587 37.4808 42.204C37.8262 41.8493 37.9988 41.336 37.9988 40.664V39.082H38.1388C37.9988 39.6233 37.7002 40.0527 37.2428 40.37C36.7948 40.6873 36.2675 40.846 35.6608 40.846C35.0355 40.846 34.4942 40.706 34.0368 40.426C33.5795 40.1367 33.2248 39.7353 32.9728 39.222C32.7302 38.7087 32.6088 38.116 32.6088 37.444C32.6088 36.94 32.6788 36.4827 32.8188 36.072C32.9588 35.652 33.1595 35.2973 33.4208 35.008C33.6915 34.7093 34.0135 34.4807 34.3868 34.322C34.7695 34.154 35.1942 34.07 35.6608 34.07C36.2768 34.07 36.8088 34.2287 37.2568 34.546C37.7048 34.854 37.9942 35.274 38.1248 35.806L37.9848 35.974V34.672C37.9848 34.4853 38.0315 34.3453 38.1248 34.252C38.2275 34.1493 38.3675 34.098 38.5448 34.098C38.7315 34.098 38.8715 34.1493 38.9648 34.252C39.0582 34.3453 39.1048 34.4853 39.1048 34.672V40.51C39.1048 41.546 38.8435 42.3253 38.3208 42.848C37.8075 43.38 37.0468 43.646 36.0388 43.646ZM35.8708 39.922C36.3095 39.922 36.6875 39.824 37.0048 39.628C37.3222 39.4227 37.5648 39.1333 37.7328 38.76C37.9102 38.3867 37.9988 37.948 37.9988 37.444C37.9988 36.688 37.8075 36.0907 37.4248 35.652C37.0422 35.204 36.5242 34.98 35.8708 34.98C35.4415 34.98 35.0682 35.0827 34.7508 35.288C34.4335 35.484 34.1862 35.7687 34.0088 36.142C33.8408 36.506 33.7568 36.94 33.7568 37.444C33.7568 38.2 33.9482 38.802 34.3308 39.25C34.7135 39.698 35.2268 39.922 35.8708 39.922ZM44.298 41.126C43.5793 41.126 42.9586 40.986 42.436 40.706C41.9226 40.4167 41.5213 40.0107 41.232 39.488C40.952 38.9653 40.812 38.34 40.812 37.612C40.812 36.9027 40.952 36.2867 41.232 35.764C41.512 35.232 41.8946 34.8167 42.38 34.518C42.8746 34.2193 43.444 34.07 44.088 34.07C44.5453 34.07 44.956 34.1493 45.32 34.308C45.684 34.4573 45.992 34.6767 46.244 34.966C46.5053 35.2553 46.7013 35.6053 46.832 36.016C46.972 36.4267 47.042 36.8887 47.042 37.402C47.042 37.5513 47 37.6633 46.916 37.738C46.832 37.8033 46.7106 37.836 46.552 37.836H41.68V37.094H46.286L46.062 37.276C46.062 36.772 45.9873 36.3473 45.838 36.002C45.6886 35.6473 45.4693 35.3767 45.18 35.19C44.9 35.0033 44.5453 34.91 44.116 34.91C43.64 34.91 43.234 35.022 42.898 35.246C42.5713 35.4607 42.324 35.764 42.156 36.156C41.988 36.5387 41.904 36.9867 41.904 37.5V37.584C41.904 38.4427 42.1093 39.096 42.52 39.544C42.94 39.992 43.5326 40.216 44.298 40.216C44.6153 40.216 44.928 40.174 45.236 40.09C45.5533 40.006 45.8613 39.866 46.16 39.67C46.2906 39.586 46.4073 39.5487 46.51 39.558C46.622 39.558 46.7106 39.5907 46.776 39.656C46.8413 39.712 46.8833 39.7867 46.902 39.88C46.93 39.964 46.9206 40.0573 46.874 40.16C46.8366 40.2627 46.7573 40.3513 46.636 40.426C46.328 40.65 45.964 40.8227 45.544 40.944C45.124 41.0653 44.7086 41.126 44.298 41.126ZM51.2731 41.126C50.6665 41.126 50.1345 40.9813 49.6771 40.692C49.2291 40.4027 48.8791 39.9967 48.6271 39.474C48.3845 38.942 48.2631 38.3167 48.2631 37.598C48.2631 36.87 48.3845 36.2447 48.6271 35.722C48.8791 35.19 49.2291 34.784 49.6771 34.504C50.1345 34.2147 50.6665 34.07 51.2731 34.07C51.8891 34.07 52.4165 34.224 52.8551 34.532C53.2938 34.84 53.5878 35.2553 53.7371 35.778H53.5831V31.606C53.5831 31.4193 53.6298 31.2793 53.7231 31.186C53.8258 31.0833 53.9705 31.032 54.1571 31.032C54.3345 31.032 54.4698 31.0833 54.5631 31.186C54.6658 31.2793 54.7171 31.4193 54.7171 31.606V40.51C54.7171 40.6967 54.6705 40.8413 54.5771 40.944C54.4838 41.0467 54.3438 41.098 54.1571 41.098C53.9798 41.098 53.8398 41.0467 53.7371 40.944C53.6438 40.8413 53.5971 40.6967 53.5971 40.51V39.18L53.7511 39.376C53.6018 39.908 53.3031 40.3327 52.8551 40.65C52.4165 40.9673 51.8891 41.126 51.2731 41.126ZM51.5111 40.216C51.9311 40.216 52.2998 40.1133 52.6171 39.908C52.9345 39.7027 53.1771 39.404 53.3451 39.012C53.5225 38.62 53.6111 38.1487 53.6111 37.598C53.6111 36.7487 53.4198 36.1 53.0371 35.652C52.6638 35.204 52.1551 34.98 51.5111 34.98C51.0818 34.98 50.7085 35.0827 50.3911 35.288C50.0831 35.484 49.8405 35.778 49.6631 36.17C49.4951 36.5527 49.4111 37.0287 49.4111 37.598C49.4111 38.438 49.6025 39.0867 49.9851 39.544C50.3678 39.992 50.8765 40.216 51.5111 40.216Z" fill="#555555"/>
<circle cx="156.5" cy="11" r="10" fill="#54BA54" stroke="white" stroke-width="2"/>
<path d="M152.5 10.6L154.786 13L160.5 8" stroke="white" stroke-width="1.5" stroke-linecap="round" stroke-linejoin="round"/>
<path d="M109.238 41.098C109.042 41.098 108.888 41.0467 108.776 40.944C108.674 40.832 108.622 40.6733 108.622 40.468V31.76C108.622 31.5547 108.674 31.4007 108.776 31.298C108.888 31.186 109.047 31.13 109.252 31.13H114.334C114.493 31.13 114.614 31.172 114.698 31.256C114.782 31.34 114.824 31.4567 114.824 31.606C114.824 31.7647 114.782 31.886 114.698 31.97C114.614 32.054 114.493 32.096 114.334 32.096H109.77V35.54H114.04C114.199 35.54 114.32 35.582 114.404 35.666C114.498 35.75 114.544 35.8667 114.544 36.016C114.544 36.1747 114.498 36.296 114.404 36.38C114.32 36.464 114.199 36.506 114.04 36.506H109.77V40.468C109.77 40.888 109.593 41.098 109.238 41.098ZM118.706 41.126C118.044 41.126 117.47 40.9813 116.984 40.692C116.499 40.4027 116.121 39.9967 115.85 39.474C115.589 38.942 115.458 38.3167 115.458 37.598C115.458 37.0567 115.533 36.5713 115.682 36.142C115.832 35.7033 116.051 35.33 116.34 35.022C116.63 34.714 116.97 34.4807 117.362 34.322C117.764 34.154 118.212 34.07 118.706 34.07C119.369 34.07 119.943 34.2147 120.428 34.504C120.914 34.7933 121.287 35.204 121.548 35.736C121.819 36.2587 121.954 36.8793 121.954 37.598C121.954 38.1393 121.88 38.6247 121.73 39.054C121.581 39.4833 121.362 39.8567 121.072 40.174C120.783 40.482 120.438 40.72 120.036 40.888C119.644 41.0467 119.201 41.126 118.706 41.126ZM118.706 40.216C119.126 40.216 119.495 40.1133 119.812 39.908C120.13 39.7027 120.372 39.404 120.54 39.012C120.718 38.62 120.806 38.1487 120.806 37.598C120.806 36.7487 120.615 36.1 120.232 35.652C119.859 35.204 119.35 34.98 118.706 34.98C118.277 34.98 117.904 35.0827 117.586 35.288C117.278 35.484 117.036 35.778 116.858 36.17C116.69 36.5527 116.606 37.0287 116.606 37.598C116.606 38.438 116.798 39.0867 117.18 39.544C117.563 39.992 118.072 40.216 118.706 40.216ZM126.486 41.126C125.823 41.126 125.249 40.9813 124.764 40.692C124.278 40.4027 123.9 39.9967 123.63 39.474C123.368 38.942 123.238 38.3167 123.238 37.598C123.238 37.0567 123.312 36.5713 123.462 36.142C123.611 35.7033 123.83 35.33 124.12 35.022C124.409 34.714 124.75 34.4807 125.142 34.322C125.543 34.154 125.991 34.07 126.486 34.07C127.148 34.07 127.722 34.2147 128.208 34.504C128.693 34.7933 129.066 35.204 129.328 35.736C129.598 36.2587 129.734 36.8793 129.734 37.598C129.734 38.1393 129.659 38.6247 129.51 39.054C129.36 39.4833 129.141 39.8567 128.852 40.174C128.562 40.482 128.217 40.72 127.816 40.888C127.424 41.0467 126.98 41.126 126.486 41.126ZM126.486 40.216C126.906 40.216 127.274 40.1133 127.592 39.908C127.909 39.7027 128.152 39.404 128.32 39.012C128.497 38.62 128.586 38.1487 128.586 37.598C128.586 36.7487 128.394 36.1 128.012 35.652C127.638 35.204 127.13 34.98 126.486 34.98C126.056 34.98 125.683 35.0827 125.366 35.288C125.058 35.484 124.815 35.778 124.638 36.17C124.47 36.5527 124.386 37.0287 124.386 37.598C124.386 38.438 124.577 39.0867 124.96 39.544C125.342 39.992 125.851 40.216 126.486 40.216ZM134.027 41.126C133.42 41.126 132.888 40.9813 132.431 40.692C131.983 40.4027 131.633 39.9967 131.381 39.474C131.138 38.942 131.017 38.3167 131.017 37.598C131.017 36.87 131.138 36.2447 131.381 35.722C131.633 35.19 131.983 34.784 132.431 34.504C132.888 34.2147 133.42 34.07 134.027 34.07C134.643 34.07 135.17 34.224 135.609 34.532C136.048 34.84 136.342 35.2553 136.491 35.778H136.337V31.606C136.337 31.4193 136.384 31.2793 136.477 31.186C136.58 31.0833 136.724 31.032 136.911 31.032C137.088 31.032 137.224 31.0833 137.317 31.186C137.42 31.2793 137.471 31.4193 137.471 31.606V40.51C137.471 40.6967 137.424 40.8413 137.331 40.944C137.238 41.0467 137.098 41.098 136.911 41.098C136.734 41.098 136.594 41.0467 136.491 40.944C136.398 40.8413 136.351 40.6967 136.351 40.51V39.18L136.505 39.376C136.356 39.908 136.057 40.3327 135.609 40.65C135.17 40.9673 134.643 41.126 134.027 41.126ZM134.265 40.216C134.685 40.216 135.054 40.1133 135.371 39.908C135.688 39.7027 135.931 39.404 136.099 39.012C136.276 38.62 136.365 38.1487 136.365 37.598C136.365 36.7487 136.174 36.1 135.791 35.652C135.418 35.204 134.909 34.98 134.265 34.98C133.836 34.98 133.462 35.0827 133.145 35.288C132.837 35.484 132.594 35.778 132.417 36.17C132.249 36.5527 132.165 37.0287 132.165 37.598C132.165 38.438 132.356 39.0867 132.739 39.544C133.122 39.992 133.63 40.216 134.265 40.216ZM145.351 41.126C144.884 41.126 144.464 41.0373 144.091 40.86C143.727 40.6733 143.437 40.4213 143.223 40.104C143.008 39.7867 142.901 39.432 142.901 39.04C142.901 38.536 143.027 38.1393 143.279 37.85C143.54 37.5607 143.965 37.3553 144.553 37.234C145.15 37.1127 145.962 37.052 146.989 37.052H147.619V37.794H147.003C146.247 37.794 145.649 37.8313 145.211 37.906C144.781 37.9713 144.478 38.088 144.301 38.256C144.133 38.424 144.049 38.662 144.049 38.97C144.049 39.3527 144.179 39.6653 144.441 39.908C144.711 40.1507 145.075 40.272 145.533 40.272C145.906 40.272 146.233 40.1833 146.513 40.006C146.802 39.8287 147.026 39.586 147.185 39.278C147.353 38.97 147.437 38.6153 147.437 38.214V36.618C147.437 36.0393 147.32 35.624 147.087 35.372C146.853 35.1107 146.471 34.98 145.939 34.98C145.612 34.98 145.285 35.022 144.959 35.106C144.632 35.19 144.287 35.3253 143.923 35.512C143.792 35.5773 143.68 35.6007 143.587 35.582C143.493 35.554 143.419 35.5027 143.363 35.428C143.307 35.3533 143.274 35.2693 143.265 35.176C143.255 35.0733 143.274 34.9753 143.321 34.882C143.377 34.7887 143.461 34.714 143.573 34.658C143.983 34.4527 144.389 34.3033 144.791 34.21C145.192 34.1167 145.575 34.07 145.939 34.07C146.527 34.07 147.012 34.168 147.395 34.364C147.777 34.5507 148.062 34.84 148.249 35.232C148.435 35.6147 148.529 36.1093 148.529 36.716V40.51C148.529 40.6967 148.482 40.8413 148.389 40.944C148.305 41.0467 148.179 41.098 148.011 41.098C147.833 41.098 147.698 41.0467 147.605 40.944C147.511 40.8413 147.465 40.6967 147.465 40.51V39.418H147.591C147.516 39.7727 147.371 40.076 147.157 40.328C146.951 40.58 146.695 40.776 146.387 40.916C146.079 41.056 145.733 41.126 145.351 41.126ZM151.192 41.098C151.006 41.098 150.866 41.0467 150.772 40.944C150.679 40.8413 150.632 40.6967 150.632 40.51V34.672C150.632 34.4853 150.679 34.3453 150.772 34.252C150.866 34.1493 151.001 34.098 151.178 34.098C151.356 34.098 151.491 34.1493 151.584 34.252C151.687 34.3453 151.738 34.4853 151.738 34.672V35.876L151.584 35.708C151.78 35.1667 152.098 34.7607 152.536 34.49C152.984 34.21 153.498 34.07 154.076 34.07C154.618 34.07 155.066 34.168 155.42 34.364C155.784 34.56 156.055 34.8587 156.232 35.26C156.41 35.652 156.498 36.1513 156.498 36.758V40.51C156.498 40.6967 156.447 40.8413 156.344 40.944C156.251 41.0467 156.116 41.098 155.938 41.098C155.752 41.098 155.607 41.0467 155.504 40.944C155.411 40.8413 155.364 40.6967 155.364 40.51V36.828C155.364 36.1933 155.238 35.7313 154.986 35.442C154.744 35.1433 154.352 34.994 153.81 34.994C153.185 34.994 152.686 35.19 152.312 35.582C151.948 35.9647 151.766 36.478 151.766 37.122V40.51C151.766 40.902 151.575 41.098 151.192 41.098ZM161.179 41.126C160.573 41.126 160.041 40.9813 159.583 40.692C159.135 40.4027 158.785 39.9967 158.533 39.474C158.291 38.942 158.169 38.3167 158.169 37.598C158.169 36.87 158.291 36.2447 158.533 35.722C158.785 35.19 159.135 34.784 159.583 34.504C160.041 34.2147 160.573 34.07 161.179 34.07C161.795 34.07 162.323 34.224 162.761 34.532C163.2 34.84 163.494 35.2553 163.643 35.778H163.489V31.606C163.489 31.4193 163.536 31.2793 163.629 31.186C163.732 31.0833 163.877 31.032 164.063 31.032C164.241 31.032 164.376 31.0833 164.469 31.186C164.572 31.2793 164.623 31.4193 164.623 31.606V40.51C164.623 40.6967 164.577 40.8413 164.483 40.944C164.39 41.0467 164.25 41.098 164.063 41.098C163.886 41.098 163.746 41.0467 163.643 40.944C163.55 40.8413 163.503 40.6967 163.503 40.51V39.18L163.657 39.376C163.508 39.908 163.209 40.3327 162.761 40.65C162.323 40.9673 161.795 41.126 161.179 41.126ZM161.417 40.216C161.837 40.216 162.206 40.1133 162.523 39.908C162.841 39.7027 163.083 39.404 163.251 39.012C163.429 38.62 163.517 38.1487 163.517 37.598C163.517 36.7487 163.326 36.1 162.943 35.652C162.57 35.204 162.061 34.98 161.417 34.98C160.988 34.98 160.615 35.0827 160.297 35.288C159.989 35.484 159.747 35.778 159.569 36.17C159.401 36.5527 159.317 37.0287 159.317 37.598C159.317 38.438 159.509 39.0867 159.891 39.544C160.274 39.992 160.783 40.216 161.417 40.216ZM174.659 41.126C173.744 41.126 172.946 40.9207 172.265 40.51C171.593 40.09 171.07 39.502 170.697 38.746C170.333 37.99 170.151 37.094 170.151 36.058C170.151 35.274 170.254 34.574 170.459 33.958C170.674 33.3327 170.977 32.8053 171.369 32.376C171.761 31.9373 172.232 31.6013 172.783 31.368C173.343 31.1253 173.968 31.004 174.659 31.004C175.592 31.004 176.395 31.2093 177.067 31.62C177.748 32.0307 178.271 32.614 178.635 33.37C179.008 34.1167 179.195 35.008 179.195 36.044C179.195 36.828 179.088 37.5327 178.873 38.158C178.658 38.7833 178.355 39.3153 177.963 39.754C177.571 40.1927 177.095 40.5333 176.535 40.776C175.984 41.0093 175.359 41.126 174.659 41.126ZM174.659 40.104C175.368 40.104 175.966 39.9453 176.451 39.628C176.946 39.3107 177.324 38.8487 177.585 38.242C177.846 37.6353 177.977 36.9073 177.977 36.058C177.977 34.7793 177.688 33.79 177.109 33.09C176.54 32.3807 175.723 32.026 174.659 32.026C173.968 32.026 173.376 32.1847 172.881 32.502C172.396 32.8193 172.022 33.2813 171.761 33.888C171.5 34.4853 171.369 35.2087 171.369 36.058C171.369 37.3273 171.658 38.3213 172.237 39.04C172.816 39.7493 173.623 40.104 174.659 40.104ZM181.667 41.098C181.481 41.098 181.336 41.0467 181.233 40.944C181.14 40.8413 181.093 40.6967 181.093 40.51V34.672C181.093 34.4853 181.14 34.3453 181.233 34.252C181.327 34.1493 181.462 34.098 181.639 34.098C181.817 34.098 181.952 34.1493 182.045 34.252C182.148 34.3453 182.199 34.4853 182.199 34.672V35.806H182.059C182.209 35.2553 182.493 34.8307 182.913 34.532C183.333 34.2333 183.851 34.0747 184.467 34.056C184.607 34.0467 184.719 34.0793 184.803 34.154C184.887 34.2193 184.934 34.336 184.943 34.504C184.953 34.6627 184.915 34.7887 184.831 34.882C184.747 34.9753 184.617 35.0313 184.439 35.05L184.215 35.078C183.581 35.134 183.091 35.3393 182.745 35.694C182.409 36.0393 182.241 36.5153 182.241 37.122V40.51C182.241 40.6967 182.19 40.8413 182.087 40.944C181.994 41.0467 181.854 41.098 181.667 41.098ZM188.619 41.126C188.012 41.126 187.48 40.9813 187.023 40.692C186.575 40.4027 186.225 39.9967 185.973 39.474C185.73 38.942 185.609 38.3167 185.609 37.598C185.609 36.87 185.73 36.2447 185.973 35.722C186.225 35.19 186.575 34.784 187.023 34.504C187.48 34.2147 188.012 34.07 188.619 34.07C189.235 34.07 189.762 34.224 190.201 34.532C190.64 34.84 190.934 35.2553 191.083 35.778H190.929V31.606C190.929 31.4193 190.976 31.2793 191.069 31.186C191.172 31.0833 191.316 31.032 191.503 31.032C191.68 31.032 191.816 31.0833 191.909 31.186C192.012 31.2793 192.063 31.4193 192.063 31.606V40.51C192.063 40.6967 192.016 40.8413 191.923 40.944C191.83 41.0467 191.69 41.098 191.503 41.098C191.326 41.098 191.186 41.0467 191.083 40.944C190.99 40.8413 190.943 40.6967 190.943 40.51V39.18L191.097 39.376C190.948 39.908 190.649 40.3327 190.201 40.65C189.762 40.9673 189.235 41.126 188.619 41.126ZM188.857 40.216C189.277 40.216 189.646 40.1133 189.963 39.908C190.28 39.7027 190.523 39.404 190.691 39.012C190.868 38.62 190.957 38.1487 190.957 37.598C190.957 36.7487 190.766 36.1 190.383 35.652C190.01 35.204 189.501 34.98 188.857 34.98C188.428 34.98 188.054 35.0827 187.737 35.288C187.429 35.484 187.186 35.778 187.009 36.17C186.841 36.5527 186.757 37.0287 186.757 37.598C186.757 38.438 186.948 39.0867 187.331 39.544C187.714 39.992 188.222 40.216 188.857 40.216ZM197.257 41.126C196.538 41.126 195.918 40.986 195.395 40.706C194.882 40.4167 194.48 40.0107 194.191 39.488C193.911 38.9653 193.771 38.34 193.771 37.612C193.771 36.9027 193.911 36.2867 194.191 35.764C194.471 35.232 194.854 34.8167 195.339 34.518C195.834 34.2193 196.403 34.07 197.047 34.07C197.504 34.07 197.915 34.1493 198.279 34.308C198.643 34.4573 198.951 34.6767 199.203 34.966C199.464 35.2553 199.66 35.6053 199.791 36.016C199.931 36.4267 200.001 36.8887 200.001 37.402C200.001 37.5513 199.959 37.6633 199.875 37.738C199.791 37.8033 199.67 37.836 199.511 37.836H194.639V37.094H199.245L199.021 37.276C199.021 36.772 198.946 36.3473 198.797 36.002C198.648 35.6473 198.428 35.3767 198.139 35.19C197.859 35.0033 197.504 34.91 197.075 34.91C196.599 34.91 196.193 35.022 195.857 35.246C195.53 35.4607 195.283 35.764 195.115 36.156C194.947 36.5387 194.863 36.9867 194.863 37.5V37.584C194.863 38.4427 195.068 39.096 195.479 39.544C195.899 39.992 196.492 40.216 197.257 40.216C197.574 40.216 197.887 40.174 198.195 40.09C198.512 40.006 198.82 39.866 199.119 39.67C199.25 39.586 199.366 39.5487 199.469 39.558C199.581 39.558 199.67 39.5907 199.735 39.656C199.8 39.712 199.842 39.7867 199.861 39.88C199.889 39.964 199.88 40.0573 199.833 40.16C199.796 40.2627 199.716 40.3513 199.595 40.426C199.287 40.65 198.923 40.8227 198.503 40.944C198.083 41.0653 197.668 41.126 197.257 41.126ZM202.216 41.098C202.029 41.098 201.885 41.0467 201.782 40.944C201.689 40.8413 201.642 40.6967 201.642 40.51V34.672C201.642 34.4853 201.689 34.3453 201.782 34.252C201.875 34.1493 202.011 34.098 202.188 34.098C202.365 34.098 202.501 34.1493 202.594 34.252C202.697 34.3453 202.748 34.4853 202.748 34.672V35.806H202.608C202.757 35.2553 203.042 34.8307 203.462 34.532C203.882 34.2333 204.4 34.0747 205.016 34.056C205.156 34.0467 205.268 34.0793 205.352 34.154C205.436 34.2193 205.483 34.336 205.492 34.504C205.501 34.6627 205.464 34.7887 205.38 34.882C205.296 34.9753 205.165 35.0313 204.988 35.05L204.764 35.078C204.129 35.134 203.639 35.3393 203.294 35.694C202.958 36.0393 202.79 36.5153 202.79 37.122V40.51C202.79 40.6967 202.739 40.8413 202.636 40.944C202.543 41.0467 202.403 41.098 202.216 41.098Z" fill="#555555"/>
<circle cx="311" cy="11" r="11" fill="#D9D9D9"/>
<circle cx="311" cy="11" r="9" fill="url(#paint0_radial_3480_10162)"/>
<rect x="298" y="11" width="2" height="2" fill="white"/>
<rect x="322" y="11" width="2" height="2" fill="white"/>
<path d="M259.288 41C259.083 41 258.924 40.9487 258.812 40.846C258.71 40.734 258.658 40.5753 258.658 40.37V31.76C258.658 31.5547 258.71 31.4007 258.812 31.298C258.924 31.186 259.083 31.13 259.288 31.13H262.606C263.288 31.13 263.862 31.2327 264.328 31.438C264.804 31.634 265.168 31.9233 265.42 32.306C265.672 32.6887 265.798 33.1553 265.798 33.706C265.798 34.322 265.616 34.8353 265.252 35.246C264.898 35.6567 264.412 35.9273 263.796 36.058V35.862C264.496 35.946 265.042 36.198 265.434 36.618C265.836 37.038 266.036 37.5933 266.036 38.284C266.036 39.1613 265.752 39.8333 265.182 40.3C264.613 40.7667 263.81 41 262.774 41H259.288ZM259.778 40.076H262.662C263.409 40.076 263.969 39.9267 264.342 39.628C264.716 39.3293 264.902 38.8767 264.902 38.27C264.902 37.654 264.716 37.2013 264.342 36.912C263.969 36.6133 263.409 36.464 262.662 36.464H259.778V40.076ZM259.778 35.54H262.438C263.166 35.54 263.717 35.3907 264.09 35.092C264.473 34.7933 264.664 34.364 264.664 33.804C264.664 33.2253 264.473 32.7913 264.09 32.502C263.717 32.2033 263.166 32.054 262.438 32.054H259.778V35.54ZM268.525 41.07C268.339 41.07 268.199 41.0187 268.105 40.916C268.012 40.804 267.965 40.65 267.965 40.454V34.728C267.965 34.532 268.012 34.3827 268.105 34.28C268.199 34.1773 268.339 34.126 268.525 34.126C268.703 34.126 268.843 34.1773 268.945 34.28C269.048 34.3827 269.099 34.532 269.099 34.728V40.454C269.099 40.65 269.048 40.804 268.945 40.916C268.852 41.0187 268.712 41.07 268.525 41.07ZM268.525 32.558C268.292 32.558 268.11 32.4973 267.979 32.376C267.849 32.2453 267.783 32.0727 267.783 31.858C267.783 31.634 267.849 31.466 267.979 31.354C268.11 31.2327 268.292 31.172 268.525 31.172C268.768 31.172 268.95 31.2327 269.071 31.354C269.202 31.466 269.267 31.634 269.267 31.858C269.267 32.0727 269.202 32.2453 269.071 32.376C268.95 32.4973 268.768 32.558 268.525 32.558ZM273.291 41.126C272.619 41.126 272.106 40.9207 271.751 40.51C271.397 40.0993 271.219 39.5113 271.219 38.746V31.606C271.219 31.4193 271.266 31.2793 271.359 31.186C271.453 31.0833 271.593 31.032 271.779 31.032C271.957 31.032 272.097 31.0833 272.199 31.186C272.302 31.2793 272.353 31.4193 272.353 31.606V38.662C272.353 39.166 272.451 39.544 272.647 39.796C272.853 40.0387 273.151 40.16 273.543 40.16C273.627 40.16 273.702 40.1553 273.767 40.146C273.833 40.1367 273.898 40.132 273.963 40.132C274.066 40.1227 274.136 40.146 274.173 40.202C274.22 40.258 274.243 40.37 274.243 40.538C274.243 40.706 274.206 40.832 274.131 40.916C274.057 41 273.935 41.056 273.767 41.084C273.693 41.0933 273.613 41.1027 273.529 41.112C273.445 41.1213 273.366 41.126 273.291 41.126ZM277.434 41.126C276.762 41.126 276.249 40.9207 275.894 40.51C275.539 40.0993 275.362 39.5113 275.362 38.746V31.606C275.362 31.4193 275.409 31.2793 275.502 31.186C275.595 31.0833 275.735 31.032 275.922 31.032C276.099 31.032 276.239 31.0833 276.342 31.186C276.445 31.2793 276.496 31.4193 276.496 31.606V38.662C276.496 39.166 276.594 39.544 276.79 39.796C276.995 40.0387 277.294 40.16 277.686 40.16C277.77 40.16 277.845 40.1553 277.91 40.146C277.975 40.1367 278.041 40.132 278.106 40.132C278.209 40.1227 278.279 40.146 278.316 40.202C278.363 40.258 278.386 40.37 278.386 40.538C278.386 40.706 278.349 40.832 278.274 40.916C278.199 41 278.078 41.056 277.91 41.084C277.835 41.0933 277.756 41.1027 277.672 41.112C277.588 41.1213 277.509 41.126 277.434 41.126ZM285.256 41.126C284.789 41.126 284.369 41.0373 283.996 40.86C283.632 40.6733 283.342 40.4213 283.128 40.104C282.913 39.7867 282.806 39.432 282.806 39.04C282.806 38.536 282.932 38.1393 283.184 37.85C283.445 37.5607 283.87 37.3553 284.458 37.234C285.055 37.1127 285.867 37.052 286.894 37.052H287.524V37.794H286.908C286.152 37.794 285.554 37.8313 285.116 37.906C284.686 37.9713 284.383 38.088 284.206 38.256C284.038 38.424 283.954 38.662 283.954 38.97C283.954 39.3527 284.084 39.6653 284.346 39.908C284.616 40.1507 284.98 40.272 285.438 40.272C285.811 40.272 286.138 40.1833 286.418 40.006C286.707 39.8287 286.931 39.586 287.09 39.278C287.258 38.97 287.342 38.6153 287.342 38.214V36.618C287.342 36.0393 287.225 35.624 286.992 35.372C286.758 35.1107 286.376 34.98 285.844 34.98C285.517 34.98 285.19 35.022 284.864 35.106C284.537 35.19 284.192 35.3253 283.828 35.512C283.697 35.5773 283.585 35.6007 283.492 35.582C283.398 35.554 283.324 35.5027 283.268 35.428C283.212 35.3533 283.179 35.2693 283.17 35.176C283.16 35.0733 283.179 34.9753 283.226 34.882C283.282 34.7887 283.366 34.714 283.478 34.658C283.888 34.4527 284.294 34.3033 284.696 34.21C285.097 34.1167 285.48 34.07 285.844 34.07C286.432 34.07 286.917 34.168 287.3 34.364C287.682 34.5507 287.967 34.84 288.154 35.232C288.34 35.6147 288.434 36.1093 288.434 36.716V40.51C288.434 40.6967 288.387 40.8413 288.294 40.944C288.21 41.0467 288.084 41.098 287.916 41.098C287.738 41.098 287.603 41.0467 287.51 40.944C287.416 40.8413 287.37 40.6967 287.37 40.51V39.418H287.496C287.421 39.7727 287.276 40.076 287.062 40.328C286.856 40.58 286.6 40.776 286.292 40.916C285.984 41.056 285.638 41.126 285.256 41.126ZM291.098 41.098C290.911 41.098 290.771 41.0467 290.678 40.944C290.584 40.8413 290.538 40.6967 290.538 40.51V34.672C290.538 34.4853 290.584 34.3453 290.678 34.252C290.771 34.1493 290.906 34.098 291.084 34.098C291.261 34.098 291.396 34.1493 291.49 34.252C291.592 34.3453 291.644 34.4853 291.644 34.672V35.876L291.49 35.708C291.686 35.1667 292.003 34.7607 292.442 34.49C292.89 34.21 293.403 34.07 293.982 34.07C294.523 34.07 294.971 34.168 295.326 34.364C295.69 34.56 295.96 34.8587 296.138 35.26C296.315 35.652 296.404 36.1513 296.404 36.758V40.51C296.404 40.6967 296.352 40.8413 296.25 40.944C296.156 41.0467 296.021 41.098 295.844 41.098C295.657 41.098 295.512 41.0467 295.41 40.944C295.316 40.8413 295.27 40.6967 295.27 40.51V36.828C295.27 36.1933 295.144 35.7313 294.892 35.442C294.649 35.1433 294.257 34.994 293.716 34.994C293.09 34.994 292.591 35.19 292.218 35.582C291.854 35.9647 291.672 36.478 291.672 37.122V40.51C291.672 40.902 291.48 41.098 291.098 41.098ZM301.085 41.126C300.478 41.126 299.946 40.9813 299.489 40.692C299.041 40.4027 298.691 39.9967 298.439 39.474C298.196 38.942 298.075 38.3167 298.075 37.598C298.075 36.87 298.196 36.2447 298.439 35.722C298.691 35.19 299.041 34.784 299.489 34.504C299.946 34.2147 300.478 34.07 301.085 34.07C301.701 34.07 302.228 34.224 302.667 34.532C303.105 34.84 303.399 35.2553 303.549 35.778H303.395V31.606C303.395 31.4193 303.441 31.2793 303.535 31.186C303.637 31.0833 303.782 31.032 303.969 31.032C304.146 31.032 304.281 31.0833 304.375 31.186C304.477 31.2793 304.529 31.4193 304.529 31.606V40.51C304.529 40.6967 304.482 40.8413 304.389 40.944C304.295 41.0467 304.155 41.098 303.969 41.098C303.791 41.098 303.651 41.0467 303.549 40.944C303.455 40.8413 303.409 40.6967 303.409 40.51V39.18L303.563 39.376C303.413 39.908 303.115 40.3327 302.667 40.65C302.228 40.9673 301.701 41.126 301.085 41.126ZM301.323 40.216C301.743 40.216 302.111 40.1133 302.429 39.908C302.746 39.7027 302.989 39.404 303.157 39.012C303.334 38.62 303.423 38.1487 303.423 37.598C303.423 36.7487 303.231 36.1 302.849 35.652C302.475 35.204 301.967 34.98 301.323 34.98C300.893 34.98 300.52 35.0827 300.203 35.288C299.895 35.484 299.652 35.778 299.475 36.17C299.307 36.5527 299.223 37.0287 299.223 37.598C299.223 38.438 299.414 39.0867 299.797 39.544C300.179 39.992 300.688 40.216 301.323 40.216ZM310.994 41.098C310.807 41.098 310.663 41.0467 310.56 40.944C310.467 40.832 310.42 40.6827 310.42 40.496V31.718C310.42 31.522 310.471 31.3773 310.574 31.284C310.677 31.1813 310.821 31.13 311.008 31.13H314.326C315.381 31.13 316.193 31.3913 316.762 31.914C317.331 32.4273 317.616 33.1553 317.616 34.098C317.616 35.0313 317.331 35.7593 316.762 36.282C316.193 36.8047 315.381 37.066 314.326 37.066H311.568V40.496C311.568 40.6827 311.521 40.832 311.428 40.944C311.335 41.0467 311.19 41.098 310.994 41.098ZM311.568 36.1H314.186C314.942 36.1 315.511 35.932 315.894 35.596C316.286 35.2507 316.482 34.7513 316.482 34.098C316.482 33.4353 316.286 32.936 315.894 32.6C315.511 32.2547 314.942 32.082 314.186 32.082H311.568V36.1ZM320.926 41.126C320.459 41.126 320.039 41.0373 319.666 40.86C319.302 40.6733 319.012 40.4213 318.798 40.104C318.583 39.7867 318.476 39.432 318.476 39.04C318.476 38.536 318.602 38.1393 318.854 37.85C319.115 37.5607 319.54 37.3553 320.128 37.234C320.725 37.1127 321.537 37.052 322.564 37.052H323.194V37.794H322.578C321.822 37.794 321.224 37.8313 320.786 37.906C320.356 37.9713 320.053 38.088 319.876 38.256C319.708 38.424 319.624 38.662 319.624 38.97C319.624 39.3527 319.754 39.6653 320.016 39.908C320.286 40.1507 320.65 40.272 321.108 40.272C321.481 40.272 321.808 40.1833 322.088 40.006C322.377 39.8287 322.601 39.586 322.76 39.278C322.928 38.97 323.012 38.6153 323.012 38.214V36.618C323.012 36.0393 322.895 35.624 322.662 35.372C322.428 35.1107 322.046 34.98 321.514 34.98C321.187 34.98 320.86 35.022 320.534 35.106C320.207 35.19 319.862 35.3253 319.498 35.512C319.367 35.5773 319.255 35.6007 319.162 35.582C319.068 35.554 318.994 35.5027 318.938 35.428C318.882 35.3533 318.849 35.2693 318.84 35.176C318.83 35.0733 318.849 34.9753 318.896 34.882C318.952 34.7887 319.036 34.714 319.148 34.658C319.558 34.4527 319.964 34.3033 320.366 34.21C320.767 34.1167 321.15 34.07 321.514 34.07C322.102 34.07 322.587 34.168 322.97 34.364C323.352 34.5507 323.637 34.84 323.824 35.232C324.01 35.6147 324.104 36.1093 324.104 36.716V40.51C324.104 40.6967 324.057 40.8413 323.964 40.944C323.88 41.0467 323.754 41.098 323.586 41.098C323.408 41.098 323.273 41.0467 323.18 40.944C323.086 40.8413 323.04 40.6967 323.04 40.51V39.418H323.166C323.091 39.7727 322.946 40.076 322.732 40.328C322.526 40.58 322.27 40.776 321.962 40.916C321.654 41.056 321.308 41.126 320.926 41.126ZM327.651 43.618C327.511 43.618 327.399 43.5807 327.315 43.506C327.231 43.4313 327.18 43.3287 327.161 43.198C327.152 43.0767 327.175 42.9507 327.231 42.82L328.197 40.65V41.14L325.509 34.896C325.453 34.756 325.435 34.6253 325.453 34.504C325.472 34.3827 325.528 34.2847 325.621 34.21C325.715 34.1353 325.845 34.098 326.013 34.098C326.163 34.098 326.279 34.1307 326.363 34.196C326.447 34.2613 326.522 34.378 326.587 34.546L328.883 40.174H328.505L330.829 34.546C330.904 34.378 330.983 34.2613 331.067 34.196C331.151 34.1307 331.273 34.098 331.431 34.098C331.581 34.098 331.693 34.1353 331.767 34.21C331.851 34.2847 331.898 34.3827 331.907 34.504C331.926 34.616 331.907 34.742 331.851 34.882L328.267 43.17C328.193 43.338 328.109 43.4547 328.015 43.52C327.931 43.5853 327.81 43.618 327.651 43.618ZM333.919 41.098C333.732 41.098 333.592 41.0467 333.499 40.944C333.405 40.8413 333.359 40.6967 333.359 40.51V34.672C333.359 34.4853 333.405 34.3453 333.499 34.252C333.592 34.1493 333.727 34.098 333.905 34.098C334.082 34.098 334.217 34.1493 334.311 34.252C334.413 34.3453 334.465 34.4853 334.465 34.672V35.904L334.311 35.708C334.488 35.1853 334.773 34.784 335.165 34.504C335.566 34.2147 336.042 34.07 336.593 34.07C337.171 34.07 337.638 34.21 337.993 34.49C338.357 34.7607 338.599 35.1853 338.721 35.764H338.511C338.679 35.2413 338.977 34.8307 339.407 34.532C339.845 34.224 340.354 34.07 340.933 34.07C341.446 34.07 341.866 34.168 342.193 34.364C342.529 34.56 342.781 34.8587 342.949 35.26C343.117 35.652 343.201 36.1513 343.201 36.758V40.51C343.201 40.6967 343.149 40.8413 343.047 40.944C342.953 41.0467 342.813 41.098 342.627 41.098C342.449 41.098 342.309 41.0467 342.207 40.944C342.113 40.8413 342.067 40.6967 342.067 40.51V36.814C342.067 36.1887 341.959 35.7313 341.745 35.442C341.53 35.1433 341.166 34.994 340.653 34.994C340.093 34.994 339.649 35.19 339.323 35.582C339.005 35.9647 338.847 36.4873 338.847 37.15V40.51C338.847 40.6967 338.795 40.8413 338.693 40.944C338.599 41.0467 338.459 41.098 338.273 41.098C338.095 41.098 337.955 41.0467 337.853 40.944C337.759 40.8413 337.713 40.6967 337.713 40.51V36.814C337.713 36.1887 337.601 35.7313 337.377 35.442C337.162 35.1433 336.803 34.994 336.299 34.994C335.739 34.994 335.295 35.19 334.969 35.582C334.651 35.9647 334.493 36.4873 334.493 37.15V40.51C334.493 40.902 334.301 41.098 333.919 41.098ZM348.387 41.126C347.668 41.126 347.048 40.986 346.525 40.706C346.012 40.4167 345.61 40.0107 345.321 39.488C345.041 38.9653 344.901 38.34 344.901 37.612C344.901 36.9027 345.041 36.2867 345.321 35.764C345.601 35.232 345.984 34.8167 346.469 34.518C346.964 34.2193 347.533 34.07 348.177 34.07C348.634 34.07 349.045 34.1493 349.409 34.308C349.773 34.4573 350.081 34.6767 350.333 34.966C350.594 35.2553 350.79 35.6053 350.921 36.016C351.061 36.4267 351.131 36.8887 351.131 37.402C351.131 37.5513 351.089 37.6633 351.005 37.738C350.921 37.8033 350.8 37.836 350.641 37.836H345.769V37.094H350.375L350.151 37.276C350.151 36.772 350.076 36.3473 349.927 36.002C349.778 35.6473 349.558 35.3767 349.269 35.19C348.989 35.0033 348.634 34.91 348.205 34.91C347.729 34.91 347.323 35.022 346.987 35.246C346.66 35.4607 346.413 35.764 346.245 36.156C346.077 36.5387 345.993 36.9867 345.993 37.5V37.584C345.993 38.4427 346.198 39.096 346.609 39.544C347.029 39.992 347.622 40.216 348.387 40.216C348.704 40.216 349.017 40.174 349.325 40.09C349.642 40.006 349.95 39.866 350.249 39.67C350.38 39.586 350.496 39.5487 350.599 39.558C350.711 39.558 350.8 39.5907 350.865 39.656C350.93 39.712 350.972 39.7867 350.991 39.88C351.019 39.964 351.01 40.0573 350.963 40.16C350.926 40.2627 350.846 40.3513 350.725 40.426C350.417 40.65 350.053 40.8227 349.633 40.944C349.213 41.0653 348.798 41.126 348.387 41.126ZM353.332 41.098C353.145 41.098 353.005 41.0467 352.912 40.944C352.819 40.8413 352.772 40.6967 352.772 40.51V34.672C352.772 34.4853 352.819 34.3453 352.912 34.252C353.005 34.1493 353.141 34.098 353.318 34.098C353.495 34.098 353.631 34.1493 353.724 34.252C353.827 34.3453 353.878 34.4853 353.878 34.672V35.876L353.724 35.708C353.92 35.1667 354.237 34.7607 354.676 34.49C355.124 34.21 355.637 34.07 356.216 34.07C356.757 34.07 357.205 34.168 357.56 34.364C357.924 34.56 358.195 34.8587 358.372 35.26C358.549 35.652 358.638 36.1513 358.638 36.758V40.51C358.638 40.6967 358.587 40.8413 358.484 40.944C358.391 41.0467 358.255 41.098 358.078 41.098C357.891 41.098 357.747 41.0467 357.644 40.944C357.551 40.8413 357.504 40.6967 357.504 40.51V36.828C357.504 36.1933 357.378 35.7313 357.126 35.442C356.883 35.1433 356.491 34.994 355.95 34.994C355.325 34.994 354.825 35.19 354.452 35.582C354.088 35.9647 353.906 36.478 353.906 37.122V40.51C353.906 40.902 353.715 41.098 353.332 41.098ZM363.459 41.126C362.927 41.126 362.479 41.0327 362.115 40.846C361.76 40.65 361.494 40.37 361.317 40.006C361.14 39.6327 361.051 39.18 361.051 38.648V35.078H360.113C359.954 35.078 359.833 35.0407 359.749 34.966C359.665 34.882 359.623 34.77 359.623 34.63C359.623 34.49 359.665 34.3827 359.749 34.308C359.833 34.2333 359.954 34.196 360.113 34.196H361.051V32.586C361.051 32.3993 361.102 32.2593 361.205 32.166C361.308 32.0633 361.448 32.012 361.625 32.012C361.802 32.012 361.938 32.0633 362.031 32.166C362.134 32.2593 362.185 32.3993 362.185 32.586V34.196H363.949C364.108 34.196 364.229 34.2333 364.313 34.308C364.397 34.3827 364.439 34.49 364.439 34.63C364.439 34.77 364.397 34.882 364.313 34.966C364.229 35.0407 364.108 35.078 363.949 35.078H362.185V38.536C362.185 39.068 362.297 39.474 362.521 39.754C362.745 40.0247 363.109 40.16 363.613 40.16C363.79 40.16 363.94 40.1413 364.061 40.104C364.192 40.0667 364.299 40.048 364.383 40.048C364.467 40.0387 364.537 40.0667 364.593 40.132C364.649 40.1973 364.677 40.3093 364.677 40.468C364.677 40.58 364.654 40.6827 364.607 40.776C364.57 40.8693 364.5 40.9347 364.397 40.972C364.285 41.0093 364.136 41.042 363.949 41.07C363.772 41.1073 363.608 41.126 363.459 41.126Z" fill="#555555"/>
<circle cx="476" cy="11" r="11" fill="#D9D9D9"/>
<circle cx="476" cy="11" r="8" fill="#EEEEEE"/>
<path d="M418.121 41.098C417.934 41.098 417.79 41.0467 417.687 40.944C417.594 40.832 417.547 40.6827 417.547 40.496V31.718C417.547 31.522 417.598 31.3773 417.701 31.284C417.804 31.1813 417.948 31.13 418.135 31.13H421.453C422.508 31.13 423.32 31.3773 423.889 31.872C424.458 32.3667 424.743 33.0713 424.743 33.986C424.743 34.5647 424.612 35.0687 424.351 35.498C424.099 35.918 423.726 36.24 423.231 36.464C422.736 36.6787 422.144 36.786 421.453 36.786L421.593 36.604H421.873C422.237 36.604 422.554 36.6973 422.825 36.884C423.096 37.0707 423.343 37.3693 423.567 37.78L424.911 40.286C424.986 40.4167 425.018 40.5473 425.009 40.678C425.009 40.7993 424.967 40.902 424.883 40.986C424.799 41.0607 424.678 41.098 424.519 41.098C424.36 41.098 424.23 41.0607 424.127 40.986C424.024 40.9113 423.936 40.804 423.861 40.664L422.335 37.836C422.12 37.4347 421.873 37.1687 421.593 37.038C421.313 36.898 420.944 36.828 420.487 36.828H418.695V40.496C418.695 40.6827 418.648 40.832 418.555 40.944C418.462 41.0467 418.317 41.098 418.121 41.098ZM418.695 35.918H421.285C422.05 35.918 422.629 35.7593 423.021 35.442C423.413 35.1153 423.609 34.63 423.609 33.986C423.609 33.3607 423.413 32.8893 423.021 32.572C422.629 32.2453 422.05 32.082 421.285 32.082H418.695V35.918ZM428.873 41.126C428.406 41.126 427.986 41.0373 427.613 40.86C427.249 40.6733 426.96 40.4213 426.745 40.104C426.53 39.7867 426.423 39.432 426.423 39.04C426.423 38.536 426.549 38.1393 426.801 37.85C427.062 37.5607 427.487 37.3553 428.075 37.234C428.672 37.1127 429.484 37.052 430.511 37.052H431.141V37.794H430.525C429.769 37.794 429.172 37.8313 428.733 37.906C428.304 37.9713 428 38.088 427.823 38.256C427.655 38.424 427.571 38.662 427.571 38.97C427.571 39.3527 427.702 39.6653 427.963 39.908C428.234 40.1507 428.598 40.272 429.055 40.272C429.428 40.272 429.755 40.1833 430.035 40.006C430.324 39.8287 430.548 39.586 430.707 39.278C430.875 38.97 430.959 38.6153 430.959 38.214V36.618C430.959 36.0393 430.842 35.624 430.609 35.372C430.376 35.1107 429.993 34.98 429.461 34.98C429.134 34.98 428.808 35.022 428.481 35.106C428.154 35.19 427.809 35.3253 427.445 35.512C427.314 35.5773 427.202 35.6007 427.109 35.582C427.016 35.554 426.941 35.5027 426.885 35.428C426.829 35.3533 426.796 35.2693 426.787 35.176C426.778 35.0733 426.796 34.9753 426.843 34.882C426.899 34.7887 426.983 34.714 427.095 34.658C427.506 34.4527 427.912 34.3033 428.313 34.21C428.714 34.1167 429.097 34.07 429.461 34.07C430.049 34.07 430.534 34.168 430.917 34.364C431.3 34.5507 431.584 34.84 431.771 35.232C431.958 35.6147 432.051 36.1093 432.051 36.716V40.51C432.051 40.6967 432.004 40.8413 431.911 40.944C431.827 41.0467 431.701 41.098 431.533 41.098C431.356 41.098 431.22 41.0467 431.127 40.944C431.034 40.8413 430.987 40.6967 430.987 40.51V39.418H431.113C431.038 39.7727 430.894 40.076 430.679 40.328C430.474 40.58 430.217 40.776 429.909 40.916C429.601 41.056 429.256 41.126 428.873 41.126ZM436.885 41.126C436.353 41.126 435.905 41.0327 435.541 40.846C435.186 40.65 434.92 40.37 434.743 40.006C434.565 39.6327 434.477 39.18 434.477 38.648V35.078H433.539C433.38 35.078 433.259 35.0407 433.175 34.966C433.091 34.882 433.049 34.77 433.049 34.63C433.049 34.49 433.091 34.3827 433.175 34.308C433.259 34.2333 433.38 34.196 433.539 34.196H434.477V32.586C434.477 32.3993 434.528 32.2593 434.631 32.166C434.733 32.0633 434.873 32.012 435.051 32.012C435.228 32.012 435.363 32.0633 435.457 32.166C435.559 32.2593 435.611 32.3993 435.611 32.586V34.196H437.375C437.533 34.196 437.655 34.2333 437.739 34.308C437.823 34.3827 437.865 34.49 437.865 34.63C437.865 34.77 437.823 34.882 437.739 34.966C437.655 35.0407 437.533 35.078 437.375 35.078H435.611V38.536C435.611 39.068 435.723 39.474 435.947 39.754C436.171 40.0247 436.535 40.16 437.039 40.16C437.216 40.16 437.365 40.1413 437.487 40.104C437.617 40.0667 437.725 40.048 437.809 40.048C437.893 40.0387 437.963 40.0667 438.019 40.132C438.075 40.1973 438.103 40.3093 438.103 40.468C438.103 40.58 438.079 40.6827 438.033 40.776C437.995 40.8693 437.925 40.9347 437.823 40.972C437.711 41.0093 437.561 41.042 437.375 41.07C437.197 41.1073 437.034 41.126 436.885 41.126ZM442.047 41.126C441.328 41.126 440.708 40.986 440.185 40.706C439.672 40.4167 439.27 40.0107 438.981 39.488C438.701 38.9653 438.561 38.34 438.561 37.612C438.561 36.9027 438.701 36.2867 438.981 35.764C439.261 35.232 439.644 34.8167 440.129 34.518C440.624 34.2193 441.193 34.07 441.837 34.07C442.294 34.07 442.705 34.1493 443.069 34.308C443.433 34.4573 443.741 34.6767 443.993 34.966C444.254 35.2553 444.45 35.6053 444.581 36.016C444.721 36.4267 444.791 36.8887 444.791 37.402C444.791 37.5513 444.749 37.6633 444.665 37.738C444.581 37.8033 444.46 37.836 444.301 37.836H439.429V37.094H444.035L443.811 37.276C443.811 36.772 443.736 36.3473 443.587 36.002C443.438 35.6473 443.218 35.3767 442.929 35.19C442.649 35.0033 442.294 34.91 441.865 34.91C441.389 34.91 440.983 35.022 440.647 35.246C440.32 35.4607 440.073 35.764 439.905 36.156C439.737 36.5387 439.653 36.9867 439.653 37.5V37.584C439.653 38.4427 439.858 39.096 440.269 39.544C440.689 39.992 441.282 40.216 442.047 40.216C442.364 40.216 442.677 40.174 442.985 40.09C443.302 40.006 443.61 39.866 443.909 39.67C444.04 39.586 444.156 39.5487 444.259 39.558C444.371 39.558 444.46 39.5907 444.525 39.656C444.59 39.712 444.632 39.7867 444.651 39.88C444.679 39.964 444.67 40.0573 444.623 40.16C444.586 40.2627 444.506 40.3513 444.385 40.426C444.077 40.65 443.713 40.8227 443.293 40.944C442.873 41.0653 442.458 41.126 442.047 41.126ZM452.184 41.126C451.717 41.126 451.297 41.0373 450.924 40.86C450.56 40.6733 450.27 40.4213 450.056 40.104C449.841 39.7867 449.734 39.432 449.734 39.04C449.734 38.536 449.86 38.1393 450.112 37.85C450.373 37.5607 450.798 37.3553 451.386 37.234C451.983 37.1127 452.795 37.052 453.822 37.052H454.452V37.794H453.836C453.08 37.794 452.482 37.8313 452.044 37.906C451.614 37.9713 451.311 38.088 451.134 38.256C450.966 38.424 450.882 38.662 450.882 38.97C450.882 39.3527 451.012 39.6653 451.274 39.908C451.544 40.1507 451.908 40.272 452.366 40.272C452.739 40.272 453.066 40.1833 453.346 40.006C453.635 39.8287 453.859 39.586 454.018 39.278C454.186 38.97 454.27 38.6153 454.27 38.214V36.618C454.27 36.0393 454.153 35.624 453.92 35.372C453.686 35.1107 453.304 34.98 452.772 34.98C452.445 34.98 452.118 35.022 451.792 35.106C451.465 35.19 451.12 35.3253 450.756 35.512C450.625 35.5773 450.513 35.6007 450.42 35.582C450.326 35.554 450.252 35.5027 450.196 35.428C450.14 35.3533 450.107 35.2693 450.098 35.176C450.088 35.0733 450.107 34.9753 450.154 34.882C450.21 34.7887 450.294 34.714 450.406 34.658C450.816 34.4527 451.222 34.3033 451.624 34.21C452.025 34.1167 452.408 34.07 452.772 34.07C453.36 34.07 453.845 34.168 454.228 34.364C454.61 34.5507 454.895 34.84 455.082 35.232C455.268 35.6147 455.362 36.1093 455.362 36.716V40.51C455.362 40.6967 455.315 40.8413 455.222 40.944C455.138 41.0467 455.012 41.098 454.844 41.098C454.666 41.098 454.531 41.0467 454.438 40.944C454.344 40.8413 454.298 40.6967 454.298 40.51V39.418H454.424C454.349 39.7727 454.204 40.076 453.99 40.328C453.784 40.58 453.528 40.776 453.22 40.916C452.912 41.056 452.566 41.126 452.184 41.126ZM458.025 41.098C457.839 41.098 457.699 41.0467 457.605 40.944C457.512 40.8413 457.465 40.6967 457.465 40.51V34.672C457.465 34.4853 457.512 34.3453 457.605 34.252C457.699 34.1493 457.834 34.098 458.011 34.098C458.189 34.098 458.324 34.1493 458.417 34.252C458.52 34.3453 458.571 34.4853 458.571 34.672V35.876L458.417 35.708C458.613 35.1667 458.931 34.7607 459.369 34.49C459.817 34.21 460.331 34.07 460.909 34.07C461.451 34.07 461.899 34.168 462.253 34.364C462.617 34.56 462.888 34.8587 463.065 35.26C463.243 35.652 463.331 36.1513 463.331 36.758V40.51C463.331 40.6967 463.28 40.8413 463.177 40.944C463.084 41.0467 462.949 41.098 462.771 41.098C462.585 41.098 462.44 41.0467 462.337 40.944C462.244 40.8413 462.197 40.6967 462.197 40.51V36.828C462.197 36.1933 462.071 35.7313 461.819 35.442C461.577 35.1433 461.185 34.994 460.643 34.994C460.018 34.994 459.519 35.19 459.145 35.582C458.781 35.9647 458.599 36.478 458.599 37.122V40.51C458.599 40.902 458.408 41.098 458.025 41.098ZM468.012 41.126C467.406 41.126 466.874 40.9813 466.416 40.692C465.968 40.4027 465.618 39.9967 465.366 39.474C465.124 38.942 465.002 38.3167 465.002 37.598C465.002 36.87 465.124 36.2447 465.366 35.722C465.618 35.19 465.968 34.784 466.416 34.504C466.874 34.2147 467.406 34.07 468.012 34.07C468.628 34.07 469.156 34.224 469.594 34.532C470.033 34.84 470.327 35.2553 470.476 35.778H470.322V31.606C470.322 31.4193 470.369 31.2793 470.462 31.186C470.565 31.0833 470.71 31.032 470.896 31.032C471.074 31.032 471.209 31.0833 471.302 31.186C471.405 31.2793 471.456 31.4193 471.456 31.606V40.51C471.456 40.6967 471.41 40.8413 471.316 40.944C471.223 41.0467 471.083 41.098 470.896 41.098C470.719 41.098 470.579 41.0467 470.476 40.944C470.383 40.8413 470.336 40.6967 470.336 40.51V39.18L470.49 39.376C470.341 39.908 470.042 40.3327 469.594 40.65C469.156 40.9673 468.628 41.126 468.012 41.126ZM468.25 40.216C468.67 40.216 469.039 40.1133 469.356 39.908C469.674 39.7027 469.916 39.404 470.084 39.012C470.262 38.62 470.35 38.1487 470.35 37.598C470.35 36.7487 470.159 36.1 469.776 35.652C469.403 35.204 468.894 34.98 468.25 34.98C467.821 34.98 467.448 35.0827 467.13 35.288C466.822 35.484 466.58 35.778 466.402 36.17C466.234 36.5527 466.15 37.0287 466.15 37.598C466.15 38.438 466.342 39.0867 466.724 39.544C467.107 39.992 467.616 40.216 468.25 40.216ZM477.964 41.098C477.768 41.098 477.614 41.0467 477.502 40.944C477.399 40.832 477.348 40.6733 477.348 40.468V31.76C477.348 31.5547 477.399 31.4007 477.502 31.298C477.614 31.186 477.773 31.13 477.978 31.13H483.06C483.219 31.13 483.34 31.172 483.424 31.256C483.508 31.34 483.55 31.4567 483.55 31.606C483.55 31.7647 483.508 31.886 483.424 31.97C483.34 32.054 483.219 32.096 483.06 32.096H478.496V35.54H482.766C482.925 35.54 483.046 35.582 483.13 35.666C483.223 35.75 483.27 35.8667 483.27 36.016C483.27 36.1747 483.223 36.296 483.13 36.38C483.046 36.464 482.925 36.506 482.766 36.506H478.496V40.468C478.496 40.888 478.319 41.098 477.964 41.098ZM487.67 41.126C486.951 41.126 486.331 40.986 485.808 40.706C485.295 40.4167 484.893 40.0107 484.604 39.488C484.324 38.9653 484.184 38.34 484.184 37.612C484.184 36.9027 484.324 36.2867 484.604 35.764C484.884 35.232 485.267 34.8167 485.752 34.518C486.247 34.2193 486.816 34.07 487.46 34.07C487.917 34.07 488.328 34.1493 488.692 34.308C489.056 34.4573 489.364 34.6767 489.616 34.966C489.877 35.2553 490.073 35.6053 490.204 36.016C490.344 36.4267 490.414 36.8887 490.414 37.402C490.414 37.5513 490.372 37.6633 490.288 37.738C490.204 37.8033 490.083 37.836 489.924 37.836H485.052V37.094H489.658L489.434 37.276C489.434 36.772 489.359 36.3473 489.21 36.002C489.061 35.6473 488.841 35.3767 488.552 35.19C488.272 35.0033 487.917 34.91 487.488 34.91C487.012 34.91 486.606 35.022 486.27 35.246C485.943 35.4607 485.696 35.764 485.528 36.156C485.36 36.5387 485.276 36.9867 485.276 37.5V37.584C485.276 38.4427 485.481 39.096 485.892 39.544C486.312 39.992 486.905 40.216 487.67 40.216C487.987 40.216 488.3 40.174 488.608 40.09C488.925 40.006 489.233 39.866 489.532 39.67C489.663 39.586 489.779 39.5487 489.882 39.558C489.994 39.558 490.083 39.5907 490.148 39.656C490.213 39.712 490.255 39.7867 490.274 39.88C490.302 39.964 490.293 40.0573 490.246 40.16C490.209 40.2627 490.129 40.3513 490.008 40.426C489.7 40.65 489.336 40.8227 488.916 40.944C488.496 41.0653 488.081 41.126 487.67 41.126ZM495.121 41.126C494.403 41.126 493.782 40.986 493.259 40.706C492.746 40.4167 492.345 40.0107 492.055 39.488C491.775 38.9653 491.635 38.34 491.635 37.612C491.635 36.9027 491.775 36.2867 492.055 35.764C492.335 35.232 492.718 34.8167 493.203 34.518C493.698 34.2193 494.267 34.07 494.911 34.07C495.369 34.07 495.779 34.1493 496.143 34.308C496.507 34.4573 496.815 34.6767 497.067 34.966C497.329 35.2553 497.525 35.6053 497.655 36.016C497.795 36.4267 497.865 36.8887 497.865 37.402C497.865 37.5513 497.823 37.6633 497.739 37.738C497.655 37.8033 497.534 37.836 497.375 37.836H492.503V37.094H497.109L496.885 37.276C496.885 36.772 496.811 36.3473 496.661 36.002C496.512 35.6473 496.293 35.3767 496.003 35.19C495.723 35.0033 495.369 34.91 494.939 34.91C494.463 34.91 494.057 35.022 493.721 35.246C493.395 35.4607 493.147 35.764 492.979 36.156C492.811 36.5387 492.727 36.9867 492.727 37.5V37.584C492.727 38.4427 492.933 39.096 493.343 39.544C493.763 39.992 494.356 40.216 495.121 40.216C495.439 40.216 495.751 40.174 496.059 40.09C496.377 40.006 496.685 39.866 496.983 39.67C497.114 39.586 497.231 39.5487 497.333 39.558C497.445 39.558 497.534 39.5907 497.599 39.656C497.665 39.712 497.707 39.7867 497.725 39.88C497.753 39.964 497.744 40.0573 497.697 40.16C497.66 40.2627 497.581 40.3513 497.459 40.426C497.151 40.65 496.787 40.8227 496.367 40.944C495.947 41.0653 495.532 41.126 495.121 41.126ZM502.096 41.126C501.49 41.126 500.958 40.9813 500.5 40.692C500.052 40.4027 499.702 39.9967 499.45 39.474C499.208 38.942 499.086 38.3167 499.086 37.598C499.086 36.87 499.208 36.2447 499.45 35.722C499.702 35.19 500.052 34.784 500.5 34.504C500.958 34.2147 501.49 34.07 502.096 34.07C502.712 34.07 503.24 34.224 503.678 34.532C504.117 34.84 504.411 35.2553 504.56 35.778H504.406V31.606C504.406 31.4193 504.453 31.2793 504.546 31.186C504.649 31.0833 504.794 31.032 504.98 31.032C505.158 31.032 505.293 31.0833 505.386 31.186C505.489 31.2793 505.54 31.4193 505.54 31.606V40.51C505.54 40.6967 505.494 40.8413 505.4 40.944C505.307 41.0467 505.167 41.098 504.98 41.098C504.803 41.098 504.663 41.0467 504.56 40.944C504.467 40.8413 504.42 40.6967 504.42 40.51V39.18L504.574 39.376C504.425 39.908 504.126 40.3327 503.678 40.65C503.24 40.9673 502.712 41.126 502.096 41.126ZM502.334 40.216C502.754 40.216 503.123 40.1133 503.44 39.908C503.758 39.7027 504 39.404 504.168 39.012C504.346 38.62 504.434 38.1487 504.434 37.598C504.434 36.7487 504.243 36.1 503.86 35.652C503.487 35.204 502.978 34.98 502.334 34.98C501.905 34.98 501.532 35.0827 501.214 35.288C500.906 35.484 500.664 35.778 500.486 36.17C500.318 36.5527 500.234 37.0287 500.234 37.598C500.234 38.438 500.426 39.0867 500.808 39.544C501.191 39.992 501.7 40.216 502.334 40.216ZM511.112 41.126C510.496 41.126 509.964 40.9673 509.516 40.65C509.078 40.3327 508.784 39.908 508.634 39.376L508.788 39.222V40.51C508.788 40.6967 508.737 40.8413 508.634 40.944C508.541 41.0467 508.406 41.098 508.228 41.098C508.042 41.098 507.902 41.0467 507.808 40.944C507.715 40.8413 507.668 40.6967 507.668 40.51V31.606C507.668 31.4193 507.715 31.2793 507.808 31.186C507.902 31.0833 508.042 31.032 508.228 31.032C508.406 31.032 508.546 31.0833 508.648 31.186C508.751 31.2793 508.802 31.4193 508.802 31.606V35.778H508.634C508.793 35.2553 509.092 34.84 509.53 34.532C509.969 34.224 510.496 34.07 511.112 34.07C511.728 34.07 512.26 34.2147 512.708 34.504C513.156 34.784 513.502 35.19 513.744 35.722C513.996 36.2447 514.122 36.87 514.122 37.598C514.122 38.3167 513.996 38.942 513.744 39.474C513.502 39.9967 513.152 40.4027 512.694 40.692C512.246 40.9813 511.719 41.126 511.112 41.126ZM510.874 40.216C511.304 40.216 511.672 40.1133 511.98 39.908C512.298 39.7027 512.54 39.404 512.708 39.012C512.886 38.62 512.974 38.1487 512.974 37.598C512.974 36.7487 512.783 36.1 512.4 35.652C512.027 35.204 511.518 34.98 510.874 34.98C510.454 34.98 510.086 35.0827 509.768 35.288C509.451 35.484 509.204 35.778 509.026 36.17C508.858 36.5527 508.774 37.0287 508.774 37.598C508.774 38.438 508.966 39.0867 509.348 39.544C509.731 39.992 510.24 40.216 510.874 40.216ZM517.973 41.126C517.506 41.126 517.086 41.0373 516.713 40.86C516.349 40.6733 516.059 40.4213 515.845 40.104C515.63 39.7867 515.523 39.432 515.523 39.04C515.523 38.536 515.649 38.1393 515.901 37.85C516.162 37.5607 516.587 37.3553 517.175 37.234C517.772 37.1127 518.584 37.052 519.611 37.052H520.241V37.794H519.625C518.869 37.794 518.271 37.8313 517.833 37.906C517.403 37.9713 517.1 38.088 516.923 38.256C516.755 38.424 516.671 38.662 516.671 38.97C516.671 39.3527 516.801 39.6653 517.063 39.908C517.333 40.1507 517.697 40.272 518.155 40.272C518.528 40.272 518.855 40.1833 519.135 40.006C519.424 39.8287 519.648 39.586 519.807 39.278C519.975 38.97 520.059 38.6153 520.059 38.214V36.618C520.059 36.0393 519.942 35.624 519.709 35.372C519.475 35.1107 519.093 34.98 518.561 34.98C518.234 34.98 517.907 35.022 517.581 35.106C517.254 35.19 516.909 35.3253 516.545 35.512C516.414 35.5773 516.302 35.6007 516.209 35.582C516.115 35.554 516.041 35.5027 515.985 35.428C515.929 35.3533 515.896 35.2693 515.887 35.176C515.877 35.0733 515.896 34.9753 515.943 34.882C515.999 34.7887 516.083 34.714 516.195 34.658C516.605 34.4527 517.011 34.3033 517.413 34.21C517.814 34.1167 518.197 34.07 518.561 34.07C519.149 34.07 519.634 34.168 520.017 34.364C520.399 34.5507 520.684 34.84 520.871 35.232C521.057 35.6147 521.151 36.1093 521.151 36.716V40.51C521.151 40.6967 521.104 40.8413 521.011 40.944C520.927 41.0467 520.801 41.098 520.633 41.098C520.455 41.098 520.32 41.0467 520.227 40.944C520.133 40.8413 520.087 40.6967 520.087 40.51V39.418H520.213C520.138 39.7727 519.993 40.076 519.779 40.328C519.573 40.58 519.317 40.776 519.009 40.916C518.701 41.056 518.355 41.126 517.973 41.126ZM526.138 41.126C525.457 41.126 524.869 40.9767 524.374 40.678C523.88 40.3793 523.497 39.964 523.226 39.432C522.965 38.8907 522.834 38.2653 522.834 37.556C522.834 37.0147 522.909 36.5293 523.058 36.1C523.208 35.6707 523.427 35.3067 523.716 35.008C524.006 34.7 524.351 34.4667 524.752 34.308C525.163 34.1493 525.625 34.07 526.138 34.07C526.474 34.07 526.824 34.1213 527.188 34.224C527.552 34.3267 527.884 34.504 528.182 34.756C528.276 34.8213 528.336 34.9007 528.364 34.994C528.392 35.0873 528.392 35.1807 528.364 35.274C528.336 35.358 528.29 35.4327 528.224 35.498C528.159 35.554 528.075 35.5867 527.972 35.596C527.879 35.6053 527.781 35.5727 527.678 35.498C527.436 35.3113 527.188 35.1807 526.936 35.106C526.684 35.0313 526.442 34.994 526.208 34.994C525.844 34.994 525.527 35.0547 525.256 35.176C524.986 35.288 524.757 35.4513 524.57 35.666C524.384 35.8807 524.239 36.1467 524.136 36.464C524.043 36.7813 523.996 37.15 523.996 37.57C523.996 38.382 524.188 39.026 524.57 39.502C524.953 39.9687 525.499 40.202 526.208 40.202C526.442 40.202 526.68 40.1647 526.922 40.09C527.174 40.0153 527.426 39.8847 527.678 39.698C527.781 39.6233 527.879 39.5907 527.972 39.6C528.066 39.6093 528.145 39.6467 528.21 39.712C528.276 39.768 528.318 39.8427 528.336 39.936C528.364 40.0293 528.364 40.1227 528.336 40.216C528.308 40.3 528.248 40.3747 528.154 40.44C527.856 40.6827 527.529 40.86 527.174 40.972C526.82 41.0747 526.474 41.126 526.138 41.126ZM530.295 41.098C530.108 41.098 529.968 41.0467 529.875 40.944C529.782 40.8413 529.735 40.6967 529.735 40.51V31.606C529.735 31.4193 529.782 31.2793 529.875 31.186C529.968 31.0833 530.108 31.032 530.295 31.032C530.472 31.032 530.612 31.0833 530.715 31.186C530.818 31.2793 530.869 31.4193 530.869 31.606V37.22H530.897L533.767 34.476C533.898 34.3547 534.01 34.2613 534.103 34.196C534.206 34.1307 534.341 34.098 534.509 34.098C534.658 34.098 534.775 34.14 534.859 34.224C534.943 34.2987 534.98 34.3967 534.971 34.518C534.971 34.63 534.915 34.7513 534.803 34.882L531.751 37.78V37.164L535.069 40.286C535.2 40.4167 535.265 40.5427 535.265 40.664C535.265 40.7853 535.218 40.888 535.125 40.972C535.041 41.056 534.929 41.098 534.789 41.098C534.621 41.098 534.486 41.0653 534.383 41C534.28 40.9253 534.154 40.818 534.005 40.678L530.897 37.808H530.869V40.51C530.869 40.902 530.678 41.098 530.295 41.098Z" fill="#555555"/>
<rect x="463" y="11" width="2" height="2" fill="white"/>
<rect x="487" y="11" width="2" height="2" fill="white"/>
<defs>
<radialGradient id="paint0_radial_3480_10162" cx="0" cy="0" r="1" gradientUnits="userSpaceOnUse" gradientTransform="translate(311 11) rotate(90) scale(9)">
<stop stop-color="#6A6A6A"/>
<stop offset="1" stop-color="#292929" stop-opacity="0"/>
</radialGradient>
</defs>
</svg>
