<svg width="48" height="58" viewBox="0 0 48 58" fill="none" xmlns="http://www.w3.org/2000/svg">
<path d="M37.1505 22.6984C37.0291 22.6781 36.8873 22.6781 36.7658 22.6984C33.9715 22.5971 31.7441 20.309 31.7441 17.4742C31.7441 14.5786 34.0727 12.25 36.9683 12.25C39.8639 12.25 42.1925 14.5989 42.1925 17.4742C42.1722 20.309 39.9449 22.5971 37.1505 22.6984Z" stroke="#FFF1B1" stroke-width="3.17647" stroke-linecap="round" stroke-linejoin="round"/>
<path d="M35.0647 37.4407C37.8387 37.9064 40.8963 37.4205 43.0427 35.9828C45.8977 34.0794 45.8977 30.9611 43.0427 29.0577C40.8761 27.6201 37.778 27.1341 35.0039 27.6201" stroke="#FFF1B1" stroke-width="3.17647" stroke-linecap="round" stroke-linejoin="round"/>
<path d="M12.7922 22.6984C12.9137 22.6781 13.0554 22.6781 13.1769 22.6984C15.9712 22.5971 18.1986 20.309 18.1986 17.4742C18.1986 14.5786 15.87 12.25 12.9744 12.25C10.0788 12.25 7.75023 14.5989 7.75023 17.4742C7.77048 20.309 9.99784 22.5971 12.7922 22.6984Z" stroke="#FFF1B1" stroke-width="3.17647" stroke-linecap="round" stroke-linejoin="round"/>
<path d="M14.8771 37.4407C12.103 37.9064 9.04548 37.4205 6.89912 35.9828C4.04404 34.0794 4.04404 30.9611 6.89912 29.0577C9.06573 27.6201 12.1638 27.1341 14.9379 27.6201" stroke="#FFF1B1" stroke-width="3.17647" stroke-linecap="round" stroke-linejoin="round"/>
<path d="M24.9963 37.8234C24.8748 37.8031 24.733 37.8031 24.6115 37.8234C21.8172 37.7221 19.5898 35.434 19.5898 32.5992C19.5898 29.7036 21.9184 27.375 24.814 27.375C27.7096 27.375 30.0382 29.7239 30.0382 32.5992C30.0179 35.434 27.7906 37.7424 24.9963 37.8234Z" stroke="#FFF1B1" stroke-width="3.17647" stroke-linecap="round" stroke-linejoin="round"/>
<path d="M19.1042 44.2033C16.2491 46.1067 16.2491 49.225 19.1042 51.1284C22.344 53.295 27.6492 53.295 30.889 51.1284C33.744 49.225 33.744 46.1067 30.889 44.2033C27.6694 42.0569 22.344 42.0569 19.1042 44.2033Z" stroke="#FFF1B1" stroke-width="3.17647" stroke-linecap="round" stroke-linejoin="round"/>
</svg>
