<svg width="32" height="32" viewBox="0 0 32 32" fill="none" xmlns="http://www.w3.org/2000/svg">
<path d="M25.8885 28.9995H5.11149C3.94595 28.9995 3 28.0662 3 26.9162V9.12217C3 7.92215 3.98606 6.94922 5.20228 6.94922H25.7956C27.0118 6.94922 27.9979 7.92215 27.9979 9.12217V26.9162C28 28.0662 27.0541 28.9995 25.8885 28.9995Z" fill="white"/>
<path d="M28 13.8667H3V13.3532C3 13.2962 3.75591 13.25 4.68919 13.25H26.3108C27.2441 13.25 28 13.2962 28 13.3532V13.8667Z" fill="#DDDDDD"/>
<path d="M26.1883 4.62501C26.8387 4.62501 27.3666 5.14585 27.3666 5.78753V26.7503C27.3666 27.6378 26.636 28.3587 25.7365 28.3587H5.26351C4.36402 28.3587 3.63345 27.6378 3.63345 26.7503V5.78753C3.63345 5.14585 4.16132 4.62501 4.81166 4.62501H26.1883ZM26.1883 4H4.81166C3.81081 4 3 4.80001 3 5.78753V26.7503C3 27.9837 4.01351 28.9837 5.26351 28.9837H25.7365C26.9865 28.9837 28 27.9837 28 26.7503V5.78753C28 4.80001 27.1892 4 26.1883 4Z" fill="#DDDDDD"/>
<path d="M17.3498 19.1311H16.7607C16.6256 19.1311 16.5137 19.0228 16.5137 18.8874V18.3395C16.5137 18.2061 16.6235 18.0957 16.7607 18.0957H17.3498C17.485 18.0957 17.5969 18.204 17.5969 18.3395V18.8874C17.5969 19.0207 17.4871 19.1311 17.3498 19.1311Z" fill="#222222"/>
<path d="M20.2971 19.1311H19.708C19.5728 19.1311 19.4609 19.0228 19.4609 18.8874V18.3395C19.4609 18.2061 19.5707 18.0957 19.708 18.0957H20.2971C20.4322 18.0957 20.5441 18.204 20.5441 18.3395V18.8874C20.5441 19.0207 20.4322 19.1311 20.2971 19.1311Z" fill="#222222"/>
<path d="M23.2453 19.1311H22.6562C22.5211 19.1311 22.4092 19.0228 22.4092 18.8874V18.3395C22.4092 18.2061 22.519 18.0957 22.6562 18.0957H23.2453C23.3805 18.0957 23.4924 18.204 23.4924 18.3395V18.8874C23.4903 19.0207 23.3805 19.1311 23.2453 19.1311Z" fill="#222222"/>
<path d="M17.3498 21.6995H16.7607C16.6256 21.6995 16.5137 21.5912 16.5137 21.4557V20.9078C16.5137 20.7745 16.6235 20.6641 16.7607 20.6641H17.3498C17.485 20.6641 17.5969 20.7724 17.5969 20.9078V21.4557C17.5969 21.5891 17.4871 21.6995 17.3498 21.6995Z" fill="#222222"/>
<path d="M20.2971 21.6995H19.708C19.5728 21.6995 19.4609 21.5912 19.4609 21.4557V20.9078C19.4609 20.7745 19.5707 20.6641 19.708 20.6641H20.2971C20.4322 20.6641 20.5441 20.7724 20.5441 20.9078V21.4557C20.5441 21.5891 20.4322 21.6995 20.2971 21.6995Z" fill="#222222"/>
<path d="M23.2444 21.6995H22.6552C22.5201 21.6995 22.4082 21.5912 22.4082 21.4557V20.9078C22.4082 20.7745 22.518 20.6641 22.6552 20.6641H23.2444C23.3795 20.6641 23.4914 20.7724 23.4914 20.9078V21.4557C23.4893 21.5891 23.3795 21.6995 23.2444 21.6995Z" fill="#222222"/>
<path d="M17.3498 24.2679H16.7607C16.6256 24.2679 16.5137 24.1595 16.5137 24.0241V23.4762C16.5137 23.3428 16.6235 23.2324 16.7607 23.2324H17.3498C17.485 23.2324 17.5969 23.3408 17.5969 23.4762V24.0241C17.5969 24.1574 17.4871 24.2679 17.3498 24.2679Z" fill="#222222"/>
<path d="M20.2971 24.2679H19.708C19.5728 24.2679 19.4609 24.1595 19.4609 24.0241V23.4762C19.4609 23.3428 19.5707 23.2324 19.708 23.2324H20.2971C20.4322 23.2324 20.5441 23.3408 20.5441 23.4762V24.0241C20.5441 24.1574 20.4322 24.2679 20.2971 24.2679Z" fill="#222222"/>
<path d="M23.2444 24.2679H22.6552C22.5201 24.2679 22.4082 24.1595 22.4082 24.0241V23.4762C22.4082 23.3428 22.518 23.2324 22.6552 23.2324H23.2444C23.3795 23.2324 23.4914 23.3408 23.4914 23.4762V24.0241C23.4893 24.1574 23.3795 24.2679 23.2444 24.2679Z" fill="#222222"/>
<path d="M8.80099 19.1311H8.21189C8.07675 19.1311 7.96484 19.0228 7.96484 18.8874V18.3395C7.96484 18.2061 8.07464 18.0957 8.21189 18.0957H8.80099C8.93613 18.0957 9.04804 18.204 9.04804 18.3395V18.8874C9.04804 19.0207 8.93824 19.1311 8.80099 19.1311Z" fill="#222222"/>
<path d="M11.7483 19.1311H11.1592C11.024 19.1311 10.9121 19.0228 10.9121 18.8874V18.3395C10.9121 18.2061 11.0219 18.0957 11.1592 18.0957H11.7483C11.8834 18.0957 11.9953 18.204 11.9953 18.3395V18.8874C11.9953 19.0207 11.8834 19.1311 11.7483 19.1311Z" fill="#222222"/>
<path d="M14.6965 19.1311H14.1074C13.9723 19.1311 13.8604 19.0228 13.8604 18.8874V18.3395C13.8604 18.2061 13.9701 18.0957 14.1074 18.0957H14.6965C14.8316 18.0957 14.9435 18.204 14.9435 18.3395V18.8874C14.9414 19.0207 14.8316 19.1311 14.6965 19.1311Z" fill="#222222"/>
<path d="M8.80099 21.6995H8.21189C8.07675 21.6995 7.96484 21.5912 7.96484 21.4557V20.9078C7.96484 20.7745 8.07464 20.6641 8.21189 20.6641H8.80099C8.93613 20.6641 9.04804 20.7724 9.04804 20.9078V21.4557C9.04804 21.5891 8.93824 21.6995 8.80099 21.6995Z" fill="#222222"/>
<path d="M11.7483 21.6995H11.1592C11.024 21.6995 10.9121 21.5912 10.9121 21.4557V20.9078C10.9121 20.7745 11.0219 20.6641 11.1592 20.6641H11.7483C11.8834 20.6641 11.9953 20.7724 11.9953 20.9078V21.4557C11.9953 21.5891 11.8834 21.6995 11.7483 21.6995Z" fill="#222222"/>
<path d="M14.6955 21.6995H14.1064C13.9713 21.6995 13.8594 21.5912 13.8594 21.4557V20.9078C13.8594 20.7745 13.9692 20.6641 14.1064 20.6641H14.6955C14.8307 20.6641 14.9426 20.7724 14.9426 20.9078V21.4557C14.9405 21.5891 14.8307 21.6995 14.6955 21.6995Z" fill="#222222"/>
<path d="M8.80099 24.2679H8.21189C8.07675 24.2679 7.96484 24.1595 7.96484 24.0241V23.4762C7.96484 23.3428 8.07464 23.2324 8.21189 23.2324H8.80099C8.93613 23.2324 9.04804 23.3408 9.04804 23.4762V24.0241C9.04804 24.1574 8.93824 24.2679 8.80099 24.2679Z" fill="#222222"/>
<path d="M11.7483 24.2679H11.1592C11.024 24.2679 10.9121 24.1595 10.9121 24.0241V23.4762C10.9121 23.3428 11.0219 23.2324 11.1592 23.2324H11.7483C11.8834 23.2324 11.9953 23.3408 11.9953 23.4762V24.0241C11.9953 24.1574 11.8834 24.2679 11.7483 24.2679Z" fill="#222222"/>
<path d="M14.6955 24.2679H14.1064C13.9713 24.2679 13.8594 24.1595 13.8594 24.0241V23.4762C13.8594 23.3428 13.9692 23.2324 14.1064 23.2324H14.6955C14.8307 23.2324 14.9426 23.3408 14.9426 23.4762V24.0241C14.9405 24.1574 14.8307 24.2679 14.6955 24.2679Z" fill="#222222"/>
<path d="M10.6629 11.4473C10.5645 11.4473 10.4879 11.4217 10.4332 11.3707C10.3822 11.316 10.3566 11.2395 10.3566 11.141V7.89805C10.3566 7.79961 10.3822 7.72487 10.4332 7.67383C10.4879 7.61914 10.5645 7.5918 10.6629 7.5918H11.7184C12.3527 7.5918 12.8413 7.75768 13.184 8.08945C13.5303 8.41758 13.7035 8.89336 13.7035 9.5168C13.7035 9.82669 13.6598 10.102 13.5723 10.3426C13.4848 10.5832 13.3553 10.7855 13.184 10.9496C13.0163 11.11 12.8103 11.234 12.566 11.3215C12.3217 11.4053 12.0392 11.4473 11.7184 11.4473H10.6629ZM10.9254 10.9715H11.6855C11.9262 10.9715 12.134 10.9423 12.309 10.884C12.4876 10.822 12.6371 10.7309 12.7574 10.6105C12.8777 10.4902 12.9671 10.3389 13.0254 10.1566C13.0837 9.97435 13.1129 9.76107 13.1129 9.5168C13.1129 9.0319 12.9926 8.66914 12.752 8.42852C12.515 8.18789 12.1595 8.06758 11.6855 8.06758H10.9254V10.9715ZM15.2565 11.4965C15.0706 11.4965 14.9029 11.46 14.7534 11.3871C14.6076 11.3142 14.4927 11.2158 14.4089 11.0918C14.325 10.9678 14.2831 10.8275 14.2831 10.6707C14.2831 10.4738 14.3323 10.3189 14.4307 10.2059C14.5328 10.0892 14.6987 10.0072 14.9284 9.95977C15.1617 9.90872 15.4753 9.8832 15.869 9.8832H16.126V10.2223H15.8745C15.612 10.2223 15.4042 10.235 15.251 10.2605C15.0979 10.2861 14.9885 10.3298 14.9229 10.3918C14.8609 10.4501 14.8299 10.5322 14.8299 10.6379C14.8299 10.7764 14.8773 10.8895 14.9721 10.977C15.0669 11.0608 15.1982 11.1027 15.3659 11.1027C15.5008 11.1027 15.6193 11.0717 15.7214 11.0098C15.8234 10.9441 15.9036 10.8566 15.962 10.7473C16.024 10.6379 16.055 10.5121 16.055 10.3699V9.74102C16.055 9.5332 16.0112 9.38372 15.9237 9.29258C15.8362 9.20143 15.6922 9.15586 15.4917 9.15586C15.375 9.15586 15.2529 9.17044 15.1253 9.19961C15.0013 9.22878 14.8719 9.27799 14.737 9.34727C14.675 9.37643 14.6221 9.38555 14.5784 9.37461C14.5346 9.36367 14.5 9.33997 14.4745 9.30352C14.449 9.26341 14.4344 9.22148 14.4307 9.17773C14.4307 9.13034 14.4417 9.08477 14.4635 9.04102C14.4891 8.99727 14.531 8.96445 14.5893 8.94258C14.7497 8.86602 14.9083 8.81133 15.0651 8.77852C15.2219 8.7457 15.3695 8.7293 15.5081 8.7293C15.7523 8.7293 15.9529 8.76758 16.1096 8.84414C16.2701 8.9207 16.3885 9.03737 16.4651 9.19414C16.5417 9.35091 16.58 9.55326 16.58 9.80117V11.2066C16.58 11.2941 16.5581 11.3634 16.5143 11.4145C16.4706 11.4618 16.4068 11.4855 16.3229 11.4855C16.2427 11.4855 16.1789 11.4618 16.1315 11.4145C16.0841 11.3634 16.0604 11.2941 16.0604 11.2066V10.8512H16.1096C16.0805 10.9861 16.0258 11.1027 15.9456 11.2012C15.869 11.296 15.7724 11.3689 15.6557 11.4199C15.5391 11.471 15.406 11.4965 15.2565 11.4965ZM18.4782 11.4965C18.2595 11.4965 18.0753 11.4582 17.9259 11.3816C17.7764 11.3051 17.6652 11.1921 17.5923 11.0426C17.5194 10.8931 17.4829 10.7108 17.4829 10.4957V9.20508H17.1548C17.0819 9.20508 17.0253 9.18685 16.9852 9.15039C16.9451 9.11029 16.9251 9.05742 16.9251 8.9918C16.9251 8.92253 16.9451 8.86966 16.9852 8.8332C17.0253 8.79674 17.0819 8.77852 17.1548 8.77852H17.4829V8.21523C17.4829 8.12409 17.5066 8.05482 17.554 8.00742C17.605 7.96003 17.6743 7.93633 17.7618 7.93633C17.8493 7.93633 17.9167 7.96003 17.9641 8.00742C18.0115 8.05482 18.0352 8.12409 18.0352 8.21523V8.77852H18.6751C18.748 8.77852 18.8045 8.79674 18.8446 8.8332C18.8847 8.86966 18.9048 8.92253 18.9048 8.9918C18.9048 9.05742 18.8847 9.11029 18.8446 9.15039C18.8045 9.18685 18.748 9.20508 18.6751 9.20508H18.0352V10.452C18.0352 10.6452 18.0753 10.791 18.1555 10.8895C18.2394 10.9879 18.3743 11.0371 18.5602 11.0371C18.6259 11.0371 18.6824 11.0316 18.7298 11.0207C18.7808 11.0061 18.8227 10.997 18.8555 10.9934C18.8957 10.9934 18.9285 11.0079 18.954 11.0371C18.9795 11.0626 18.9923 11.1137 18.9923 11.1902C18.9923 11.2449 18.9813 11.296 18.9595 11.3434C18.9412 11.3908 18.9066 11.4217 18.8555 11.4363C18.8118 11.4509 18.7516 11.4637 18.6751 11.4746C18.6022 11.4892 18.5365 11.4965 18.4782 11.4965ZM20.5637 11.4965C20.2721 11.4965 20.0205 11.4418 19.809 11.3324C19.6012 11.2194 19.439 11.0608 19.3223 10.8566C19.2093 10.6488 19.1528 10.4027 19.1528 10.1184C19.1528 9.84128 19.2093 9.59883 19.3223 9.39102C19.4353 9.1832 19.5903 9.02096 19.7872 8.9043C19.984 8.78763 20.2083 8.7293 20.4598 8.7293C20.6458 8.7293 20.8116 8.76029 20.9575 8.82227C21.1033 8.8806 21.2273 8.9681 21.3293 9.08477C21.4351 9.19779 21.5135 9.33633 21.5645 9.50039C21.6192 9.66445 21.6465 9.84857 21.6465 10.0527C21.6465 10.1147 21.6283 10.1621 21.5918 10.1949C21.5554 10.2241 21.5007 10.2387 21.4278 10.2387H19.5903V9.89961H21.2747L21.1817 9.97617C21.1817 9.79388 21.1543 9.63893 21.0997 9.51133C21.0486 9.38372 20.9702 9.28711 20.8645 9.22148C20.7624 9.15221 20.6348 9.11758 20.4817 9.11758C20.3103 9.11758 20.1645 9.15768 20.0442 9.23789C19.9275 9.3181 19.8382 9.4293 19.7762 9.57148C19.7142 9.71367 19.6833 9.87956 19.6833 10.0691V10.102C19.6833 10.4228 19.758 10.6652 19.9075 10.8293C20.0606 10.9897 20.2812 11.0699 20.5692 11.0699C20.6786 11.0699 20.7934 11.0553 20.9137 11.0262C21.0377 10.997 21.1543 10.9478 21.2637 10.8785C21.3257 10.8421 21.3804 10.8257 21.4278 10.8293C21.4788 10.8329 21.5189 10.8493 21.5481 10.8785C21.5809 10.9077 21.601 10.9441 21.6083 10.9879C21.6155 11.0316 21.6083 11.0772 21.5864 11.1246C21.5645 11.1684 21.5262 11.2085 21.4715 11.2449C21.3476 11.3288 21.2036 11.3926 21.0395 11.4363C20.8754 11.4764 20.7168 11.4965 20.5637 11.4965Z" fill="#222222"/>
</svg>
