<svg width="31" height="58" viewBox="0 0 31 58" fill="none" xmlns="http://www.w3.org/2000/svg">
<g id="Frame 38228">
<path id="Vector" d="M0.0533333 22.8011C0.0888889 23.7024 0.293333 24.4594 0.666667 25.0722C1.04 25.685 1.72444 26.352 2.72 27.0729C3.50222 27.6137 4.08889 28.1724 4.48 28.7492C4.87111 29.326 5.04889 29.9568 5.01333 30.6418L3.78667 46.5934V46.7015C3.78667 47.3144 3.92889 47.8731 4.21333 48.3778C4.49778 48.8825 4.88889 49.279 5.38667 49.5674C5.88444 49.8558 6.41778 50 6.98667 50C7.55556 50 8.08889 49.8558 8.58667 49.5674C9.08444 49.279 9.47556 48.8825 9.76 48.3778C10.0444 47.8731 10.1867 47.3144 10.1867 46.7015C10.1867 46.5573 10.1689 46.3951 10.1333 46.2149L8.90667 30.6418C8.87111 29.9568 9.05778 29.326 9.46667 28.7492C9.87556 28.1724 10.4533 27.6137 11.2 27.0729C12.2311 26.352 12.9333 25.667 13.3067 25.0181C13.68 24.3693 13.8667 23.5582 13.8667 22.5848L13.92 22.3145V11.4457C13.92 11.0132 13.76 10.6527 13.44 10.3643C13.12 10.0759 12.7733 9.95873 12.4 10.0128C12.0267 10.0669 11.7244 10.2291 11.4933 10.4995C11.2622 10.7698 11.1467 11.0853 11.1467 11.4457V17.2316C11.1467 17.5921 11.0311 17.9075 10.8 18.1779C10.5689 18.4482 10.2578 18.6105 9.86667 18.6645C9.47556 18.7186 9.12889 18.6014 8.82667 18.3131C8.52444 18.0247 8.37333 17.6822 8.37333 17.2857V11.4457C8.37333 11.0853 8.25778 10.7698 8.02667 10.4995C7.79556 10.2291 7.48444 10.0669 7.09333 10.0128C6.70222 9.95873 6.34667 10.0759 6.02667 10.3643C5.70667 10.6527 5.54667 11.0132 5.54667 11.4457V17.2316C5.58222 17.5921 5.47556 17.9075 5.22667 18.1779C4.97778 18.4482 4.66667 18.6105 4.29333 18.6645C3.92 18.7186 3.57333 18.6014 3.25333 18.3131C2.93333 18.0247 2.77333 17.6822 2.77333 17.2857V11.4457C2.77333 11.0853 2.65778 10.7698 2.42667 10.4995C2.19556 10.2291 1.89333 10.0669 1.52 10.0128C1.14667 9.95873 0.8 10.0759 0.48 10.3643C0.16 10.6527 0 11.0132 0 11.4457V22.3145L0.0533333 22.8011ZM19.4133 35.238L22.2933 36.2113C22.5422 36.2834 22.7378 36.4276 22.88 36.6439C23.0222 36.8602 23.0756 37.0945 23.04 37.3469L22.3467 46.7015C22.3111 46.9539 22.3111 47.1882 22.3467 47.4045C22.4178 47.9452 22.6133 48.4138 22.9333 48.8104C23.0044 48.9185 23.1111 49.0267 23.2533 49.1348C23.5733 49.4232 23.9467 49.6395 24.3733 49.7837C24.9422 50 25.52 50.0451 26.1067 49.9189C26.6933 49.7927 27.2178 49.5314 27.68 49.1348C27.8933 48.9185 28 48.6482 28 48.3237V12.9057C28 12.1127 27.7867 11.4367 27.36 10.878C26.9333 10.3192 26.4533 10.0398 25.92 10.0398C25.28 10.0398 24.6044 10.4364 23.8933 11.2295C23.0044 12.2028 22.1867 13.6447 21.44 15.5553C20.8356 17.1054 20.3556 18.6735 20 20.2597C19.3956 22.8552 18.9867 25.649 18.7733 28.6411C18.6311 30.5877 18.5778 32.4262 18.6133 34.1565C18.6133 34.4089 18.6844 34.6342 18.8267 34.8324C18.9689 35.0307 19.1644 35.1659 19.4133 35.238Z" fill="#B3D9E2"/>
</g>
</svg>
