<svg width="13" height="13" viewBox="0 0 13 13" fill="none" xmlns="http://www.w3.org/2000/svg">
<g clip-path="url(#clip0_2263_10046)">
<path d="M1.35356 0.646447C1.15829 0.451184 0.841709 0.451184 0.646447 0.646447C0.451184 0.841709 0.451184 1.15829 0.646447 1.35356L3.98465 4.69176L3.75543 4.91689C3.62127 5.94581 3.90215 7.01896 4.59907 7.86486L5.87841 6.58551L6.40876 7.11586L5.1294 8.39521C5.97561 9.09236 7.04916 9.37326 8.07841 9.23876L8.30301 9.01016L9.97474 10.6819L11.6465 12.3536C11.8417 12.5488 12.1583 12.5488 12.3536 12.3536C12.5488 12.1583 12.5488 11.8417 12.3536 11.6465L9.00391 8.29676L8.74361 8.03541L8.74231 8.03521L7.48996 6.78286L7.49276 6.78456L7.11636 6.40821L6.58551 5.87841L6.58606 5.87786L6.20981 5.50161L6.21151 5.50441L4.95913 4.25202L4.95891 4.25071L4.69868 3.99048L4.69813 3.99102L1.35356 0.646447Z" fill="url(#paint0_linear_2263_10046)"/>
<path d="M8.43135 4.56016C8.0912 2.33493 9.5732 0.852907 11.7985 1.19307C12.1386 3.41831 10.6566 4.90033 8.43135 4.56016Z" fill="url(#paint1_linear_2263_10046)"/>
<path d="M1.18356 11.1039L2.26805 10.0194C1.39882 8.81123 1.51501 7.11498 2.61165 6.03793L2.98034 5.67578C3.03497 6.64858 3.39683 7.60753 4.06673 8.39488L3.28249 9.17914C3.13605 9.32559 3.13605 9.56299 3.2825 9.70944C3.42894 9.85589 3.66638 9.85589 3.81283 9.70944L4.59706 8.92518C5.38456 9.59529 6.34375 9.95719 7.31675 10.0117L6.95395 10.3809C5.87765 11.4764 4.18338 11.5931 2.97554 10.7261L1.89066 11.811C1.6954 12.0063 1.37882 12.0063 1.18356 11.811C0.988294 11.6157 0.988294 11.2991 1.18356 11.1039Z" fill="url(#paint2_linear_2263_10046)"/>
<path d="M9.09704 7.32348L7.64844 5.87493L8.39554 5.12781C8.46529 5.1114 8.53579 5.09676 8.60694 5.08407C9.44384 4.93472 10.4023 5.05023 11.1472 5.79508C11.2347 5.88263 11.2353 6.02433 11.1486 6.11263L9.96544 7.31688C9.67719 7.35163 9.38574 7.35383 9.09704 7.32348Z" fill="url(#paint3_linear_2263_10046)"/>
<path d="M7.11612 5.34398L5.66767 3.89551C5.63742 3.60734 5.63957 3.31644 5.67407 3.02872L6.87842 1.84588C6.96672 1.75915 7.10847 1.75979 7.19597 1.84732C7.94082 2.59215 8.05637 3.55011 7.90697 4.38656C7.89437 4.45721 7.87982 4.52727 7.86352 4.59657L7.11612 5.34398Z" fill="url(#paint4_linear_2263_10046)"/>
</g>
<defs>
<linearGradient id="paint0_linear_2263_10046" x1="6.5" y1="0.5" x2="6.5" y2="12.5" gradientUnits="userSpaceOnUse">
<stop stop-color="#FFD67C"/>
<stop offset="1" stop-color="#D5950C"/>
</linearGradient>
<linearGradient id="paint1_linear_2263_10046" x1="10.1149" y1="1.14453" x2="10.1149" y2="4.6087" gradientUnits="userSpaceOnUse">
<stop stop-color="#FFD67C"/>
<stop offset="1" stop-color="#D5950C"/>
</linearGradient>
<linearGradient id="paint2_linear_2263_10046" x1="4.17693" y1="5.67578" x2="4.17693" y2="11.9575" gradientUnits="userSpaceOnUse">
<stop stop-color="#FFD67C"/>
<stop offset="1" stop-color="#D5950C"/>
</linearGradient>
<linearGradient id="paint3_linear_2263_10046" x1="9.43084" y1="5.02734" x2="9.43084" y2="7.3447" gradientUnits="userSpaceOnUse">
<stop stop-color="#FFD67C"/>
<stop offset="1" stop-color="#D5950C"/>
</linearGradient>
<linearGradient id="paint4_linear_2263_10046" x1="6.8051" y1="1.78125" x2="6.8051" y2="5.34398" gradientUnits="userSpaceOnUse">
<stop stop-color="#FFD67C"/>
<stop offset="1" stop-color="#D5950C"/>
</linearGradient>
<clipPath id="clip0_2263_10046">
<rect width="13" height="13" fill="white"/>
</clipPath>
</defs>
</svg>
