<svg width="100" height="100" viewBox="0 0 100 100" fill="none" xmlns="http://www.w3.org/2000/svg">
<g id="Group 38411">
<g id="Group 38410">
<circle id="Ellipse 2430" cx="50.2394" cy="49.7628" r="28.7081" fill="#FF4747"/>
<g id="Group 38409">
<path id="Vector" d="M60.712 73.8148C59.4487 73.837 58.3951 72.8434 58.3487 71.5753C58.3466 71.5129 58.3468 71.4504 58.3494 71.3879L59.0102 56.4058C59.0297 55.9629 58.918 55.5241 58.6891 55.1444C58.4602 54.7647 58.1243 54.4611 57.7234 54.2716L57.5785 54.2031L57.4134 54.1187C57.349 54.0851 57.2813 54.0461 57.2007 54.0019C56.8873 53.825 56.4841 53.5635 56.059 53.2275C55.643 52.891 55.2225 52.4796 54.8699 52.0027C54.5193 51.5258 54.2408 50.9835 54.0868 50.3864C53.9207 49.7898 53.9613 49.1353 53.9296 48.4458C53.9162 47.7557 53.9062 47.0277 53.9135 46.2741C53.9126 45.8974 53.9232 45.5141 53.9309 45.1261C53.9362 44.7382 53.9541 44.3451 53.9681 43.9491C53.9983 43.1568 54.0485 42.3514 54.107 41.5456C54.1734 40.7396 54.2454 39.9333 54.3409 39.1387C54.4306 38.3442 54.5423 37.5617 54.6602 36.804C54.7793 36.0462 54.915 35.3129 55.0536 34.6173C55.1262 34.2693 55.1952 33.9309 55.2743 33.6031C55.3513 33.2754 55.4211 32.9589 55.4963 32.6548L55.7246 31.7815C55.7973 31.5042 55.8798 31.2406 55.9499 30.9932C56.0191 30.7458 56.0954 30.5138 56.164 30.2994L56.2627 29.9911L56.3598 29.7099C56.4547 29.4319 56.5561 29.156 56.6636 28.8826L56.7842 28.5894L57.1458 27.7094C57.6008 26.6023 58.8475 26.011 59.9714 26.4226C60.8468 26.7433 61.39 27.5533 61.4231 28.4197L62.2016 49.7109L62.9881 71.2182L62.993 71.3529C63.041 72.6555 62.0152 73.7919 60.712 73.8148Z" fill="white"/>
<path id="Vector_2" d="M47.3021 29.9093C47.2384 29.5878 47.1867 29.2924 47.1292 29.0323C47.039 28.6122 46.9486 28.1921 46.8581 27.7721C46.7352 27.2113 46.135 26.8435 45.5411 27.0753C45.1377 27.2328 44.8979 27.6513 44.9421 28.0821L44.9438 28.0985L45.003 28.6779L45.071 29.3422C45.0988 29.5983 45.1171 29.8892 45.1443 30.2051C45.1691 30.5214 45.2006 30.8631 45.2195 31.2263C45.2398 31.5892 45.2683 31.9707 45.2849 32.3665C45.2999 32.7625 45.3213 33.1707 45.3326 33.586C45.3405 34.0016 45.3565 34.4229 45.3583 34.8446C45.3601 35.2663 45.3675 35.6873 45.3606 36.1019L45.3551 36.7175L45.341 37.3177C45.334 37.7116 45.3156 38.0916 45.3027 38.4517C45.2955 38.6041 45.2825 38.8445 45.2695 39.0782C45.2593 39.2615 45.1794 39.4341 45.0462 39.5605C44.913 39.687 44.7366 39.7578 44.5529 39.7585C44.3687 39.7592 44.1913 39.6894 44.057 39.5633C43.9227 39.4372 43.8418 39.2644 43.831 39.0806L43.1737 27.9458C43.1409 27.4255 42.6953 27.0023 42.1478 27.0321C41.646 27.0594 41.2558 27.4831 41.2301 27.9848L40.6569 39.1517C40.6481 39.3193 40.5756 39.4772 40.4543 39.5932C40.3329 39.7091 40.1718 39.7742 40.004 39.7753C39.8362 39.7764 39.6743 39.7132 39.5515 39.5989C39.4287 39.4845 39.3542 39.3275 39.3433 39.16C39.3273 38.9087 39.3106 38.64 39.3015 38.4748C39.2858 38.1148 39.2645 37.735 39.2545 37.341L39.2357 36.741L39.2254 36.1255C39.2154 35.711 39.2196 35.2899 39.2181 34.8681C39.2166 34.4464 39.2294 34.025 39.2342 33.6094C39.2424 33.194 39.2605 32.7857 39.2726 32.3896C39.2861 31.9936 39.3117 31.612 39.3292 31.2489C39.3452 30.8856 39.3742 30.5437 39.3965 30.2273C39.4212 29.9112 39.4373 29.6201 39.4631 29.3639L39.526 28.699L39.5809 28.1192L39.5836 28.0913C39.6276 27.606 39.3014 27.1545 38.8128 27.0532C38.2872 26.9443 37.773 27.282 37.6641 27.8076L37.5423 28.395L37.4026 29.0698C37.3471 29.3304 37.2976 29.6262 37.2365 29.9482C37.1777 30.2705 37.1092 30.6194 37.0515 30.9903C36.9923 31.3611 36.9227 31.7518 36.8638 32.1575C36.8063 32.5633 36.7413 32.9826 36.6857 33.4099C36.6333 33.8374 36.5724 34.2716 36.5258 34.7072C36.4792 35.1428 36.4269 35.5785 36.3898 36.0087L36.3302 36.6482L36.2808 37.2736C36.2462 37.6842 36.2244 38.0826 36.1994 38.4602C36.1786 38.8385 36.1595 39.1963 36.1465 39.5278C36.1339 39.8301 36.1241 40.1325 36.1172 40.435C36.1091 40.7052 36.216 42.3818 36.313 42.5636C36.6238 45.3811 38.4655 47.6637 40.873 48.3391L40.1419 71.3807C40.1403 71.4358 40.1405 71.4908 40.1426 71.5459C40.1931 72.8275 41.273 73.8256 42.5547 73.7751C43.8364 73.7245 44.8344 72.6446 44.7839 71.3629L43.8758 48.328C46.3331 47.6182 48.1856 45.2315 48.4092 42.3237C48.4791 42.1376 48.5211 41.2912 48.5192 41.0926C48.5147 40.8967 48.5122 40.6577 48.5022 40.3875C48.4946 40.1163 48.4816 39.8119 48.4659 39.4806C48.4504 39.1492 48.4285 38.7915 48.4048 38.4134C48.377 38.0359 48.3521 37.6378 48.3144 37.2274L48.2602 36.6025L48.1956 35.9635C48.1552 35.5335 48.0997 35.0983 48.0496 34.663C47.9997 34.2277 47.9354 33.7941 47.8798 33.3669C47.8208 32.9401 47.7525 32.5213 47.692 32.116C47.6299 31.7107 47.5574 31.3206 47.4953 30.9503C47.4345 30.5795 47.3633 30.2312 47.3021 29.9093Z" fill="white"/>
</g>
</g>
<path id="Vector_3" d="M55.3899 9.12561e-06C56.8599 9.12561e-06 58.1748 0.914998 58.6698 2.28498L62.1997 12.0699C63.4646 12.3849 64.5496 12.6999 65.4696 13.0299C66.4745 13.3898 67.7695 13.9348 69.3694 14.6798L77.5891 10.3299C78.2601 9.97442 79.0282 9.84611 79.7782 9.96421C80.5283 10.0823 81.2198 10.4404 81.749 10.9849L88.9788 18.4598C89.9387 19.4548 90.2087 20.9098 89.6687 22.1797L85.8139 31.2146C86.4538 32.3896 86.9638 33.3946 87.3538 34.2346C87.7738 35.1496 88.2938 36.4096 88.9138 38.0345L97.8985 41.8845C99.2484 42.4595 100.083 43.8095 99.9934 45.2545L99.3334 55.6293C99.2883 56.3033 99.0463 56.9493 98.6374 57.487C98.2286 58.0248 97.6709 58.4306 97.0335 58.6543L88.5238 61.6793C88.2788 62.8542 88.0238 63.8592 87.7538 64.7092C87.3183 66.0219 86.8211 67.3134 86.2639 68.5792L90.5387 78.0291C90.8404 78.693 90.9216 79.4362 90.7705 80.1496C90.6193 80.8631 90.2438 81.5094 89.6987 81.994L81.569 89.2539C81.0336 89.73 80.3655 90.0311 79.6542 90.1169C78.9429 90.2027 78.2224 90.0691 77.5891 89.7339L69.2094 85.294C67.8984 85.9882 66.5459 86.601 65.1596 87.129L61.4997 88.4989L58.2498 97.4988C58.009 98.1579 57.5746 98.7288 57.0035 99.1366C56.4325 99.5443 55.7515 99.77 55.0499 99.7838L45.5503 99.9988C44.8301 100.018 44.1218 99.8129 43.5228 99.4127C42.9238 99.0125 42.4635 98.4364 42.2054 97.7638L38.3755 87.6289C37.0688 87.1823 35.775 86.6988 34.4956 86.179C33.4493 85.7261 32.4187 85.2374 31.4058 84.714L21.9061 88.7739C21.2801 89.041 20.5901 89.1203 19.9199 89.0022C19.2496 88.8842 18.6282 88.5738 18.1312 88.1089L11.1015 81.514C10.5781 81.0251 10.2216 80.3841 10.0826 79.6815C9.9435 78.979 10.0288 78.2505 10.3265 77.5991L14.4113 68.6992C13.8681 67.645 13.3644 66.571 12.9014 65.4792C12.3609 64.1429 11.8607 62.7906 11.4014 61.4243L2.45175 58.6993C1.72428 58.4794 1.08977 58.0255 0.646764 57.408C0.203756 56.7904 -0.0229557 56.0439 0.00183728 55.2843L0.351825 45.6795C0.376737 45.0528 0.572501 44.4448 0.917945 43.9214C1.26339 43.3979 1.74537 42.9788 2.31176 42.7095L11.7014 38.1995C12.1364 36.6046 12.5164 35.3646 12.8514 34.4596C13.3231 33.2508 13.8469 32.0631 14.4213 30.8996L10.3515 22.2997C10.0426 21.6467 9.94883 20.9125 10.0836 20.2027C10.2183 19.4929 10.5747 18.8442 11.1015 18.3498L18.1212 11.7199C18.6133 11.2557 19.229 10.9437 19.8943 10.8213C20.5596 10.6989 21.246 10.7713 21.8711 11.0299L31.3608 14.9498C32.4107 14.2498 33.3607 13.6848 34.2207 13.2298C35.2456 12.6849 36.6156 12.1149 38.3405 11.4999L41.6404 2.29498C41.8844 1.62133 42.3303 1.0394 42.9173 0.628657C43.5043 0.217911 44.2038 -0.00163123 44.9203 9.12561e-06H55.3899ZM52.94 6.88493H47.3752L44.3503 15.3548C44.1724 15.8487 43.8847 16.2957 43.5088 16.6621C43.1329 17.0285 42.6786 17.3047 42.1804 17.4698C40.0005 18.1948 38.4255 18.8198 37.5055 19.3048C36.5306 19.8198 35.2856 20.6048 33.8057 21.6547C33.3213 21.9947 32.7589 22.2068 32.1707 22.2715C31.5825 22.3362 30.9875 22.2513 30.4408 22.0247L21.2911 18.2498L17.7262 21.6197L21.4411 29.4697C21.6635 29.9367 21.7764 30.4483 21.7712 30.9656C21.766 31.4829 21.6428 31.9921 21.4111 32.4546C20.4111 34.4596 19.7362 35.9396 19.3962 36.8496C18.8748 38.3644 18.4243 39.9027 18.0462 41.4595C17.9206 41.9468 17.6899 42.4006 17.3703 42.7893C17.0508 43.178 16.6501 43.492 16.1963 43.7095L7.24659 48.0044L7.06659 52.9044L15.1663 55.3643C16.2413 55.6893 17.0912 56.5143 17.4462 57.5743C18.2462 59.9743 18.8862 61.7443 19.3462 62.8542C19.9557 64.2628 20.6297 65.6426 21.3661 66.9892C21.6152 67.4525 21.7535 67.9672 21.77 68.493C21.7865 69.0188 21.6807 69.5412 21.4611 70.0192L17.7062 78.2091L21.2611 81.549L30.1708 77.7391C30.6507 77.534 31.1703 77.4383 31.6918 77.4591C32.2133 77.4799 32.7236 77.6165 33.1857 77.8591C35.0106 78.8191 36.3706 79.484 37.2306 79.849C38.1055 80.214 39.7805 80.824 42.2104 81.654C42.6928 81.8187 43.1329 82.0879 43.4993 82.4422C43.8657 82.7966 44.1495 83.2274 44.3303 83.704L47.8702 93.0589L52.5 92.9589L55.4849 84.689C55.6556 84.2171 55.927 83.7879 56.2801 83.4314C56.6332 83.0748 57.0596 82.7993 57.5298 82.624L62.7147 80.684C64.0246 80.199 65.6146 79.434 67.4695 78.3841C67.9829 78.0956 68.5605 77.9408 69.1493 77.9338C69.7382 77.9268 70.3193 78.0679 70.8394 78.3441L78.7241 82.519L83.159 78.5641L79.2791 69.9992C79.0798 69.5595 78.9763 69.0824 78.9755 68.5997C78.9746 68.117 79.0764 67.6396 79.2741 67.1992C80.1841 65.1642 80.799 63.6292 81.109 62.6493C81.414 61.6893 81.729 60.3043 82.034 58.5243C82.1389 57.9197 82.4031 57.354 82.7995 56.8855C83.1959 56.4171 83.71 56.0629 84.2889 55.8593L92.5286 52.9344L92.8886 47.2344L84.7889 43.7645C84.3577 43.5809 83.9682 43.3116 83.6442 42.973C83.3202 42.6344 83.0684 42.2334 82.904 41.7945C82.3263 40.2007 81.696 38.6266 81.014 37.0746C80.3683 35.7232 79.6678 34.3988 78.9141 33.1046C78.653 32.6474 78.5013 32.1359 78.4709 31.6102C78.4406 31.0845 78.5324 30.5589 78.7391 30.0746L82.364 21.5747L78.5441 17.6248L71.1044 21.5647C70.6187 21.8224 70.0793 21.9624 69.5297 21.9737C68.98 21.985 68.4353 21.8672 67.9395 21.6297C66.3604 20.8446 64.7453 20.1338 63.0997 19.4998C61.6964 19.0285 60.2654 18.6445 58.8148 18.3498C58.2392 18.2277 57.7041 17.9613 57.2598 17.5756C56.8155 17.1899 56.4766 16.6975 56.2749 16.1448L52.935 6.87993L52.94 6.88493Z" fill="url(#paint0_linear_4076_2793)"/>
</g>
<defs>
<linearGradient id="paint0_linear_4076_2793" x1="50" y1="0" x2="50" y2="100" gradientUnits="userSpaceOnUse">
<stop stop-color="#FF442E"/>
<stop offset="1" stop-color="#FF4747"/>
</linearGradient>
</defs>
</svg>
