<svg width="72" height="107" viewBox="0 0 72 107" fill="none" xmlns="http://www.w3.org/2000/svg">
<path d="M33.9991 72.9971C25.8893 72.9825 21.6426 72.7834 18.9286 70.0695C15.9998 67.1407 15.9998 62.4268 15.9998 52.9991C15.9998 43.5715 15.9998 38.8576 18.9286 35.9288C21.8574 33 26.5713 33 35.999 33C45.4267 33 50.1406 33 53.0694 35.9288C55.7834 38.6428 55.9825 42.8894 55.9971 50.9992" stroke="#14809E" stroke-width="3.2" stroke-linecap="round"/>
<path d="M25.999 42.9985L35.9986 52.998M35.9986 52.998H28.4989M35.9986 52.998V45.4984" stroke="#14809E" stroke-width="3.2" stroke-linecap="round" stroke-linejoin="round"/>
<path d="M39.998 64.9997C39.998 61.2286 39.998 59.343 41.1696 58.1715C42.3411 57 44.2266 57 47.9977 57C51.7688 57 53.6544 57 54.8259 58.1715C55.9974 59.343 55.9974 61.2286 55.9974 64.9997C55.9974 68.7707 55.9974 70.6563 54.8259 71.8278C53.6544 72.9993 51.7688 72.9993 47.9977 72.9993C44.2266 72.9993 42.3411 72.9993 41.1696 71.8278C39.998 70.6563 39.998 68.7707 39.998 64.9997Z" stroke="#14809E" stroke-width="3.2"/>
</svg>
