<svg width="217" height="217" viewBox="0 0 217 217" fill="none" xmlns="http://www.w3.org/2000/svg">
<path d="M201.848 81.9312C183.58 53.3754 148.71 36.2914 115.503 36.0041C82.2967 35.7167 51.2981 50.7609 29.3196 73.4231C13.6594 89.566 1.89348 110.296 0.345767 133.296C-1.20194 156.296 1.85464 181.516 21.753 195.732C29.2641 201.102 45.3847 204.905 54.1717 203.812C68.2065 202.065 76.6994 189.162 83.4894 177.38C90.2794 165.599 98.7335 152.684 112.752 150.898C123.525 149.506 134.336 155.225 145.198 157.829C163.671 162.246 183.475 157.023 196.023 144.435C199.452 140.976 202.336 137 204.571 132.648C212.105 118.032 211.694 100.497 203.983 85.9768L201.848 81.9312Z" fill="#FFEDED"/>
<path d="M208.405 216.867C208.405 216.943 167.344 216.999 116.707 216.999C66.0706 216.999 25 216.943 25 216.867C25 216.79 66.0503 216.734 116.707 216.734C167.364 216.734 208.405 216.796 208.405 216.867Z" fill="#263238"/>
<path d="M162.955 185.352L155.243 148.316C155.243 148.316 150.72 130.47 135.153 124.311L134.079 123.98L132.56 123.516C131.932 123.271 129.38 122.455 128.706 122.241C107.72 114.92 102.15 116.827 80.2825 124.337C80.2825 124.337 70.5643 126.973 65.8546 139.729C61.1449 152.486 52.1357 172.447 52.1357 172.447L73.9523 180.207L78.1353 173.951V216.744H138.146L136.49 197.043L136.201 172.779" fill="url(#paint0_linear_1110_5740)"/>
<path d="M101.873 126.611C101.724 126.788 101.554 126.946 101.366 127.08C101.166 127.263 100.955 127.433 100.733 127.59C100.452 127.807 100.16 128.01 99.8574 128.197C99.0768 128.695 98.255 129.125 97.4012 129.482C96.3515 129.911 95.2649 130.242 94.1551 130.471C93.0409 130.678 91.9104 130.784 90.7773 130.787C89.8533 130.779 88.9317 130.692 88.0224 130.527C87.6273 130.471 87.288 130.369 86.9842 130.297C86.721 130.241 86.4621 130.166 86.2094 130.073C85.988 130.017 85.7739 129.935 85.5713 129.828C85.5713 129.777 86.5082 130.104 88.0527 130.338C88.9548 130.472 89.8655 130.539 90.7773 130.537C91.8939 130.522 93.0071 130.409 94.1044 130.201C95.1978 129.977 96.2703 129.66 97.3101 129.252C98.1559 128.908 98.9752 128.5 99.7611 128.034C101.108 127.218 101.843 126.57 101.873 126.611Z" fill="#C2C2C2"/>
<g opacity="0.3">
<path d="M78.1543 190.237L83.0716 195.958H87.9079V202.184L137.917 213.829L137.512 208.98L90.4603 192.715H82.5753L78.7772 189.656L78.1543 190.237Z" fill="#222222"/>
</g>
<path d="M92.8825 185.142L88.7096 184.367C88.7096 184.367 78.8243 173.476 76.9708 173.344C75.4515 173.216 67.0298 173.298 64.1027 173.344C63.8341 173.344 63.5764 173.451 63.3865 173.642C63.1966 173.834 63.0898 174.093 63.0898 174.363C63.0897 174.629 63.1923 174.883 63.3757 175.074C63.5591 175.264 63.809 175.375 64.0723 175.383L74.0082 175.771L74.0538 176.576L64.1027 176.709C63.0898 176.785 62.4416 178.401 65.6878 178.692L74.0082 178.993V179.503L65.5713 180.691C65.1408 180.752 64.0217 180.971 64.0115 181.405C64.0115 181.405 63.5051 182.47 65.9055 182.771C66.731 182.873 74.0538 182.628 74.0538 182.628L73.7753 183.291L66.179 184.938C65.9125 184.996 65.6777 185.153 65.5217 185.378C65.3657 185.603 65.3002 185.88 65.3383 186.151C65.3763 186.428 65.5184 186.679 65.7353 186.853C65.9521 187.026 66.2271 187.109 66.5031 187.084L74.6058 186.325L82.5768 192.718H93.2116L92.8825 185.142Z" fill="#FFB590"/>
<path d="M162.957 185.352L138.684 190.16L136.223 172.779" fill="url(#paint1_linear_1110_5740)"/>
<path d="M135.451 186.018L90.4609 184.564V200.217L120.309 206.188L141.275 209.548C154.3 209.548 164.717 197.51 162.702 184.564H162.646L135.451 186.018Z" fill="url(#paint2_linear_1110_5740)"/>
<path d="M90.4669 184.697C90.4736 184.789 90.4736 184.881 90.4669 184.973C90.4669 185.17 90.4669 185.44 90.4669 185.783C90.4669 186.512 90.4669 187.552 90.4973 188.873C90.4973 191.55 90.5277 195.353 90.553 199.937L90.4619 199.825C95.526 200.921 101.633 202.282 108.187 203.664C117.17 205.581 125.354 207.09 131.299 208.018C134.277 208.477 136.688 208.814 138.359 209.038L140.278 209.293L140.785 209.364C140.842 209.368 140.898 209.38 140.952 209.4H140.78L140.273 209.354L138.344 209.15C136.673 208.956 134.252 208.64 131.254 208.212C125.293 207.335 117.099 205.851 108.111 203.934C101.552 202.553 95.4501 201.176 90.3859 200.054H90.2998V199.968C90.2998 195.379 90.3302 191.58 90.3403 188.904C90.3403 187.583 90.3403 186.543 90.3707 185.814C90.3707 185.474 90.3707 185.204 90.3707 185.003C90.3865 184.897 90.419 184.793 90.4669 184.697Z" fill="#555555"/>
<path d="M86.6229 141.878C86.6095 141.623 86.6197 141.367 86.6533 141.113C86.6888 140.603 86.7343 139.915 86.7546 139.038C86.8141 136.756 86.6564 134.473 86.2836 132.221C85.8228 129.601 85.2404 127.209 84.3339 125.721C83.9909 125.127 83.5348 124.607 82.9919 124.191C82.5969 123.91 82.3437 123.803 82.3538 123.783C82.3639 123.763 82.4247 123.783 82.5463 123.844C82.7229 123.914 82.8925 124.002 83.0527 124.104C83.6363 124.505 84.1284 125.026 84.496 125.634C85.0329 126.523 85.4421 127.484 85.7114 128.489C86.6988 131.92 87.1163 135.491 86.947 139.058C86.9014 139.935 86.8255 140.649 86.7647 141.134C86.7416 141.386 86.6941 141.635 86.6229 141.878Z" fill="#222222"/>
<path d="M136.096 128.115C136.172 128.115 136.227 138.521 136.227 151.36C136.227 164.198 136.172 174.604 136.096 174.604C136.02 174.604 135.964 164.198 135.964 151.36C135.964 138.521 136.025 128.115 136.096 128.115Z" fill="#222222"/>
<g opacity="0.3">
<path d="M87.0567 182.562C94.653 178.004 99.3728 170.458 103.996 162.881C108.62 155.305 112.93 147.356 119.341 141.248C122.283 138.439 125.727 136.073 126.816 132.137L115.29 141.36L83.1826 178.534L87.0567 182.562Z" fill="#222222"/>
</g>
<path d="M135.904 179.283C135.364 178.928 134.776 178.655 134.157 178.472C132.967 178.1 131.119 178.105 128.976 178.798C126.834 179.492 124.606 180.965 121.851 182.117C120.416 182.75 118.859 183.052 117.293 182.999C115.615 182.838 113.987 182.335 112.508 181.521C110.988 180.746 109.545 179.879 108.092 179.201C106.7 178.524 105.203 178.097 103.666 177.937C101.056 177.69 98.4285 178.168 96.0694 179.318C94.4749 180.075 93.0408 181.134 91.8458 182.439L91.2938 183.066L90.9292 183.576L90.7013 183.871L90.6152 183.968C90.6291 183.928 90.6496 183.89 90.676 183.856C90.7317 183.774 90.8026 183.673 90.8836 183.545L91.2331 183.035L91.7699 182.393C92.9473 181.044 94.3818 179.946 95.9883 179.165C97.0882 178.611 98.2565 178.206 99.4624 177.962C100.846 177.665 102.267 177.581 103.676 177.712C105.234 177.866 106.755 178.292 108.168 178.972C109.641 179.66 111.075 180.527 112.594 181.291C114.042 182.091 115.635 182.587 117.278 182.75C118.812 182.808 120.339 182.517 121.745 181.898C124.469 180.777 126.723 179.252 128.906 178.63C131.088 178.008 132.957 177.972 134.167 178.38C134.631 178.521 135.074 178.726 135.484 178.987L135.793 179.211C135.874 179.252 135.909 179.278 135.904 179.283Z" fill="#C2C2C2"/>
<path d="M157.902 160.421C157.605 160.332 157.3 160.274 156.991 160.248C156.144 160.26 155.319 160.515 154.61 160.982C153.674 161.492 152.772 162.47 151.496 163.189C150.825 163.587 150.055 163.782 149.278 163.75C148.459 163.666 147.666 163.412 146.948 163.006C146.204 162.629 145.515 162.205 144.801 161.92C144.116 161.636 143.401 161.434 142.669 161.318C142.008 161.211 141.337 161.175 140.669 161.211C140.084 161.23 139.502 161.307 138.932 161.441C138.102 161.624 137.299 161.911 136.541 162.297C136 162.572 135.726 162.761 135.711 162.741C135.696 162.72 135.772 162.68 135.898 162.588C136.087 162.449 136.285 162.323 136.491 162.21C137.767 161.489 139.192 161.072 140.654 160.992C142.102 160.896 143.552 161.132 144.897 161.68C145.637 161.971 146.336 162.394 147.065 162.766C147.752 163.156 148.51 163.402 149.293 163.49C150.023 163.525 150.747 163.348 151.38 162.98C152.615 162.297 153.542 161.349 154.514 160.824C155.257 160.357 156.121 160.123 156.996 160.151C157.232 160.169 157.464 160.224 157.684 160.314C157.761 160.341 157.834 160.377 157.902 160.421Z" fill="#C2C2C2"/>
<path d="M135.628 153.462C135.511 153.453 135.396 153.432 135.284 153.401C135.172 153.401 135.035 153.34 134.868 153.314L134.301 153.238C133.085 153.134 131.86 153.26 130.69 153.61C128.961 154.149 127.304 154.901 125.758 155.848C123.876 157.061 121.911 158.137 119.878 159.071C118.807 159.534 117.677 159.846 116.521 159.999C115.436 160.132 114.336 160.055 113.28 159.774C112.339 159.497 111.426 159.13 110.555 158.678C109.735 158.27 108.985 157.867 108.286 157.536C107.205 156.967 106.026 156.609 104.812 156.481C104.474 156.46 104.135 156.47 103.799 156.511C103.685 156.522 103.57 156.522 103.455 156.511C103.565 156.472 103.679 156.446 103.794 156.435C104.129 156.374 104.468 156.347 104.807 156.353C106.043 156.444 107.248 156.782 108.352 157.347C109.066 157.669 109.821 158.061 110.641 158.459C111.502 158.896 112.402 159.25 113.33 159.514C114.358 159.781 115.427 159.85 116.48 159.718C117.614 159.568 118.722 159.261 119.772 158.805C121.949 157.903 123.823 156.649 125.626 155.624C127.196 154.676 128.879 153.933 130.635 153.411C131.826 153.073 133.072 152.974 134.301 153.121L134.873 153.223C135.04 153.258 135.172 153.304 135.284 153.335C135.402 153.365 135.518 153.408 135.628 153.462Z" fill="#C2C2C2"/>
<path d="M151.313 137.756C151.146 137.883 150.964 137.99 150.771 138.072C150.412 138.261 149.895 138.526 149.252 138.816C148.478 139.165 147.674 139.445 146.852 139.653C145.836 139.91 144.783 139.982 143.742 139.867C142.638 139.749 141.62 139.515 140.704 139.387C139.881 139.254 139.044 139.238 138.217 139.342C137.457 139.45 136.728 139.722 136.08 140.137C136.08 140.137 136.116 140.086 136.191 140.015C136.312 139.914 136.439 139.822 136.571 139.739C137.071 139.444 137.62 139.245 138.192 139.153C139.031 139.028 139.884 139.028 140.724 139.153C141.676 139.27 142.699 139.5 143.762 139.612C145.935 139.872 147.859 139.173 149.176 138.653C149.839 138.388 150.371 138.143 150.741 137.99C150.923 137.893 151.115 137.814 151.313 137.756Z" fill="#C2C2C2"/>
<path d="M85.8328 146.245C85.5471 146.126 85.2446 146.054 84.9365 146.03C84.0869 146.048 83.2681 146.354 82.612 146.897C82.1765 147.208 81.7207 147.596 81.1788 147.953C80.595 148.334 79.9432 148.597 79.2595 148.728C77.6895 148.952 76.0884 148.759 74.6156 148.167C73.0457 147.596 71.643 146.872 70.2959 146.392C69.6648 146.168 69.016 145.997 68.3563 145.883C67.7815 145.781 67.1971 145.745 66.6142 145.775C65.7651 145.804 64.9337 146.027 64.1834 146.428C63.677 146.724 63.4187 146.963 63.4035 146.938C63.3883 146.912 63.4542 146.872 63.5706 146.759C63.7436 146.598 63.9319 146.455 64.1328 146.331C64.8831 145.885 65.7291 145.628 66.599 145.582C67.1976 145.54 67.7988 145.566 68.3918 145.658C69.0672 145.768 69.7316 145.939 70.3769 146.168C71.7443 146.637 73.1572 147.361 74.7068 147.922C76.1357 148.498 77.6882 148.693 79.2139 148.488C79.8708 148.372 80.4988 148.128 81.0624 147.769C81.5941 147.432 82.0752 147.055 82.5056 146.749C83.1975 146.198 84.0597 145.91 84.9415 145.933C85.1793 145.948 85.4117 146.011 85.6252 146.117C85.7015 146.147 85.7719 146.19 85.8328 146.245Z" fill="#C2C2C2"/>
<path d="M114.358 185.301C114.358 185.301 114.419 185.341 114.52 185.438C114.668 185.584 114.802 185.743 114.921 185.913C115.467 186.698 115.772 187.628 115.8 188.586C115.828 189.545 115.577 190.49 115.078 191.307C114.404 192.403 113.254 193.275 112.611 194.534C112.311 195.149 112.222 195.846 112.358 196.518C112.5 197.152 112.721 197.765 113.016 198.343C113.568 199.454 114.08 200.535 114.06 201.535C114.065 201.925 113.983 202.311 113.819 202.664C113.655 203.017 113.413 203.328 113.113 203.574C112.946 203.7 112.757 203.792 112.556 203.844C112.414 203.87 112.343 203.875 112.338 203.844C112.595 203.761 112.836 203.635 113.052 203.472C113.321 203.225 113.534 202.923 113.676 202.586C113.818 202.249 113.887 201.885 113.877 201.519C113.877 200.581 113.371 199.551 112.799 198.435C112.486 197.841 112.253 197.208 112.105 196.553C111.955 195.826 112.049 195.069 112.373 194.402C112.717 193.771 113.143 193.19 113.639 192.673C114.09 192.198 114.501 191.686 114.87 191.144C115.459 190.217 115.705 189.11 115.564 188.018C115.477 187.279 115.228 186.568 114.834 185.938C114.551 185.525 114.338 185.316 114.358 185.301Z" fill="#C2C2C2"/>
<path d="M135.59 207.685C135.519 207.637 135.455 207.58 135.397 207.517C135.233 207.337 135.101 207.13 135.008 206.905C134.704 206.045 134.749 205.1 135.134 204.274C135.373 203.699 135.707 203.17 136.122 202.709C136.552 202.199 137.059 201.719 137.575 201.179C138.122 200.651 138.596 200.05 138.983 199.394C139.363 198.676 139.593 197.886 139.656 197.075C139.829 195.397 139.525 193.786 139.444 192.302C139.301 190.978 139.474 189.639 139.95 188.397C140.288 187.563 140.869 186.852 141.616 186.357C141.821 186.227 142.04 186.123 142.27 186.046C142.347 186.015 142.429 185.996 142.513 185.99C142.221 186.119 141.94 186.27 141.672 186.444C140.97 186.958 140.432 187.667 140.122 188.483C139.688 189.704 139.544 191.01 139.702 192.297C139.798 193.761 140.112 195.382 139.94 197.115C139.87 197.962 139.627 198.785 139.226 199.532C138.823 200.218 138.325 200.843 137.747 201.388C136.694 202.408 135.722 203.331 135.306 204.366C135.002 204.882 134.865 205.482 134.916 206.081C134.967 206.68 135.203 207.248 135.59 207.705V207.685Z" fill="#C2C2C2"/>
<path d="M138.204 214.443C138.029 214.584 137.838 214.705 137.637 214.805C137.064 215.096 136.439 215.27 135.798 215.314C134.785 215.4 133.765 215.285 132.795 214.978C131.518 214.564 130.295 213.996 129.154 213.285C127.793 212.418 126.35 211.69 124.845 211.113C123.082 210.563 121.206 210.498 119.411 210.925C117.426 211.417 115.49 212.091 113.627 212.938C111.616 213.88 109.518 214.622 107.363 215.151C106.256 215.384 105.121 215.448 103.995 215.34C102.898 215.221 101.83 214.903 100.845 214.402C98.9108 213.428 97.3612 212.016 95.7811 210.863C95.0241 210.283 94.2175 209.771 93.3706 209.334L92.7528 209.038C92.5451 208.946 92.3324 208.88 92.1248 208.798C91.7132 208.645 91.292 208.519 90.8638 208.421C89.297 208.052 87.6749 207.984 86.0832 208.222C84.7696 208.412 83.4913 208.796 82.2901 209.364C82.0217 209.482 81.7837 209.635 81.5356 209.757C81.3022 209.876 81.0772 210.01 80.862 210.16C80.6544 210.303 80.4518 210.43 80.2645 210.563L79.758 210.965C79.4687 211.192 79.1947 211.437 78.9376 211.7C78.7373 211.879 78.5511 212.073 78.3806 212.281L78.0463 212.653C77.9704 212.735 77.9299 212.775 77.9248 212.77L78.0261 212.633L78.3401 212.245C78.5052 212.031 78.6864 211.83 78.8819 211.643C79.1358 211.375 79.4065 211.123 79.6922 210.889L80.1986 210.466L80.8013 210.053C81.0174 209.902 81.2423 209.764 81.4748 209.64C81.7179 209.507 81.9812 209.354 82.2294 209.232C83.4318 208.633 84.7176 208.223 86.0427 208.013C87.6555 207.754 89.3029 207.811 90.8942 208.181C91.3308 208.278 91.7606 208.404 92.1805 208.559C92.3983 208.64 92.616 208.707 92.8287 208.798L93.4567 209.099C94.3167 209.536 95.1368 210.048 95.9077 210.629C97.503 211.786 99.0475 213.178 100.942 214.132C101.891 214.617 102.921 214.925 103.98 215.039C105.08 215.146 106.191 215.083 107.272 214.85C109.406 214.337 111.485 213.617 113.48 212.699C115.356 211.837 117.307 211.154 119.309 210.659C121.152 210.229 123.076 210.305 124.88 210.879C126.395 211.47 127.847 212.213 129.215 213.097C130.336 213.812 131.541 214.387 132.8 214.81C133.754 215.123 134.757 215.251 135.758 215.187C136.39 215.148 137.009 214.987 137.581 214.713C137.996 214.57 138.204 214.427 138.204 214.443Z" fill="#C2C2C2"/>
<path d="M110.015 129.4C112.735 129.534 115.4 128.603 117.453 126.802C119.506 125 120.786 122.469 121.025 119.738C121.318 116.373 121.531 113.497 121.531 113.497C121.531 113.497 130.14 113.278 131.361 104.779C132.581 96.2792 133.645 76.5374 133.645 76.5374C129.105 73.8285 123.93 72.3889 118.653 72.3674C113.377 72.3459 108.19 73.7432 103.629 76.415L102.247 77.2257L100.028 118.234C99.9527 119.628 100.151 121.023 100.613 122.34C101.074 123.657 101.789 124.868 102.717 125.906C103.645 126.943 104.768 127.786 106.02 128.386C107.272 128.985 108.63 129.33 110.015 129.4Z" fill="#FFBE9D"/>
<path d="M122.745 98.9054C122.745 98.8085 123.485 98.7575 124.68 98.7473C124.989 98.7473 125.237 98.7167 125.277 98.5536C125.328 98.2475 125.293 97.9332 125.176 97.646L124.558 95.1426C123.723 91.5736 123.191 88.6623 123.373 88.6215C123.555 88.5807 124.386 91.4309 125.211 94.9897C125.404 95.8564 125.591 96.6875 125.774 97.5033C125.919 97.9244 125.919 98.3824 125.774 98.8034C125.714 98.9142 125.631 99.0096 125.529 99.0822C125.427 99.1548 125.309 99.2024 125.186 99.2215C125.018 99.2452 124.848 99.2452 124.68 99.2215C123.469 99.1093 122.74 98.9972 122.745 98.9054Z" fill="#263238"/>
<path d="M121.582 113.382C117.663 112.949 113.961 111.351 110.947 108.793C110.947 108.793 112.765 115.263 121.298 115.6L121.582 113.382Z" fill="#EB996E"/>
<path d="M133.531 78.7002C133.531 78.7002 128.214 80.9385 121.656 77.1706C117.351 74.7029 112.257 73.3314 111.067 74.1625C109.877 74.9935 109.39 79.5721 104.934 80.6683C104.934 80.6683 104.757 89.443 101.303 88.9382C97.8492 88.4334 100.766 74.9884 100.766 74.9884L109.477 71.2869L118.83 70.0428L127.49 71.7661L134.149 74.0044L133.531 78.7002Z" fill="#263238"/>
<path d="M102.152 86.1608C102.015 86.0793 96.5814 83.6727 95.999 89.5157C95.4167 95.3587 101.377 94.7265 101.403 94.5633C101.428 94.4002 102.152 86.1608 102.152 86.1608Z" fill="#FFBE9D"/>
<path d="M99.8411 92.192C99.8411 92.192 99.7348 92.2532 99.5575 92.3144C99.3067 92.3959 99.0342 92.3758 98.7979 92.2583C98.2054 91.9728 97.7851 90.9377 97.861 89.8823C97.8928 89.3807 98.0365 88.8928 98.2814 88.4547C98.3536 88.2775 98.4673 88.1205 98.6128 87.9971C98.7583 87.8737 98.9312 87.7876 99.1169 87.746C99.2366 87.7235 99.3602 87.7452 99.4653 87.8069C99.5704 87.8687 99.6499 87.9666 99.6892 88.0825C99.75 88.2559 99.6892 88.3681 99.7348 88.3834C99.7803 88.3986 99.8664 88.2967 99.8411 88.0519C99.8255 87.9022 99.7572 87.763 99.6487 87.6594C99.5013 87.523 99.3069 87.4499 99.1068 87.4554C98.8638 87.4807 98.6312 87.568 98.4309 87.709C98.2307 87.8499 98.0694 88.0399 97.9623 88.261C97.6666 88.7433 97.4928 89.2912 97.4559 89.8568C97.3749 91.0346 97.8712 92.1971 98.6865 92.5234C98.8374 92.5839 98.9997 92.6097 99.1618 92.5992C99.3238 92.5886 99.4815 92.5418 99.6234 92.4622C99.8158 92.3348 99.8614 92.2073 99.8411 92.192Z" fill="#EB996E"/>
<path d="M108.796 75.1053C107.662 76.4286 106.364 77.599 104.932 78.5876C103.478 79.5776 101.697 79.9563 99.9692 79.643C98.2828 79.2504 96.7889 77.782 96.718 76.0332C96.6471 74.2844 98.3436 72.5916 100.035 72.974C99.7469 72.9783 99.4619 72.9132 99.2039 72.7841C98.9458 72.655 98.7222 72.4657 98.5515 72.2319C98.3809 71.9982 98.2682 71.7267 98.2229 71.4402C98.1776 71.1537 98.201 70.8605 98.2911 70.5849C98.3812 70.3094 98.5354 70.0595 98.7409 69.8561C98.9463 69.6527 99.1971 69.5017 99.4723 69.4157C99.7475 69.3297 100.039 69.3111 100.323 69.3616C100.607 69.4121 100.874 69.5301 101.104 69.7058C99.6299 69.4254 99.4678 67.075 100.638 66.1368C101.807 65.1987 103.529 65.4026 104.912 65.9686C106.294 66.5345 107.576 67.4115 109.039 67.7276C111.333 68.2374 113.688 67.2636 115.719 66.0756C117.75 64.8877 119.674 63.4397 121.938 62.8074C124.713 62.0375 127.716 62.6035 130.37 63.7252C132.616 64.5905 134.593 66.0424 136.097 67.9315C137.53 69.8588 138.239 72.4183 137.616 74.7382C136.993 77.058 134.836 78.9853 132.441 78.9955C132.441 78.9955 127.068 79.5359 122.692 76.2677C118.317 72.9995 109.08 73.4125 109.08 73.4125L108.796 75.1053Z" fill="#263238"/>
<path d="M100.729 68.3161C100.729 68.3161 100.835 68.4283 101.063 68.5864C101.291 68.7444 101.645 68.9636 102.106 69.2288C103.431 69.9534 104.837 70.5165 106.294 70.9062C108.463 71.4904 110.714 71.7058 112.953 71.5435C115.486 71.3753 118.165 70.5238 120.945 69.8661C123.725 69.2084 126.465 68.8464 128.845 69.4276C131.225 70.0089 133.089 71.4263 133.909 73.0629C134.584 74.3698 134.742 75.8858 134.35 77.305C134.168 77.8164 133.942 78.3111 133.676 78.7836C133.676 78.7836 133.798 78.6969 133.98 78.4776C134.231 78.1437 134.433 77.7743 134.578 77.3814C134.832 76.6487 134.938 75.8723 134.891 75.0976C134.844 74.3229 134.645 73.5654 134.304 72.8692C133.463 71.0643 131.473 69.4786 128.977 68.8668C126.48 68.2549 123.598 68.5609 120.793 69.2594C117.987 69.9579 115.364 70.7889 112.903 70.9674C110.721 71.1434 108.524 70.9713 106.395 70.4575C102.724 69.5704 100.759 68.1785 100.729 68.3161Z" fill="#555555"/>
<path d="M98.0919 77.3321C98.0311 77.3627 98.2185 77.9337 98.8464 78.6628C99.681 79.6087 100.793 80.2623 102.021 80.5291C103.25 80.7959 104.53 80.6619 105.678 80.1465C106.549 79.7488 106.954 79.3053 106.909 79.2492C106.863 79.1931 106.367 79.4684 105.521 79.759C104.434 80.1221 103.27 80.1854 102.151 79.9424C101.032 79.6994 99.9971 79.159 99.1554 78.3773C98.497 77.7553 98.1932 77.2811 98.0919 77.3321Z" fill="#555555"/>
<path d="M99.908 74.4317C99.7611 74.5031 100.207 75.5636 101.331 76.3437C102.455 77.1237 103.595 77.1747 103.605 77.0065C103.615 76.8382 102.673 76.5272 101.68 75.8287C100.688 75.1302 100.06 74.3501 99.908 74.4317Z" fill="#555555"/>
<path d="M136.383 82.5919C136.459 82.5919 136.626 82.3216 136.667 81.7965C136.71 81.1035 136.53 80.415 136.155 79.8328C135.779 79.2506 135.227 78.8057 134.58 78.564C134.074 78.3906 133.76 78.4263 133.745 78.5028C133.694 78.671 134.889 79.0127 135.634 80.1751C136.378 81.3376 136.211 82.5919 136.383 82.5919Z" fill="#263238"/>
<path d="M139.391 74.2192C139.218 74.1478 138.58 75.6927 137.061 76.9673C135.542 78.242 133.947 78.6601 133.992 78.8436C134.038 79.0272 135.82 78.8436 137.466 77.4466C139.112 76.0496 139.553 74.2396 139.391 74.2192Z" fill="#555555"/>
<path d="M130.605 89.4876C130.566 89.8283 130.395 90.1399 130.13 90.3553C129.865 90.5707 129.527 90.6729 129.187 90.6399C129.021 90.6315 128.858 90.5897 128.707 90.5168C128.557 90.444 128.423 90.3416 128.312 90.2157C128.202 90.0898 128.118 89.9429 128.064 89.7837C128.011 89.6246 127.99 89.4563 128.002 89.2888C128.043 88.9486 128.214 88.6379 128.479 88.4227C128.744 88.2075 129.082 88.1048 129.42 88.1365C129.587 88.1449 129.75 88.1867 129.901 88.2596C130.051 88.3324 130.185 88.4348 130.296 88.5607C130.406 88.6866 130.49 88.8335 130.544 88.9927C130.597 89.1518 130.618 89.3201 130.605 89.4876Z" fill="#263238"/>
<path d="M131.62 89.3751C131.438 89.523 130.551 88.6613 129.159 88.4829C127.766 88.3044 126.652 88.8704 126.52 88.6817C126.459 88.595 126.662 88.3095 127.148 88.0393C127.806 87.6994 128.552 87.5713 129.285 87.6722C130.012 87.7619 130.691 88.0856 131.22 88.595C131.62 88.9825 131.711 89.3089 131.62 89.3751Z" fill="#263238"/>
<path d="M125.79 105.165C125.61 105.021 124.733 105.861 123.354 106.035C121.975 106.209 120.872 105.657 120.742 105.841C120.682 105.926 120.882 106.204 121.364 106.467C122.015 106.798 122.754 106.923 123.479 106.825C124.199 106.737 124.87 106.422 125.394 105.926C125.79 105.548 125.881 105.23 125.79 105.165Z" fill="#263238"/>
<path d="M117.903 87.7103C117.864 88.051 117.693 88.3625 117.428 88.578C117.163 88.7934 116.824 88.8956 116.485 88.8626C116.319 88.8542 116.155 88.8124 116.005 88.7395C115.855 88.6667 115.721 88.5643 115.61 88.4384C115.5 88.3125 115.415 88.1656 115.362 88.0064C115.309 87.8473 115.288 87.679 115.3 87.5115C115.342 87.1709 115.514 86.8601 115.78 86.645C116.046 86.43 116.384 86.3274 116.723 86.3592C116.89 86.3675 117.053 86.4094 117.203 86.4823C117.353 86.5552 117.487 86.6577 117.597 86.7837C117.707 86.9097 117.791 87.0566 117.843 87.2158C117.896 87.3749 117.916 87.5431 117.903 87.7103Z" fill="#263238"/>
<path d="M118.815 87.6887C118.633 87.8366 117.742 86.98 116.349 86.7965C114.956 86.6129 113.842 87.1891 113.711 86.9953C113.65 86.9086 113.852 86.6231 114.339 86.358C114.995 86.0139 115.743 85.8856 116.476 85.9909C117.201 86.0813 117.879 86.4029 118.41 86.9086C118.795 87.2859 118.901 87.6122 118.815 87.6887Z" fill="#263238"/>
<path d="M118.281 83.8204C118.002 84.0651 116.959 83.3105 115.546 83.1677C114.133 83.025 112.958 83.5246 112.74 83.2289C112.639 83.0862 112.826 82.7191 113.348 82.3775C114.049 81.9467 114.871 81.7603 115.687 81.8469C116.504 81.9335 117.269 82.2884 117.865 82.8567C118.301 83.3054 118.407 83.7031 118.281 83.8204Z" fill="#263238"/>
<path d="M131.532 86.1616C131.593 86.3298 131.35 86.6102 130.844 86.8295C130.172 87.0892 129.444 87.1666 128.733 87.0538C128.022 86.9411 127.352 86.6422 126.792 86.1871C126.377 85.82 126.235 85.4834 126.342 85.3407C126.585 85.0552 127.623 85.5497 128.939 85.7384C130.256 85.927 131.391 85.7996 131.532 86.1616Z" fill="#263238"/>
<path d="M106.718 131.72C106.718 131.72 109.544 127.702 111.321 125.444C113.473 122.711 114.755 120.345 114.755 119.075V112.305C114.755 112.305 117.434 111.667 117.793 114.731C118.153 117.796 117.793 118.566 117.793 118.566C117.793 118.566 129.041 110.918 129.8 111.494C131.142 112.463 128.6 114.502 128.6 114.502L121.748 120.738L125.648 119.494C126.102 119.346 126.597 119.384 127.024 119.6C127.451 119.815 127.777 120.191 127.932 120.646C128.06 121.024 128.061 121.434 127.936 121.814C127.811 122.193 127.565 122.521 127.238 122.746L124.929 124.76L126.088 124.291C126.503 124.122 126.966 124.116 127.385 124.274C127.804 124.431 128.149 124.741 128.352 125.143C128.52 125.471 128.582 125.844 128.529 126.21C128.477 126.575 128.312 126.915 128.058 127.182L125.957 129.441L126.939 128.931C127.09 128.85 127.255 128.8 127.426 128.784C127.596 128.768 127.768 128.787 127.931 128.838C128.094 128.89 128.246 128.974 128.376 129.086C128.507 129.197 128.614 129.333 128.691 129.487C128.821 129.75 128.857 130.05 128.793 130.337C128.729 130.623 128.57 130.879 128.342 131.062L115.752 141.081L106.718 131.72Z" fill="#FFB590"/>
<path d="M115.773 141.043L115.616 140.895C115.51 140.783 115.353 140.63 115.156 140.436C114.745 140.013 114.143 139.417 113.368 138.621L106.663 131.779L106.612 131.728L106.653 131.672C107.473 130.492 108.37 129.238 109.342 127.909C109.828 127.229 110.334 126.549 110.861 125.87C111.398 125.176 111.95 124.478 112.467 123.718C113.004 122.953 113.49 122.153 113.92 121.322C114.415 120.486 114.665 119.526 114.639 118.553C114.639 116.544 114.639 114.461 114.639 112.302V112.2H114.73C115.423 112.053 116.146 112.173 116.756 112.537C117.055 112.739 117.306 113.005 117.49 113.317C117.666 113.635 117.791 113.979 117.86 114.337C117.984 115.036 118.06 115.743 118.088 116.452C118.088 116.809 118.088 117.171 118.088 117.533C118.085 117.91 118.027 118.285 117.916 118.645L117.728 118.482C119.465 117.309 121.273 116.121 123.127 114.913C124.053 114.321 125 113.73 125.963 113.154C126.932 112.558 127.935 112.018 128.966 111.537C129.107 111.474 129.252 111.421 129.401 111.379C129.48 111.355 129.562 111.34 129.644 111.333C129.696 111.324 129.749 111.324 129.801 111.333C129.854 111.348 129.902 111.378 129.938 111.42C130.074 111.523 130.182 111.66 130.248 111.817C130.315 111.975 130.339 112.147 130.318 112.317C130.182 112.925 129.868 113.477 129.416 113.903C129.006 114.347 128.54 114.709 128.125 115.106L126.839 116.274L121.856 120.827L121.729 120.608L124.013 119.884L125.142 119.527C125.33 119.466 125.507 119.405 125.704 119.348C125.904 119.293 126.111 119.271 126.317 119.282C126.727 119.294 127.123 119.438 127.447 119.692C127.771 119.946 128.007 120.296 128.119 120.694C128.232 121.091 128.216 121.515 128.075 121.902C127.933 122.29 127.672 122.622 127.33 122.851L125.036 124.845L124.914 124.651L126.049 124.192C126.444 124.028 126.882 124 127.294 124.111C127.593 124.19 127.867 124.343 128.092 124.555C128.318 124.766 128.488 125.031 128.589 125.325C128.689 125.619 128.715 125.933 128.666 126.239C128.617 126.546 128.494 126.836 128.307 127.083C128.049 127.389 127.801 127.639 127.548 127.914C127.041 128.449 126.535 128.975 126.074 129.49L125.947 129.326L127.006 128.771C127.193 128.683 127.397 128.64 127.604 128.643C127.81 128.645 128.013 128.695 128.198 128.788C128.382 128.88 128.544 129.013 128.671 129.177C128.798 129.341 128.886 129.531 128.93 129.734C128.972 129.93 128.97 130.132 128.926 130.327C128.881 130.521 128.794 130.704 128.672 130.861C128.549 131.004 128.409 131.133 128.257 131.243L127.836 131.575L127.016 132.227L125.446 133.466L120.24 137.545L116.933 140.161L116.077 140.824C115.885 140.977 115.784 141.043 115.784 141.043L116.077 140.793L116.933 140.1L120.21 137.454L125.355 133.324L126.905 132.08L127.72 131.427L128.135 131.096C128.275 130.996 128.403 130.88 128.515 130.749C128.675 130.538 128.761 130.279 128.758 130.014C128.755 129.748 128.663 129.491 128.498 129.284C128.333 129.077 128.104 128.931 127.847 128.87C127.591 128.81 127.321 128.837 127.082 128.949L126.049 129.495L125.507 129.785L125.927 129.331L127.396 127.751C127.639 127.486 127.902 127.21 128.135 126.94C128.3 126.722 128.409 126.467 128.452 126.197C128.496 125.926 128.473 125.649 128.386 125.39C128.298 125.131 128.149 124.897 127.95 124.71C127.752 124.522 127.511 124.386 127.249 124.314C126.884 124.217 126.498 124.244 126.15 124.391L125.016 124.85L124.372 125.115L124.879 124.651L127.183 122.637C127.478 122.435 127.702 122.145 127.823 121.808C127.944 121.471 127.956 121.104 127.858 120.759C127.76 120.414 127.556 120.11 127.276 119.888C126.995 119.667 126.653 119.541 126.297 119.527C125.922 119.533 125.552 119.613 125.208 119.761L124.079 120.123L121.795 120.853L121.238 121.031L121.673 120.633L126.672 116.08L127.958 114.908C128.383 114.505 128.839 114.148 129.229 113.73C129.638 113.344 129.927 112.846 130.06 112.297C130.078 112.17 130.062 112.041 130.012 111.923C129.961 111.805 129.88 111.703 129.776 111.629C129.746 111.553 129.614 111.599 129.477 111.629C129.339 111.67 129.204 111.72 129.072 111.777C128.052 112.251 127.061 112.785 126.104 113.378C125.142 113.954 124.2 114.54 123.268 115.132C121.41 116.31 119.612 117.493 117.875 118.665L117.556 118.879L117.693 118.497C117.787 118.165 117.836 117.822 117.84 117.477C117.857 117.124 117.857 116.77 117.84 116.417C117.812 115.721 117.739 115.028 117.622 114.342C117.554 114.016 117.44 113.702 117.283 113.409C117.115 113.131 116.89 112.893 116.624 112.71C116.069 112.381 115.412 112.27 114.781 112.399L114.877 112.282C114.877 114.437 114.877 116.52 114.877 118.533C114.877 118.788 114.877 119.043 114.877 119.297C114.847 119.55 114.792 119.799 114.715 120.042C114.561 120.51 114.369 120.966 114.143 121.403C113.707 122.243 113.212 123.05 112.664 123.82C112.158 124.58 111.58 125.288 111.049 125.972C110.517 126.655 110.01 127.338 109.529 128.011C108.557 129.337 107.656 130.591 106.825 131.758V131.651L113.388 138.534L115.156 140.385L115.616 140.87L115.773 141.043Z" fill="#EB996E"/>
<path d="M115.773 141.046L81.2705 186.933C76.0291 193.893 66.5844 196.442 58.7501 192.664C53.0174 189.901 48.8142 184.098 52.3287 172.158L85.3827 149.382L105.477 129.86L115.773 141.046Z" fill="url(#paint3_linear_1110_5740)"/>
<path d="M58.7503 192.644L59.12 192.832L60.2037 193.408C61.6315 194.055 63.1533 194.467 64.7109 194.627C65.8374 194.73 66.9716 194.709 68.0937 194.566C68.7339 194.486 69.3695 194.372 69.9979 194.224C70.327 194.153 70.6511 194.041 71.0107 193.949C71.3541 193.857 71.6922 193.746 72.0235 193.617C73.48 193.102 74.8719 192.418 76.1711 191.578C77.6414 190.655 78.9547 189.5 80.0604 188.157C82.4153 185.353 84.8511 182.151 87.4845 178.735C90.1179 175.319 92.8526 171.612 95.7695 167.737C101.593 159.977 107.959 151.421 114.608 142.407L115.667 140.974V141.143L105.371 129.926H105.548C98.5143 135.774 92.0018 141.352 86.102 146.323C80.2022 151.294 74.9203 155.669 70.4536 159.227C65.987 162.786 62.3509 165.565 59.8188 167.426C58.5579 168.369 57.5653 169.063 56.9019 169.547L56.1422 170.087L55.8789 170.261L56.127 170.067L56.8766 169.506C57.5298 168.996 58.5123 168.303 59.7631 167.355C62.2952 165.468 65.8908 162.679 70.3422 159.1C74.7937 155.521 80.0655 151.141 85.9551 146.149C91.8448 141.158 98.3472 135.58 105.376 129.727L105.473 129.65L105.554 129.737L115.854 140.954L115.93 141.036L115.864 141.127L114.806 142.565C108.151 151.569 101.781 160.13 95.9468 167.88C93.0247 171.755 90.2496 175.436 87.6162 178.852C84.9828 182.268 82.552 185.48 80.1617 188.264C79.0401 189.616 77.7098 190.778 76.2218 191.705C74.9099 192.548 73.5042 193.233 72.0337 193.745C71.7022 193.874 71.3641 193.984 71.0208 194.076C70.6815 194.168 70.3524 194.275 70.008 194.352C69.3748 194.497 68.734 194.606 68.0887 194.678C66.9577 194.82 65.8144 194.834 64.6805 194.719C63.1138 194.546 61.586 194.116 60.1581 193.444C59.6821 193.189 59.3276 192.98 59.0896 192.848C58.8516 192.715 58.7503 192.644 58.7503 192.644Z" fill="#555555"/>
<path d="M84.9116 180.693C84.527 180.433 84.1242 180.202 83.7064 180C82.5309 179.52 81.2516 179.357 79.9943 179.526C79.1263 179.621 78.2696 179.802 77.4369 180.066C76.5355 180.342 75.5986 180.729 74.606 181.122C73.5715 181.554 72.513 181.925 71.4358 182.233C70.2673 182.572 69.047 182.693 67.8352 182.59C66.6332 182.436 65.4597 182.108 64.351 181.616C63.2724 181.168 62.2747 180.653 61.3125 180.214C59.3932 179.312 57.5245 178.73 55.9242 178.817C54.6561 178.85 53.4331 179.297 52.4401 180.092C52.0932 180.392 51.7853 180.734 51.5234 181.112C51.5675 180.997 51.6235 180.888 51.6906 180.785C51.885 180.493 52.1146 180.226 52.3742 179.99C53.3669 179.139 54.6164 178.652 55.9192 178.608C57.565 178.486 59.4641 179.072 61.4138 179.964C62.3912 180.403 63.3939 180.908 64.4523 181.351C65.5395 181.829 66.6888 182.148 67.8656 182.3C69.0446 182.401 70.2322 182.285 71.37 181.958C72.4396 181.654 73.4913 181.29 74.5199 180.867C75.5328 180.479 76.4544 180.097 77.3761 179.847C78.2244 179.589 79.0965 179.418 79.9791 179.337C81.2623 179.181 82.5636 179.374 83.7469 179.898C84.1773 180.094 84.5712 180.363 84.9116 180.693Z" fill="#C2C2C2"/>
<path d="M97.1086 165.317C97.2242 165.03 97.2693 164.718 97.2402 164.41C97.1598 163.997 96.9789 163.61 96.7138 163.284C96.4487 162.959 96.1076 162.704 95.721 162.544C95.1817 162.314 94.6198 162.144 94.0447 162.034C93.3697 161.899 92.7121 161.687 92.0849 161.402C90.6852 160.668 89.4333 159.68 88.3931 158.485C87.2537 157.267 86.2408 156.053 85.1571 155.115C84.2271 154.259 83.1201 153.622 81.916 153.249C81.0962 152.997 80.23 152.938 79.3839 153.075C78.7914 153.183 78.4875 153.33 78.4774 153.305C78.4673 153.279 78.5483 153.259 78.6952 153.193C78.9099 153.097 79.1339 153.023 79.3636 152.974C80.2198 152.796 81.1057 152.829 81.9464 153.07C83.1908 153.424 84.3378 154.061 85.2989 154.931C86.45 155.994 87.5406 157.12 88.5653 158.307C89.5849 159.475 90.8065 160.448 92.171 161.177C93.437 161.809 94.7841 161.86 95.7817 162.375C96.1895 162.556 96.5451 162.838 96.8153 163.195C97.0854 163.551 97.2612 163.971 97.3263 164.415C97.3525 164.656 97.3158 164.901 97.22 165.123C97.1948 165.194 97.157 165.26 97.1086 165.317Z" fill="#C2C2C2"/>
<path d="M195.014 33.5235L193.495 33.6203L190.512 38.464L190.709 41.4926C190.709 41.4926 188.39 41.7934 188.4 37.8063C188.41 33.8192 188.182 34.8491 188.182 34.8491C188.182 34.8491 183.229 35.1601 182.789 34.7522C182.47 34.4616 182.009 29.516 181.776 26.8341C181.702 26.1891 181.844 25.5377 182.18 24.9834C182.516 24.4291 183.026 24.0038 183.629 23.775C183.793 23.7185 183.963 23.6826 184.136 23.6679C185.372 23.5863 191.732 24.1777 191.732 24.1777L194.335 24.0044L195.014 33.5235Z" fill="#555555"/>
<path d="M199.388 34.0629L197.772 23.7382L195.189 23.9116L195.863 34.0884L199.388 34.0629Z" fill="#555555"/>
<path d="M159.684 42.7937C159.757 42.7992 159.829 42.8164 159.896 42.8446C159.984 42.8688 160.069 42.903 160.15 42.9466C160.265 42.9934 160.375 43.0514 160.479 43.12C161.052 43.4803 161.519 43.9884 161.832 44.5918C162.144 45.1952 162.291 45.8717 162.256 46.5513C162.208 47.1968 161.976 47.8145 161.588 48.3307C161.158 48.8966 160.584 49.3352 159.927 49.6003C159.219 49.8932 158.437 49.9539 157.693 49.7737C156.958 49.5629 156.309 49.1217 155.84 48.5143C155.394 47.9592 155.11 47.2902 155.02 46.5819C154.933 45.9415 155.033 45.2896 155.308 44.7056C155.611 44.0964 156.071 43.5798 156.639 43.2095C157.207 42.8393 157.863 42.6288 158.539 42.5999C158.662 42.5891 158.786 42.5891 158.909 42.5999C159 42.6033 159.09 42.617 159.177 42.6407C159.251 42.6487 159.323 42.6694 159.39 42.7019C159.39 42.7325 159.086 42.6509 158.544 42.7019C157.779 42.772 157.053 43.0742 156.463 43.5686C156.059 43.9033 155.732 44.3226 155.506 44.7974C155.258 45.3461 155.172 45.9548 155.258 46.5513C155.324 47.2434 155.6 47.8983 156.047 48.428C156.495 48.9577 157.093 49.3369 157.76 49.5145C158.428 49.6922 159.134 49.6598 159.783 49.4217C160.432 49.1837 160.993 48.7514 161.39 48.1829C161.761 47.7092 161.986 47.1368 162.039 46.536C162.074 46.0156 161.996 45.4937 161.811 45.0065C161.54 44.283 161.056 43.6603 160.423 43.2219C159.962 42.9007 159.674 42.8192 159.684 42.7937Z" fill="#263238"/>
<path d="M149.141 51.8759C149.323 51.8956 149.497 51.9604 149.647 52.0645C150.016 52.2913 150.316 52.6135 150.519 52.9973C150.721 53.3812 150.817 53.8127 150.797 54.2467C150.768 54.6609 150.621 55.0578 150.372 55.3888C150.1 55.7819 149.715 56.0814 149.268 56.2466C148.821 56.4118 148.335 56.4347 147.875 56.3123C147.415 56.1898 147.004 55.9279 146.697 55.5621C146.389 55.1962 146.202 54.7441 146.158 54.2671C146.104 53.8562 146.169 53.4383 146.346 53.0638C146.504 52.7443 146.733 52.4653 147.014 52.2481C147.412 51.9245 147.906 51.7449 148.417 51.7382C148.601 51.723 148.785 51.7545 148.954 51.83C148.954 51.83 148.756 51.83 148.447 51.83C147.972 51.8785 147.521 52.0704 147.156 52.3806C146.885 52.5977 146.675 52.882 146.546 53.2056C146.417 53.5292 146.374 53.881 146.422 54.2263C146.46 54.6544 146.629 55.0601 146.904 55.3889C147.179 55.7176 147.547 55.9534 147.96 56.0646C148.372 56.1758 148.809 56.1569 149.21 56.0105C149.611 55.8641 149.959 55.5973 150.205 55.246C150.414 54.9691 150.548 54.6421 150.595 54.2971C150.641 53.952 150.597 53.6009 150.468 53.278C150.305 52.8255 150.008 52.4341 149.617 52.1563C149.328 51.9574 149.131 51.9014 149.141 51.8759Z" fill="#263238"/>
<path d="M164.492 27.2334C164.492 27.2334 164.492 27.0906 164.553 26.8102L164.75 25.5662L164.902 24.6484C164.973 24.3119 165.084 23.955 165.186 23.5624L165.535 22.2878C165.596 22.0535 165.672 21.8235 165.763 21.5994L166.042 20.8856C166.93 18.4826 168.18 16.2316 169.749 14.2116C171.806 11.5112 174.363 9.23777 177.279 7.51711L178.515 6.80331C178.94 6.58917 179.391 6.40052 179.831 6.19148C180.272 5.98244 180.723 5.753 181.199 5.60004L182.637 5.09018L183.366 4.84544L184.126 4.6619L185.645 4.2999C186.151 4.19282 186.703 4.14694 187.24 4.07046C187.778 3.97664 188.321 3.91873 188.866 3.89711C189.985 3.81815 191.109 3.81815 192.229 3.89711C192.796 3.94299 193.368 3.95829 193.945 4.03477L195.667 4.33559C195.956 4.39167 196.249 4.42226 196.533 4.49874L197.394 4.73837C197.966 4.90663 198.549 5.04429 199.121 5.24823C200.279 5.66587 201.41 6.1598 202.504 6.72683L203.334 7.15001C203.476 7.22649 203.618 7.29277 203.755 7.36925L204.15 7.62418L205.745 8.6439C206.251 9.011 206.758 9.42909 207.264 9.82168C207.512 10.0256 207.771 10.2092 208.014 10.4386L208.718 11.1116C209.668 12.0222 210.559 12.9929 211.386 14.0178C211.766 14.5634 212.151 15.1089 212.541 15.6596L212.83 16.0726L213.083 16.511L213.589 17.3931L214.096 18.2752L214.521 19.2082L214.941 20.1514L215.154 20.6205C215.215 20.7786 215.266 20.9468 215.321 21.1304L215.99 23.0984C216.147 23.7765 216.304 24.4598 216.466 25.1379C217.611 30.7658 216.9 36.6165 214.44 41.8001L213.493 43.6662L212.374 45.4201L212.095 45.8535L211.776 46.2614L211.143 47.072L210.51 47.8725L209.806 48.6118L209.107 49.346L208.758 49.7131L208.378 50.0445L206.859 51.3549C205.815 52.1548 204.719 52.8822 203.577 53.532L202.732 54.0418C202.453 54.205 202.149 54.3172 201.861 54.4548C201.273 54.7148 200.696 55.0004 200.108 55.2349L198.316 55.8467L197.87 55.9997L197.414 56.1119L196.503 56.326C195.31 56.6041 194.1 56.8034 192.882 56.9225C192.279 56.9735 191.677 56.9684 191.084 56.9888L190.193 57.0194C189.899 57.0194 189.605 56.9837 189.312 56.9633L187.564 56.841C186.992 56.7747 186.43 56.6523 185.868 56.5605C184.762 56.3696 183.671 56.1022 182.602 55.7601C182.083 55.6067 181.576 55.4193 181.082 55.1992C180.576 54.9953 180.069 54.8219 179.588 54.5925L178.196 53.843L177.507 53.481L176.854 53.068L175.552 52.2165C175.122 51.9514 174.757 51.6098 174.367 51.3141C173.977 51.0184 173.597 50.7124 173.233 50.4014L172.22 49.4072C169.798 47.0334 167.856 44.2093 166.502 41.0914C165.458 38.752 164.775 36.2658 164.477 33.7188C164.441 33.4537 164.411 33.209 164.381 32.954C164.341 32.7165 164.32 32.476 164.32 32.2351C164.32 31.7711 164.32 31.3327 164.289 30.9248C164.259 30.5169 164.259 30.1498 164.289 29.8082C164.32 29.4666 164.34 29.1556 164.36 28.8802C164.406 28.3347 164.441 27.9166 164.462 27.626C164.482 27.3354 164.507 27.1977 164.507 27.1977C164.507 27.1977 164.507 27.3456 164.507 27.626C164.507 27.9064 164.467 28.3347 164.436 28.8853C164.436 29.1607 164.396 29.4666 164.375 29.8082C164.355 30.1498 164.375 30.522 164.406 30.9248C164.436 31.3276 164.436 31.7661 164.451 32.23C164.454 32.4694 164.476 32.7081 164.517 32.9438C164.548 33.1937 164.583 33.4537 164.619 33.7035C164.922 36.2365 165.605 38.7085 166.644 41.0353C168.003 44.1266 169.943 46.9244 172.357 49.2746L173.369 50.2536C173.734 50.5646 174.119 50.8552 174.504 51.1611C174.889 51.467 175.253 51.7933 175.679 52.0534L176.95 52.8692L177.598 53.2821L178.287 53.6339L179.685 54.3528C180.161 54.5772 180.667 54.7505 181.163 54.9545C181.659 55.1672 182.166 55.3511 182.683 55.5051C183.744 55.8416 184.827 56.1039 185.924 56.2903C186.481 56.377 187.038 56.5045 187.605 56.5656L189.337 56.688C189.626 56.688 189.919 56.739 190.213 56.739L191.094 56.7084C191.687 56.7084 192.279 56.7084 192.877 56.637C194.084 56.5178 195.281 56.3185 196.462 56.0405L197.364 55.8263C197.516 55.7907 197.667 55.7601 197.814 55.7193L198.255 55.5663L200.032 54.9545C200.62 54.725 201.187 54.4446 201.769 54.1846C202.053 54.0418 202.357 53.9348 202.635 53.7716L203.466 53.2617C204.596 52.6152 205.683 51.8929 206.717 51.0999L208.236 49.7998L208.611 49.4735L208.961 49.1115L209.649 48.3824L210.343 47.6533L210.971 46.8579L211.599 46.0523L211.913 45.6546L212.192 45.2213L213.296 43.4877C213.604 42.8708 213.918 42.2539 214.232 41.6369C215.41 39.0748 216.199 36.3488 216.572 33.5506C216.877 30.7448 216.761 27.9088 216.228 25.1379C216.071 24.4649 215.914 23.7867 215.757 23.0984C215.6 22.4101 215.316 21.7932 215.098 21.1457C215.043 20.9825 214.992 20.8194 214.931 20.6358L214.724 20.1667L214.303 19.2388L213.888 18.3159L213.382 17.439L212.875 16.562L212.622 16.1286L212.333 15.7208L211.194 14.0943C210.375 13.0779 209.492 12.1156 208.55 11.2136L207.857 10.5457C207.629 10.3213 207.35 10.1378 207.117 9.93385C206.611 9.54636 206.13 9.13337 205.598 8.76627L204.023 7.85872L203.628 7.60379C203.496 7.52731 203.355 7.46103 203.218 7.38965L202.397 6.96136C201.316 6.40768 200.199 5.92569 199.055 5.51846C198.488 5.32472 197.911 5.18196 197.343 5.0086L196.493 4.76897C196.209 4.69249 195.915 4.6568 195.632 4.60581L193.93 4.2897C193.363 4.20812 192.791 4.19793 192.229 4.14694C191.119 4.07057 190.006 4.07057 188.896 4.14694C188.355 4.1694 187.815 4.22559 187.281 4.31519C186.749 4.39167 186.217 4.43246 185.701 4.53953L184.182 4.89643L183.427 5.07488C183.184 5.14626 182.946 5.23804 182.703 5.31452L181.275 5.82438C180.799 5.97224 180.368 6.21697 179.917 6.40562C179.467 6.59427 179.031 6.79821 178.606 7.01235L177.38 7.71596C174.478 9.42065 171.929 11.6708 169.87 14.3441C168.301 16.3507 167.045 18.5856 166.143 20.9723L165.859 21.6861C165.767 21.9067 165.689 22.1332 165.626 22.3642C165.5 22.8129 165.383 23.231 165.272 23.6185C165.16 24.006 165.054 24.3629 164.978 24.6994C164.902 25.0359 164.862 25.3367 164.816 25.612C164.715 26.1219 164.639 26.5604 164.588 26.8459C164.538 27.1314 164.492 27.2334 164.492 27.2334Z" fill="#263238"/>
<path d="M73.9588 46.9437C73.9588 46.9742 73.6549 47.015 73.1688 47.2598C72.4901 47.6199 71.9371 48.1803 71.5837 48.8658C71.3345 49.3385 71.1927 49.8609 71.1684 50.3954C71.1495 50.9978 71.3043 51.5928 71.6141 52.1085C71.9393 52.7223 72.4436 53.2208 73.059 53.537C73.6744 53.8532 74.3713 53.9718 75.0558 53.8767C75.7402 53.7817 76.3792 53.4777 76.8867 53.0056C77.3941 52.5335 77.7456 51.9161 77.8937 51.2367C78.0516 50.6561 78.0411 50.0422 77.8633 49.4675C77.6941 48.9687 77.4193 48.513 77.0581 48.1316C76.533 47.5681 75.849 47.1801 75.0982 47.0201C74.5918 46.9131 74.2576 46.9589 74.2576 46.9284C74.3277 46.9043 74.4013 46.8922 74.4753 46.8927C74.5662 46.8821 74.6579 46.8821 74.7488 46.8927C74.8727 46.8915 74.9964 46.9017 75.1185 46.9233C75.908 47.0494 76.6362 47.4284 77.1948 48.0042C77.5859 48.4008 77.885 48.8796 78.0709 49.4063C78.2744 50.019 78.2955 50.6783 78.1317 51.303C77.9561 51.9941 77.5931 52.6225 77.0834 53.1181C76.5464 53.665 75.8484 54.0226 75.0932 54.1378C74.3324 54.2281 73.5628 54.0727 72.8953 53.6942C72.2723 53.3551 71.7551 52.8485 71.4014 52.2309C71.0782 51.6739 70.9217 51.0347 70.9507 50.3903C70.9978 49.7111 71.2239 49.0568 71.6058 48.4949C71.9877 47.933 72.5115 47.4838 73.1232 47.1935C73.236 47.1401 73.3529 47.0958 73.4726 47.0609C73.5579 47.0298 73.6462 47.0076 73.736 46.9946C73.8068 46.9649 73.8822 46.9476 73.9588 46.9437Z" fill="#263238"/>
<path d="M83.5706 55.1768C83.5706 55.1768 83.3832 55.2329 83.0641 55.391C82.6447 55.6252 82.3043 55.9803 82.0868 56.4107C81.9195 56.7161 81.8343 57.0602 81.8396 57.409C81.845 57.7577 81.9406 58.099 82.1171 58.3992C82.3178 58.7772 82.6288 59.0842 83.0082 59.2787C83.3876 59.4732 83.8171 59.5459 84.2388 59.487C84.6605 59.4281 85.0541 59.2404 85.3666 58.9492C85.6791 58.6581 85.8953 58.2775 85.9862 57.8587C86.0758 57.5225 86.0763 57.1685 85.9874 56.832C85.8985 56.4956 85.7235 56.1886 85.4798 55.9416C85.1562 55.5883 84.7344 55.3413 84.2694 55.2329C83.9352 55.1615 83.763 55.1819 83.763 55.1615C83.9375 55.1019 84.1249 55.0913 84.3049 55.1309C84.7319 55.1965 85.1333 55.377 85.4668 55.6534C85.8002 55.9299 86.0531 56.292 86.1989 56.7013C86.3311 57.0945 86.3469 57.5178 86.2445 57.9199C86.1449 58.389 85.9043 58.8158 85.5554 59.1424C85.2064 59.469 84.766 59.6795 84.2941 59.7452C83.8221 59.811 83.3415 59.7288 82.9176 59.5098C82.4937 59.2909 82.147 58.9458 81.9247 58.5215C81.7162 58.1622 81.6176 57.749 81.6411 57.3335C81.6712 56.8987 81.8168 56.48 82.0627 56.1212C82.3085 55.7624 82.6457 55.4767 83.0388 55.2941C83.2026 55.2081 83.3861 55.1676 83.5706 55.1768Z" fill="#263238"/>
<path d="M46.2018 27.1946H44.566L41.0211 22.1827V18.8992C41.0211 18.8992 38.489 18.7411 38.7878 23.0443C39.0866 27.3476 38.7625 26.2514 38.7625 26.2514C38.7625 26.2514 33.3944 26.2514 32.9488 26.7612C32.6247 27.1028 32.4778 32.4717 32.4424 35.383C32.4076 36.0856 32.6069 36.7797 33.0088 37.3552C33.4107 37.9307 33.992 38.3545 34.6605 38.5594C34.8489 38.6095 35.0429 38.6352 35.2378 38.6359C36.5798 38.6359 43.4165 37.5397 43.4165 37.5397H46.2423L46.2018 27.1946Z" fill="url(#paint4_linear_1110_5740)"/>
<path d="M50.8864 26.2891L49.8786 37.5468H47.0781V26.5134L50.8864 26.2891Z" fill="url(#paint5_linear_1110_5740)"/>
<path d="M71.0562 28.751C71.0562 28.751 71.0562 28.598 71.0157 28.2921C70.9752 27.9862 70.9701 27.5222 70.9347 26.9308C70.9347 26.63 70.8992 26.2986 70.879 25.9111C70.8587 25.5236 70.7676 25.1463 70.7017 24.7129C70.6359 24.2795 70.565 23.8156 70.484 23.3159C70.4508 23.0586 70.3966 22.8045 70.3219 22.5562C70.2561 22.2962 70.1852 22.0463 70.1143 21.7557C69.4548 19.0767 68.3962 16.5136 66.9745 14.1537C65.1101 11.0133 62.6636 8.26281 59.7681 6.05204L58.5426 5.13429C58.1122 4.84877 57.6564 4.58874 57.2107 4.30832L56.5321 3.89533C56.3077 3.74669 56.0724 3.61544 55.8282 3.50274L54.3596 2.79403C54.1115 2.67677 53.8532 2.5493 53.6101 2.43713L52.8251 2.14651L51.2249 1.58057C50.683 1.40212 50.1158 1.28485 49.5587 1.13189L48.6928 0.91265C48.551 0.87696 48.4092 0.836171 48.2623 0.80558L47.8268 0.739297C46.644 0.518894 45.4479 0.379214 44.2464 0.321212C43.6336 0.321212 43.0209 0.239635 42.398 0.249832L40.5242 0.346705C40.2103 0.346705 39.8963 0.346706 39.5772 0.407889L38.6353 0.555747C38.0073 0.657719 37.3642 0.734199 36.7312 0.866762C35.4629 1.15597 34.2145 1.52724 32.9938 1.97826L32.0569 2.32496C31.8999 2.38615 31.7379 2.43713 31.5859 2.50341L31.1302 2.72265L29.302 3.61491C28.7044 3.94122 28.1322 4.31851 27.5396 4.67542C27.251 4.85897 26.9421 5.01702 26.6635 5.23116L25.8128 5.85829C24.6809 6.70073 23.6065 7.61885 22.597 8.60644L21.1588 10.1921L20.7992 10.5898C20.6878 10.7326 20.5815 10.8804 20.4751 11.0232L19.8269 11.9103L19.1736 12.7873L18.6014 13.7203L18.0342 14.6687L17.7506 15.1377C17.6645 15.3009 17.5885 15.4742 17.5075 15.6476L16.5453 17.6564C16.2921 18.3601 16.0389 19.0637 15.7755 19.7673C14.8455 22.6715 14.3538 25.6998 14.3171 28.751C14.3556 31.7987 14.8472 34.8234 15.7755 37.7245L16.5453 39.8354L17.5024 41.8442L17.7455 42.3541L18.0342 42.8282L18.6014 43.7715L19.1736 44.7096L19.8269 45.5968L20.4751 46.4686L20.7992 46.902L21.1638 47.3048L22.6021 48.9007C23.611 49.887 24.6835 50.805 25.8128 51.6488L26.6484 52.2759C26.9218 52.485 27.2358 52.6481 27.5245 52.8317C28.117 53.1886 28.6892 53.5659 29.2868 53.8922L31.115 54.7794L31.5707 55.0037L32.0417 55.1821L32.9786 55.5288C34.2126 55.9816 35.4745 56.3528 36.7565 56.6403C37.3895 56.7729 38.0326 56.8494 38.6606 56.9514L39.6076 57.0992C39.9216 57.14 40.2356 57.14 40.5495 57.1604L42.4284 57.2573C43.0462 57.2573 43.664 57.2063 44.2717 57.1859C45.4732 57.1279 46.6694 56.9882 47.8521 56.7678L48.2927 56.7015L48.6928 56.5894L49.5435 56.3701C50.1057 56.2172 50.6729 56.0999 51.2097 55.9163L52.8049 55.3351L53.5898 55.0445L54.3393 54.6876L55.808 53.9789C56.0511 53.8642 56.2863 53.733 56.5119 53.5863L57.1905 53.1733C57.6412 52.8929 58.0919 52.6328 58.5224 52.3473L59.7479 51.4296C62.6514 49.2236 65.1051 46.4745 66.9745 43.333C67.1821 42.9863 67.3898 42.6549 67.5822 42.3133C67.7746 41.9717 67.9164 41.6199 68.0886 41.2936L68.5646 40.2993C68.6406 40.1362 68.7267 39.9781 68.7925 39.7895L68.9748 39.2796C69.2129 38.6321 69.4357 38.0101 69.6534 37.4186C69.8712 36.8272 69.9725 36.2357 70.1244 35.6902C70.1953 35.4149 70.2662 35.1497 70.332 34.8897C70.3966 34.649 70.4423 34.4035 70.4688 34.1555C70.5498 33.6457 70.6207 33.197 70.6865 32.7636C70.7524 32.3302 70.8283 31.9325 70.8638 31.5654C70.8992 31.1983 70.9043 30.8669 70.9195 30.5457C70.9549 29.9543 70.9853 29.526 71.0005 29.1844C71.0157 28.8428 71.041 28.7204 71.041 28.7204C71.041 28.7204 71.041 28.8785 71.041 29.1844C71.041 29.4903 71.0107 29.9543 70.9853 30.5508C70.9853 30.8465 70.9549 31.183 70.9397 31.5705C70.9246 31.958 70.8334 32.3353 70.7777 32.7687C70.722 33.2021 70.641 33.6712 70.5701 34.1708C70.5362 34.4292 70.4838 34.6848 70.4131 34.9356C70.3472 35.1956 70.2814 35.4455 70.2105 35.7412C70.0636 36.2867 69.9472 36.8833 69.7497 37.4798C69.5522 38.0763 69.3091 38.6984 69.0761 39.351L68.8938 39.8609C68.833 40.024 68.747 40.1821 68.671 40.3707C68.5191 40.697 68.357 41.0284 68.195 41.3904C68.0329 41.7524 67.8709 42.0736 67.6885 42.4102C67.5062 42.7467 67.2834 43.0883 67.0808 43.4299C65.2193 46.5914 62.7689 49.3613 59.8644 51.5876L58.654 52.5105C58.2185 52.8011 57.7627 53.0611 57.312 53.3466L56.6284 53.7647C56.4039 53.9134 56.1686 54.0446 55.9244 54.1573L54.4457 54.8813C54.1925 54.9986 53.9393 55.1261 53.6911 55.2382L52.9011 55.5339L51.2958 56.1254C50.7488 56.3089 50.1816 56.4262 49.6145 56.5843L48.7586 56.8086C48.6168 56.8443 48.475 56.8851 48.3281 56.9157L47.8876 56.9819C46.6969 57.2083 45.4921 57.3514 44.2819 57.4102C43.664 57.4102 43.0462 57.4969 42.4182 57.4867L40.5293 57.3949C40.2153 57.3694 39.8912 57.3949 39.5772 57.3338L38.6252 57.1859C37.9871 57.0839 37.3439 57.0074 36.7008 56.8749C35.4082 56.588 34.136 56.215 32.8925 55.7583L31.9455 55.4065C31.7885 55.3504 31.6264 55.2943 31.4695 55.228L31.0086 55.0088L29.1653 54.1114C28.5626 53.7851 27.9802 53.4027 27.3827 53.0458C27.094 52.8572 26.78 52.6991 26.5015 52.485L25.6608 51.8528C24.5176 51.0033 23.4331 50.0767 22.4147 49.0791L20.9613 47.4731L20.5966 47.0703L20.2675 46.6318L19.6142 45.7497L18.9558 44.8626L18.3785 43.9193L17.8012 42.9659L17.5126 42.4866L17.2695 41.9768L16.2971 39.9373L15.5223 37.8061C14.585 34.8789 14.0899 31.8264 14.0537 28.751C14.0896 25.6685 14.5864 22.609 15.5274 19.6755C15.7857 18.9617 16.0338 18.253 16.3022 17.5443C16.5706 16.8356 16.9555 16.1881 17.2745 15.5048C17.3556 15.3417 17.4315 15.1683 17.5176 14.995L17.8063 14.5157L18.3836 13.5623L18.9609 12.619L19.6142 11.7319L20.2725 10.8549C20.3789 10.7071 20.4852 10.5592 20.6017 10.4164L20.9663 10.0137L22.4198 8.40249C23.4388 7.40931 24.5215 6.48448 25.6608 5.63395L26.5015 5.00173C26.78 4.78759 27.094 4.62953 27.3877 4.44088C27.9853 4.08398 28.5626 3.70158 29.1653 3.37527L31.0137 2.47792L31.4695 2.25868C31.6264 2.1924 31.7885 2.13631 31.9455 2.08023L32.8925 1.72843C34.136 1.27171 35.4082 0.898693 36.7008 0.611832C37.3389 0.479269 37.9871 0.402789 38.6252 0.300817L39.5772 0.15296C39.8912 0.112171 40.2102 0.117268 40.5293 0.0917749L42.4182 0C43.0411 0 43.664 0.0509868 44.2768 0.0764798C45.4888 0.135043 46.6953 0.278147 47.8876 0.504762L48.3281 0.571045C48.475 0.601636 48.6168 0.642424 48.7586 0.678115L49.6145 0.902452C50.1766 1.05541 50.7488 1.17778 51.2958 1.36133L52.9011 1.95276L53.6911 2.24338L54.4406 2.60538L55.9244 3.32429C56.1677 3.44071 56.4029 3.57358 56.6284 3.72198L57.312 4.14006C57.7627 4.42049 58.2185 4.68561 58.649 4.97113L59.8796 5.90418C62.786 8.12998 65.238 10.9 67.1011 14.0619C68.5197 16.4369 69.5699 19.0159 70.2156 21.7098C70.2865 21.9852 70.3523 22.2554 70.4181 22.5154C70.4888 22.7662 70.5413 23.0218 70.5751 23.2802C70.646 23.7901 70.7169 24.2489 70.7828 24.6823C70.8486 25.1157 70.9144 25.5134 70.9448 25.8805C70.9752 26.2476 70.9752 26.5841 70.9904 26.9002C71.0157 27.4967 71.0309 27.9505 71.0461 28.2615C71.0613 28.5726 71.0562 28.751 71.0562 28.751Z" fill="#263238"/>
<defs>
<linearGradient id="paint0_linear_1110_5740" x1="52.1357" y1="167.185" x2="162.955" y2="167.185" gradientUnits="userSpaceOnUse">
<stop stop-color="#FF6666"/>
<stop offset="1" stop-color="#FF9688"/>
</linearGradient>
<linearGradient id="paint1_linear_1110_5740" x1="136.223" y1="181.47" x2="162.957" y2="181.47" gradientUnits="userSpaceOnUse">
<stop stop-color="#FF6666"/>
<stop offset="1" stop-color="#FF9688"/>
</linearGradient>
<linearGradient id="paint2_linear_1110_5740" x1="90.4609" y1="197.056" x2="162.952" y2="197.056" gradientUnits="userSpaceOnUse">
<stop stop-color="#FF6666"/>
<stop offset="1" stop-color="#FF9688"/>
</linearGradient>
<linearGradient id="paint3_linear_1110_5740" x1="51.043" y1="162.135" x2="115.773" y2="162.135" gradientUnits="userSpaceOnUse">
<stop stop-color="#FF6666"/>
<stop offset="1" stop-color="#FF9688"/>
</linearGradient>
<linearGradient id="paint4_linear_1110_5740" x1="32.4385" y1="28.7671" x2="46.2423" y2="28.7671" gradientUnits="userSpaceOnUse">
<stop stop-color="#FF6666"/>
<stop offset="1" stop-color="#FF9688"/>
</linearGradient>
<linearGradient id="paint5_linear_1110_5740" x1="47.0781" y1="31.9179" x2="50.8864" y2="31.9179" gradientUnits="userSpaceOnUse">
<stop stop-color="#FF6666"/>
<stop offset="1" stop-color="#FF9688"/>
</linearGradient>
</defs>
</svg>
