<svg width="33" height="33" viewBox="0 0 33 33" fill="none" xmlns="http://www.w3.org/2000/svg">
<path d="M14.9765 3.66288C15.5402 2.30775 17.4598 2.30775 18.0235 3.66288L20.4773 9.56252C20.7149 10.1338 21.2521 10.5241 21.8689 10.5736L28.238 11.0842C29.701 11.2015 30.2942 13.0272 29.1796 13.982L24.327 18.1388C23.8571 18.5413 23.6519 19.1729 23.7954 19.7748L25.278 25.99C25.6185 27.4176 24.0655 28.546 22.8129 27.7809L17.3601 24.4503C16.832 24.1278 16.168 24.1278 15.6399 24.4503L10.1871 27.7809C8.93454 28.546 7.38147 27.4176 7.72201 25.99L9.20457 19.7748C9.34813 19.1729 9.14292 18.5413 8.67301 18.1388L3.8204 13.982C2.70576 13.0272 3.29898 11.2015 4.76196 11.0842L11.1311 10.5736C11.7479 10.5241 12.2851 10.1338 12.5227 9.56251L14.9765 3.66288Z" fill="#FFD700"/>
</svg>
