<svg width="36" height="36" viewBox="0 0 36 36" fill="none" xmlns="http://www.w3.org/2000/svg">
<path d="M16.339 3.99587C16.9539 2.51754 19.0481 2.51754 19.663 3.99587L22.3398 10.4318C22.599 11.0551 23.1851 11.4809 23.858 11.5348L30.8061 12.0919C32.4021 12.2198 33.0492 14.2115 31.8333 15.2531L26.5395 19.7878C26.0269 20.2269 25.803 20.9159 25.9596 21.5725L27.577 28.3527C27.9485 29.9101 26.2542 31.141 24.8878 30.3065L18.9392 26.6731C18.3632 26.3212 17.6387 26.3212 17.0627 26.6731L11.1141 30.3065C9.74774 31.141 8.05349 29.9101 8.42499 28.3527L10.0423 21.5725C10.1989 20.9159 9.97506 20.2269 9.46245 19.7878L4.16868 15.2531C2.95271 14.2115 3.59986 12.2198 5.19584 12.0919L12.144 11.5348C12.8168 11.4809 13.4029 11.0551 13.6621 10.4318L16.339 3.99587Z" fill="#FFD700"/>
<path d="M16.0547 21.6992C15.8963 21.6992 15.7775 21.6632 15.6983 21.5912C15.6263 21.512 15.5903 21.4076 15.5903 21.278C15.5903 21.1988 15.6083 21.1232 15.6443 21.0512C15.6875 20.972 15.7451 20.8928 15.8171 20.8136L18.2363 18.2216C18.6035 17.8256 18.8663 17.462 19.0247 17.1308C19.1903 16.7924 19.2731 16.4504 19.2731 16.1048C19.2731 15.6728 19.1399 15.3452 18.8735 15.122C18.6143 14.8916 18.2327 14.7764 17.7287 14.7764C17.4047 14.7764 17.0987 14.8268 16.8107 14.9276C16.5227 15.0284 16.2455 15.1832 15.9791 15.392C15.8855 15.464 15.7991 15.4964 15.7199 15.4892C15.6479 15.482 15.5831 15.4532 15.5255 15.4028C15.4679 15.3524 15.4283 15.2876 15.4067 15.2084C15.3851 15.1292 15.3851 15.05 15.4067 14.9708C15.4355 14.8916 15.4931 14.8196 15.5795 14.7548C15.8603 14.5244 16.1987 14.3408 16.5947 14.204C16.9907 14.06 17.3939 13.988 17.8043 13.988C18.3155 13.988 18.7475 14.0672 19.1003 14.2256C19.4531 14.384 19.7195 14.618 19.8995 14.9276C20.0795 15.23 20.1695 15.6008 20.1695 16.04C20.1695 16.3424 20.1191 16.6412 20.0183 16.9364C19.9247 17.2244 19.7771 17.5196 19.5755 17.822C19.3811 18.1244 19.1255 18.4376 18.8087 18.7616L16.5083 21.1916V20.9432H20.1479C20.2847 20.9432 20.3855 20.9756 20.4503 21.0404C20.5223 21.098 20.5583 21.188 20.5583 21.3104C20.5583 21.44 20.5223 21.5372 20.4503 21.602C20.3855 21.6668 20.2847 21.6992 20.1479 21.6992H16.0547Z" fill="white"/>
</svg>
