<svg width="36" height="36" viewBox="0 0 36 36" fill="none" xmlns="http://www.w3.org/2000/svg">
<path d="M16.338 3.99587C16.9529 2.51754 19.0471 2.51754 19.662 3.99587L22.3388 10.4318C22.5981 11.0551 23.1842 11.4809 23.857 11.5348L30.8051 12.0919C32.4011 12.2198 33.0483 14.2115 31.8323 15.2531L26.5385 19.7878C26.0259 20.2269 25.802 20.9159 25.9587 21.5725L27.576 28.3527C27.9475 29.9101 26.2532 31.141 24.8869 30.3065L18.9383 26.6731C18.3622 26.3212 17.6378 26.3212 17.0617 26.6731L11.1131 30.3065C9.74677 31.141 8.05251 29.9101 8.42401 28.3527L10.0413 21.5725C10.198 20.9159 9.97409 20.2269 9.46147 19.7878L4.1677 15.2531C2.95173 14.2115 3.59888 12.2198 5.19486 12.0919L12.143 11.5348C12.8158 11.4809 13.4019 11.0551 13.6612 10.4318L16.338 3.99587Z" fill="#FFD700"/>
<path d="M18.0625 21.7964C17.6521 21.7964 17.2417 21.7352 16.8313 21.6128C16.4281 21.4904 16.0609 21.2996 15.7297 21.0404C15.6433 20.9828 15.5857 20.9144 15.5569 20.8352C15.5281 20.756 15.5245 20.6768 15.5461 20.5976C15.5677 20.5184 15.6073 20.4536 15.6649 20.4032C15.7225 20.3456 15.7909 20.3132 15.8701 20.306C15.9565 20.2988 16.0465 20.3276 16.1401 20.3924C16.4353 20.6012 16.7413 20.756 17.0581 20.8568C17.3749 20.9576 17.7061 21.008 18.0517 21.008C18.4045 21.008 18.7069 20.9432 18.9589 20.8136C19.2181 20.6768 19.4125 20.4896 19.5421 20.252C19.6789 20.0072 19.7473 19.7228 19.7473 19.3988C19.7473 18.902 19.6033 18.4952 19.3153 18.1784C19.0273 17.8616 18.6313 17.7032 18.1273 17.7032C17.8177 17.7032 17.5333 17.7608 17.2741 17.876C17.0149 17.9912 16.7773 18.1748 16.5613 18.4268C16.5109 18.4844 16.4497 18.5348 16.3777 18.578C16.3129 18.614 16.2373 18.632 16.1509 18.632C16.0285 18.632 15.9313 18.5996 15.8593 18.5348C15.7945 18.4628 15.7621 18.3692 15.7621 18.254V14.4956C15.7621 14.3588 15.7981 14.258 15.8701 14.1932C15.9421 14.1212 16.0429 14.0852 16.1725 14.0852H19.8445C19.9813 14.0852 20.0821 14.1176 20.1469 14.1824C20.2189 14.2472 20.2549 14.3408 20.2549 14.4632C20.2549 14.5856 20.2189 14.6792 20.1469 14.744C20.0821 14.8088 19.9813 14.8412 19.8445 14.8412H16.6369V17.876H16.3993C16.5865 17.5736 16.8457 17.3432 17.1769 17.1848C17.5081 17.0192 17.8789 16.9364 18.2893 16.9364C18.7717 16.9364 19.1857 17.0372 19.5313 17.2388C19.8841 17.4404 20.1541 17.7248 20.3413 18.092C20.5357 18.452 20.6329 18.8732 20.6329 19.3556C20.6329 19.8308 20.5285 20.252 20.3197 20.6192C20.1109 20.9864 19.8157 21.2744 19.4341 21.4832C19.0525 21.692 18.5953 21.7964 18.0625 21.7964Z" fill="white"/>
</svg>
