<svg width="33" height="33" viewBox="0 0 33 33" fill="none" xmlns="http://www.w3.org/2000/svg">
<path d="M17.6426 3.8213L20.0964 9.72093C20.3934 10.435 21.065 10.923 21.8359 10.9848L28.2051 11.4954C29.3023 11.5833 29.7472 12.9526 28.9112 13.6688L24.0586 17.8255C23.4713 18.3287 23.2147 19.1182 23.3942 19.8705L24.8767 26.0857C25.1322 27.1564 23.9674 28.0027 23.028 27.4289L17.5751 24.0983C16.9151 23.6952 16.0849 23.6952 15.4249 24.0983L9.97204 27.4289C9.03265 28.0027 7.86785 27.1564 8.12325 26.0857L9.60581 19.8705C9.78526 19.1182 9.52874 18.3287 8.94137 17.8255L4.08875 13.6688C3.25277 12.9526 3.69769 11.5833 4.79492 11.4954L11.1641 10.9848C11.935 10.923 12.6066 10.435 12.9036 9.72093L15.3574 3.8213C15.7801 2.80495 17.2199 2.80495 17.6426 3.8213Z" stroke="#AAAAAA" stroke-width="0.825"/>
<path d="M17.5768 19.8769C17.4514 19.8769 17.3524 19.8406 17.2798 19.768C17.2072 19.6954 17.1709 19.5931 17.1709 19.4611V18.3127H14.3296C14.1976 18.3127 14.092 18.283 14.0128 18.2236C13.9402 18.1576 13.9039 18.0652 13.9039 17.9464C13.9039 17.8738 13.9204 17.8012 13.9534 17.7286C13.9864 17.6494 14.0458 17.5504 14.1316 17.4316L17.1511 13.036C17.2105 12.9436 17.2765 12.8743 17.3491 12.8281C17.4217 12.7819 17.5075 12.7588 17.6065 12.7588C17.7121 12.7588 17.8012 12.7918 17.8738 12.8578C17.953 12.9238 17.9926 13.0294 17.9926 13.1746V17.6197H18.7153C18.8407 17.6197 18.9364 17.6494 19.0024 17.7088C19.0684 17.7682 19.1014 17.854 19.1014 17.9662C19.1014 18.0784 19.0684 18.1642 19.0024 18.2236C18.9364 18.283 18.8407 18.3127 18.7153 18.3127H17.9926V19.4611C17.9926 19.5931 17.9563 19.6954 17.8837 19.768C17.8111 19.8406 17.7088 19.8769 17.5768 19.8769ZM17.1709 17.6197V13.7785H17.4085L14.6365 17.8375V17.6197H17.1709Z" fill="white"/>
</svg>
