<svg width="36" height="36" viewBox="0 0 36 36" fill="none" xmlns="http://www.w3.org/2000/svg">
<path d="M16.338 3.99587C16.9529 2.51754 19.0471 2.51754 19.662 3.99587L22.3388 10.4318C22.5981 11.0551 23.1842 11.4809 23.857 11.5348L30.8051 12.0919C32.4011 12.2198 33.0483 14.2115 31.8323 15.2531L26.5385 19.7878C26.0259 20.2269 25.802 20.9159 25.9587 21.5725L27.576 28.3527C27.9475 29.9101 26.2532 31.141 24.8869 30.3065L18.9383 26.6731C18.3622 26.3212 17.6378 26.3212 17.0617 26.6731L11.1131 30.3065C9.74677 31.141 8.05251 29.9101 8.42401 28.3527L10.0413 21.5725C10.198 20.9159 9.97409 20.2269 9.46147 19.7878L4.1677 15.2531C2.95173 14.2115 3.59888 12.2198 5.19486 12.0919L12.143 11.5348C12.8158 11.4809 13.4019 11.0551 13.6612 10.4318L16.338 3.99587Z" fill="#FFD700"/>
<path d="M19.1749 21.7748C19.0381 21.7748 18.9301 21.7352 18.8509 21.656C18.7717 21.5768 18.7321 21.4652 18.7321 21.3212V20.0684H15.6325C15.4885 20.0684 15.3733 20.036 15.2869 19.9712C15.2077 19.8992 15.1681 19.7984 15.1681 19.6688C15.1681 19.5896 15.1861 19.5104 15.2221 19.4312C15.2581 19.3448 15.3229 19.2368 15.4165 19.1072L18.7105 14.312C18.7753 14.2112 18.8473 14.1356 18.9265 14.0852C19.0057 14.0348 19.0993 14.0096 19.2073 14.0096C19.3225 14.0096 19.4197 14.0456 19.4989 14.1176C19.5853 14.1896 19.6285 14.3048 19.6285 14.4632V19.3124H20.4169C20.5537 19.3124 20.6581 19.3448 20.7301 19.4096C20.8021 19.4744 20.8381 19.568 20.8381 19.6904C20.8381 19.8128 20.8021 19.9064 20.7301 19.9712C20.6581 20.036 20.5537 20.0684 20.4169 20.0684H19.6285V21.3212C19.6285 21.4652 19.5889 21.5768 19.5097 21.656C19.4305 21.7352 19.3189 21.7748 19.1749 21.7748ZM18.7321 19.3124V15.122H18.9913L15.9673 19.55V19.3124H18.7321Z" fill="white"/>
</svg>
