<svg width="36" height="36" viewBox="0 0 36 36" fill="none" xmlns="http://www.w3.org/2000/svg">
<path d="M16.338 3.99587C16.9529 2.51754 19.0471 2.51754 19.662 3.99587L22.3388 10.4318C22.5981 11.0551 23.1842 11.4809 23.857 11.5348L30.8051 12.0919C32.4011 12.2198 33.0483 14.2115 31.8323 15.2531L26.5385 19.7878C26.0259 20.2269 25.802 20.9159 25.9587 21.5725L27.576 28.3527C27.9475 29.9101 26.2532 31.141 24.8869 30.3065L18.9383 26.6731C18.3622 26.3212 17.6378 26.3212 17.0617 26.6731L11.1131 30.3065C9.74677 31.141 8.05251 29.9101 8.42401 28.3527L10.0413 21.5725C10.198 20.9159 9.97409 20.2269 9.46147 19.7878L4.1677 15.2531C2.95173 14.2115 3.59888 12.2198 5.19486 12.0919L12.143 11.5348C12.8158 11.4809 13.4019 11.0551 13.6612 10.4318L16.338 3.99587Z" fill="#FFD700"/>
<path d="M17.8141 21.7964C17.3965 21.7964 16.9753 21.7352 16.5505 21.6128C16.1329 21.4904 15.7693 21.3104 15.4597 21.0728C15.3661 21.008 15.3049 20.936 15.2761 20.8568C15.2473 20.7704 15.2401 20.6912 15.2545 20.6192C15.2761 20.54 15.3157 20.4752 15.3733 20.4248C15.4309 20.3672 15.4993 20.3348 15.5785 20.3276C15.6649 20.3204 15.7585 20.3492 15.8593 20.414C16.1761 20.6228 16.4929 20.774 16.8097 20.8676C17.1265 20.9612 17.4541 21.008 17.7925 21.008C18.1597 21.008 18.4693 20.954 18.7213 20.846C18.9733 20.738 19.1641 20.5796 19.2937 20.3708C19.4233 20.1548 19.4881 19.892 19.4881 19.5824C19.4881 19.136 19.3405 18.7976 19.0453 18.5672C18.7501 18.3368 18.3217 18.2216 17.7601 18.2216H16.9933C16.8565 18.2216 16.7521 18.1892 16.6801 18.1244C16.6081 18.0524 16.5721 17.9552 16.5721 17.8328C16.5721 17.7176 16.6081 17.6276 16.6801 17.5628C16.7521 17.4908 16.8565 17.4548 16.9933 17.4548H17.6845C18.0157 17.4548 18.2965 17.3972 18.5269 17.282C18.7645 17.1668 18.9481 17.0048 19.0777 16.796C19.2073 16.58 19.2721 16.3208 19.2721 16.0184C19.2721 15.6152 19.1425 15.3092 18.8833 15.1004C18.6241 14.8844 18.2497 14.7764 17.7601 14.7764C17.4361 14.7764 17.1301 14.8232 16.8421 14.9168C16.5541 15.0104 16.2697 15.1688 15.9889 15.392C15.9025 15.4568 15.8161 15.4892 15.7297 15.4892C15.6505 15.482 15.5821 15.4568 15.5245 15.4136C15.4741 15.3632 15.4345 15.2984 15.4057 15.2192C15.3841 15.14 15.3877 15.0608 15.4165 14.9816C15.4453 14.8952 15.5065 14.816 15.6001 14.744C15.8881 14.4992 16.2265 14.312 16.6153 14.1824C17.0041 14.0528 17.4037 13.988 17.8141 13.988C18.3037 13.988 18.7213 14.0672 19.0669 14.2256C19.4197 14.3768 19.6897 14.6 19.8769 14.8952C20.0641 15.1832 20.1577 15.5324 20.1577 15.9428C20.1577 16.2524 20.0965 16.5368 19.9741 16.796C19.8589 17.048 19.6933 17.264 19.4773 17.444C19.2685 17.624 19.0129 17.7536 18.7105 17.8328V17.714C19.2361 17.8004 19.6429 18.0164 19.9309 18.362C20.2261 18.7004 20.3737 19.1288 20.3737 19.6472C20.3737 20.0864 20.2693 20.468 20.0605 20.792C19.8589 21.1088 19.5673 21.3572 19.1857 21.5372C18.8041 21.71 18.3469 21.7964 17.8141 21.7964Z" fill="white"/>
</svg>
