<svg width="36" height="36" viewBox="0 0 36 36" fill="none" xmlns="http://www.w3.org/2000/svg">
<path d="M16.339 3.99587C16.9539 2.51754 19.0481 2.51754 19.663 3.99587L22.3398 10.4318C22.599 11.0551 23.1851 11.4809 23.858 11.5348L30.8061 12.0919C32.4021 12.2198 33.0492 14.2115 31.8333 15.2531L26.5395 19.7878C26.0269 20.2269 25.803 20.9159 25.9596 21.5725L27.577 28.3527C27.9485 29.9101 26.2542 31.141 24.8878 30.3065L18.9392 26.6731C18.3632 26.3212 17.6387 26.3212 17.0627 26.6731L11.1141 30.3065C9.74774 31.141 8.05349 29.9101 8.42499 28.3527L10.0423 21.5725C10.1989 20.9159 9.97506 20.2269 9.46245 19.7878L4.16868 15.2531C2.95271 14.2115 3.59986 12.2198 5.19584 12.0919L12.144 11.5348C12.8168 11.4809 13.4029 11.0551 13.6621 10.4318L16.339 3.99587Z" fill="#FFD700"/>
<path d="M16.3355 21.6992C16.2059 21.6992 16.1051 21.6668 16.0331 21.602C15.9611 21.53 15.9251 21.4328 15.9251 21.3104C15.9251 21.188 15.9611 21.098 16.0331 21.0404C16.1051 20.9756 16.2059 20.9432 16.3355 20.9432H17.7395V14.8196H18.2039L16.6379 15.8564C16.5443 15.9068 16.4543 15.9284 16.3679 15.9212C16.2887 15.914 16.2203 15.8852 16.1627 15.8348C16.1123 15.7772 16.0763 15.7124 16.0547 15.6404C16.0331 15.5612 16.0367 15.482 16.0655 15.4028C16.0943 15.3164 16.1555 15.2444 16.2491 15.1868L17.7395 14.204C17.8331 14.1464 17.9231 14.0996 18.0095 14.0636C18.0959 14.0276 18.1823 14.0096 18.2687 14.0096C18.3695 14.0096 18.4523 14.042 18.5171 14.1068C18.5891 14.1644 18.6251 14.258 18.6251 14.3876V20.9432H19.9211C20.0507 20.9432 20.1515 20.9756 20.2235 21.0404C20.2955 21.098 20.3315 21.188 20.3315 21.3104C20.3315 21.44 20.2955 21.5372 20.2235 21.602C20.1515 21.6668 20.0507 21.6992 19.9211 21.6992H16.3355Z" fill="white"/>
</svg>
