<svg width="13" height="13" viewBox="0 0 13 13" fill="none" xmlns="http://www.w3.org/2000/svg">
<g clip-path="url(#clip0_3724_2358)">
<path d="M12.2802 11.22L6.89719 5.836C6.75519 5.694 6.56719 5.616 6.36719 5.616C6.16719 5.616 5.97819 5.694 5.83719 5.836C5.69519 5.978 5.61719 6.166 5.61719 6.366C5.61719 6.566 5.69519 6.755 5.83719 6.896L11.2202 12.279C11.3622 12.421 11.5502 12.499 11.7502 12.499C11.9502 12.499 12.1392 12.421 12.2802 12.279C12.4222 12.137 12.5002 11.949 12.5002 11.749C12.5002 11.549 12.4222 11.361 12.2802 11.22Z" fill="url(#paint0_linear_3724_2358)"/>
<path opacity="0.2" d="M6.36719 5.91699C6.48719 5.91699 6.60019 5.96399 6.68519 6.04899L12.0682 11.432C12.1532 11.517 12.2002 11.63 12.2002 11.75C12.2002 11.87 12.1532 11.983 12.0682 12.068C11.9832 12.153 11.8702 12.2 11.7502 12.2C11.6302 12.2 11.5172 12.153 11.4322 12.068L6.04819 6.68499C5.96319 6.59999 5.91619 6.48699 5.91619 6.36699C5.91619 6.24699 5.96319 6.13399 6.04819 6.04899C6.13319 5.96399 6.24619 5.91699 6.36719 5.91699ZM6.36719 5.61699C6.16719 5.61699 5.97819 5.69499 5.83719 5.83699C5.69519 5.97899 5.61719 6.16699 5.61719 6.36699C5.61719 6.56699 5.69519 6.75599 5.83719 6.89699L11.2202 12.28C11.3622 12.422 11.5502 12.5 11.7502 12.5C11.9502 12.5 12.1392 12.422 12.2802 12.28C12.4222 12.138 12.5002 11.95 12.5002 11.75C12.5002 11.55 12.4222 11.361 12.2802 11.22L6.89719 5.83599C6.75519 5.69499 6.56719 5.61699 6.36719 5.61699Z" fill="#434343"/>
<path d="M5 9.5C7.48528 9.5 9.5 7.48528 9.5 5C9.5 2.51472 7.48528 0.5 5 0.5C2.51472 0.5 0.5 2.51472 0.5 5C0.5 7.48528 2.51472 9.5 5 9.5Z" fill="url(#paint1_linear_3724_2358)"/>
<path opacity="0.2" d="M5 0.8C7.316 0.8 9.2 2.684 9.2 5C9.2 7.316 7.316 9.2 5 9.2C2.684 9.2 0.8 7.316 0.8 5C0.8 2.684 2.684 0.8 5 0.8ZM5 0.5C2.515 0.5 0.5 2.515 0.5 5C0.5 7.485 2.515 9.5 5 9.5C7.485 9.5 9.5 7.485 9.5 5C9.5 2.515 7.485 0.5 5 0.5Z" fill="#434343"/>
<path d="M7.95424 2.49401C7.02924 1.43301 4.57924 0.398007 2.48124 2.00101C1.71424 2.58701 1.07324 3.92601 1.07324 5.18901C1.07324 5.85201 1.22324 6.47901 1.49024 7.04001C1.30624 6.57601 1.20524 6.07401 1.20524 5.55301C1.20524 3.67501 2.71024 1.77801 4.72224 1.74101C7.07824 1.69801 8.12324 3.30501 8.12324 4.80701C8.12324 5.92001 7.64524 6.73201 6.92424 7.18901C6.48024 7.47101 5.94324 7.61701 5.36924 7.61501C4.09824 7.61001 3.13424 6.72901 3.13424 5.43201C3.13424 4.24601 4.09724 3.55601 5.02424 3.51701C6.21324 3.46701 6.63424 4.42801 6.62624 5.04401C6.61624 5.82001 5.92224 6.26701 5.30024 6.22001C4.75824 6.17901 4.43124 5.83201 4.44924 5.25601C4.46224 4.86801 4.82524 4.58001 5.16224 4.58001C5.53724 4.58001 5.78924 4.84401 5.82524 5.09301C5.85924 5.32301 5.78824 5.68101 5.28724 5.68101C5.08424 5.68101 4.92924 5.51201 4.90524 5.38301C4.88224 5.25501 4.90024 5.02101 5.11524 5.02101C5.11524 5.02101 4.91424 5.13601 5.01424 5.32801C5.06824 5.43101 5.14624 5.45401 5.23724 5.45601C5.39024 5.44301 5.51024 5.32501 5.51024 5.17901C5.51024 4.98601 5.34224 4.82901 5.13524 4.82901C4.87624 4.82901 4.66724 5.02501 4.66724 5.26601C4.66724 5.56801 4.90424 5.93101 5.32024 5.94801C5.80624 5.96801 6.30224 5.51201 6.21324 4.96601C6.13724 4.50101 5.89424 4.04001 5.08424 4.04001C4.45224 4.04001 3.72124 4.43501 3.72124 5.34301C3.72124 6.33701 4.53524 6.97001 5.32424 6.97001C6.53824 6.97001 7.50124 6.33301 7.50124 4.95501C7.50124 4.62501 7.45124 4.28901 7.33324 3.97701C7.12624 3.42901 6.47124 2.50601 4.85424 2.48701C3.30424 2.46801 2.04724 3.74401 2.04724 5.29401C2.04724 7.11901 3.48624 8.48901 5.46924 8.49801C7.86724 8.51001 10.3472 5.23701 7.95424 2.49401Z" fill="url(#paint2_linear_3724_2358)"/>
</g>
<defs>
<linearGradient id="paint0_linear_3724_2358" x1="3.10569" y1="3.1056" x2="11.1162" y2="11.116" gradientUnits="userSpaceOnUse">
<stop stop-color="#FAA629"/>
<stop offset="1" stop-color="#FECC81"/>
</linearGradient>
<linearGradient id="paint1_linear_3724_2358" x1="0.5" y1="5" x2="9.5" y2="5" gradientUnits="userSpaceOnUse">
<stop offset="0.2047" stop-color="#F48FB1"/>
<stop offset="0.8442" stop-color="#EC407A"/>
</linearGradient>
<linearGradient id="paint2_linear_3724_2358" x1="2.15774" y1="2.19831" x2="8.30024" y2="8.34081" gradientUnits="userSpaceOnUse">
<stop stop-color="#FCE4EB"/>
<stop offset="1" stop-color="#F48FB1"/>
</linearGradient>
<clipPath id="clip0_3724_2358">
<rect width="13" height="13" fill="white"/>
</clipPath>
</defs>
</svg>
