<svg width="32" height="32" viewBox="0 0 32 32" fill="none" xmlns="http://www.w3.org/2000/svg">
<path d="M7.74968 26.6673L9.68718 21.6673C9.88093 21.1562 10.1931 20.7504 10.6236 20.45C11.0542 20.1495 11.5386 19.9998 12.0768 20.0007H14.208V14.634C10.9143 14.5229 8.15311 14.0229 5.92455 13.134C3.69599 12.2451 2.58215 11.2007 2.58301 10.0007C2.58301 8.71176 3.84238 7.61176 6.36113 6.70065C8.87988 5.78954 11.9261 5.33398 15.4997 5.33398C19.0948 5.33398 22.1466 5.78954 24.655 6.70065C27.1634 7.61176 28.4172 8.71176 28.4163 10.0007C28.4163 11.2007 27.3021 12.2451 25.0735 13.134C22.845 14.0229 20.0842 14.5229 16.7913 14.634V20.0007H18.9226C19.4393 20.0007 19.9185 20.1509 20.3602 20.4513C20.802 20.7518 21.1193 21.1571 21.3122 21.6673L23.2497 26.6673H20.6663L19.1163 22.6673H11.883L10.333 26.6673H7.74968Z" fill="url(#paint0_linear_1107_5603)"/>
<defs>
<linearGradient id="paint0_linear_1107_5603" x1="15.4997" y1="5.33398" x2="15.4997" y2="26.6673" gradientUnits="userSpaceOnUse">
<stop stop-color="#C2AB8D"/>
<stop offset="1" stop-color="#74553E"/>
</linearGradient>
</defs>
</svg>
