<svg width="32" height="32" viewBox="0 0 32 32" fill="none" xmlns="http://www.w3.org/2000/svg">
<path d="M16 30C23.732 30 30 23.732 30 16C30 8.26801 23.732 2 16 2C8.26801 2 2 8.26801 2 16C2 23.732 8.26801 30 16 30Z" fill="white"/>
<path d="M16.05 16H15.95C15.425 16 15 16.3825 15 16.855V24.145C15 24.6175 15.425 25 15.95 25H16.05C16.575 25 17 24.6175 17 24.145V16.855C17 16.3847 16.575 16 16.05 16Z" fill="#222222"/>
<path d="M15.9492 15.956L15.9912 16.04C16.2176 16.474 16.7519 16.6444 17.1859 16.4204L21.6589 14.1034C22.0929 13.877 22.2632 13.3427 22.0392 12.9087L21.9972 12.8247C21.7709 12.3907 21.2366 12.2204 20.8026 12.4444L16.3296 14.7614C15.8956 14.9854 15.7252 15.5197 15.9492 15.956Z" fill="#222222"/>
<path d="M16.0005 17.6319C16.9026 17.6319 17.6339 16.9006 17.6339 15.9986C17.6339 15.0965 16.9026 14.3652 16.0005 14.3652C15.0985 14.3652 14.3672 15.0965 14.3672 15.9986C14.3672 16.9006 15.0985 17.6319 16.0005 17.6319Z" fill="#222222"/>
<path d="M15.9998 16.7008C16.3864 16.7008 16.6998 16.3874 16.6998 16.0008C16.6998 15.6142 16.3864 15.3008 15.9998 15.3008C15.6132 15.3008 15.2998 15.6142 15.2998 16.0008C15.2998 16.3874 15.6132 16.7008 15.9998 16.7008Z" fill="white"/>
<path opacity="0.2" d="M16 2.93333C23.2053 2.93333 29.0667 8.79467 29.0667 16C29.0667 23.2053 23.2053 29.0667 16 29.0667C8.79467 29.0667 2.93333 23.2053 2.93333 16C2.93333 8.79467 8.79467 2.93333 16 2.93333ZM16 2C8.26733 2 2 8.26733 2 16C2 23.7327 8.26733 30 16 30C23.7327 30 30 23.7327 30 16C30 8.26733 23.7327 2 16 2Z" fill="#222222"/>
</svg>
