<svg width="42" height="58" viewBox="0 0 42 58" fill="none" xmlns="http://www.w3.org/2000/svg">
<circle cx="25.3906" cy="14.7189" r="5.17716" stroke="#DDDDDD" stroke-width="3.95347"/>
<path d="M14 50.9578L15.0544 50.1142C17.7173 47.9839 19.5438 44.9829 20.2126 41.6389" stroke="#DDDDDD" stroke-width="3.95347" stroke-linecap="round"/>
<path d="M22.6111 33.185L24.5781 33.3817L24.5781 33.3817L22.6111 33.185ZM24.295 39.069L25.8601 37.8616L25.8601 37.8616L24.295 39.069ZM31.9018 52.1652C32.5687 53.0296 33.81 53.1897 34.6744 52.5229C35.5388 51.856 35.6989 50.6147 35.032 49.7503L31.9018 52.1652ZM22.2209 26.1407L22.1139 24.1669L22.1139 24.1669L22.2209 26.1407ZM26.6057 26.3797L26.3247 28.3364L26.3247 28.3364L26.6057 26.3797ZM35.1165 32.9423L34.7915 30.9925L34.7915 30.9925L35.1165 32.9423ZM39.1754 34.2698C40.2522 34.0904 40.9797 33.0719 40.8002 31.995C40.6208 30.9182 39.6023 30.1907 38.5254 30.3702L39.1754 34.2698ZM31.8432 30.9715L33.7185 30.3464L33.7185 30.3464L31.8432 30.9715ZM12.0233 35.4263C12.0233 36.518 12.9083 37.403 14 37.403C15.0917 37.403 15.9767 36.518 15.9767 35.4263H12.0233ZM21.352 25.9107L20.6442 32.9883L24.5781 33.3817L25.2858 26.3041L21.352 25.9107ZM22.7299 40.2765L31.9018 52.1652L35.032 49.7503L25.8601 37.8616L22.7299 40.2765ZM23.3189 24.1307C22.94 24.1307 22.5331 24.1442 22.1139 24.1669L22.3278 28.1146C22.6971 28.0946 23.0299 28.0841 23.3189 28.0841V24.1307ZM23.3189 28.0841C24.2315 28.0841 25.2898 28.1877 26.3247 28.3364L26.8867 24.4231C25.7586 24.261 24.4946 24.1307 23.3189 24.1307V28.0841ZM35.4414 34.8922L39.1754 34.2698L38.5254 30.3702L34.7915 30.9925L35.4414 34.8922ZM26.3247 28.3364C27.9692 28.5726 29.3748 29.8174 29.9679 31.5966L33.7185 30.3464C32.7218 27.3564 30.2184 24.9016 26.8867 24.4231L26.3247 28.3364ZM22.1139 24.1669C16.127 24.4913 12.0233 29.77 12.0233 35.4263H15.9767C15.9767 31.5226 18.7687 28.3075 22.3278 28.1146L22.1139 24.1669ZM29.9679 31.5966C30.7331 33.8922 33.0546 35.29 35.4414 34.8922L34.7915 30.9925C34.3236 31.0705 33.8685 30.7964 33.7185 30.3464L29.9679 31.5966ZM20.6442 32.9883C20.4977 34.4532 20.3396 35.708 20.6861 36.9188L24.487 35.8311C24.3971 35.517 24.4009 35.1535 24.5781 33.3817L20.6442 32.9883ZM25.8601 37.8616C24.7724 36.4517 24.5769 36.1452 24.487 35.8311L20.6861 36.9188C21.0326 38.1297 21.8306 39.1109 22.7299 40.2765L25.8601 37.8616Z" fill="#DDDDDD"/>
</svg>
