<svg width="24" height="24" viewBox="0 0 24 24" fill="none" xmlns="http://www.w3.org/2000/svg">
<path d="M20.971 17.6974C20.971 18.0213 20.8991 18.3543 20.7461 18.6783C20.5931 19.0022 20.3951 19.3082 20.1341 19.5962C19.6932 20.0821 19.2072 20.4331 18.6583 20.658C18.1184 20.883 17.5334 21 16.9035 21C15.9856 21 15.0047 20.784 13.9698 20.3431C12.9349 19.9021 11.9 19.3082 10.8741 18.5613C9.83926 17.8053 8.85836 16.9684 7.92247 16.0415C6.99557 15.1056 6.15866 14.1247 5.41174 13.0989C4.67382 12.073 4.07988 11.0471 3.64793 10.0302C3.21598 9.0043 3 8.02341 3 7.08751C3 6.47558 3.10799 5.89064 3.32396 5.3507C3.53994 4.80176 3.8819 4.29781 4.35885 3.84786C4.93479 3.28092 5.56472 3.00195 6.23065 3.00195C6.48262 3.00195 6.73459 3.05595 6.95957 3.16394C7.19354 3.27192 7.40052 3.43391 7.5625 3.66788L9.65028 6.61056C9.81226 6.83554 9.92925 7.04251 10.0102 7.24049C10.0912 7.42947 10.1362 7.61845 10.1362 7.78943C10.1362 8.00541 10.0732 8.22139 9.94725 8.42836C9.83026 8.63534 9.65928 8.85132 9.4433 9.06729L8.75937 9.77822C8.66039 9.87721 8.61539 9.99419 8.61539 10.1382C8.61539 10.2102 8.62439 10.2732 8.64239 10.3452C8.66938 10.4171 8.69638 10.4711 8.71438 10.5251C8.87636 10.8221 9.15533 11.2091 9.55129 11.677C9.95624 12.145 10.3882 12.6219 10.8561 13.0989C11.3421 13.5758 11.81 14.0168 12.287 14.4217C12.7549 14.8177 13.1419 15.0876 13.4479 15.2496C13.4929 15.2676 13.5469 15.2946 13.6098 15.3216C13.6818 15.3486 13.7538 15.3576 13.8348 15.3576C13.9878 15.3576 14.1048 15.3036 14.2038 15.2046L14.8877 14.5297C15.1127 14.3047 15.3287 14.1337 15.5356 14.0258C15.7426 13.8998 15.9496 13.8368 16.1746 13.8368C16.3456 13.8368 16.5255 13.8728 16.7235 13.9538C16.9215 14.0348 17.1285 14.1517 17.3534 14.3047L20.3321 16.4195C20.5661 16.5815 20.7281 16.7705 20.8271 16.9954C20.9171 17.2204 20.971 17.4454 20.971 17.6974Z" stroke="#555555" stroke-width="1.4" stroke-miterlimit="10"/>
<path d="M17.8493 9.30304C17.8493 8.7631 17.4263 7.93519 16.7964 7.26026C16.2205 6.63933 15.4555 6.15338 14.6996 6.15338" stroke="#555555" stroke-width="1.4" stroke-linecap="round" stroke-linejoin="round"/>
<path d="M20.9989 9.30127C20.9989 5.81865 18.1822 3.00195 14.6996 3.00195" stroke="#555555" stroke-width="1.4" stroke-linecap="round" stroke-linejoin="round"/>
</svg>
