<svg width="24" height="24" viewBox="0 0 24 24" fill="none" xmlns="http://www.w3.org/2000/svg">
<path fill-rule="evenodd" clip-rule="evenodd" d="M3.03986 2.29234C2.85209 2.22644 2.64582 2.23782 2.46644 2.324C2.28707 2.41017 2.14927 2.56407 2.08336 2.75184C2.01745 2.93962 2.02884 3.14588 2.11501 3.32526C2.20119 3.50464 2.35509 3.64244 2.54286 3.70834L2.80386 3.79934C3.47186 4.03434 3.91086 4.18934 4.23386 4.34834C4.53686 4.49734 4.66986 4.61834 4.75786 4.74634C4.84786 4.87834 4.91786 5.06034 4.95786 5.42334C4.99786 5.80334 4.99986 6.29834 4.99986 7.03834V9.64034C4.99986 12.5823 5.06286 13.5523 5.92986 14.4663C6.79586 15.3803 8.18986 15.3803 10.9799 15.3803H16.2819C17.8429 15.3803 18.6239 15.3803 19.1749 14.9303C19.7269 14.4803 19.8849 13.7163 20.1999 12.1883L20.6999 9.76334C21.0469 8.02334 21.2199 7.15434 20.7759 6.57734C20.3319 6.00034 18.8159 6.00034 17.1309 6.00034H6.49186C6.4876 5.75386 6.47326 5.50765 6.44886 5.26234C6.39486 4.76534 6.27886 4.31234 5.99686 3.90034C5.71286 3.48434 5.33486 3.21834 4.89386 3.00134C4.48186 2.79934 3.95786 2.61534 3.34186 2.39834L3.03986 2.29234ZM15.5169 8.45734C15.8169 8.74334 15.8289 9.21734 15.5429 9.51734L12.6859 12.5173C12.6158 12.5909 12.5316 12.6494 12.4382 12.6894C12.3449 12.7294 12.2444 12.75 12.1429 12.75C12.0413 12.75 11.9408 12.7294 11.8475 12.6894C11.7542 12.6494 11.6699 12.5909 11.5999 12.5173L10.4569 11.3173C10.386 11.2466 10.3301 11.1624 10.2923 11.0698C10.2545 10.9771 10.2356 10.8778 10.2368 10.7777C10.238 10.6776 10.2592 10.5788 10.2992 10.487C10.3391 10.3952 10.3971 10.3124 10.4696 10.2434C10.5421 10.1744 10.6276 10.1206 10.7212 10.0851C10.8149 10.0497 10.9146 10.0334 11.0146 10.0371C11.1147 10.0408 11.2129 10.0645 11.3036 10.1068C11.3944 10.1491 11.4757 10.2091 11.5429 10.2833L12.1429 10.9133L14.4569 8.48334C14.594 8.33939 14.7827 8.25579 14.9815 8.25091C15.1802 8.24604 15.3728 8.32029 15.5169 8.45734Z" fill="white"/>
<path d="M7.5 18C7.89782 18 8.27936 18.158 8.56066 18.4393C8.84196 18.7206 9 19.1022 9 19.5C9 19.8978 8.84196 20.2794 8.56066 20.5607C8.27936 20.842 7.89782 21 7.5 21C7.10218 21 6.72064 20.842 6.43934 20.5607C6.15804 20.2794 6 19.8978 6 19.5C6 19.1022 6.15804 18.7206 6.43934 18.4393C6.72064 18.158 7.10218 18 7.5 18ZM16.5 18C16.8978 18 17.2794 18.158 17.5607 18.4393C17.842 18.7206 18 19.1022 18 19.5C18 19.8978 17.842 20.2794 17.5607 20.5607C17.2794 20.842 16.8978 21 16.5 21C16.1022 21 15.7206 20.842 15.4393 20.5607C15.158 20.2794 15 19.8978 15 19.5C15 19.1022 15.158 18.7206 15.4393 18.4393C15.7206 18.158 16.1022 18 16.5 18Z" fill="white"/>
</svg>
