<svg width="24" height="24" viewBox="0 0 24 24" fill="none" xmlns="http://www.w3.org/2000/svg">
<path d="M17.3988 7.64371C17.3448 7.63471 17.2818 7.63471 17.2278 7.64371C15.9859 7.59872 14.9959 6.58178 14.9959 5.32186C14.9959 4.03494 16.0309 3 17.3178 3C18.6047 3 19.6396 4.04394 19.6396 5.32186C19.6306 6.58178 18.6407 7.59872 17.3988 7.64371Z" stroke="#222222" stroke-width="1.3" stroke-linecap="round" stroke-linejoin="round"/>
<path d="M16.4722 14.1954C17.7051 14.4024 19.064 14.1864 20.0179 13.5475C21.2869 12.7015 21.2869 11.3156 20.0179 10.4697C19.055 9.83071 17.6781 9.61472 16.4452 9.83071" stroke="#222222" stroke-width="1.3" stroke-linecap="round" stroke-linejoin="round"/>
<path d="M6.5723 7.64371C6.62629 7.63471 6.68929 7.63471 6.74329 7.64371C7.98521 7.59872 8.97515 6.58178 8.97515 5.32186C8.97515 4.03494 7.94021 3 6.65329 3C5.36637 3 4.33144 4.04394 4.33144 5.32186C4.34044 6.58178 5.33038 7.59872 6.5723 7.64371Z" stroke="#222222" stroke-width="1.3" stroke-linecap="round" stroke-linejoin="round"/>
<path d="M7.49921 14.1954C6.26628 14.4024 4.90737 14.1864 3.95343 13.5475C2.68451 12.7015 2.68451 11.3156 3.95343 10.4697C4.91637 9.83071 6.29328 9.61472 7.5262 9.83071" stroke="#222222" stroke-width="1.3" stroke-linecap="round" stroke-linejoin="round"/>
<path d="M11.9989 14.3659C11.9449 14.3569 11.8819 14.3569 11.8279 14.3659C10.586 14.3209 9.59602 13.304 9.59602 12.0441C9.59602 10.7571 10.631 9.7222 11.9179 9.7222C13.2048 9.7222 14.2397 10.7661 14.2397 12.0441C14.2307 13.304 13.2408 14.3299 11.9989 14.3659Z" stroke="#222222" stroke-width="1.3" stroke-linecap="round" stroke-linejoin="round"/>
<path d="M9.37971 17.2013C8.11079 18.0472 8.11079 19.4332 9.37971 20.2791C10.8196 21.242 13.1775 21.242 14.6174 20.2791C15.8863 19.4332 15.8863 18.0472 14.6174 17.2013C13.1865 16.2474 10.8196 16.2474 9.37971 17.2013Z" stroke="#222222" stroke-width="1.3" stroke-linecap="round" stroke-linejoin="round"/>
</svg>
