<svg width="24" height="24" viewBox="0 0 24 24" fill="none" xmlns="http://www.w3.org/2000/svg">
<path d="M3.25 6.93404C3.25 5.19737 3.25 4.32903 3.78952 3.78952C4.32903 3.25 5.19737 3.25 6.93404 3.25C8.67072 3.25 9.53905 3.25 10.0786 3.78952C10.6181 4.32903 10.6181 5.19737 10.6181 6.93404C10.6181 8.67072 10.6181 9.53905 10.0786 10.0786C9.53905 10.6181 8.67072 10.6181 6.93404 10.6181C5.19737 10.6181 4.32903 10.6181 3.78952 10.0786C3.25 9.53905 3.25 8.67072 3.25 6.93404Z" stroke="#FF4747" stroke-width="1.42105"/>
<path d="M13.3809 17.0649C13.3809 15.3282 13.3809 14.4599 13.9204 13.9204C14.4599 13.3809 15.3282 13.3809 17.0649 13.3809C18.8016 13.3809 19.6699 13.3809 20.2094 13.9204C20.7489 14.4599 20.7489 15.3282 20.7489 17.0649C20.7489 18.8016 20.7489 19.6699 20.2094 20.2094C19.6699 20.7489 18.8016 20.7489 17.0649 20.7489C15.3282 20.7489 14.4599 20.7489 13.9204 20.2094C13.3809 19.6699 13.3809 18.8016 13.3809 17.0649Z" stroke="#FF4747" stroke-width="1.42105"/>
<path d="M3.25 17.0649C3.25 15.3282 3.25 14.4599 3.78952 13.9204C4.32903 13.3809 5.19737 13.3809 6.93404 13.3809C8.67072 13.3809 9.53905 13.3809 10.0786 13.9204C10.6181 14.4599 10.6181 15.3282 10.6181 17.0649C10.6181 18.8016 10.6181 19.6699 10.0786 20.2094C9.53905 20.7489 8.67072 20.7489 6.93404 20.7489C5.19737 20.7489 4.32903 20.7489 3.78952 20.2094C3.25 19.6699 3.25 18.8016 3.25 17.0649Z" stroke="#FF4747" stroke-width="1.42105"/>
<path d="M13.3809 6.93404C13.3809 5.19737 13.3809 4.32903 13.9204 3.78952C14.4599 3.25 15.3282 3.25 17.0649 3.25C18.8016 3.25 19.6699 3.25 20.2094 3.78952C20.7489 4.32903 20.7489 5.19737 20.7489 6.93404C20.7489 8.67072 20.7489 9.53905 20.2094 10.0786C19.6699 10.6181 18.8016 10.6181 17.0649 10.6181C15.3282 10.6181 14.4599 10.6181 13.9204 10.0786C13.3809 9.53905 13.3809 8.67072 13.3809 6.93404Z" stroke="#FF4747" stroke-width="1.42105"/>
</svg>
