<svg width="24" height="24" viewBox="0 0 24 24" fill="none" xmlns="http://www.w3.org/2000/svg">
<path d="M14.3929 4.05365L13.8912 4.61112L14.3929 4.05365ZM18.3517 7.61654L17.85 8.17402L18.3517 7.61654ZM20.654 10.1541L19.9689 10.4592V10.4592L20.654 10.1541ZM2.17157 20.8284L2.7019 20.2981H2.7019L2.17157 20.8284ZM19.8284 20.8284L19.2981 20.2981L19.2981 20.2981L19.8284 20.8284ZM13 21.25H9V22.75H13V21.25ZM1.75 14V10H0.25V14H1.75ZM20.25 13.5629V14H21.75V13.5629H20.25ZM13.8912 4.61112L17.85 8.17402L18.8534 7.05907L14.8947 3.49618L13.8912 4.61112ZM21.75 13.5629C21.75 11.8745 21.7651 10.8055 21.3391 9.84897L19.9689 10.4592C20.2349 11.0565 20.25 11.742 20.25 13.5629H21.75ZM17.85 8.17402C19.2034 9.3921 19.7029 9.86199 19.9689 10.4592L21.3391 9.84897C20.9131 8.89241 20.1084 8.18853 18.8534 7.05907L17.85 8.17402ZM9.02979 2.75C10.6116 2.75 11.2085 2.76158 11.7405 2.96573L12.2779 1.5653C11.4261 1.23842 10.498 1.25 9.02979 1.25V2.75ZM14.8947 3.49618C13.8087 2.51878 13.1297 1.89214 12.2779 1.5653L11.7405 2.96573C12.2727 3.16993 12.7215 3.55836 13.8912 4.61112L14.8947 3.49618ZM9 21.25C7.09318 21.25 5.73851 21.2484 4.71085 21.1102C3.70476 20.975 3.12511 20.7213 2.7019 20.2981L1.64124 21.3588C2.38961 22.1071 3.33855 22.4392 4.51098 22.5969C5.66182 22.7516 7.13558 22.75 9 22.75V21.25ZM0.25 14C0.25 15.8644 0.248407 17.3382 0.403135 18.489C0.560763 19.6614 0.89288 20.6104 1.64124 21.3588L2.7019 20.2981C2.27869 19.8749 2.02502 19.2952 1.88976 18.2892C1.75159 17.2615 1.75 15.9068 1.75 14H0.25ZM13 22.75C14.8644 22.75 16.3382 22.7516 17.489 22.5969C18.6614 22.4392 19.6104 22.1071 20.3588 21.3588L19.2981 20.2981C18.8749 20.7213 18.2952 20.975 17.2892 21.1102C16.2615 21.2484 14.9068 21.25 13 21.25V22.75ZM20.25 14C20.25 15.9068 20.2484 17.2615 20.1102 18.2892C19.975 19.2952 19.7213 19.8749 19.2981 20.2981L20.3588 21.3588C21.1071 20.6104 21.4392 19.6614 21.5969 18.489C21.7516 17.3382 21.75 15.8644 21.75 14H20.25ZM1.75 10C1.75 8.09318 1.75159 6.73851 1.88976 5.71085C2.02502 4.70476 2.27869 4.12511 2.7019 3.7019L1.64124 2.64124C0.89288 3.38961 0.560763 4.33855 0.403135 5.51098C0.248407 6.66182 0.25 8.13558 0.25 10H1.75ZM9.02979 1.25C7.15538 1.25 5.67442 1.24842 4.51887 1.40307C3.34232 1.56054 2.39019 1.8923 1.64124 2.64124L2.7019 3.7019C3.12453 3.27928 3.70596 3.02525 4.71785 2.88982C5.75075 2.75158 7.11311 2.75 9.02979 2.75V1.25Z" fill="#FF4747"/>
<path d="M13 2.5V4C13 6.35702 13 7.53553 13.7322 8.26777C14.4645 9 15.643 9 18 9H20" stroke="#FF4747" stroke-width="1.5"/>
<path d="M10.5 18L10.5 12M10.5 12L8 14.25M10.5 12L13 14.25" stroke="#FF4747" stroke-width="1.5" stroke-linecap="round" stroke-linejoin="round"/>
</svg>
