<svg width="24" height="24" viewBox="0 0 24 24" fill="none" xmlns="http://www.w3.org/2000/svg">
<path d="M15.2544 14.8904C16.6681 14.8904 17.8141 13.8161 17.8141 12.4909C17.8141 11.1656 16.6681 10.0913 15.2544 10.0913C13.8408 10.0913 12.6948 11.1656 12.6948 12.4909C12.6948 13.8161 13.8408 14.8904 15.2544 14.8904Z" stroke="#FF4747" stroke-width="1.3" stroke-linecap="round" stroke-linejoin="round"/>
<path d="M13.856 16.8031C13.856 17.2605 13.536 17.8604 13.1281 18.0929L12.0002 18.7752C10.9524 19.3826 9.49663 18.7003 9.49663 17.4855V13.4738C9.49663 12.9414 9.17668 12.259 8.84873 11.8841L5.77718 8.85467C5.36925 8.47224 5.04932 7.79738 5.04932 7.33997V5.60031C5.04932 4.69298 5.77722 4.01062 6.66508 4.01062H17.3354C18.2233 4.01062 18.9512 4.69298 18.9512 5.52532V7.18999C18.9512 7.79738 18.5432 8.55473 18.1433 8.92966" stroke="#FF4747" stroke-width="1.3" stroke-miterlimit="10" stroke-linecap="round" stroke-linejoin="round"/>
<path d="M18.2945 15.3417L17.4946 14.5919" stroke="#FF4747" stroke-width="1.3" stroke-linecap="round" stroke-linejoin="round"/>
</svg>
