<svg width="24" height="24" viewBox="0 0 24 24" fill="none" xmlns="http://www.w3.org/2000/svg">
<path d="M15.6527 6.81672C15.6527 6.81672 16.6723 0.5 18.7115 0.5C20.2409 0.5 19.986 11.5543 19.986 11.5543C19.986 11.5543 16.1573 11.7799 15.6543 11.3287C15.1513 10.8775 15.6527 6.81672 15.6527 6.81672Z" fill="#333333"/>
<path d="M4.06627 1.61047C4.06627 1.61047 3.90563 6.03113 4.08454 6.94829C4.34371 8.27687 6.2858 8.27687 6.2858 8.27687" stroke="#333333" stroke-width="1.5167" stroke-linecap="round"/>
<path d="M10.8317 1.61047C10.8317 1.61047 10.9296 6.03113 10.7525 6.94829C10.4959 8.27687 8.57291 8.27687 8.57291 8.27687" stroke="#333333" stroke-width="1.5167" stroke-linecap="round"/>
<path d="M7.42838 1.61047V8.27687" stroke="#333333" stroke-width="1.5167" stroke-linecap="round"/>
<path d="M7.38736 20.5V9.38934" stroke="#333333" stroke-width="2.33339" stroke-linecap="round"/>
<path d="M18.86 20.5V9.38934" stroke="#333333" stroke-width="2.33339" stroke-linecap="round"/>
</svg>
