<svg width="24" height="24" viewBox="0 0 24 24" fill="none" xmlns="http://www.w3.org/2000/svg">
<path d="M19.7502 8.08046V16.918C19.6102 16.8917 19.4615 16.8742 19.3127 16.8742C18.1052 16.8742 17.1252 17.8542 17.1252 19.0617C17.1252 19.2105 17.1427 19.3592 17.169 19.4992H8.33146C8.35771 19.3592 8.37521 19.2105 8.37521 19.0617C8.37521 17.8542 7.39521 16.8742 6.18771 16.8742C6.03896 16.8742 5.89021 16.8917 5.75021 16.918V8.08046C5.89021 8.10671 6.03896 8.12421 6.18771 8.12421C7.39521 8.12421 8.37521 7.14421 8.37521 5.93671C8.37521 5.78796 8.35771 5.63921 8.33146 5.49921H17.169C17.1427 5.63921 17.1252 5.78796 17.1252 5.93671C17.1252 7.14421 18.1052 8.12421 19.3127 8.12421C19.4615 8.12421 19.6102 8.10671 19.7502 8.08046Z" stroke="#333333" stroke-width="1.4" stroke-linecap="round" stroke-linejoin="round"/>
<path d="M8.375 5.9375C8.375 7.145 7.395 8.125 6.1875 8.125C6.03875 8.125 5.89 8.1075 5.75 8.08125C4.7525 7.88 4 6.99625 4 5.9375C4 4.73 4.98 3.75 6.1875 3.75C7.24625 3.75 8.13 4.5025 8.33125 5.5C8.3575 5.64 8.375 5.78875 8.375 5.9375Z" stroke="#333333" stroke-width="1.4" stroke-linecap="round" stroke-linejoin="round"/>
<path d="M21.5 5.9375C21.5 6.99625 20.7475 7.88 19.75 8.08125C19.61 8.1075 19.4613 8.125 19.3125 8.125C18.105 8.125 17.125 7.145 17.125 5.9375C17.125 5.78875 17.1425 5.64 17.1687 5.5C17.37 4.5025 18.2537 3.75 19.3125 3.75C20.52 3.75 21.5 4.73 21.5 5.9375Z" stroke="#333333" stroke-width="1.4" stroke-linecap="round" stroke-linejoin="round"/>
<path d="M8.375 19.0625C8.375 19.2113 8.3575 19.36 8.33125 19.5C8.13 20.4975 7.24625 21.25 6.1875 21.25C4.98 21.25 4 20.27 4 19.0625C4 18.0037 4.7525 17.12 5.75 16.9187C5.89 16.8925 6.03875 16.875 6.1875 16.875C7.395 16.875 8.375 17.855 8.375 19.0625Z" stroke="#333333" stroke-width="1.4" stroke-linecap="round" stroke-linejoin="round"/>
<path d="M21.5 19.0625C21.5 20.27 20.52 21.25 19.3125 21.25C18.2537 21.25 17.37 20.4975 17.1687 19.5C17.1425 19.36 17.125 19.2113 17.125 19.0625C17.125 17.855 18.105 16.875 19.3125 16.875C19.4613 16.875 19.61 16.8925 19.75 16.9187C20.7475 17.12 21.5 18.0037 21.5 19.0625Z" stroke="#333333" stroke-width="1.4" stroke-linecap="round" stroke-linejoin="round"/>
</svg>
