<svg width="24" height="24" viewBox="0 0 24 24" fill="none" xmlns="http://www.w3.org/2000/svg">
<path d="M20.9998 19H11.9998C7.75715 19 5.63583 19 4.31781 17.8284C2.99979 16.6569 2.99979 14.7712 2.99979 11V3" stroke="#222222" stroke-width="1.33333" stroke-linecap="round"/>
<path d="M18.2215 7.44531L15.4499 10.9354C15.0254 11.4701 14.8131 11.7374 14.5694 11.8676C14.1947 12.068 13.747 12.0777 13.3639 11.8939C13.1148 11.7743 12.8911 11.5165 12.4437 11.0009C11.9963 10.4852 11.7726 10.2274 11.5235 10.1078C11.1405 9.92402 10.6927 9.93376 10.318 10.1341C10.0743 10.2643 9.86207 10.5316 9.43752 11.0662L6.6658 14.5564" stroke="#222222" stroke-width="1.33333" stroke-linecap="round"/>
</svg>
