<svg width="24" height="24" viewBox="0 0 24 24" fill="none" xmlns="http://www.w3.org/2000/svg">
<path d="M3 9.93333C3 8.55055 3 7.85915 3.58579 7.42958C4.17157 7 5.11438 7 7 7H13C14.8856 7 15.8284 7 16.4142 7.42958C17 7.85915 17 8.55055 17 9.93333V13.6C17 15.6742 17 16.7113 16.1213 17.3556C15.2426 18 13.8284 18 11 18H9C6.17157 18 4.75736 18 3.87868 17.3556C3 16.7113 3 15.6742 3 13.6V9.93333Z" stroke="#222222" stroke-width="1.5"/>
<path d="M17 13H17.8C19.5673 13 21 11.8807 21 10.5C21 9.11929 19.5673 8 17.8 8H17" stroke="#222222" stroke-width="1.5"/>
<path d="M17 13H3" stroke="#222222" stroke-width="0.8"/>
<path d="M20 21L2 21" stroke="#222222" stroke-width="1.3" stroke-linecap="round"/>
<path d="M6.05081 5.0614L6.46143 4.48574C6.6882 4.16781 6.61431 3.72623 6.29638 3.49945C5.97845 3.27267 5.90455 2.8311 6.13133 2.51317L6.54195 1.9375M14.0508 5.0614L14.4614 4.48574C14.6882 4.16781 14.6143 3.72623 14.2964 3.49945C13.9784 3.27267 13.9046 2.8311 14.1313 2.51317L14.5419 1.9375M10.0508 5.0614L10.4614 4.48574C10.6882 4.16781 10.6143 3.72623 10.2964 3.49945C9.97845 3.27267 9.90455 2.8311 10.1313 2.51317L10.5419 1.9375" stroke="#222222" stroke-width="1.5" stroke-linecap="round"/>
</svg>
