<svg width="24" height="24" viewBox="0 0 24 24" fill="none" xmlns="http://www.w3.org/2000/svg">
<path d="M11.8887 14.6666C13.3614 14.6666 14.5553 13.4727 14.5553 12C14.5553 10.5272 13.3614 9.33331 11.8887 9.33331C10.4159 9.33331 9.22202 10.5272 9.22202 12C9.22202 13.4727 10.4159 14.6666 11.8887 14.6666Z" stroke="#333333" stroke-width="1.5" stroke-miterlimit="10" stroke-linecap="round" stroke-linejoin="round"/>
<path d="M2.99979 12.7458V11.2542C2.99979 10.3727 3.75496 9.64379 4.68783 9.64379C6.29592 9.64379 6.95337 8.55892 6.14488 7.22826C5.68289 6.46546 5.95831 5.47382 6.76679 5.03309L8.3038 4.19401C9.00567 3.79566 9.91189 4.03297 10.3295 4.70254L10.4272 4.86358C11.2268 6.19424 12.5417 6.19424 13.3502 4.86358L13.4479 4.70254C13.8655 4.03297 14.7717 3.79566 15.4736 4.19401L17.0106 5.03309C17.819 5.47382 18.0945 6.46546 17.6325 7.22826C16.824 8.55892 17.4814 9.64379 19.0895 9.64379C20.0135 9.64379 20.7776 10.3642 20.7776 11.2542V12.7458C20.7776 13.6273 20.0224 14.3562 19.0895 14.3562C17.4814 14.3562 16.824 15.4411 17.6325 16.7717C18.0945 17.543 17.819 18.5262 17.0106 18.9669L15.4736 19.806C14.7717 20.2043 13.8655 19.967 13.4479 19.2975L13.3502 19.1364C12.5506 17.8058 11.2357 17.8058 10.4272 19.1364L10.3295 19.2975C9.91189 19.967 9.00567 20.2043 8.3038 19.806L6.76679 18.9669C5.95831 18.5262 5.68289 17.5345 6.14488 16.7717C6.95337 15.4411 6.29592 14.3562 4.68783 14.3562C3.75496 14.3562 2.99979 13.6273 2.99979 12.7458Z" stroke="#333333" stroke-width="1.5" stroke-miterlimit="10" stroke-linecap="round" stroke-linejoin="round"/>
</svg>
