<svg width="24" height="24" viewBox="0 0 24 24" fill="none" xmlns="http://www.w3.org/2000/svg">
<path d="M3 16.25C2.58579 16.25 2.25 16.5858 2.25 17C2.25 17.4142 2.58579 17.75 3 17.75V16.25ZM10.873 14.087L10.2131 13.7306L10.2131 13.7306L10.873 14.087ZM13.127 9.91303L13.7869 10.2694L13.7869 10.2694L13.127 9.91303ZM21 7L21.5575 7.50172C21.8142 7.21649 21.8142 6.78351 21.5575 6.49828L21 7ZM18.6425 8.49828C18.3654 8.80616 18.3904 9.28038 18.6983 9.55747C19.0062 9.83456 19.4804 9.80961 19.7575 9.50172L18.6425 8.49828ZM19.7575 4.49828C19.4804 4.19039 19.0062 4.16544 18.6983 4.44253C18.3904 4.71962 18.3654 5.19384 18.6425 5.50172L19.7575 4.49828ZM14.8984 7.3894L14.4991 6.75457L14.4991 6.75457L14.8984 7.3894ZM3 17.75H6.24257V16.25H3V17.75ZM11.533 14.4433L13.7869 10.2694L12.467 9.55667L10.2131 13.7306L11.533 14.4433ZM17.7574 7.75H21V6.25H17.7574V7.75ZM20.4425 6.49828L18.6425 8.49828L19.7575 9.50172L21.5575 7.50172L20.4425 6.49828ZM21.5575 6.49828L19.7575 4.49828L18.6425 5.50172L20.4425 7.50172L21.5575 6.49828ZM13.7869 10.2694C14.1777 9.54572 14.4472 9.04827 14.6928 8.67956C14.9312 8.32188 15.112 8.14111 15.2978 8.02423L14.4991 6.75457C14.0659 7.0271 13.7451 7.39673 13.4446 7.8478C13.1513 8.28786 12.8446 8.85752 12.467 9.55667L13.7869 10.2694ZM17.7574 6.25C17.0267 6.25 16.4197 6.249 15.9195 6.30301C15.3996 6.35916 14.9366 6.4793 14.4991 6.75457L15.2978 8.02423C15.4792 7.9101 15.6991 7.83554 16.0806 7.79434C16.4818 7.751 16.9948 7.75 17.7574 7.75V6.25ZM6.24257 17.75C6.97332 17.75 7.58033 17.751 8.08049 17.697C8.60039 17.6408 9.06337 17.5207 9.50094 17.2454L8.7022 15.9758C8.52079 16.0899 8.30094 16.1645 7.91943 16.2057C7.51817 16.249 7.00517 16.25 6.24257 16.25V17.75ZM10.2131 13.7306C9.82232 14.4543 9.55285 14.9517 9.30717 15.3204C9.06883 15.6781 8.88799 15.8589 8.7022 15.9758L9.50094 17.2454C9.93413 16.9729 10.2549 16.6033 10.5554 16.1522C10.8487 15.7121 11.1554 15.1425 11.533 14.4433L10.2131 13.7306Z" fill="#FF4747"/>
<path d="M3 6.35C2.64101 6.35 2.35 6.64101 2.35 7C2.35 7.35899 2.64101 7.65 3 7.65V6.35ZM21 17L21.4831 17.4348C21.7056 17.1876 21.7056 16.8124 21.4831 16.5652L21 17ZM19.6831 14.5652C19.443 14.2983 19.032 14.2767 18.7652 14.5169C18.4983 14.757 18.4767 15.168 18.7169 15.4348L19.6831 14.5652ZM18.7169 18.5652C18.4767 18.832 18.4983 19.243 18.7652 19.4831C19.032 19.7233 19.443 19.7017 19.6831 19.4348L18.7169 18.5652ZM15.7129 16.9447L15.8503 16.3094L15.8503 16.3094L15.7129 16.9447ZM14.1919 14.6912C14.0214 14.3753 13.627 14.2575 13.3112 14.4281C12.9953 14.5986 12.8775 14.993 13.0481 15.3088L14.1919 14.6912ZM14.2215 16.0065L14.7267 15.5975L14.7267 15.5975L14.2215 16.0065ZM8.28714 7.05526L8.42454 6.41995L8.42454 6.41995L8.28714 7.05526ZM9.80806 9.30885C9.97863 9.62472 10.373 9.74251 10.6888 9.57194C11.0047 9.40137 11.1225 9.00703 10.9519 8.69115L9.80806 9.30885ZM9.77846 7.99346L9.27331 8.4025L9.27331 8.4025L9.77846 7.99346ZM3 7.65H7.20086V6.35H3V7.65ZM16.7991 17.65H21V16.35H16.7991V17.65ZM21.4831 16.5652L19.6831 14.5652L18.7169 15.4348L20.5169 17.4348L21.4831 16.5652ZM20.5169 16.5652L18.7169 18.5652L19.6831 19.4348L21.4831 17.4348L20.5169 16.5652ZM16.7991 16.35C16.2163 16.35 16.0218 16.3465 15.8503 16.3094L15.5755 17.58C15.915 17.6535 16.2743 17.65 16.7991 17.65V16.35ZM13.0481 15.3088C13.3206 15.8136 13.4951 16.1423 13.7164 16.4156L14.7267 15.5975C14.5998 15.4407 14.4893 15.2418 14.1919 14.6912L13.0481 15.3088ZM15.8503 16.3094C15.4283 16.2182 15.0315 15.974 14.7267 15.5975L13.7164 16.4156C14.196 17.0079 14.8462 17.4223 15.5755 17.58L15.8503 16.3094ZM7.20086 7.65C7.78371 7.65 7.97819 7.65347 8.14974 7.69058L8.42454 6.41995C8.08503 6.34653 7.72568 6.35 7.20086 6.35V7.65ZM10.9519 8.69115C10.6794 8.18643 10.5049 7.85771 10.2836 7.58441L9.27331 8.4025C9.40024 8.55926 9.51072 8.75822 9.80806 9.30885L10.9519 8.69115ZM8.14974 7.69058C8.57173 7.78184 8.96846 8.02602 9.27331 8.4025L10.2836 7.58441C9.80402 6.99213 9.15377 6.57766 8.42454 6.41995L8.14974 7.69058Z" fill="#FF4747"/>
</svg>
