<svg width="44" height="44" viewBox="0 0 44 44" fill="none" xmlns="http://www.w3.org/2000/svg">
<path d="M19.9981 41.9971C11.8883 41.9825 7.64158 41.7834 4.92762 39.0695C1.99881 36.1407 1.9988 31.4268 1.9988 21.9991C1.9988 12.5715 1.99881 7.85761 4.92762 4.92881C7.85644 2 12.5703 2 21.998 2C31.4258 2 36.1396 2 39.0684 4.92881C41.7824 7.64275 41.9815 11.8894 41.9961 19.9992" stroke="#14809E" stroke-width="3.2" stroke-linecap="round"/>
<path d="M12 11.9985L21.9996 21.998M21.9996 21.998H14.4999M21.9996 21.998V14.4984" stroke="#14809E" stroke-width="3.2" stroke-linecap="round" stroke-linejoin="round"/>
<path d="M26 33.9997C26 30.2286 26 28.343 27.1715 27.1715C28.3431 26 30.2286 26 33.9997 26C37.7708 26 39.6563 26 40.8279 27.1715C41.9994 28.343 41.9994 30.2286 41.9994 33.9997C41.9994 37.7707 41.9994 39.6563 40.8279 40.8278C39.6563 41.9993 37.7708 41.9993 33.9997 41.9993C30.2286 41.9993 28.3431 41.9993 27.1715 40.8278C26 39.6563 26 37.7707 26 33.9997Z" stroke="#14809E" stroke-width="3.2"/>
</svg>
