<svg width="72" height="107" viewBox="0 0 72 107" fill="none" xmlns="http://www.w3.org/2000/svg">
<path d="M34.002 72.9971C25.8922 72.9825 21.6455 72.7834 18.9315 70.0695C16.0027 67.1407 16.0027 62.4268 16.0027 52.9991C16.0027 43.5715 16.0027 38.8576 18.9315 35.9288C21.8603 33 26.5742 33 36.0019 33C45.4297 33 50.1435 33 53.0723 35.9288C55.7863 38.6428 55.9854 42.8894 56 50.9992" stroke="#14809E" stroke-width="3.2" stroke-linecap="round"/>
<path d="M26 42.9985L35.9996 52.998M35.9996 52.998H28.4999M35.9996 52.998V45.4984" stroke="#14809E" stroke-width="3.2" stroke-linecap="round" stroke-linejoin="round"/>
<path d="M40 64.9997C40 61.2286 40 59.343 41.1715 58.1715C42.3431 57 44.2286 57 47.9997 57C51.7708 57 53.6563 57 54.8279 58.1715C55.9994 59.343 55.9994 61.2286 55.9994 64.9997C55.9994 68.7707 55.9994 70.6563 54.8279 71.8278C53.6563 72.9993 51.7708 72.9993 47.9997 72.9993C44.2286 72.9993 42.3431 72.9993 41.1715 71.8278C40 70.6563 40 68.7707 40 64.9997Z" stroke="#14809E" stroke-width="3.2"/>
</svg>
