<svg width="24" height="24" viewBox="0 0 24 24" fill="none" xmlns="http://www.w3.org/2000/svg">
<path d="M12 8.44446V12L14.2222 14.2222" stroke="#222222" stroke-width="1.33333" stroke-linecap="round" stroke-linejoin="round"/>
<path d="M6.31479 6.31479L5.84339 5.84339L5.84339 5.84339L6.31479 6.31479ZM5.18912 7.44046L4.52246 7.44381C4.5243 7.80938 4.8202 8.10528 5.18577 8.10712L5.18912 7.44046ZM7.44848 8.11849C7.81667 8.12034 8.11664 7.82337 8.11849 7.45518C8.12034 7.087 7.82337 6.78703 7.45518 6.78518L7.44848 8.11849ZM5.84441 5.1744C5.84256 4.80621 5.54258 4.50924 5.1744 4.51109C4.80621 4.51294 4.50924 4.81292 4.51109 5.1811L5.84441 5.1744ZM4.73476 10.9199C4.78476 10.5551 4.52958 10.2189 4.1648 10.1689C3.80002 10.1189 3.46378 10.3741 3.41378 10.7389L4.73476 10.9199ZM18.0998 5.90024C14.704 2.50451 9.21665 2.47013 5.84339 5.84339L6.7862 6.7862C9.62985 3.94255 14.273 3.95907 17.157 6.84305L18.0998 5.90024ZM5.90024 18.0998C9.29596 21.4955 14.7834 21.5299 18.1566 18.1566L17.2138 17.2138C14.3702 20.0575 9.72703 20.0409 6.84305 17.157L5.90024 18.0998ZM18.1566 18.1566C21.5299 14.7834 21.4955 9.29597 18.0998 5.90024L17.157 6.84305C20.0409 9.72703 20.0575 14.3702 17.2138 17.2138L18.1566 18.1566ZM5.84339 5.84339L4.71772 6.96906L5.66053 7.91187L6.7862 6.7862L5.84339 5.84339ZM5.18577 8.10712L7.44848 8.11849L7.45518 6.78518L5.19247 6.7738L5.18577 8.10712ZM5.85578 7.43711L5.84441 5.1744L4.51109 5.1811L4.52246 7.44381L5.85578 7.43711ZM3.41378 10.7389C3.05695 13.3421 3.88793 16.0874 5.90024 18.0998L6.84305 17.157C5.13587 15.4498 4.43256 13.1246 4.73476 10.9199L3.41378 10.7389Z" fill="#222222"/>
</svg>
