<svg width="24" height="24" viewBox="0 0 24 24" fill="none" xmlns="http://www.w3.org/2000/svg">
<path d="M3.5 9.8C3.5 5.65164 3.5 3.57746 4.7448 2.28873C5.98959 1 7.99306 1 12 1C16.0069 1 18.0104 1 19.2552 2.28873C20.5 3.57746 20.5 5.65164 20.5 9.8V14.2C20.5 18.3484 20.5 20.4225 19.2552 21.7113C18.0104 23 16.0069 23 12 23C7.99306 23 5.98959 23 4.7448 21.7113C3.5 20.4225 3.5 18.3484 3.5 14.2V9.8Z" stroke="#222222" stroke-width="1.5"/>
<path d="M12.1 20H12" stroke="#222222" stroke-width="2" stroke-linecap="round"/>
<path d="M9.90078 4H9.80078" stroke="#222222" stroke-width="1.2" stroke-linecap="round"/>
<path d="M14.8008 4H11.8008" stroke="#222222" stroke-width="1.2" stroke-linecap="round"/>
</svg>
