<svg width="24" height="24" viewBox="0 0 24 24" fill="none" xmlns="http://www.w3.org/2000/svg">
<path d="M20.8 7.5C20.8 7.69877 20.6898 7.98157 20.2808 8.32866C19.8748 8.67324 19.246 9.01514 18.4078 9.31604C16.7374 9.91568 14.3835 10.3 11.75 10.3C9.11645 10.3 6.76265 9.91568 5.09221 9.31604C4.254 9.01514 3.62516 8.67324 3.21916 8.32866C2.8102 7.98157 2.7 7.69877 2.7 7.5C2.7 7.30123 2.8102 7.01843 3.21916 6.67134C3.62516 6.32676 4.254 5.98486 5.09221 5.68396C6.76265 5.08432 9.11645 4.7 11.75 4.7C14.3835 4.7 16.7374 5.08432 18.4078 5.68396C19.246 5.98486 19.8748 6.32676 20.2808 6.67134C20.6898 7.01843 20.8 7.30123 20.8 7.5Z" stroke="#FF4747" stroke-width="1.4"/>
<rect x="11" y="11" width="1.5" height="5" fill="#FF4747"/>
<path d="M8 19.5L8.25469 17.7172C8.39545 16.7319 9.23929 16 10.2346 16H13.7654C14.7607 16 15.6046 16.7319 15.7453 17.7172L16 19.5" stroke="#FF4747" stroke-width="1.4"/>
</svg>
