<svg width="24" height="24" viewBox="0 0 24 24" fill="none" xmlns="http://www.w3.org/2000/svg">
<path d="M9.33367 3H14.6673V4.71429H9.33367V3ZM18.2498 8.47714L19.5121 7.26C19.1298 6.82286 18.712 6.41143 18.2587 6.05143L16.9964 7.26857C15.5806 6.16999 13.8178 5.57116 12.0005 5.57143C9.87864 5.57143 7.84368 6.38418 6.34329 7.83089C4.84291 9.2776 4 11.2398 4 13.2857C4 17.5457 7.57356 21 12.0005 21C13.5067 21.0008 14.9824 20.5913 16.2578 19.8188C17.5332 19.0463 18.5563 17.9421 19.2093 16.6335C19.8624 15.3248 20.1188 13.8649 19.949 12.4219C19.7793 10.9789 19.1902 9.61149 18.2498 8.47714ZM15.4 15.1L14 16.5L11.1116 13.1429V9H12.8894V12.2857L15.4 15.1Z" fill="white"/>
</svg>
