<svg width="39" height="58" viewBox="0 0 39 58" fill="none" xmlns="http://www.w3.org/2000/svg">
<path d="M35.9509 24.6784C35.9509 25.0482 35.7459 25.5742 34.9852 26.2198C34.23 26.8608 33.0603 27.4968 31.5011 28.0565C28.3939 29.1719 24.0155 29.8868 19.1167 29.8868C14.218 29.8868 9.83961 29.1719 6.73239 28.0565C5.1732 27.4968 4.00347 26.8608 3.24826 26.2198C2.48754 25.5742 2.28256 25.0482 2.28256 24.6784C2.28256 24.3087 2.48754 23.7826 3.24826 23.137C4.00347 22.4961 5.1732 21.8601 6.73239 21.3004C9.83961 20.1849 14.218 19.4701 19.1167 19.4701C24.0155 19.4701 28.3939 20.1849 31.5011 21.3004C33.0603 21.8601 34.23 22.4961 34.9852 23.137C35.7459 23.7826 35.9509 24.3087 35.9509 24.6784Z" stroke="#9CDA9C" stroke-width="2.60418"/>
<rect x="17.7216" y="31.1886" width="2.7902" height="9.30065" fill="#9CDA9C"/>
<path d="M12.14 46.9992L12.6137 43.6829C12.8755 41.8501 14.4452 40.4888 16.2966 40.4888H22.8644C24.7158 40.4888 26.2854 41.8501 26.5472 43.6829L27.021 46.9992" stroke="#9CDA9C" stroke-width="2.60418"/>
</svg>
