<svg width="36" height="46" viewBox="0 0 36 46" fill="none" xmlns="http://www.w3.org/2000/svg">
<path d="M31.7788 46H5.15592C4.05266 46 2.9946 45.5154 2.21448 44.6527C1.43436 43.79 0.996094 42.62 0.996094 41.4V4.6C0.996094 3.38 1.43436 2.20998 2.21448 1.34731C2.9946 0.484642 4.05266 0 5.15592 0H31.7788C32.8821 0 33.9401 0.484642 34.7202 1.34731C35.5004 2.20998 35.9386 3.38 35.9386 4.6V41.4C35.9386 42.62 35.5004 43.79 34.7202 44.6527C33.9401 45.5154 32.8821 46 31.7788 46ZM34.2747 4.6C34.2747 3.868 34.0117 3.16599 33.5437 2.64838C33.0756 2.13078 32.4408 1.84 31.7788 1.84H5.15592C4.49397 1.84 3.85913 2.13078 3.39105 2.64838C2.92298 3.16599 2.66002 3.868 2.66002 4.6V41.4C2.66002 42.132 2.92298 42.834 3.39105 43.3516C3.85913 43.8692 4.49397 44.16 5.15592 44.16H31.7788C32.4408 44.16 33.0756 43.8692 33.5437 43.3516C34.0117 42.834 34.2747 42.132 34.2747 41.4V4.6ZM20.1313 39.94C20.1313 39.5761 20.0337 39.2203 19.8509 38.9177C19.668 38.6152 19.4082 38.3793 19.1041 38.2401C18.8001 38.1008 18.4655 38.0644 18.1427 38.1354C17.82 38.2064 17.5235 38.3816 17.2908 38.6389C17.0581 38.8963 16.8996 39.2241 16.8354 39.581C16.7712 39.938 16.8041 40.3079 16.9301 40.6441C17.056 40.9804 17.2693 41.2677 17.5429 41.4699C17.8166 41.6721 18.1383 41.78 18.4674 41.78C18.9087 41.78 19.3319 41.5861 19.6439 41.2411C19.956 40.896 20.1313 40.428 20.1313 39.94Z" fill="#9CDA9C"/>
<rect x="12.5703" y="4.19531" width="14.0238" height="1.13281" rx="0.566406" fill="#9CDA9C"/>
<rect x="9.62891" y="3.96875" width="1.58333" height="1.58594" rx="0.791667" fill="#9CDA9C"/>
</svg>
