<svg width="44" height="44" viewBox="0 0 44 44" fill="none" xmlns="http://www.w3.org/2000/svg">
<path d="M19.9991 41.9971C11.8893 41.9825 7.64256 41.7834 4.9286 39.0695C1.99978 36.1407 1.99978 31.4268 1.99978 21.9991C1.99978 12.5715 1.99978 7.85761 4.9286 4.92881C7.85742 2 12.5713 2 21.999 2C31.4267 2 36.1406 2 39.0694 4.92881C41.7834 7.64275 41.9825 11.8894 41.9971 19.9992" stroke="#14809E" stroke-width="3.2" stroke-linecap="round"/>
<path d="M11.999 11.9985L21.9986 21.998M21.9986 21.998H14.4989M21.9986 21.998V14.4984" stroke="#14809E" stroke-width="3.2" stroke-linecap="round" stroke-linejoin="round"/>
<path d="M25.998 33.9997C25.998 30.2286 25.998 28.343 27.1696 27.1715C28.3411 26 30.2266 26 33.9977 26C37.7688 26 39.6544 26 40.8259 27.1715C41.9974 28.343 41.9974 30.2286 41.9974 33.9997C41.9974 37.7707 41.9974 39.6563 40.8259 40.8278C39.6544 41.9993 37.7688 41.9993 33.9977 41.9993C30.2266 41.9993 28.3411 41.9993 27.1696 40.8278C25.998 39.6563 25.998 37.7707 25.998 33.9997Z" stroke="#14809E" stroke-width="3.2"/>
</svg>
