<svg width="31" height="28" viewBox="0 0 31 28" fill="none" xmlns="http://www.w3.org/2000/svg">
<path d="M16.1806 24.0915C22.0394 24.0915 26.789 19.3551 26.789 13.5125C26.789 7.66995 22.0394 2.93359 16.1806 2.93359C10.3217 2.93359 5.57218 7.66995 5.57218 13.5125C5.57218 19.3551 10.3217 24.0915 16.1806 24.0915Z" fill="url(#paint0_linear_1107_5605)"/>
<path d="M16.1806 24.0915C22.0394 24.0915 26.789 19.3551 26.789 13.5125C26.789 7.66995 22.0394 2.93359 16.1806 2.93359C10.3217 2.93359 5.57218 7.66995 5.57218 13.5125C5.57218 19.3551 10.3217 24.0915 16.1806 24.0915Z" fill="url(#paint1_radial_1107_5605)"/>
<path d="M16.2038 23.7488C21.8883 23.7488 26.4964 19.1535 26.4964 13.4848C26.4964 7.81604 21.8883 3.2207 16.2038 3.2207C10.5194 3.2207 5.91113 7.81604 5.91113 13.4848C5.91113 19.1535 10.5194 23.7488 16.2038 23.7488Z" fill="#DDCEF5"/>
<path d="M16.2038 23.7488C21.8883 23.7488 26.4964 19.1535 26.4964 13.4848C26.4964 7.81604 21.8883 3.2207 16.2038 3.2207C10.5194 3.2207 5.91113 7.81604 5.91113 13.4848C5.91113 19.1535 10.5194 23.7488 16.2038 23.7488Z" fill="url(#paint2_radial_1107_5605)"/>
<path d="M15.2667 3.2491C18.3556 2.82925 22.2808 4.15887 24.2036 7.41037C21.7173 5.0286 19.0759 3.56113 15.2667 3.2491Z" fill="url(#paint3_radial_1107_5605)"/>
<path d="M16.1808 20.79C20.212 20.79 23.48 17.5313 23.48 13.5112C23.48 9.4913 20.212 6.23242 16.1808 6.23242C12.1497 6.23242 8.88174 9.4913 8.88174 13.5112C8.88174 17.5313 12.1497 20.79 16.1808 20.79Z" fill="#D8CBF0"/>
<path d="M16.1808 20.79C20.212 20.79 23.48 17.5313 23.48 13.5112C23.48 9.4913 20.212 6.23242 16.1808 6.23242C12.1497 6.23242 8.88174 9.4913 8.88174 13.5112C8.88174 17.5313 12.1497 20.79 16.1808 20.79Z" fill="url(#paint4_radial_1107_5605)"/>
<path d="M16.1808 20.79C20.212 20.79 23.48 17.5313 23.48 13.5112C23.48 9.4913 20.212 6.23242 16.1808 6.23242C12.1497 6.23242 8.88174 9.4913 8.88174 13.5112C8.88174 17.5313 12.1497 20.79 16.1808 20.79Z" fill="url(#paint5_radial_1107_5605)"/>
<path d="M16.1808 20.79C20.212 20.79 23.48 17.5313 23.48 13.5112C23.48 9.4913 20.212 6.23242 16.1808 6.23242C12.1497 6.23242 8.88174 9.4913 8.88174 13.5112C8.88174 17.5313 12.1497 20.79 16.1808 20.79Z" fill="url(#paint6_radial_1107_5605)"/>
<path d="M27.9551 7.2793V15.9666L25.9744 15.1767C24.6398 14.6461 23.7607 13.243 23.7607 11.6629V7.2793H27.9551Z" fill="#B9A9D2"/>
<path d="M27.0311 2C28.1182 2 28.9999 2.86071 28.9999 3.92189V14.7202H26.4625C25.0811 14.1296 24.2168 12.7952 24.2168 11.3029V4.75907C24.2047 3.23804 25.4609 2 27.0311 2Z" fill="url(#paint7_linear_1107_5605)"/>
<path d="M27.0311 2C28.1182 2 28.9999 2.86071 28.9999 3.92189V14.7202H26.4625C25.0811 14.1296 24.2168 12.7952 24.2168 11.3029V4.75907C24.2047 3.23804 25.4609 2 27.0311 2Z" fill="url(#paint8_radial_1107_5605)"/>
<path d="M27.0311 2C28.1182 2 28.9999 2.86071 28.9999 3.92189V14.7202H26.4625C25.0811 14.1296 24.2168 12.7952 24.2168 11.3029V4.75907C24.2047 3.23804 25.4609 2 27.0311 2Z" fill="url(#paint9_radial_1107_5605)"/>
<path d="M27.0311 2C28.1182 2 28.9999 2.86071 28.9999 3.92189V14.7202H26.4625C25.0811 14.1296 24.2168 12.7952 24.2168 11.3029V4.75907C24.2047 3.23804 25.4609 2 27.0311 2Z" fill="url(#paint10_radial_1107_5605)"/>
<path d="M26.8958 2.93555C27.6277 2.93555 28.2213 3.51504 28.2213 4.22951V13.869C26.8958 13.869 25.001 12.8575 25.001 10.3444V4.79318C24.9928 3.76909 25.8386 2.93555 26.8958 2.93555Z" fill="url(#paint11_linear_1107_5605)"/>
<path d="M26.4502 14.7207V16.5731V24.8911C26.4502 25.5047 26.9576 26.0002 27.5856 26.0002H27.8634C28.4916 26.0002 28.9988 25.5047 28.9988 24.8911V16.5731V14.7207H26.4502Z" fill="url(#paint12_linear_1107_5605)"/>
<path d="M26.4502 14.7207V16.5731V24.8911C26.4502 25.5047 26.9576 26.0002 27.5856 26.0002H27.8634C28.4916 26.0002 28.9988 25.5047 28.9988 24.8911V16.5731V14.7207H26.4502Z" fill="url(#paint13_radial_1107_5605)"/>
<path d="M26.4502 14.7207V16.5731V24.8911C26.4502 25.5047 26.9576 26.0002 27.5856 26.0002H27.8634C28.4916 26.0002 28.9988 25.5047 28.9988 24.8911V16.5731V14.7207H26.4502Z" fill="url(#paint14_linear_1107_5605)"/>
<path d="M7.75387 2.00024C7.30024 2.00024 6.94213 2.31704 6.94213 2.69515V5.88537C6.94213 6.08975 6.75112 6.24301 6.5243 6.24301C6.28556 6.24301 6.10651 6.07953 6.10651 5.88537V2.7258C6.10651 2.34769 5.76032 2.01047 5.31863 2.00024C4.85307 1.99002 4.47106 2.30681 4.47106 2.69515V5.88537C4.47106 6.08975 4.28007 6.24301 4.05325 6.24301C3.81451 6.24301 3.63543 6.07953 3.63543 5.88537V2.7258C3.63543 2.34769 3.28924 2.01047 2.84755 2.00024C2.38199 1.99002 2 2.30681 2 2.69515V5.80177V6.34343V8.30216C2 10.279 4.0413 10.8147 4.0413 12.2124V24.7223C4.0413 25.4015 4.61494 25.9998 5.30072 25.9998C5.98648 25.9998 6.56012 25.4015 6.56012 24.7223C6.56012 24.7223 6.56012 13.6599 6.56012 12.2124C6.56012 10.765 8.60144 10.2941 8.60144 8.30216V6.34343V5.80177V2.69515C8.57757 2.31704 8.20749 2.00024 7.75387 2.00024Z" fill="url(#paint15_linear_1107_5605)"/>
<path d="M7.75387 2.00024C7.30024 2.00024 6.94213 2.31704 6.94213 2.69515V5.88537C6.94213 6.08975 6.75112 6.24301 6.5243 6.24301C6.28556 6.24301 6.10651 6.07953 6.10651 5.88537V2.7258C6.10651 2.34769 5.76032 2.01047 5.31863 2.00024C4.85307 1.99002 4.47106 2.30681 4.47106 2.69515V5.88537C4.47106 6.08975 4.28007 6.24301 4.05325 6.24301C3.81451 6.24301 3.63543 6.07953 3.63543 5.88537V2.7258C3.63543 2.34769 3.28924 2.01047 2.84755 2.00024C2.38199 1.99002 2 2.30681 2 2.69515V5.80177V6.34343V8.30216C2 10.279 4.0413 10.8147 4.0413 12.2124V24.7223C4.0413 25.4015 4.61494 25.9998 5.30072 25.9998C5.98648 25.9998 6.56012 25.4015 6.56012 24.7223C6.56012 24.7223 6.56012 13.6599 6.56012 12.2124C6.56012 10.765 8.60144 10.2941 8.60144 8.30216V6.34343V5.80177V2.69515C8.57757 2.31704 8.20749 2.00024 7.75387 2.00024Z" fill="url(#paint16_radial_1107_5605)"/>
<path d="M7.75387 2.00024C7.30024 2.00024 6.94213 2.31704 6.94213 2.69515V5.88537C6.94213 6.08975 6.75112 6.24301 6.5243 6.24301C6.28556 6.24301 6.10651 6.07953 6.10651 5.88537V2.7258C6.10651 2.34769 5.76032 2.01047 5.31863 2.00024C4.85307 1.99002 4.47106 2.30681 4.47106 2.69515V5.88537C4.47106 6.08975 4.28007 6.24301 4.05325 6.24301C3.81451 6.24301 3.63543 6.07953 3.63543 5.88537V2.7258C3.63543 2.34769 3.28924 2.01047 2.84755 2.00024C2.38199 1.99002 2 2.30681 2 2.69515V5.80177V6.34343V8.30216C2 10.279 4.0413 10.8147 4.0413 12.2124V24.7223C4.0413 25.4015 4.61494 25.9998 5.30072 25.9998C5.98648 25.9998 6.56012 25.4015 6.56012 24.7223C6.56012 24.7223 6.56012 13.6599 6.56012 12.2124C6.56012 10.765 8.60144 10.2941 8.60144 8.30216V6.34343V5.80177V2.69515C8.57757 2.31704 8.20749 2.00024 7.75387 2.00024Z" fill="url(#paint17_radial_1107_5605)"/>
<path d="M7.75387 2.00024C7.30024 2.00024 6.94213 2.31704 6.94213 2.69515V5.88537C6.94213 6.08975 6.75112 6.24301 6.5243 6.24301C6.28556 6.24301 6.10651 6.07953 6.10651 5.88537V2.7258C6.10651 2.34769 5.76032 2.01047 5.31863 2.00024C4.85307 1.99002 4.47106 2.30681 4.47106 2.69515V5.88537C4.47106 6.08975 4.28007 6.24301 4.05325 6.24301C3.81451 6.24301 3.63543 6.07953 3.63543 5.88537V2.7258C3.63543 2.34769 3.28924 2.01047 2.84755 2.00024C2.38199 1.99002 2 2.30681 2 2.69515V5.80177V6.34343V8.30216C2 10.279 4.0413 10.8147 4.0413 12.2124V24.7223C4.0413 25.4015 4.61494 25.9998 5.30072 25.9998C5.98648 25.9998 6.56012 25.4015 6.56012 24.7223C6.56012 24.7223 6.56012 13.6599 6.56012 12.2124C6.56012 10.765 8.60144 10.2941 8.60144 8.30216V6.34343V5.80177V2.69515C8.57757 2.31704 8.20749 2.00024 7.75387 2.00024Z" fill="url(#paint18_radial_1107_5605)"/>
<path d="M7.75387 2.00024C7.30024 2.00024 6.94213 2.31704 6.94213 2.69515V5.88537C6.94213 6.08975 6.75112 6.24301 6.5243 6.24301C6.28556 6.24301 6.10651 6.07953 6.10651 5.88537V2.7258C6.10651 2.34769 5.76032 2.01047 5.31863 2.00024C4.85307 1.99002 4.47106 2.30681 4.47106 2.69515V5.88537C4.47106 6.08975 4.28007 6.24301 4.05325 6.24301C3.81451 6.24301 3.63543 6.07953 3.63543 5.88537V2.7258C3.63543 2.34769 3.28924 2.01047 2.84755 2.00024C2.38199 1.99002 2 2.30681 2 2.69515V5.80177V6.34343V8.30216C2 10.279 4.0413 10.8147 4.0413 12.2124V24.7223C4.0413 25.4015 4.61494 25.9998 5.30072 25.9998C5.98648 25.9998 6.56012 25.4015 6.56012 24.7223C6.56012 24.7223 6.56012 13.6599 6.56012 12.2124C6.56012 10.765 8.60144 10.2941 8.60144 8.30216V6.34343V5.80177V2.69515C8.57757 2.31704 8.20749 2.00024 7.75387 2.00024Z" fill="url(#paint19_radial_1107_5605)"/>
<path d="M7.74839 2.4961C7.37347 2.4961 7.31884 2.84354 7.31884 3.22165V5.80142C7.31884 6.41549 6.85162 6.56581 6.55772 6.56581C6.26382 6.56581 5.73631 6.40046 5.73631 5.80142V3.22165C5.73631 2.84354 5.68355 2.49612 5.36705 2.49612C5.05054 2.49612 4.97518 2.83329 4.97518 3.22163V5.80142C4.97518 6.21919 4.54563 6.56581 4.0558 6.56581C3.69408 6.56581 3.20425 6.3244 3.20425 5.80142V3.22165C3.20425 2.84354 3.13642 2.49609 2.81991 2.49609C2.50342 2.49609 2.43558 2.83332 2.43558 3.22165V5.80142V6.34307V8.30179C2.43558 10.2786 4.48534 10.8143 4.48534 12.2121V24.6768C4.48534 25.3561 4.70229 25.7365 5.26908 25.7365C5.83585 25.7365 6.15832 25.4012 6.15832 24.722C6.15832 24.722 6.15832 13.6596 6.15832 12.2121C6.15832 10.7647 8.22315 10.2937 8.22315 8.30179V6.34307V5.80142L8.14779 3.22163C8.12806 2.84352 8.1233 2.4961 7.74839 2.4961Z" fill="url(#paint20_linear_1107_5605)"/>
<path d="M7.74839 2.4961C7.37347 2.4961 7.31884 2.84354 7.31884 3.22165V5.80142C7.31884 6.41549 6.85162 6.56581 6.55772 6.56581C6.26382 6.56581 5.73631 6.40046 5.73631 5.80142V3.22165C5.73631 2.84354 5.68355 2.49612 5.36705 2.49612C5.05054 2.49612 4.97518 2.83329 4.97518 3.22163V5.80142C4.97518 6.21919 4.54563 6.56581 4.0558 6.56581C3.69408 6.56581 3.20425 6.3244 3.20425 5.80142V3.22165C3.20425 2.84354 3.13642 2.49609 2.81991 2.49609C2.50342 2.49609 2.43558 2.83332 2.43558 3.22165V5.80142V6.34307V8.30179C2.43558 10.2786 4.48534 10.8143 4.48534 12.2121V24.6768C4.48534 25.3561 4.70229 25.7365 5.26908 25.7365C5.83585 25.7365 6.15832 25.4012 6.15832 24.722C6.15832 24.722 6.15832 13.6596 6.15832 12.2121C6.15832 10.7647 8.22315 10.2937 8.22315 8.30179V6.34307V5.80142L8.14779 3.22163C8.12806 2.84352 8.1233 2.4961 7.74839 2.4961Z" fill="url(#paint21_radial_1107_5605)"/>
<path d="M6.00987 12.1465V24.6814" stroke="#C3BDCF" stroke-width="0.842438" stroke-linecap="round"/>
<path d="M3.29112 2.8584C3.29112 2.75215 3.20474 2.66602 3.09819 2.66602C2.99165 2.66602 2.90527 2.75215 2.90527 2.8584H3.29112ZM3.94976 6.9022H4.14267V6.51743H3.94976V6.9022ZM2.90527 2.8584V5.55252H3.29112V2.8584H2.90527ZM2.90527 5.55252C2.90527 5.71741 2.94684 6.03729 3.0881 6.32326C3.23177 6.6141 3.49861 6.9022 3.94976 6.9022V6.51743C3.70006 6.51743 3.54112 6.36965 3.43422 6.15324C3.32491 5.93195 3.29112 5.67318 3.29112 5.55252H2.90527Z" fill="url(#paint22_linear_1107_5605)"/>
<path d="M5.76573 2.8584C5.76573 2.75215 5.67935 2.66602 5.5728 2.66602C5.46626 2.66602 5.37988 2.75215 5.37988 2.8584H5.76573ZM6.42436 6.9022H6.61728V6.51743H6.42436V6.9022ZM5.37988 2.8584V5.55252H5.76573V2.8584H5.37988ZM5.37988 5.55252C5.37988 5.71741 5.42145 6.03729 5.56271 6.32326C5.70638 6.6141 5.97322 6.9022 6.42436 6.9022V6.51743C6.17467 6.51743 6.01573 6.36965 5.90883 6.15324C5.79952 5.93195 5.76573 5.67318 5.76573 5.55252H5.37988Z" fill="url(#paint23_linear_1107_5605)"/>
<path d="M8.11809 2.79883V8.20959C8.11809 9.03626 7.13842 10.2537 6.68628 10.6745" stroke="#C3BDCF" stroke-width="0.67395" stroke-linecap="round"/>
<path d="M3.02598 2.93349C3.16332 2.93349 3.27466 2.82246 3.27466 2.68549C3.27466 2.54853 3.16332 2.4375 3.02598 2.4375C2.88863 2.4375 2.77729 2.54853 2.77729 2.68549C2.77729 2.82246 2.88863 2.93349 3.02598 2.93349Z" fill="#E0DCE8"/>
<path d="M5.55145 2.93349C5.68879 2.93349 5.80013 2.82246 5.80013 2.68549C5.80013 2.54853 5.68879 2.4375 5.55145 2.4375C5.4141 2.4375 5.30276 2.54853 5.30276 2.68549C5.30276 2.82246 5.4141 2.93349 5.55145 2.93349Z" fill="#E0DCE8"/>
<path d="M7.97622 2.93349C8.11357 2.93349 8.22491 2.82246 8.22491 2.68549C8.22491 2.54853 8.11357 2.4375 7.97622 2.4375C7.83888 2.4375 7.72754 2.54853 7.72754 2.68549C7.72754 2.82246 7.83888 2.93349 7.97622 2.93349Z" fill="#E0DCE8"/>
<defs>
<linearGradient id="paint0_linear_1107_5605" x1="14.9711" y1="2.93359" x2="16.1739" y2="24.0918" gradientUnits="userSpaceOnUse">
<stop offset="0.115334" stop-color="#BCBBC4"/>
<stop offset="0.227922" stop-color="#8F8D9B"/>
<stop offset="0.689257" stop-color="#A8A0BC"/>
<stop offset="0.766146" stop-color="#BFA1E2"/>
</linearGradient>
<radialGradient id="paint1_radial_1107_5605" cx="0" cy="0" r="1" gradientUnits="userSpaceOnUse" gradientTransform="translate(21.3217 4.7347) rotate(115.868) scale(5.87585 9.36274)">
<stop stop-color="#DADAE0"/>
<stop offset="1" stop-color="#D7D6DE" stop-opacity="0"/>
</radialGradient>
<radialGradient id="paint2_radial_1107_5605" cx="0" cy="0" r="1" gradientUnits="userSpaceOnUse" gradientTransform="translate(8.5702 19.0906) rotate(-42.254) scale(15.557 15.5529)">
<stop stop-color="#EAE0FD"/>
<stop offset="1" stop-color="#E7DDF9" stop-opacity="0"/>
</radialGradient>
<radialGradient id="paint3_radial_1107_5605" cx="0" cy="0" r="1" gradientUnits="userSpaceOnUse" gradientTransform="translate(20.4329 4.51526) rotate(114.504) scale(3.47447 6.51593)">
<stop stop-color="#E5E3EF"/>
<stop offset="1" stop-color="#E5E3EF" stop-opacity="0"/>
</radialGradient>
<radialGradient id="paint4_radial_1107_5605" cx="0" cy="0" r="1" gradientUnits="userSpaceOnUse" gradientTransform="translate(14.9714 14.901) rotate(82.978) scale(9.89321 11.3601)">
<stop offset="0.596424" stop-color="#DACEF3"/>
<stop offset="0.754428" stop-color="#CCB9EB"/>
<stop offset="0.962131" stop-color="#BCA7DC"/>
</radialGradient>
<radialGradient id="paint5_radial_1107_5605" cx="0" cy="0" r="1" gradientUnits="userSpaceOnUse" gradientTransform="translate(19.8655 8.39376) rotate(142.316) scale(17.9632 17.1331)">
<stop offset="0.476664" stop-color="#DACEF3" stop-opacity="0"/>
<stop offset="0.693657" stop-color="#E9E2FD"/>
<stop offset="0.816307" stop-color="#EBE8FB"/>
<stop offset="0.962131" stop-color="#EAE7F9"/>
</radialGradient>
<radialGradient id="paint6_radial_1107_5605" cx="0" cy="0" r="1" gradientUnits="userSpaceOnUse" gradientTransform="translate(11.9418 9.14905) rotate(56.0752) scale(17.2249 19.7465)">
<stop offset="0.536739" stop-color="#DACEF3" stop-opacity="0"/>
<stop offset="0.754428" stop-color="#B9B5CA"/>
<stop offset="0.962131" stop-color="#B2AEC4"/>
</radialGradient>
<linearGradient id="paint7_linear_1107_5605" x1="28.9999" y1="8.75301" x2="24.2167" y2="8.75301" gradientUnits="userSpaceOnUse">
<stop stop-color="#C4C2CB"/>
<stop offset="0.0364583" stop-color="#CFC9D9"/>
<stop offset="0.514744" stop-color="#B9B1C7"/>
<stop offset="1" stop-color="#A398B4"/>
</linearGradient>
<radialGradient id="paint8_radial_1107_5605" cx="0" cy="0" r="1" gradientUnits="userSpaceOnUse" gradientTransform="translate(25.6637 14.4343) rotate(18.3872) scale(4.00243 2.05549)">
<stop stop-color="#9B89B3"/>
<stop offset="1" stop-color="#A28EBB" stop-opacity="0"/>
</radialGradient>
<radialGradient id="paint9_radial_1107_5605" cx="0" cy="0" r="1" gradientUnits="userSpaceOnUse" gradientTransform="translate(24.6086 2.50057) rotate(47.3066) scale(2.04491 8.01566)">
<stop stop-color="#94929A"/>
<stop offset="0.79896" stop-color="#A29EAB" stop-opacity="0"/>
</radialGradient>
<radialGradient id="paint10_radial_1107_5605" cx="0" cy="0" r="1" gradientUnits="userSpaceOnUse" gradientTransform="translate(28.3464 3.31219) rotate(136.299) scale(1.00069 1.56443)">
<stop stop-color="#D7D2E0"/>
<stop offset="1" stop-color="#E1DEE8" stop-opacity="0"/>
</radialGradient>
<linearGradient id="paint11_linear_1107_5605" x1="26.6111" y1="2.93555" x2="26.6111" y2="13.869" gradientUnits="userSpaceOnUse">
<stop stop-color="#C1B6D0"/>
<stop offset="0.818225" stop-color="#B4A9C5"/>
</linearGradient>
<linearGradient id="paint12_linear_1107_5605" x1="26.4502" y1="20.8976" x2="28.9988" y2="20.8976" gradientUnits="userSpaceOnUse">
<stop stop-color="#7E748E"/>
<stop offset="0.359375" stop-color="#A69BB8"/>
<stop offset="0.734375" stop-color="#CBC4D9"/>
<stop offset="1" stop-color="#C4C1CC"/>
</linearGradient>
<radialGradient id="paint13_radial_1107_5605" cx="0" cy="0" r="1" gradientUnits="userSpaceOnUse" gradientTransform="translate(27.7245 26.0003) rotate(90) scale(2.14176 6.31657)">
<stop stop-color="#8B72A8"/>
<stop offset="0.733334" stop-color="#AE9AC8" stop-opacity="0"/>
</radialGradient>
<linearGradient id="paint14_linear_1107_5605" x1="27.7245" y1="14.7207" x2="27.7245" y2="14.9158" gradientUnits="userSpaceOnUse">
<stop stop-color="#8E80A3"/>
<stop offset="1" stop-color="#8D80A2" stop-opacity="0"/>
</linearGradient>
<linearGradient id="paint15_linear_1107_5605" x1="2" y1="4.84524" x2="10.438" y2="6.71886" gradientUnits="userSpaceOnUse">
<stop stop-color="#8B8893"/>
<stop offset="0.590491" stop-color="#938DA0"/>
<stop offset="0.838799" stop-color="#AFA3C1"/>
<stop offset="1" stop-color="#ACA0C0"/>
</linearGradient>
<radialGradient id="paint16_radial_1107_5605" cx="0" cy="0" r="1" gradientUnits="userSpaceOnUse" gradientTransform="translate(3.23589 2.44045) rotate(41.3446) scale(0.682571 0.833461)">
<stop stop-color="#C9C7D0"/>
<stop offset="1" stop-color="#CDCAD5" stop-opacity="0"/>
</radialGradient>
<radialGradient id="paint17_radial_1107_5605" cx="0" cy="0" r="1" gradientUnits="userSpaceOnUse" gradientTransform="translate(5.64737 2.27513) rotate(39.1291) scale(0.738312 0.901332)">
<stop stop-color="#C9C7D0"/>
<stop offset="1" stop-color="#CDCAD5" stop-opacity="0"/>
</radialGradient>
<radialGradient id="paint18_radial_1107_5605" cx="0" cy="0" r="1" gradientUnits="userSpaceOnUse" gradientTransform="translate(8.16435 2.26009) rotate(48.6123) scale(0.661093 0.807802)">
<stop stop-color="#C9C7D0"/>
<stop offset="1" stop-color="#CDCAD5" stop-opacity="0"/>
</radialGradient>
<radialGradient id="paint19_radial_1107_5605" cx="0" cy="0" r="1" gradientUnits="userSpaceOnUse" gradientTransform="translate(5.30073 25.9998) rotate(90) scale(1.2099 3.96388)">
<stop stop-color="#8F78AB"/>
<stop offset="1" stop-color="#9883B3" stop-opacity="0"/>
</radialGradient>
<linearGradient id="paint20_linear_1107_5605" x1="4.3497" y1="2.98116" x2="5.32394" y2="25.7366" gradientUnits="userSpaceOnUse">
<stop offset="0.142713" stop-color="#B4AAC2"/>
<stop offset="1" stop-color="#B5A9C8"/>
</linearGradient>
<radialGradient id="paint21_radial_1107_5605" cx="0" cy="0" r="1" gradientUnits="userSpaceOnUse" gradientTransform="translate(5.32936 26.007) rotate(90) scale(1.20239 9.08829)">
<stop stop-color="#8F78AB"/>
<stop offset="1" stop-color="#A493BC" stop-opacity="0"/>
</radialGradient>
<linearGradient id="paint22_linear_1107_5605" x1="3.29413" y1="3.1327" x2="4.82392" y2="7.34386" gradientUnits="userSpaceOnUse">
<stop offset="0.411738" stop-color="#C0B9CC"/>
<stop offset="1" stop-color="#C0B9CC" stop-opacity="0"/>
</linearGradient>
<linearGradient id="paint23_linear_1107_5605" x1="5.76874" y1="3.1327" x2="7.29852" y2="7.34386" gradientUnits="userSpaceOnUse">
<stop offset="0.411738" stop-color="#C0B9CC"/>
<stop offset="1" stop-color="#C0B9CC" stop-opacity="0"/>
</linearGradient>
</defs>
</svg>
