<svg width="40" height="40" viewBox="0 0 40 40" fill="none" xmlns="http://www.w3.org/2000/svg">
<path d="M5.8337 16.3341C5.8337 9.42014 5.8337 5.96318 7.90836 3.8153C9.98302 1.66741 13.3221 1.66741 20.0004 1.66741C26.6786 1.66741 30.0177 1.66741 32.0924 3.8153C34.167 5.96318 34.167 9.42015 34.167 16.3341V23.6674C34.167 30.5813 34.167 34.0383 32.0924 36.1862C30.0177 38.3341 26.6786 38.3341 20.0004 38.3341C13.3221 38.3341 9.98302 38.3341 7.90836 36.1862C5.8337 34.0383 5.8337 30.5813 5.8337 23.6674V16.3341Z" stroke="#222222" stroke-width="1.71429"/>
<path d="M20.1667 33.3326H20" stroke="#222222" stroke-width="2.28571" stroke-linecap="round"/>
<path d="M16.5015 6.66741H16.3348" stroke="#222222" stroke-width="1.37143" stroke-linecap="round"/>
<path d="M24.6674 6.66741H19.6674" stroke="#222222" stroke-width="1.37143" stroke-linecap="round"/>
</svg>
