<svg width="172" height="172" viewBox="0 0 172 172" fill="none" xmlns="http://www.w3.org/2000/svg">
<mask id="path-1-inside-1_762_6287" fill="white">
<path d="M86 3.01C86 1.34762 87.3481 -0.00550148 89.0094 0.0526687C99.2764 0.412154 109.405 2.60874 118.911 6.54636C129.345 10.8683 138.825 17.203 146.811 25.1888C154.797 33.1747 161.132 42.6552 165.454 53.0892C169.391 62.5955 171.588 72.7236 171.947 82.9906C172.006 84.6519 170.652 86 168.99 86C167.328 86 165.986 84.6519 165.923 82.9907C165.567 73.5145 163.527 64.1688 159.892 55.393C155.873 45.6894 149.981 36.8724 142.554 29.4456C135.128 22.0188 126.311 16.1275 116.607 12.1081C107.831 8.47304 98.4855 6.43342 89.0093 6.07663C87.3481 6.01408 86 4.67237 86 3.01Z"/>
</mask>
<path d="M86 3.01C86 1.34762 87.3481 -0.00550148 89.0094 0.0526687C99.2764 0.412154 109.405 2.60874 118.911 6.54636C129.345 10.8683 138.825 17.203 146.811 25.1888C154.797 33.1747 161.132 42.6552 165.454 53.0892C169.391 62.5955 171.588 72.7236 171.947 82.9906C172.006 84.6519 170.652 86 168.99 86C167.328 86 165.986 84.6519 165.923 82.9907C165.567 73.5145 163.527 64.1688 159.892 55.393C155.873 45.6894 149.981 36.8724 142.554 29.4456C135.128 22.0188 126.311 16.1275 116.607 12.1081C107.831 8.47304 98.4855 6.43342 89.0093 6.07663C87.3481 6.01408 86 4.67237 86 3.01Z" stroke="#54BA54" stroke-width="12" mask="url(#path-1-inside-1_762_6287)"/>
<circle cx="86" cy="86" r="79" fill="#9CDA9C"/>
<path fill-rule="evenodd" clip-rule="evenodd" d="M35.0399 78.2923C34.8521 78.2264 34.6458 78.2378 34.4664 78.324C34.2871 78.4102 34.1493 78.5641 34.0834 78.7518C34.0175 78.9396 34.0288 79.1459 34.115 79.3253C34.2012 79.5046 34.3551 79.6424 34.5429 79.7083L34.8039 79.7993C35.4719 80.0343 35.9109 80.1893 36.2339 80.3483C36.5369 80.4973 36.6699 80.6183 36.7579 80.7463C36.8479 80.8783 36.9179 81.0603 36.9579 81.4233C36.9979 81.8033 36.9999 82.2983 36.9999 83.0383V85.6403C36.9999 88.5823 37.0629 89.5523 37.9299 90.4663C38.7959 91.3803 40.1899 91.3803 42.9799 91.3803H48.2819C49.8429 91.3803 50.6239 91.3803 51.1749 90.9303C51.7269 90.4803 51.8849 89.7163 52.1999 88.1883L52.6999 85.7633C53.0469 84.0233 53.2199 83.1543 52.7759 82.5773C52.3319 82.0003 50.8159 82.0003 49.1309 82.0003H38.4919C38.4876 81.7539 38.4733 81.5077 38.4489 81.2623C38.3949 80.7653 38.2789 80.3123 37.9969 79.9003C37.7129 79.4843 37.3349 79.2183 36.8939 79.0013C36.4819 78.7993 35.9579 78.6153 35.3419 78.3983L35.0399 78.2923ZM47.5169 84.4573C47.8169 84.7433 47.8289 85.2173 47.5429 85.5173L44.6859 88.5173C44.6158 88.5909 44.5316 88.6494 44.4382 88.6894C44.3449 88.7294 44.2444 88.75 44.1429 88.75C44.0413 88.75 43.9408 88.7294 43.8475 88.6894C43.7542 88.6494 43.6699 88.5909 43.5999 88.5173L42.4569 87.3173C42.386 87.2466 42.3301 87.1624 42.2923 87.0698C42.2545 86.9771 42.2356 86.8778 42.2368 86.7777C42.238 86.6776 42.2592 86.5788 42.2992 86.487C42.3391 86.3952 42.3971 86.3124 42.4696 86.2434C42.5421 86.1744 42.6276 86.1206 42.7212 86.0851C42.8149 86.0497 42.9146 86.0334 43.0146 86.0371C43.1147 86.0408 43.2129 86.0645 43.3036 86.1068C43.3944 86.1491 43.4757 86.2091 43.5429 86.2833L44.1429 86.9133L46.4569 84.4833C46.594 84.3394 46.7827 84.2558 46.9815 84.2509C47.1802 84.246 47.3728 84.3203 47.5169 84.4573Z" fill="white"/>
<path d="M39.5 94C39.8978 94 40.2794 94.158 40.5607 94.4393C40.842 94.7206 41 95.1022 41 95.5C41 95.8978 40.842 96.2794 40.5607 96.5607C40.2794 96.842 39.8978 97 39.5 97C39.1022 97 38.7206 96.842 38.4393 96.5607C38.158 96.2794 38 95.8978 38 95.5C38 95.1022 38.158 94.7206 38.4393 94.4393C38.7206 94.158 39.1022 94 39.5 94ZM48.5 94C48.8978 94 49.2794 94.158 49.5607 94.4393C49.842 94.7206 50 95.1022 50 95.5C50 95.8978 49.842 96.2794 49.5607 96.5607C49.2794 96.842 48.8978 97 48.5 97C48.1022 97 47.7206 96.842 47.4393 96.5607C47.158 96.2794 47 95.8978 47 95.5C47 95.1022 47.158 94.7206 47.4393 94.4393C47.7206 94.158 48.1022 94 48.5 94Z" fill="white"/>
<path d="M67.0404 95C66.7471 95 66.5204 94.9267 66.3604 94.78C66.2137 94.62 66.1404 94.3933 66.1404 94.1V81.8C66.1404 81.5067 66.2137 81.2867 66.3604 81.14C66.5204 80.98 66.7471 80.9 67.0404 80.9H74.4804C74.7071 80.9 74.8804 80.96 75.0004 81.08C75.1204 81.2 75.1804 81.3667 75.1804 81.58C75.1804 81.8067 75.1204 81.98 75.0004 82.1C74.8804 82.22 74.7071 82.28 74.4804 82.28H67.7404V87.16H74.0604C74.2871 87.16 74.4604 87.22 74.5804 87.34C74.7004 87.4467 74.7604 87.6133 74.7604 87.84C74.7604 88.0667 74.7004 88.24 74.5804 88.36C74.4604 88.48 74.2871 88.54 74.0604 88.54H67.7404V93.62H74.4804C74.7071 93.62 74.8804 93.68 75.0004 93.8C75.1204 93.92 75.1804 94.0867 75.1804 94.3C75.1804 94.5267 75.1204 94.7 75.0004 94.82C74.8804 94.94 74.7071 95 74.4804 95H67.0404ZM82.0605 95.18C80.4472 95.18 79.2205 94.56 78.3805 93.32C77.5405 92.08 77.1205 90.2867 77.1205 87.94C77.1205 86.3667 77.3072 85.0467 77.6805 83.98C78.0539 82.9 78.6072 82.0867 79.3405 81.54C80.0872 80.9933 80.9939 80.72 82.0605 80.72C83.6872 80.72 84.9139 81.3333 85.7405 82.56C86.5805 83.7733 87.0005 85.56 87.0005 87.92C87.0005 89.4933 86.8139 90.82 86.4405 91.9C86.0672 92.98 85.5139 93.8 84.7805 94.36C84.0472 94.9067 83.1405 95.18 82.0605 95.18ZM82.0605 93.76C83.1805 93.76 84.0072 93.2867 84.5405 92.34C85.0872 91.38 85.3605 89.9067 85.3605 87.92C85.3605 85.92 85.0872 84.46 84.5405 83.54C84.0072 82.6067 83.1805 82.14 82.0605 82.14C80.9539 82.14 80.1272 82.6067 79.5805 83.54C79.0339 84.4733 78.7605 85.9333 78.7605 87.92C78.7605 89.9067 79.0339 91.38 79.5805 92.34C80.1272 93.2867 80.9539 93.76 82.0605 93.76ZM96.4127 95.14C96.1594 95.14 95.9594 95.0667 95.8127 94.92C95.6661 94.7733 95.5927 94.5667 95.5927 94.3V91.98H89.8527C89.5861 91.98 89.3727 91.92 89.2127 91.8C89.0661 91.6667 88.9927 91.48 88.9927 91.24C88.9927 91.0933 89.0261 90.9467 89.0927 90.8C89.1594 90.64 89.2794 90.44 89.4527 90.2L95.5527 81.32C95.6727 81.1333 95.8061 80.9933 95.9527 80.9C96.0994 80.8067 96.2727 80.76 96.4727 80.76C96.6861 80.76 96.8661 80.8267 97.0127 80.96C97.1727 81.0933 97.2527 81.3067 97.2527 81.6V90.58H98.7127C98.9661 90.58 99.1594 90.64 99.2927 90.76C99.4261 90.88 99.4927 91.0533 99.4927 91.28C99.4927 91.5067 99.4261 91.68 99.2927 91.8C99.1594 91.92 98.9661 91.98 98.7127 91.98H97.2527V94.3C97.2527 94.5667 97.1794 94.7733 97.0327 94.92C96.8861 95.0667 96.6794 95.14 96.4127 95.14ZM95.5927 90.58V82.82H96.0727L90.4727 91.02V90.58H95.5927ZM101.485 95.14C101.272 95.14 101.098 95.0933 100.965 95C100.845 94.8933 100.772 94.76 100.745 94.6C100.732 94.4267 100.772 94.2333 100.865 94.02L106.365 81.5C106.485 81.2333 106.625 81.0467 106.785 80.94C106.958 80.82 107.145 80.76 107.345 80.76C107.545 80.76 107.725 80.82 107.885 80.94C108.058 81.0467 108.198 81.2333 108.305 81.5L113.825 94.02C113.932 94.2333 113.972 94.4267 113.945 94.6C113.932 94.7733 113.865 94.9067 113.745 95C113.625 95.0933 113.458 95.14 113.245 95.14C113.005 95.14 112.812 95.08 112.665 94.96C112.518 94.8267 112.398 94.64 112.305 94.4L110.825 90.98L111.625 91.4H103.025L103.845 90.98L102.385 94.4C102.265 94.6533 102.138 94.84 102.005 94.96C101.872 95.08 101.698 95.14 101.485 95.14ZM107.325 82.82L104.105 90.4L103.625 90.02H111.025L110.585 90.4L107.365 82.82H107.325ZM120.615 95.18C119.002 95.18 117.775 94.56 116.935 93.32C116.095 92.08 115.675 90.2867 115.675 87.94C115.675 86.3667 115.862 85.0467 116.235 83.98C116.609 82.9 117.162 82.0867 117.895 81.54C118.642 80.9933 119.549 80.72 120.615 80.72C122.242 80.72 123.469 81.3333 124.295 82.56C125.135 83.7733 125.555 85.56 125.555 87.92C125.555 89.4933 125.369 90.82 124.995 91.9C124.622 92.98 124.069 93.8 123.335 94.36C122.602 94.9067 121.695 95.18 120.615 95.18ZM120.615 93.76C121.735 93.76 122.562 93.2867 123.095 92.34C123.642 91.38 123.915 89.9067 123.915 87.92C123.915 85.92 123.642 84.46 123.095 83.54C122.562 82.6067 121.735 82.14 120.615 82.14C119.509 82.14 118.682 82.6067 118.135 83.54C117.589 84.4733 117.315 85.9333 117.315 87.92C117.315 89.9067 117.589 91.38 118.135 92.34C118.682 93.2867 119.509 93.76 120.615 93.76ZM129.707 95C129.467 95 129.281 94.94 129.147 94.82C129.014 94.6867 128.947 94.5067 128.947 94.28C128.947 94.0533 129.014 93.8867 129.147 93.78C129.281 93.66 129.467 93.6 129.707 93.6H132.307V82.26H133.167L130.267 84.18C130.094 84.2733 129.927 84.3133 129.767 84.3C129.621 84.2867 129.494 84.2333 129.387 84.14C129.294 84.0333 129.227 83.9133 129.187 83.78C129.147 83.6333 129.154 83.4867 129.207 83.34C129.261 83.18 129.374 83.0467 129.547 82.94L132.307 81.12C132.481 81.0133 132.647 80.9267 132.807 80.86C132.967 80.7933 133.127 80.76 133.287 80.76C133.474 80.76 133.627 80.82 133.747 80.94C133.881 81.0467 133.947 81.22 133.947 81.46V93.6H136.347C136.587 93.6 136.774 93.66 136.907 93.78C137.041 93.8867 137.107 94.0533 137.107 94.28C137.107 94.52 137.041 94.7 136.907 94.82C136.774 94.94 136.587 95 136.347 95H129.707Z" fill="white"/>
<path d="M62.3833 118.333C61.9167 117.35 60.9167 116.667 59.75 116.667H56V115H66V116.667H63.2833C63.6833 117.15 63.9833 117.717 64.1583 118.333H66V120H64.3167C64.1083 122.333 62.1417 124.167 59.75 124.167H59.1417L64.75 130H62.4417L56.8333 124.167V122.5H59.75C61.2167 122.5 62.4333 121.417 62.6333 120H56V118.333H62.3833Z" fill="white"/>
<path d="M79.6002 129.14C79.3469 129.14 79.1469 129.067 79.0002 128.92C78.8536 128.773 78.7802 128.567 78.7802 128.3V125.98H73.0402C72.7736 125.98 72.5602 125.92 72.4002 125.8C72.2536 125.667 72.1802 125.48 72.1802 125.24C72.1802 125.093 72.2136 124.947 72.2802 124.8C72.3469 124.64 72.4669 124.44 72.6402 124.2L78.7402 115.32C78.8602 115.133 78.9936 114.993 79.1402 114.9C79.2869 114.807 79.4602 114.76 79.6602 114.76C79.8736 114.76 80.0536 114.827 80.2002 114.96C80.3602 115.093 80.4402 115.307 80.4402 115.6V124.58H81.9002C82.1536 124.58 82.3469 124.64 82.4802 124.76C82.6136 124.88 82.6802 125.053 82.6802 125.28C82.6802 125.507 82.6136 125.68 82.4802 125.8C82.3469 125.92 82.1536 125.98 81.9002 125.98H80.4402V128.3C80.4402 128.567 80.3669 128.773 80.2202 128.92C80.0736 129.067 79.8669 129.14 79.6002 129.14ZM78.7802 124.58V116.82H79.2602L73.6602 125.02V124.58H78.7802ZM85.7124 130.9C85.5791 131.073 85.4391 131.173 85.2924 131.2C85.1458 131.227 85.0191 131.2 84.9124 131.12C84.8058 131.04 84.7458 130.927 84.7324 130.78C84.7324 130.633 84.7991 130.473 84.9324 130.3C85.1458 130.02 85.2924 129.733 85.3724 129.44C85.4524 129.16 85.4924 128.9 85.4924 128.66L85.5724 129.08C85.2258 129.08 84.9458 128.98 84.7324 128.78C84.5324 128.567 84.4324 128.3 84.4324 127.98C84.4324 127.66 84.5258 127.4 84.7124 127.2C84.9124 126.987 85.1724 126.88 85.4924 126.88C85.8391 126.88 86.1124 127 86.3124 127.24C86.5124 127.467 86.6124 127.8 86.6124 128.24C86.6124 128.52 86.5858 128.807 86.5324 129.1C86.4791 129.407 86.3858 129.713 86.2524 130.02C86.1191 130.327 85.9391 130.62 85.7124 130.9ZM93.7832 129.18C92.7299 129.18 91.8232 129.027 91.0632 128.72C90.3165 128.413 89.7432 127.967 89.3432 127.38C88.9565 126.793 88.7632 126.087 88.7632 125.26C88.7632 124.607 88.8965 124.027 89.1632 123.52C89.4299 123 89.8032 122.58 90.2832 122.26C90.7632 121.94 91.3165 121.74 91.9432 121.66V121.96C91.0765 121.773 90.3832 121.367 89.8632 120.74C89.3565 120.1 89.1032 119.347 89.1032 118.48C89.1032 117.68 89.2899 117.007 89.6632 116.46C90.0499 115.9 90.5965 115.473 91.3032 115.18C92.0099 114.873 92.8365 114.72 93.7832 114.72C94.7432 114.72 95.5699 114.873 96.2632 115.18C96.9699 115.473 97.5165 115.9 97.9032 116.46C98.2899 117.007 98.4832 117.68 98.4832 118.48C98.4832 119.053 98.3632 119.587 98.1232 120.08C97.8965 120.56 97.5699 120.96 97.1432 121.28C96.7165 121.6 96.2165 121.82 95.6432 121.94V121.66C96.5899 121.793 97.3499 122.187 97.9232 122.84C98.5099 123.48 98.8032 124.287 98.8032 125.26C98.8032 126.087 98.6032 126.793 98.2032 127.38C97.8165 127.967 97.2432 128.413 96.4832 128.72C95.7365 129.027 94.8365 129.18 93.7832 129.18ZM93.7832 127.82C94.9165 127.82 95.7699 127.6 96.3432 127.16C96.9299 126.72 97.2232 126.053 97.2232 125.16C97.2232 124.28 96.9299 123.627 96.3432 123.2C95.7699 122.76 94.9165 122.54 93.7832 122.54C92.6632 122.54 91.8099 122.76 91.2232 123.2C90.6365 123.627 90.3432 124.28 90.3432 125.16C90.3432 126.053 90.6365 126.72 91.2232 127.16C91.8099 127.6 92.6632 127.82 93.7832 127.82ZM93.7832 121.18C94.4365 121.18 94.9899 121.08 95.4432 120.88C95.9099 120.667 96.2699 120.367 96.5232 119.98C96.7765 119.593 96.9032 119.14 96.9032 118.62C96.9032 117.82 96.6232 117.2 96.0632 116.76C95.5165 116.307 94.7565 116.08 93.7832 116.08C92.8099 116.08 92.0499 116.307 91.5032 116.76C90.9565 117.2 90.6832 117.82 90.6832 118.62C90.6832 119.42 90.9565 120.047 91.5032 120.5C92.0499 120.953 92.8099 121.18 93.7832 121.18ZM105.775 129.18C104.162 129.18 102.935 128.56 102.095 127.32C101.255 126.08 100.835 124.287 100.835 121.94C100.835 120.367 101.022 119.047 101.395 117.98C101.769 116.9 102.322 116.087 103.055 115.54C103.802 114.993 104.709 114.72 105.775 114.72C107.402 114.72 108.629 115.333 109.455 116.56C110.295 117.773 110.715 119.56 110.715 121.92C110.715 123.493 110.529 124.82 110.155 125.9C109.782 126.98 109.229 127.8 108.495 128.36C107.762 128.907 106.855 129.18 105.775 129.18ZM105.775 127.76C106.895 127.76 107.722 127.287 108.255 126.34C108.802 125.38 109.075 123.907 109.075 121.92C109.075 119.92 108.802 118.46 108.255 117.54C107.722 116.607 106.895 116.14 105.775 116.14C104.669 116.14 103.842 116.607 103.295 117.54C102.749 118.473 102.475 119.933 102.475 121.92C102.475 123.907 102.749 125.38 103.295 126.34C103.842 127.287 104.669 127.76 105.775 127.76ZM117.768 129.18C116.154 129.18 114.928 128.56 114.088 127.32C113.248 126.08 112.828 124.287 112.828 121.94C112.828 120.367 113.014 119.047 113.388 117.98C113.761 116.9 114.314 116.087 115.048 115.54C115.794 114.993 116.701 114.72 117.768 114.72C119.394 114.72 120.621 115.333 121.448 116.56C122.288 117.773 122.708 119.56 122.708 121.92C122.708 123.493 122.521 124.82 122.148 125.9C121.774 126.98 121.221 127.8 120.488 128.36C119.754 128.907 118.848 129.18 117.768 129.18ZM117.768 127.76C118.888 127.76 119.714 127.287 120.248 126.34C120.794 125.38 121.068 123.907 121.068 121.92C121.068 119.92 120.794 118.46 120.248 117.54C119.714 116.607 118.888 116.14 117.768 116.14C116.661 116.14 115.834 116.607 115.288 117.54C114.741 118.473 114.468 119.933 114.468 121.92C114.468 123.907 114.741 125.38 115.288 126.34C115.834 127.287 116.661 127.76 117.768 127.76Z" fill="white"/>
<path d="M65.7246 33.4473H66.5723C66.6361 33.5475 66.6816 33.6204 66.709 33.666C66.9642 34.1035 67.1602 34.3906 67.2969 34.5273C67.4154 34.5638 68.0397 34.582 69.1699 34.582C69.8717 34.582 70.4961 34.5775 71.043 34.5684L71.3164 34.5273L72.9707 34.5137L76.0605 34.541H80.2852L81.0918 34.418C81.2103 34.3359 81.3379 34.1172 81.4746 33.7617C81.5111 33.6797 81.5612 33.5658 81.625 33.4199L82.2266 33.4062C82.3177 33.4062 82.4544 33.4108 82.6367 33.4199C82.6458 34.0488 82.6504 34.9967 82.6504 36.2637L82.6641 37.4805L82.6504 38.1777C82.6504 38.4147 82.6322 38.6198 82.5957 38.793C82.222 38.9115 81.8939 38.9844 81.6113 39.0117C81.3743 38.6562 81.1146 38.1413 80.832 37.4668C80.5586 36.7923 80.3854 36.4186 80.3125 36.3457C80.2031 36.2272 80.0755 36.1497 79.9297 36.1133C79.7109 36.0677 78.7448 36.0449 77.0312 36.0449C76.776 36.0449 76.457 36.0632 76.0742 36.0996C76.0195 36.4551 75.9922 36.7467 75.9922 36.9746L76.0059 38.8066V42.8262L76.0605 47.1602L76.0469 48.9375C76.0469 49.5664 76.1016 50.0404 76.2109 50.3594C76.3568 50.4232 76.6257 50.4824 77.0176 50.5371C77.0905 50.5462 77.4277 50.6191 78.0293 50.7559C78.3027 50.8197 78.5443 50.8926 78.7539 50.9746C78.7995 51.3027 78.8223 51.5033 78.8223 51.5762C78.8223 51.6582 78.8086 51.7767 78.7812 51.9316C78.5807 51.9408 78.4167 51.9453 78.2891 51.9453C77.3503 51.9453 76.5527 51.9134 75.8965 51.8496C75.2402 51.7767 74.0508 51.7402 72.3281 51.7402C72.0547 51.7402 71.2526 51.7949 69.9219 51.9043C69.4023 51.9408 69.0651 51.959 68.9102 51.959C68.901 51.8223 68.8919 51.7174 68.8828 51.6445L68.8691 51.3301V51.2207C69.0697 50.9564 69.4479 50.7604 70.0039 50.6328C70.9518 50.4049 71.6081 50.1999 71.9727 50.0176C72.0638 49.8444 72.1185 49.6165 72.1367 49.334C72.2005 48.2402 72.2324 46.4993 72.2324 44.1113L72.1641 38.9434C72.1641 37.5215 72.1367 36.6602 72.082 36.3594C72.0638 36.2773 72.0319 36.2181 71.9863 36.1816C71.9408 36.1361 71.877 36.1087 71.7949 36.0996C71.5124 36.0632 70.5918 36.0449 69.0332 36.0449C68.1764 36.0449 67.6022 36.127 67.3105 36.291C66.9186 36.5189 66.3307 37.1387 65.5469 38.1504C65.319 38.4421 65.1504 38.5879 65.041 38.5879C64.6217 38.3691 64.3529 38.1914 64.2344 38.0547C64.5169 37.4622 64.9089 36.2773 65.4102 34.5C65.556 33.9805 65.6608 33.6296 65.7246 33.4473ZM84.291 43.127C84.291 42.1243 84.3503 41.3405 84.4688 40.7754C84.7422 39.4173 85.0065 38.4329 85.2617 37.8223C85.6628 36.8743 86.1322 36.1087 86.6699 35.5254C87.2168 34.9329 87.8457 34.4863 88.5566 34.1855C88.9759 34.0033 89.5319 33.9121 90.2246 33.9121C91.0723 33.9121 91.8971 34.2083 92.6992 34.8008C93.5013 35.3932 94.2168 36.373 94.8457 37.7402C95.4746 39.0983 95.7891 40.8073 95.7891 42.8672C95.7891 44.3893 95.6159 45.8203 95.2695 47.1602C95.0508 47.9714 94.7363 48.7233 94.3262 49.416C93.9251 50.0996 93.5924 50.5736 93.3281 50.8379C92.8724 51.2845 92.3711 51.64 91.8242 51.9043C91.2773 52.1686 90.8353 52.3008 90.498 52.3008C89.5046 52.3008 88.748 52.2005 88.2285 52C87.709 51.8086 87.2077 51.4577 86.7246 50.9473C86.2507 50.4368 85.8223 49.7852 85.4395 48.9922C85.0658 48.1992 84.7969 47.4336 84.6328 46.6953C84.4049 45.6654 84.291 44.4759 84.291 43.127ZM87.832 44.9316C87.832 46.9368 87.8958 48.2949 88.0234 49.0059C88.151 49.7077 88.3926 50.2363 88.748 50.5918C89.1126 50.9382 89.4954 51.1113 89.8965 51.1113C90.3066 51.1113 90.6576 51.002 90.9492 50.7832C91.2409 50.5645 91.487 50.2227 91.6875 49.7578C91.8971 49.2839 92.043 48.541 92.125 47.5293C92.2617 45.8796 92.3301 44.6992 92.3301 43.9883L92.2891 42.1836V40.2559C92.2891 39.3444 92.2253 38.4967 92.0977 37.7129C91.9701 36.929 91.7969 36.3685 91.5781 36.0312C91.3685 35.6849 91.1133 35.4479 90.8125 35.3203C90.5208 35.1836 90.2383 35.1152 89.9648 35.1152C89.6276 35.1152 89.263 35.2839 88.8711 35.6211C88.4792 35.9492 88.1966 36.5553 88.0234 37.4395C87.8503 38.3236 87.7637 39.832 87.7637 41.9648L87.791 42.9355C87.8184 43.8743 87.832 44.5397 87.832 44.9316ZM102.256 33.9805C102.301 33.9805 102.611 33.9714 103.186 33.9531L103.623 33.9668L104.484 33.9805C104.521 34.2721 104.539 34.4863 104.539 34.623C104.539 34.6686 104.535 34.8099 104.525 35.0469C104.516 35.1745 104.507 35.6621 104.498 36.5098L104.471 38.5742L104.484 39.873L104.389 49.1016V49.8809C104.389 50.1543 104.452 50.3503 104.58 50.4688C104.708 50.5872 105.049 50.6875 105.605 50.7695C105.824 50.7969 106.262 50.8698 106.918 50.9883C106.936 51.0794 106.945 51.166 106.945 51.248C106.945 51.3483 106.936 51.5671 106.918 51.9043H106.33C105.929 51.9043 105.346 51.8861 104.58 51.8496C104.115 51.8223 103.796 51.8086 103.623 51.8086C103.404 51.8086 102.598 51.8314 101.203 51.877C101.048 51.8861 100.921 51.8906 100.82 51.8906H100.574L100.178 51.8633L99.8086 51.8906L99.125 51.8633C99.0339 51.8633 98.847 51.877 98.5645 51.9043C98.5462 51.7038 98.5371 51.5488 98.5371 51.4395C98.5371 51.3392 98.5462 51.1888 98.5645 50.9883C98.929 50.888 99.3529 50.7878 99.8359 50.6875C100.501 50.5508 100.907 50.4186 101.053 50.291C101.208 50.1543 101.285 49.9766 101.285 49.7578L101.271 48.8281L101.326 47.8164L101.312 45.7383L101.299 45.2051C101.299 45.1322 101.308 44.8587 101.326 44.3848C101.344 44.1387 101.354 43.9199 101.354 43.7285C101.354 43.61 101.34 43.2409 101.312 42.6211L101.367 41.8418C101.331 41.2493 101.312 40.8984 101.312 40.7891C101.312 40.6523 101.317 40.5156 101.326 40.3789L101.354 40.0371L101.312 39.1074L101.354 38.6836C101.363 38.4922 101.367 38.237 101.367 37.918C101.367 37.6081 101.363 37.2298 101.354 36.7832C100.706 37.2663 99.9681 37.7493 99.1387 38.2324C99.0475 38.2871 98.6374 38.474 97.9082 38.793C97.6165 38.3555 97.4297 38.0273 97.3477 37.8086C98.3138 37.3073 98.9701 36.9382 99.3164 36.7012C99.8906 36.3001 100.51 35.7988 101.176 35.1973C101.458 34.9329 101.818 34.5273 102.256 33.9805Z" fill="#278827"/>
</svg>
