<svg width="172" height="172" viewBox="0 0 172 172" fill="none" xmlns="http://www.w3.org/2000/svg">
<mask id="path-1-inside-1_762_6217" fill="white">
<path d="M172 86C172 133.496 133.496 172 86 172C38.5035 172 0 133.496 0 86C0 38.5035 38.5035 0 86 0C133.496 0 172 38.5035 172 86ZM6.02 86C6.02 130.172 41.8283 165.98 86 165.98C130.172 165.98 165.98 130.172 165.98 86C165.98 41.8283 130.172 6.02 86 6.02C41.8283 6.02 6.02 41.8283 6.02 86Z"/>
</mask>
<path d="M172 86C172 133.496 133.496 172 86 172C38.5035 172 0 133.496 0 86C0 38.5035 38.5035 0 86 0C133.496 0 172 38.5035 172 86ZM6.02 86C6.02 130.172 41.8283 165.98 86 165.98C130.172 165.98 165.98 130.172 165.98 86C165.98 41.8283 130.172 6.02 86 6.02C41.8283 6.02 6.02 41.8283 6.02 86Z" stroke="#FFEDCA" stroke-width="12" mask="url(#path-1-inside-1_762_6217)"/>
<circle cx="86" cy="86" r="79" fill="#F3CA79"/>
<path d="M64.7129 33.4473H65.5605C65.6243 33.5475 65.6699 33.6204 65.6973 33.666C65.9525 34.1035 66.1484 34.3906 66.2852 34.5273C66.4036 34.5638 67.028 34.582 68.1582 34.582C68.86 34.582 69.4844 34.5775 70.0312 34.5684L70.3047 34.5273L71.959 34.5137L75.0488 34.541H79.2734L80.0801 34.418C80.1986 34.3359 80.3262 34.1172 80.4629 33.7617C80.4993 33.6797 80.5495 33.5658 80.6133 33.4199L81.2148 33.4062C81.306 33.4062 81.4427 33.4108 81.625 33.4199C81.6341 34.0488 81.6387 34.9967 81.6387 36.2637L81.6523 37.4805L81.6387 38.1777C81.6387 38.4147 81.6204 38.6198 81.584 38.793C81.2103 38.9115 80.8822 38.9844 80.5996 39.0117C80.3626 38.6562 80.1029 38.1413 79.8203 37.4668C79.5469 36.7923 79.3737 36.4186 79.3008 36.3457C79.1914 36.2272 79.0638 36.1497 78.918 36.1133C78.6992 36.0677 77.7331 36.0449 76.0195 36.0449C75.7643 36.0449 75.4453 36.0632 75.0625 36.0996C75.0078 36.4551 74.9805 36.7467 74.9805 36.9746L74.9941 38.8066V42.8262L75.0488 47.1602L75.0352 48.9375C75.0352 49.5664 75.0898 50.0404 75.1992 50.3594C75.3451 50.4232 75.6139 50.4824 76.0059 50.5371C76.0788 50.5462 76.416 50.6191 77.0176 50.7559C77.291 50.8197 77.5326 50.8926 77.7422 50.9746C77.7878 51.3027 77.8105 51.5033 77.8105 51.5762C77.8105 51.6582 77.7969 51.7767 77.7695 51.9316C77.569 51.9408 77.4049 51.9453 77.2773 51.9453C76.3385 51.9453 75.541 51.9134 74.8848 51.8496C74.2285 51.7767 73.0391 51.7402 71.3164 51.7402C71.043 51.7402 70.2409 51.7949 68.9102 51.9043C68.3906 51.9408 68.0534 51.959 67.8984 51.959C67.8893 51.8223 67.8802 51.7174 67.8711 51.6445L67.8574 51.3301V51.2207C68.0579 50.9564 68.4362 50.7604 68.9922 50.6328C69.9401 50.4049 70.5964 50.1999 70.9609 50.0176C71.0521 49.8444 71.1068 49.6165 71.125 49.334C71.1888 48.2402 71.2207 46.4993 71.2207 44.1113L71.1523 38.9434C71.1523 37.5215 71.125 36.6602 71.0703 36.3594C71.0521 36.2773 71.0202 36.2181 70.9746 36.1816C70.929 36.1361 70.8652 36.1087 70.7832 36.0996C70.5007 36.0632 69.5801 36.0449 68.0215 36.0449C67.1647 36.0449 66.5905 36.127 66.2988 36.291C65.9069 36.5189 65.319 37.1387 64.5352 38.1504C64.3073 38.4421 64.1387 38.5879 64.0293 38.5879C63.61 38.3691 63.3411 38.1914 63.2227 38.0547C63.5052 37.4622 63.8971 36.2773 64.3984 34.5C64.5443 33.9805 64.6491 33.6296 64.7129 33.4473ZM83.2793 43.127C83.2793 42.1243 83.3385 41.3405 83.457 40.7754C83.7305 39.4173 83.9948 38.4329 84.25 37.8223C84.651 36.8743 85.1204 36.1087 85.6582 35.5254C86.2051 34.9329 86.834 34.4863 87.5449 34.1855C87.9642 34.0033 88.5202 33.9121 89.2129 33.9121C90.0605 33.9121 90.8854 34.2083 91.6875 34.8008C92.4896 35.3932 93.2051 36.373 93.834 37.7402C94.4629 39.0983 94.7773 40.8073 94.7773 42.8672C94.7773 44.3893 94.6042 45.8203 94.2578 47.1602C94.0391 47.9714 93.7246 48.7233 93.3145 49.416C92.9134 50.0996 92.5807 50.5736 92.3164 50.8379C91.8607 51.2845 91.3594 51.64 90.8125 51.9043C90.2656 52.1686 89.8236 52.3008 89.4863 52.3008C88.4928 52.3008 87.7363 52.2005 87.2168 52C86.6973 51.8086 86.196 51.4577 85.7129 50.9473C85.2389 50.4368 84.8105 49.7852 84.4277 48.9922C84.054 48.1992 83.7852 47.4336 83.6211 46.6953C83.3932 45.6654 83.2793 44.4759 83.2793 43.127ZM86.8203 44.9316C86.8203 46.9368 86.8841 48.2949 87.0117 49.0059C87.1393 49.7077 87.3809 50.2363 87.7363 50.5918C88.1009 50.9382 88.4837 51.1113 88.8848 51.1113C89.2949 51.1113 89.6458 51.002 89.9375 50.7832C90.2292 50.5645 90.4753 50.2227 90.6758 49.7578C90.8854 49.2839 91.0312 48.541 91.1133 47.5293C91.25 45.8796 91.3184 44.6992 91.3184 43.9883L91.2773 42.1836V40.2559C91.2773 39.3444 91.2135 38.4967 91.0859 37.7129C90.9583 36.929 90.7852 36.3685 90.5664 36.0312C90.3568 35.6849 90.1016 35.4479 89.8008 35.3203C89.5091 35.1836 89.2266 35.1152 88.9531 35.1152C88.6159 35.1152 88.2513 35.2839 87.8594 35.6211C87.4674 35.9492 87.1849 36.5553 87.0117 37.4395C86.8385 38.3236 86.752 39.832 86.752 41.9648L86.7793 42.9355C86.8066 43.8743 86.8203 44.5397 86.8203 44.9316ZM107.547 51.9453H106.125C105.788 51.9453 105.523 51.9408 105.332 51.9316C105.031 51.9225 104.849 51.918 104.785 51.918L103.855 51.959L103.609 51.9316C103.391 51.9043 103.122 51.8906 102.803 51.8906C102.502 51.8906 101.987 51.9043 101.258 51.9316C100.911 51.9408 100.702 51.9453 100.629 51.9453L99.248 51.918L97.0332 51.9453H96.1582V51.0156C97.4525 49.375 98.4232 48.2311 99.0703 47.584C99.7266 46.9277 100.656 45.8431 101.859 44.3301C102.698 43.291 103.272 42.3613 103.582 41.541C103.901 40.7207 104.061 40.0098 104.061 39.4082C104.061 38.7337 103.96 38.1276 103.76 37.5898C103.568 37.0521 103.222 36.6283 102.721 36.3184C102.229 36.0085 101.691 35.8535 101.107 35.8535C100.515 35.8535 99.9818 35.9993 99.5078 36.291C99.0339 36.5827 98.6875 36.9518 98.4688 37.3984C98.1315 38.0456 97.9264 38.7201 97.8535 39.4219H96.8555C96.8281 39.0299 96.8145 38.7018 96.8145 38.4375C96.8145 37.5534 97.1562 36.7057 97.8398 35.8945C98.8971 34.6367 100.387 34.0078 102.311 34.0078C103.915 34.0078 105.177 34.4635 106.098 35.375C107.018 36.2773 107.479 37.4167 107.479 38.793C107.479 39.3398 107.392 39.8548 107.219 40.3379C106.973 40.9941 106.672 41.5638 106.316 42.0469C105.97 42.5299 105.008 43.5599 103.432 45.1367C102.292 46.276 100.866 47.625 99.1523 49.1836L100.67 49.2109L103.158 49.1562L104.607 49.1836C105.373 49.1836 105.879 49.1016 106.125 48.9375C106.38 48.7734 106.613 48.3861 106.822 47.7754C106.868 47.6296 106.95 47.4108 107.068 47.1191L107.971 47.0645L108.148 47.1191C108.194 47.1921 108.217 47.2604 108.217 47.3242C108.217 47.4701 108.194 47.6523 108.148 47.8711C108.103 48.0898 108.048 48.4499 107.984 48.9512C107.93 49.4525 107.784 50.4505 107.547 51.9453Z" fill="#C9870B"/>
<path d="M55 102.25C54.5858 102.25 54.25 102.586 54.25 103C54.25 103.414 54.5858 103.75 55 103.75V102.25ZM62.873 100.087L62.2131 99.7306L62.873 100.087ZM65.127 95.913L65.7869 96.2694L65.7869 96.2694L65.127 95.913ZM73 93L73.5575 93.5017C73.8142 93.2165 73.8142 92.7835 73.5575 92.4983L73 93ZM70.6425 94.4983C70.3654 94.8062 70.3904 95.2804 70.6983 95.5575C71.0062 95.8346 71.4804 95.8096 71.7575 95.5017L70.6425 94.4983ZM71.7575 90.4983C71.4804 90.1904 71.0062 90.1654 70.6983 90.4425C70.3904 90.7196 70.3654 91.1938 70.6425 91.5017L71.7575 90.4983ZM66.8984 93.3894L66.4991 92.7546V92.7546L66.8984 93.3894ZM55 103.75H58.2426V102.25H55V103.75ZM63.533 100.443L65.7869 96.2694L64.467 95.5567L62.2131 99.7306L63.533 100.443ZM69.7574 93.75H73V92.25H69.7574V93.75ZM72.4425 92.4983L70.6425 94.4983L71.7575 95.5017L73.5575 93.5017L72.4425 92.4983ZM73.5575 92.4983L71.7575 90.4983L70.6425 91.5017L72.4425 93.5017L73.5575 92.4983ZM65.7869 96.2694C66.1777 95.5457 66.4472 95.0483 66.6928 94.6796C66.9312 94.3219 67.112 94.1411 67.2978 94.0242L66.4991 92.7546C66.0659 93.0271 65.7451 93.3967 65.4446 93.8478C65.1513 94.2879 64.8446 94.8575 64.467 95.5567L65.7869 96.2694ZM69.7574 92.25C69.0267 92.25 68.4197 92.249 67.9195 92.303C67.3996 92.3592 66.9366 92.4793 66.4991 92.7546L67.2978 94.0242C67.4792 93.9101 67.6991 93.8355 68.0806 93.7943C68.4818 93.751 68.9948 93.75 69.7574 93.75V92.25ZM58.2426 103.75C58.9733 103.75 59.5803 103.751 60.0805 103.697C60.6004 103.641 61.0634 103.521 61.5009 103.245L60.7022 101.976C60.5208 102.09 60.3009 102.164 59.9194 102.206C59.5182 102.249 59.0052 102.25 58.2426 102.25V103.75ZM62.2131 99.7306C61.8223 100.454 61.5528 100.952 61.3072 101.32C61.0688 101.678 60.888 101.859 60.7022 101.976L61.5009 103.245C61.9341 102.973 62.2549 102.603 62.5554 102.152C62.8487 101.712 63.1554 101.142 63.533 100.443L62.2131 99.7306Z" fill="white"/>
<path d="M55 92.35C54.641 92.35 54.35 92.641 54.35 93C54.35 93.359 54.641 93.65 55 93.65V92.35ZM73 103L73.4831 103.435C73.7056 103.188 73.7056 102.812 73.4831 102.565L73 103ZM71.6831 100.565C71.443 100.298 71.032 100.277 70.7652 100.517C70.4983 100.757 70.4767 101.168 70.7169 101.435L71.6831 100.565ZM70.7169 104.565C70.4767 104.832 70.4983 105.243 70.7652 105.483C71.032 105.723 71.443 105.702 71.6831 105.435L70.7169 104.565ZM67.7129 102.945L67.8503 102.309H67.8503L67.7129 102.945ZM66.1919 100.691C66.0214 100.375 65.627 100.257 65.3112 100.428C64.9953 100.599 64.8775 100.993 65.0481 101.309L66.1919 100.691ZM66.2215 102.007L66.7267 101.597L66.2215 102.007ZM60.2871 93.0553L60.4245 92.42V92.42L60.2871 93.0553ZM61.8081 95.3088C61.9786 95.6247 62.373 95.7425 62.6888 95.5719C63.0047 95.4014 63.1225 95.007 62.9519 94.6912L61.8081 95.3088ZM61.7785 93.9935L61.2733 94.4025V94.4025L61.7785 93.9935ZM55 93.65H59.2009V92.35H55V93.65ZM68.7991 103.65H73V102.35H68.7991V103.65ZM73.4831 102.565L71.6831 100.565L70.7169 101.435L72.5169 103.435L73.4831 102.565ZM72.5169 102.565L70.7169 104.565L71.6831 105.435L73.4831 103.435L72.5169 102.565ZM68.7991 102.35C68.2163 102.35 68.0218 102.347 67.8503 102.309L67.5755 103.58C67.915 103.653 68.2743 103.65 68.7991 103.65V102.35ZM65.0481 101.309C65.3206 101.814 65.4951 102.142 65.7164 102.416L66.7267 101.597C66.5998 101.441 66.4893 101.242 66.1919 100.691L65.0481 101.309ZM67.8503 102.309C67.4283 102.218 67.0315 101.974 66.7267 101.597L65.7164 102.416C66.196 103.008 66.8462 103.422 67.5755 103.58L67.8503 102.309ZM59.2009 93.65C59.7837 93.65 59.9782 93.6535 60.1497 93.6906L60.4245 92.42C60.085 92.3465 59.7257 92.35 59.2009 92.35V93.65ZM62.9519 94.6912C62.6794 94.1864 62.5049 93.8577 62.2836 93.5844L61.2733 94.4025C61.4002 94.5593 61.5107 94.7582 61.8081 95.3088L62.9519 94.6912ZM60.1497 93.6906C60.5717 93.7818 60.9685 94.026 61.2733 94.4025L62.2836 93.5844C61.804 92.9921 61.1538 92.5777 60.4245 92.42L60.1497 93.6906Z" fill="white"/>
<path d="M90.5122 105.14C90.2589 105.14 90.0589 105.067 89.9122 104.92C89.7655 104.76 89.6922 104.547 89.6922 104.28V92.32H85.1922C84.9522 92.32 84.7655 92.2533 84.6322 92.12C84.4989 91.9867 84.4322 91.8133 84.4322 91.6C84.4322 91.3733 84.4989 91.2 84.6322 91.08C84.7655 90.96 84.9522 90.9 85.1922 90.9H95.8522C96.0922 90.9 96.2789 90.96 96.4122 91.08C96.5455 91.2 96.6122 91.3733 96.6122 91.6C96.6122 91.8267 96.5455 92.0067 96.4122 92.14C96.2789 92.26 96.0922 92.32 95.8522 92.32H91.3522V104.28C91.3522 104.547 91.2789 104.76 91.1322 104.92C90.9989 105.067 90.7922 105.14 90.5122 105.14ZM102.523 105.18C100.91 105.18 99.6834 104.56 98.8434 103.32C98.0034 102.08 97.5834 100.287 97.5834 97.94C97.5834 96.3667 97.7701 95.0467 98.1434 93.98C98.5168 92.9 99.0701 92.0867 99.8034 91.54C100.55 90.9933 101.457 90.72 102.523 90.72C104.15 90.72 105.377 91.3333 106.203 92.56C107.043 93.7733 107.463 95.56 107.463 97.92C107.463 99.4933 107.277 100.82 106.903 101.9C106.53 102.98 105.977 103.8 105.243 104.36C104.51 104.907 103.603 105.18 102.523 105.18ZM102.523 103.76C103.643 103.76 104.47 103.287 105.003 102.34C105.55 101.38 105.823 99.9067 105.823 97.92C105.823 95.92 105.55 94.46 105.003 93.54C104.47 92.6067 103.643 92.14 102.523 92.14C101.417 92.14 100.59 92.6067 100.043 93.54C99.4968 94.4733 99.2234 95.9333 99.2234 97.92C99.2234 99.9067 99.4968 101.38 100.043 102.34C100.59 103.287 101.417 103.76 102.523 103.76ZM111.616 105C111.376 105 111.189 104.94 111.056 104.82C110.922 104.687 110.856 104.507 110.856 104.28C110.856 104.053 110.922 103.887 111.056 103.78C111.189 103.66 111.376 103.6 111.616 103.6H114.216V92.26H115.076L112.176 94.18C112.002 94.2733 111.836 94.3133 111.676 94.3C111.529 94.2867 111.402 94.2333 111.296 94.14C111.202 94.0333 111.136 93.9133 111.096 93.78C111.056 93.6333 111.062 93.4867 111.116 93.34C111.169 93.18 111.282 93.0467 111.456 92.94L114.216 91.12C114.389 91.0133 114.556 90.9267 114.716 90.86C114.876 90.7933 115.036 90.76 115.196 90.76C115.382 90.76 115.536 90.82 115.656 90.94C115.789 91.0467 115.856 91.22 115.856 91.46V103.6H118.256C118.496 103.6 118.682 103.66 118.816 103.78C118.949 103.887 119.016 104.053 119.016 104.28C119.016 104.52 118.949 104.7 118.816 104.82C118.682 104.94 118.496 105 118.256 105H111.616Z" fill="white"/>
</svg>
