<svg width="172" height="172" viewBox="0 0 172 172" fill="none" xmlns="http://www.w3.org/2000/svg">
<circle cx="86" cy="86" r="79" fill="#B3D9E2"/>
<circle cx="86" cy="86" r="83" stroke="#D3F5FF" stroke-width="6"/>
<mask id="path-3-inside-1_762_6167" fill="white">
<path d="M164.257 58.3732C165.824 57.8198 166.651 56.0981 166.043 54.5508C161.966 44.1743 155.907 34.68 148.194 26.6036C140.481 18.5271 131.275 12.0374 121.097 7.48753C119.579 6.80911 117.821 7.55622 117.196 9.09668C116.572 10.6371 117.316 12.3872 118.832 13.0696C128.222 17.2966 136.716 23.3011 143.84 30.7613C150.965 38.2215 156.572 46.9825 160.363 56.5563C160.975 58.1019 162.689 58.9266 164.257 58.3732Z"/>
</mask>
<path d="M164.257 58.3732C165.824 57.8198 166.651 56.0981 166.043 54.5508C161.966 44.1743 155.907 34.68 148.194 26.6036C140.481 18.5271 131.275 12.0374 121.097 7.48753C119.579 6.80911 117.821 7.55622 117.196 9.09668C116.572 10.6371 117.316 12.3872 118.832 13.0696C128.222 17.2966 136.716 23.3011 143.84 30.7613C150.965 38.2215 156.572 46.9825 160.363 56.5563C160.975 58.1019 162.689 58.9266 164.257 58.3732Z" stroke="#B3D9E2" stroke-width="8" mask="url(#path-3-inside-1_762_6167)"/>
<path d="M64.7129 33.4473H65.5605C65.6243 33.5475 65.6699 33.6204 65.6973 33.666C65.9525 34.1035 66.1484 34.3906 66.2852 34.5273C66.4036 34.5638 67.028 34.582 68.1582 34.582C68.86 34.582 69.4844 34.5775 70.0312 34.5684L70.3047 34.5273L71.959 34.5137L75.0488 34.541H79.2734L80.0801 34.418C80.1986 34.3359 80.3262 34.1172 80.4629 33.7617C80.4993 33.6797 80.5495 33.5658 80.6133 33.4199L81.2148 33.4062C81.306 33.4062 81.4427 33.4108 81.625 33.4199C81.6341 34.0488 81.6387 34.9967 81.6387 36.2637L81.6523 37.4805L81.6387 38.1777C81.6387 38.4147 81.6204 38.6198 81.584 38.793C81.2103 38.9115 80.8822 38.9844 80.5996 39.0117C80.3626 38.6562 80.1029 38.1413 79.8203 37.4668C79.5469 36.7923 79.3737 36.4186 79.3008 36.3457C79.1914 36.2272 79.0638 36.1497 78.918 36.1133C78.6992 36.0677 77.7331 36.0449 76.0195 36.0449C75.7643 36.0449 75.4453 36.0632 75.0625 36.0996C75.0078 36.4551 74.9805 36.7467 74.9805 36.9746L74.9941 38.8066V42.8262L75.0488 47.1602L75.0352 48.9375C75.0352 49.5664 75.0898 50.0404 75.1992 50.3594C75.3451 50.4232 75.6139 50.4824 76.0059 50.5371C76.0788 50.5462 76.416 50.6191 77.0176 50.7559C77.291 50.8197 77.5326 50.8926 77.7422 50.9746C77.7878 51.3027 77.8105 51.5033 77.8105 51.5762C77.8105 51.6582 77.7969 51.7767 77.7695 51.9316C77.569 51.9408 77.4049 51.9453 77.2773 51.9453C76.3385 51.9453 75.541 51.9134 74.8848 51.8496C74.2285 51.7767 73.0391 51.7402 71.3164 51.7402C71.043 51.7402 70.2409 51.7949 68.9102 51.9043C68.3906 51.9408 68.0534 51.959 67.8984 51.959C67.8893 51.8223 67.8802 51.7174 67.8711 51.6445L67.8574 51.3301V51.2207C68.0579 50.9564 68.4362 50.7604 68.9922 50.6328C69.9401 50.4049 70.5964 50.1999 70.9609 50.0176C71.0521 49.8444 71.1068 49.6165 71.125 49.334C71.1888 48.2402 71.2207 46.4993 71.2207 44.1113L71.1523 38.9434C71.1523 37.5215 71.125 36.6602 71.0703 36.3594C71.0521 36.2773 71.0202 36.2181 70.9746 36.1816C70.929 36.1361 70.8652 36.1087 70.7832 36.0996C70.5007 36.0632 69.5801 36.0449 68.0215 36.0449C67.1647 36.0449 66.5905 36.127 66.2988 36.291C65.9069 36.5189 65.319 37.1387 64.5352 38.1504C64.3073 38.4421 64.1387 38.5879 64.0293 38.5879C63.61 38.3691 63.3411 38.1914 63.2227 38.0547C63.5052 37.4622 63.8971 36.2773 64.3984 34.5C64.5443 33.9805 64.6491 33.6296 64.7129 33.4473ZM83.2793 43.127C83.2793 42.1243 83.3385 41.3405 83.457 40.7754C83.7305 39.4173 83.9948 38.4329 84.25 37.8223C84.651 36.8743 85.1204 36.1087 85.6582 35.5254C86.2051 34.9329 86.834 34.4863 87.5449 34.1855C87.9642 34.0033 88.5202 33.9121 89.2129 33.9121C90.0605 33.9121 90.8854 34.2083 91.6875 34.8008C92.4896 35.3932 93.2051 36.373 93.834 37.7402C94.4629 39.0983 94.7773 40.8073 94.7773 42.8672C94.7773 44.3893 94.6042 45.8203 94.2578 47.1602C94.0391 47.9714 93.7246 48.7233 93.3145 49.416C92.9134 50.0996 92.5807 50.5736 92.3164 50.8379C91.8607 51.2845 91.3594 51.64 90.8125 51.9043C90.2656 52.1686 89.8236 52.3008 89.4863 52.3008C88.4928 52.3008 87.7363 52.2005 87.2168 52C86.6973 51.8086 86.196 51.4577 85.7129 50.9473C85.2389 50.4368 84.8105 49.7852 84.4277 48.9922C84.054 48.1992 83.7852 47.4336 83.6211 46.6953C83.3932 45.6654 83.2793 44.4759 83.2793 43.127ZM86.8203 44.9316C86.8203 46.9368 86.8841 48.2949 87.0117 49.0059C87.1393 49.7077 87.3809 50.2363 87.7363 50.5918C88.1009 50.9382 88.4837 51.1113 88.8848 51.1113C89.2949 51.1113 89.6458 51.002 89.9375 50.7832C90.2292 50.5645 90.4753 50.2227 90.6758 49.7578C90.8854 49.2839 91.0312 48.541 91.1133 47.5293C91.25 45.8796 91.3184 44.6992 91.3184 43.9883L91.2773 42.1836V40.2559C91.2773 39.3444 91.2135 38.4967 91.0859 37.7129C90.9583 36.929 90.7852 36.3685 90.5664 36.0312C90.3568 35.6849 90.1016 35.4479 89.8008 35.3203C89.5091 35.1836 89.2266 35.1152 88.9531 35.1152C88.6159 35.1152 88.2513 35.2839 87.8594 35.6211C87.4674 35.9492 87.1849 36.5553 87.0117 37.4395C86.8385 38.3236 86.752 39.832 86.752 41.9648L86.7793 42.9355C86.8066 43.8743 86.8203 44.5397 86.8203 44.9316ZM100.205 43.6875C99.9316 43.3411 99.7083 43.0677 99.5352 42.8672C101.194 41.6641 102.301 40.6842 102.857 39.9277C103.222 39.4447 103.404 38.9206 103.404 38.3555C103.404 37.7721 103.195 37.2663 102.775 36.8379C102.356 36.4095 101.878 36.1953 101.34 36.1953C100.228 36.1953 99.2161 36.8743 98.3047 38.2324L97.4434 37.7676C97.8809 36.8105 98.3092 36.0951 98.7285 35.6211C99.1569 35.138 99.763 34.7279 100.547 34.3906C101.139 34.1354 101.878 34.0078 102.762 34.0078C103.956 34.0078 104.876 34.3086 105.523 34.9102C106.171 35.5026 106.494 36.25 106.494 37.1523C106.494 37.8633 106.271 38.5469 105.824 39.2031C105.378 39.8503 104.585 40.5612 103.445 41.3359H103.732C104.954 41.3359 105.947 41.8053 106.713 42.7441C107.488 43.6829 107.875 44.7083 107.875 45.8203C107.875 46.7591 107.656 47.7389 107.219 48.7598C106.79 49.7806 105.997 50.6419 104.84 51.3438C103.682 52.0365 102.26 52.3828 100.574 52.3828C98.9427 52.3828 97.6986 52.0957 96.8418 51.5215C96.2949 51.1569 96.0215 50.7285 96.0215 50.2363C96.0215 49.89 96.1536 49.5892 96.418 49.334C96.6823 49.0788 97.0195 48.9512 97.4297 48.9512C97.776 48.9512 98.0951 49.0423 98.3867 49.2246C98.6784 49.4069 99.0749 49.8171 99.5762 50.4551C99.8314 50.7832 100.077 50.9928 100.314 51.084C100.734 51.2572 101.039 51.3438 101.23 51.3438C101.714 51.3438 102.215 51.1797 102.734 50.8516C103.263 50.5234 103.682 49.9811 103.992 49.2246C104.302 48.459 104.457 47.5703 104.457 46.5586C104.457 45.474 104.184 44.6217 103.637 44.002C103.099 43.373 102.507 43.0586 101.859 43.0586C101.385 43.0586 100.834 43.2682 100.205 43.6875Z" fill="#14809E"/>
<path d="M54.3337 89H59.6673V90.7143H54.3337V89ZM63.2498 94.4771L64.5121 93.26C64.1298 92.8229 63.712 92.4114 63.2587 92.0514L61.9964 93.2686C60.5806 92.17 58.8178 91.5712 57.0005 91.5714C54.8786 91.5714 52.8437 92.3842 51.3433 93.8309C49.8429 95.2776 49 97.2398 49 99.2857C49 103.546 52.5736 107 57.0005 107C58.5066 107.001 59.9824 106.591 61.2578 105.819C62.5332 105.046 63.5563 103.942 64.2093 102.633C64.8624 101.325 65.1188 99.8649 64.949 98.4219C64.7793 96.9789 64.1902 95.6115 63.2498 94.4771ZM60.4 101.1L59 102.5L56.1116 99.1429V95H57.8894V98.2857L60.4 101.1Z" fill="white"/>
<path d="M76.3402 105C76.1002 105 75.9136 104.94 75.7802 104.82C75.6469 104.687 75.5802 104.507 75.5802 104.28C75.5802 104.053 75.6469 103.887 75.7802 103.78C75.9136 103.66 76.1002 103.6 76.3402 103.6H78.9402V92.26H79.8002L76.9002 94.18C76.7269 94.2733 76.5602 94.3133 76.4002 94.3C76.2536 94.2867 76.1269 94.2333 76.0202 94.14C75.9269 94.0333 75.8602 93.9133 75.8202 93.78C75.7802 93.6333 75.7869 93.4867 75.8402 93.34C75.8936 93.18 76.0069 93.0467 76.1802 92.94L78.9402 91.12C79.1136 91.0133 79.2802 90.9267 79.4402 90.86C79.6002 90.7933 79.7602 90.76 79.9202 90.76C80.1069 90.76 80.2602 90.82 80.3802 90.94C80.5136 91.0467 80.5802 91.22 80.5802 91.46V103.6H82.9802C83.2202 103.6 83.4069 103.66 83.5402 103.78C83.6736 103.887 83.7402 104.053 83.7402 104.28C83.7402 104.52 83.6736 104.7 83.5402 104.82C83.4069 104.94 83.2202 105 82.9802 105H76.3402ZM91.7124 105.18C90.6058 105.18 89.6591 104.913 88.8724 104.38C88.0991 103.833 87.5124 103.047 87.1124 102.02C86.7124 100.993 86.5124 99.7533 86.5124 98.3C86.5124 97.0733 86.6391 95.9933 86.8924 95.06C87.1458 94.1267 87.5191 93.34 88.0124 92.7C88.5058 92.0467 89.1058 91.5533 89.8124 91.22C90.5191 90.8867 91.3191 90.72 92.2124 90.72C92.8258 90.72 93.4524 90.84 94.0924 91.08C94.7458 91.32 95.3191 91.66 95.8124 92.1C95.9591 92.2067 96.0458 92.34 96.0724 92.5C96.1124 92.6467 96.1124 92.7933 96.0724 92.94C96.0324 93.0733 95.9591 93.1867 95.8524 93.28C95.7591 93.3733 95.6391 93.4267 95.4924 93.44C95.3458 93.44 95.1924 93.38 95.0324 93.26C94.5791 92.8733 94.1124 92.6 93.6324 92.44C93.1524 92.2667 92.6658 92.18 92.1724 92.18C91.3058 92.18 90.5658 92.3933 89.9524 92.82C89.3524 93.2467 88.8924 93.8933 88.5724 94.76C88.2658 95.6133 88.1124 96.6867 88.1124 97.98V99.84H87.9324C88.0124 99.08 88.2324 98.4267 88.5924 97.88C88.9658 97.32 89.4391 96.8933 90.0124 96.6C90.5858 96.3067 91.2324 96.16 91.9524 96.16C92.7791 96.16 93.5124 96.3467 94.1524 96.72C94.7924 97.0933 95.2924 97.62 95.6524 98.3C96.0124 98.9667 96.1924 99.7333 96.1924 100.6C96.1924 101.48 96.0058 102.267 95.6324 102.96C95.2591 103.653 94.7324 104.2 94.0524 104.6C93.3724 104.987 92.5924 105.18 91.7124 105.18ZM91.6124 103.78C92.1991 103.78 92.7191 103.653 93.1724 103.4C93.6258 103.133 93.9791 102.767 94.2324 102.3C94.4858 101.82 94.6124 101.273 94.6124 100.66C94.6124 100.047 94.4858 99.5067 94.2324 99.04C93.9791 98.5733 93.6258 98.2067 93.1724 97.94C92.7191 97.6733 92.1991 97.54 91.6124 97.54C91.0258 97.54 90.5058 97.6733 90.0524 97.94C89.5991 98.2067 89.2458 98.5733 88.9924 99.04C88.7391 99.5067 88.6124 100.047 88.6124 100.66C88.6124 101.273 88.7391 101.82 88.9924 102.3C89.2458 102.767 89.5991 103.133 90.0524 103.4C90.5058 103.653 91.0258 103.78 91.6124 103.78ZM99.5246 105.08C99.1913 105.08 98.9246 104.98 98.7246 104.78C98.5246 104.567 98.4246 104.3 98.4246 103.98C98.4246 103.66 98.5246 103.4 98.7246 103.2C98.9246 102.987 99.1913 102.88 99.5246 102.88C99.8579 102.88 100.118 102.987 100.305 103.2C100.505 103.4 100.605 103.66 100.605 103.98C100.605 104.3 100.505 104.567 100.305 104.78C100.118 104.98 99.8579 105.08 99.5246 105.08ZM99.5246 97.4C99.1913 97.4 98.9246 97.2933 98.7246 97.08C98.5246 96.8667 98.4246 96.6067 98.4246 96.3C98.4246 95.9667 98.5246 95.7 98.7246 95.5C98.9246 95.3 99.1913 95.2 99.5246 95.2C99.8579 95.2 100.118 95.3 100.305 95.5C100.505 95.7 100.605 95.9667 100.605 96.3C100.605 96.6067 100.505 96.8667 100.305 97.08C100.118 97.2933 99.8579 97.4 99.5246 97.4ZM107.775 105.18C106.162 105.18 104.935 104.56 104.095 103.32C103.255 102.08 102.835 100.287 102.835 97.94C102.835 96.3667 103.022 95.0467 103.395 93.98C103.769 92.9 104.322 92.0867 105.055 91.54C105.802 90.9933 106.709 90.72 107.775 90.72C109.402 90.72 110.629 91.3333 111.455 92.56C112.295 93.7733 112.715 95.56 112.715 97.92C112.715 99.4933 112.529 100.82 112.155 101.9C111.782 102.98 111.229 103.8 110.495 104.36C109.762 104.907 108.855 105.18 107.775 105.18ZM107.775 103.76C108.895 103.76 109.722 103.287 110.255 102.34C110.802 101.38 111.075 99.9067 111.075 97.92C111.075 95.92 110.802 94.46 110.255 93.54C109.722 92.6067 108.895 92.14 107.775 92.14C106.669 92.14 105.842 92.6067 105.295 93.54C104.749 94.4733 104.475 95.9333 104.475 97.92C104.475 99.9067 104.749 101.38 105.295 102.34C105.842 103.287 106.669 103.76 107.775 103.76ZM116.348 105C116.054 105 115.834 104.933 115.688 104.8C115.554 104.653 115.488 104.46 115.488 104.22C115.488 104.073 115.521 103.933 115.588 103.8C115.668 103.653 115.774 103.507 115.908 103.36L120.388 98.56C121.068 97.8267 121.554 97.1533 121.848 96.54C122.154 95.9133 122.308 95.28 122.308 94.64C122.308 93.84 122.061 93.2333 121.568 92.82C121.088 92.3933 120.381 92.18 119.448 92.18C118.848 92.18 118.281 92.2733 117.748 92.46C117.214 92.6467 116.701 92.9333 116.208 93.32C116.034 93.4533 115.874 93.5133 115.728 93.5C115.594 93.4867 115.474 93.4333 115.368 93.34C115.261 93.2467 115.188 93.1267 115.148 92.98C115.108 92.8333 115.108 92.6867 115.148 92.54C115.201 92.3933 115.308 92.26 115.468 92.14C115.988 91.7133 116.614 91.3733 117.348 91.12C118.081 90.8533 118.828 90.72 119.588 90.72C120.534 90.72 121.334 90.8667 121.988 91.16C122.641 91.4533 123.134 91.8867 123.468 92.46C123.801 93.02 123.968 93.7067 123.968 94.52C123.968 95.08 123.874 95.6333 123.688 96.18C123.514 96.7133 123.241 97.26 122.868 97.82C122.508 98.38 122.034 98.96 121.448 99.56L117.188 104.06V103.6H123.928C124.181 103.6 124.368 103.66 124.488 103.78C124.621 103.887 124.688 104.053 124.688 104.28C124.688 104.52 124.621 104.7 124.488 104.82C124.368 104.94 124.181 105 123.928 105H116.348Z" fill="white"/>
</svg>
