<svg width="172" height="172" viewBox="0 0 172 172" fill="none" xmlns="http://www.w3.org/2000/svg">
<circle cx="86" cy="86" r="79" fill="#B3D9E2"/>
<circle cx="86" cy="86" r="83" stroke="#D3F5FF" stroke-width="6"/>
<mask id="path-3-inside-1_762_6157" fill="white">
<path d="M164.257 58.3732C165.824 57.8198 166.651 56.0981 166.043 54.5508C161.966 44.1743 155.907 34.68 148.194 26.6036C140.481 18.5271 131.275 12.0374 121.097 7.48753C119.579 6.80911 117.821 7.55622 117.196 9.09668C116.572 10.6371 117.316 12.3872 118.832 13.0696C128.222 17.2966 136.716 23.3011 143.84 30.7613C150.965 38.2215 156.572 46.9825 160.363 56.5563C160.975 58.1019 162.689 58.9266 164.257 58.3732Z"/>
</mask>
<path d="M164.257 58.3732C165.824 57.8198 166.651 56.0981 166.043 54.5508C161.966 44.1743 155.907 34.68 148.194 26.6036C140.481 18.5271 131.275 12.0374 121.097 7.48753C119.579 6.80911 117.821 7.55622 117.196 9.09668C116.572 10.6371 117.316 12.3872 118.832 13.0696C128.222 17.2966 136.716 23.3011 143.84 30.7613C150.965 38.2215 156.572 46.9825 160.363 56.5563C160.975 58.1019 162.689 58.9266 164.257 58.3732Z" stroke="#B3D9E2" stroke-width="8" mask="url(#path-3-inside-1_762_6157)"/>
<path d="M54.3337 89H59.6673V90.7143H54.3337V89ZM63.2498 94.4771L64.5121 93.26C64.1298 92.8229 63.712 92.4114 63.2587 92.0514L61.9964 93.2686C60.5806 92.17 58.8178 91.5712 57.0005 91.5714C54.8786 91.5714 52.8437 92.3842 51.3433 93.8309C49.8429 95.2776 49 97.2398 49 99.2857C49 103.546 52.5736 107 57.0005 107C58.5066 107.001 59.9824 106.591 61.2578 105.819C62.5332 105.046 63.5563 103.942 64.2093 102.633C64.8624 101.325 65.1188 99.8649 64.949 98.4219C64.7793 96.9789 64.1902 95.6115 63.2498 94.4771ZM60.4 101.1L59 102.5L56.1116 99.1429V95H57.8894V98.2857L60.4 101.1Z" fill="white"/>
<path d="M76.3402 105C76.1002 105 75.9136 104.94 75.7802 104.82C75.6469 104.687 75.5802 104.507 75.5802 104.28C75.5802 104.053 75.6469 103.887 75.7802 103.78C75.9136 103.66 76.1002 103.6 76.3402 103.6H78.9402V92.26H79.8002L76.9002 94.18C76.7269 94.2733 76.5602 94.3133 76.4002 94.3C76.2536 94.2867 76.1269 94.2333 76.0202 94.14C75.9269 94.0333 75.8602 93.9133 75.8202 93.78C75.7802 93.6333 75.7869 93.4867 75.8402 93.34C75.8936 93.18 76.0069 93.0467 76.1802 92.94L78.9402 91.12C79.1136 91.0133 79.2802 90.9267 79.4402 90.86C79.6002 90.7933 79.7602 90.76 79.9202 90.76C80.1069 90.76 80.2602 90.82 80.3802 90.94C80.5136 91.0467 80.5802 91.22 80.5802 91.46V103.6H82.9802C83.2202 103.6 83.4069 103.66 83.5402 103.78C83.6736 103.887 83.7402 104.053 83.7402 104.28C83.7402 104.52 83.6736 104.7 83.5402 104.82C83.4069 104.94 83.2202 105 82.9802 105H76.3402ZM88.3324 105C88.0924 105 87.9058 104.94 87.7724 104.82C87.6391 104.687 87.5724 104.507 87.5724 104.28C87.5724 104.053 87.6391 103.887 87.7724 103.78C87.9058 103.66 88.0924 103.6 88.3324 103.6H90.9324V92.26H91.7924L88.8924 94.18C88.7191 94.2733 88.5524 94.3133 88.3924 94.3C88.2458 94.2867 88.1191 94.2333 88.0124 94.14C87.9191 94.0333 87.8524 93.9133 87.8124 93.78C87.7724 93.6333 87.7791 93.4867 87.8324 93.34C87.8858 93.18 87.9991 93.0467 88.1724 92.94L90.9324 91.12C91.1058 91.0133 91.2724 90.9267 91.4324 90.86C91.5924 90.7933 91.7524 90.76 91.9124 90.76C92.0991 90.76 92.2524 90.82 92.3724 90.94C92.5058 91.0467 92.5724 91.22 92.5724 91.46V103.6H94.9724C95.2124 103.6 95.3991 103.66 95.5324 103.78C95.6658 103.887 95.7324 104.053 95.7324 104.28C95.7324 104.52 95.6658 104.7 95.5324 104.82C95.3991 104.94 95.2124 105 94.9724 105H88.3324ZM99.5246 105.08C99.1913 105.08 98.9246 104.98 98.7246 104.78C98.5246 104.567 98.4246 104.3 98.4246 103.98C98.4246 103.66 98.5246 103.4 98.7246 103.2C98.9246 102.987 99.1913 102.88 99.5246 102.88C99.8579 102.88 100.118 102.987 100.305 103.2C100.505 103.4 100.605 103.66 100.605 103.98C100.605 104.3 100.505 104.567 100.305 104.78C100.118 104.98 99.8579 105.08 99.5246 105.08ZM99.5246 97.4C99.1913 97.4 98.9246 97.2933 98.7246 97.08C98.5246 96.8667 98.4246 96.6067 98.4246 96.3C98.4246 95.9667 98.5246 95.7 98.7246 95.5C98.9246 95.3 99.1913 95.2 99.5246 95.2C99.8579 95.2 100.118 95.3 100.305 95.5C100.505 95.7 100.605 95.9667 100.605 96.3C100.605 96.6067 100.505 96.8667 100.305 97.08C100.118 97.2933 99.8579 97.4 99.5246 97.4ZM104.355 105C104.062 105 103.842 104.933 103.695 104.8C103.562 104.653 103.495 104.46 103.495 104.22C103.495 104.073 103.529 103.933 103.595 103.8C103.675 103.653 103.782 103.507 103.915 103.36L108.395 98.56C109.075 97.8267 109.562 97.1533 109.855 96.54C110.162 95.9133 110.315 95.28 110.315 94.64C110.315 93.84 110.069 93.2333 109.575 92.82C109.095 92.3933 108.389 92.18 107.455 92.18C106.855 92.18 106.289 92.2733 105.755 92.46C105.222 92.6467 104.709 92.9333 104.215 93.32C104.042 93.4533 103.882 93.5133 103.735 93.5C103.602 93.4867 103.482 93.4333 103.375 93.34C103.269 93.2467 103.195 93.1267 103.155 92.98C103.115 92.8333 103.115 92.6867 103.155 92.54C103.209 92.3933 103.315 92.26 103.475 92.14C103.995 91.7133 104.622 91.3733 105.355 91.12C106.089 90.8533 106.835 90.72 107.595 90.72C108.542 90.72 109.342 90.8667 109.995 91.16C110.649 91.4533 111.142 91.8867 111.475 92.46C111.809 93.02 111.975 93.7067 111.975 94.52C111.975 95.08 111.882 95.6333 111.695 96.18C111.522 96.7133 111.249 97.26 110.875 97.82C110.515 98.38 110.042 98.96 109.455 99.56L105.195 104.06V103.6H111.935C112.189 103.6 112.375 103.66 112.495 103.78C112.629 103.887 112.695 104.053 112.695 104.28C112.695 104.52 112.629 104.7 112.495 104.82C112.375 104.94 112.189 105 111.935 105H104.355ZM119.608 105.18C118.834 105.18 118.054 105.067 117.268 104.84C116.494 104.613 115.821 104.28 115.248 103.84C115.074 103.72 114.961 103.587 114.908 103.44C114.854 103.28 114.841 103.133 114.868 103C114.908 102.853 114.981 102.733 115.088 102.64C115.194 102.533 115.321 102.473 115.468 102.46C115.628 102.447 115.801 102.5 115.988 102.62C116.574 103.007 117.161 103.287 117.748 103.46C118.334 103.633 118.941 103.72 119.568 103.72C120.248 103.72 120.821 103.62 121.288 103.42C121.754 103.22 122.108 102.927 122.348 102.54C122.588 102.14 122.708 101.653 122.708 101.08C122.708 100.253 122.434 99.6267 121.888 99.2C121.341 98.7733 120.548 98.56 119.508 98.56H118.088C117.834 98.56 117.641 98.5 117.508 98.38C117.374 98.2467 117.308 98.0667 117.308 97.84C117.308 97.6267 117.374 97.46 117.508 97.34C117.641 97.2067 117.834 97.14 118.088 97.14H119.368C119.981 97.14 120.501 97.0333 120.928 96.82C121.368 96.6067 121.708 96.3067 121.948 95.92C122.188 95.52 122.308 95.04 122.308 94.48C122.308 93.7333 122.068 93.1667 121.588 92.78C121.108 92.38 120.414 92.18 119.508 92.18C118.908 92.18 118.341 92.2667 117.808 92.44C117.274 92.6133 116.748 92.9067 116.228 93.32C116.068 93.44 115.908 93.5 115.748 93.5C115.601 93.4867 115.474 93.44 115.368 93.36C115.274 93.2667 115.201 93.1467 115.148 93C115.108 92.8533 115.114 92.7067 115.168 92.56C115.221 92.4 115.334 92.2533 115.508 92.12C116.041 91.6667 116.668 91.32 117.388 91.08C118.108 90.84 118.848 90.72 119.608 90.72C120.514 90.72 121.288 90.8667 121.928 91.16C122.581 91.44 123.081 91.8533 123.428 92.4C123.774 92.9333 123.948 93.58 123.948 94.34C123.948 94.9133 123.834 95.44 123.608 95.92C123.394 96.3867 123.088 96.7867 122.688 97.12C122.301 97.4533 121.828 97.6933 121.268 97.84V97.62C122.241 97.78 122.994 98.18 123.528 98.82C124.074 99.4467 124.348 100.24 124.348 101.2C124.348 102.013 124.154 102.72 123.768 103.32C123.394 103.907 122.854 104.367 122.148 104.7C121.441 105.02 120.594 105.18 119.608 105.18Z" fill="white"/>
<path d="M64.7129 33.4473H65.5605C65.6243 33.5475 65.6699 33.6204 65.6973 33.666C65.9525 34.1035 66.1484 34.3906 66.2852 34.5273C66.4036 34.5638 67.028 34.582 68.1582 34.582C68.86 34.582 69.4844 34.5775 70.0312 34.5684L70.3047 34.5273L71.959 34.5137L75.0488 34.541H79.2734L80.0801 34.418C80.1986 34.3359 80.3262 34.1172 80.4629 33.7617C80.4993 33.6797 80.5495 33.5658 80.6133 33.4199L81.2148 33.4062C81.306 33.4062 81.4427 33.4108 81.625 33.4199C81.6341 34.0488 81.6387 34.9967 81.6387 36.2637L81.6523 37.4805L81.6387 38.1777C81.6387 38.4147 81.6204 38.6198 81.584 38.793C81.2103 38.9115 80.8822 38.9844 80.5996 39.0117C80.3626 38.6562 80.1029 38.1413 79.8203 37.4668C79.5469 36.7923 79.3737 36.4186 79.3008 36.3457C79.1914 36.2272 79.0638 36.1497 78.918 36.1133C78.6992 36.0677 77.7331 36.0449 76.0195 36.0449C75.7643 36.0449 75.4453 36.0632 75.0625 36.0996C75.0078 36.4551 74.9805 36.7467 74.9805 36.9746L74.9941 38.8066V42.8262L75.0488 47.1602L75.0352 48.9375C75.0352 49.5664 75.0898 50.0404 75.1992 50.3594C75.3451 50.4232 75.6139 50.4824 76.0059 50.5371C76.0788 50.5462 76.416 50.6191 77.0176 50.7559C77.291 50.8197 77.5326 50.8926 77.7422 50.9746C77.7878 51.3027 77.8105 51.5033 77.8105 51.5762C77.8105 51.6582 77.7969 51.7767 77.7695 51.9316C77.569 51.9408 77.4049 51.9453 77.2773 51.9453C76.3385 51.9453 75.541 51.9134 74.8848 51.8496C74.2285 51.7767 73.0391 51.7402 71.3164 51.7402C71.043 51.7402 70.2409 51.7949 68.9102 51.9043C68.3906 51.9408 68.0534 51.959 67.8984 51.959C67.8893 51.8223 67.8802 51.7174 67.8711 51.6445L67.8574 51.3301V51.2207C68.0579 50.9564 68.4362 50.7604 68.9922 50.6328C69.9401 50.4049 70.5964 50.1999 70.9609 50.0176C71.0521 49.8444 71.1068 49.6165 71.125 49.334C71.1888 48.2402 71.2207 46.4993 71.2207 44.1113L71.1523 38.9434C71.1523 37.5215 71.125 36.6602 71.0703 36.3594C71.0521 36.2773 71.0202 36.2181 70.9746 36.1816C70.929 36.1361 70.8652 36.1087 70.7832 36.0996C70.5007 36.0632 69.5801 36.0449 68.0215 36.0449C67.1647 36.0449 66.5905 36.127 66.2988 36.291C65.9069 36.5189 65.319 37.1387 64.5352 38.1504C64.3073 38.4421 64.1387 38.5879 64.0293 38.5879C63.61 38.3691 63.3411 38.1914 63.2227 38.0547C63.5052 37.4622 63.8971 36.2773 64.3984 34.5C64.5443 33.9805 64.6491 33.6296 64.7129 33.4473ZM83.2793 43.127C83.2793 42.1243 83.3385 41.3405 83.457 40.7754C83.7305 39.4173 83.9948 38.4329 84.25 37.8223C84.651 36.8743 85.1204 36.1087 85.6582 35.5254C86.2051 34.9329 86.834 34.4863 87.5449 34.1855C87.9642 34.0033 88.5202 33.9121 89.2129 33.9121C90.0605 33.9121 90.8854 34.2083 91.6875 34.8008C92.4896 35.3932 93.2051 36.373 93.834 37.7402C94.4629 39.0983 94.7773 40.8073 94.7773 42.8672C94.7773 44.3893 94.6042 45.8203 94.2578 47.1602C94.0391 47.9714 93.7246 48.7233 93.3145 49.416C92.9134 50.0996 92.5807 50.5736 92.3164 50.8379C91.8607 51.2845 91.3594 51.64 90.8125 51.9043C90.2656 52.1686 89.8236 52.3008 89.4863 52.3008C88.4928 52.3008 87.7363 52.2005 87.2168 52C86.6973 51.8086 86.196 51.4577 85.7129 50.9473C85.2389 50.4368 84.8105 49.7852 84.4277 48.9922C84.054 48.1992 83.7852 47.4336 83.6211 46.6953C83.3932 45.6654 83.2793 44.4759 83.2793 43.127ZM86.8203 44.9316C86.8203 46.9368 86.8841 48.2949 87.0117 49.0059C87.1393 49.7077 87.3809 50.2363 87.7363 50.5918C88.1009 50.9382 88.4837 51.1113 88.8848 51.1113C89.2949 51.1113 89.6458 51.002 89.9375 50.7832C90.2292 50.5645 90.4753 50.2227 90.6758 49.7578C90.8854 49.2839 91.0312 48.541 91.1133 47.5293C91.25 45.8796 91.3184 44.6992 91.3184 43.9883L91.2773 42.1836V40.2559C91.2773 39.3444 91.2135 38.4967 91.0859 37.7129C90.9583 36.929 90.7852 36.3685 90.5664 36.0312C90.3568 35.6849 90.1016 35.4479 89.8008 35.3203C89.5091 35.1836 89.2266 35.1152 88.9531 35.1152C88.6159 35.1152 88.2513 35.2839 87.8594 35.6211C87.4674 35.9492 87.1849 36.5553 87.0117 37.4395C86.8385 38.3236 86.752 39.832 86.752 41.9648L86.7793 42.9355C86.8066 43.8743 86.8203 44.5397 86.8203 44.9316ZM108.107 45.3828V47.6797C107.615 47.707 107.228 47.7207 106.945 47.7207C106.681 47.7207 106.344 47.707 105.934 47.6797C105.906 47.8984 105.893 48.0306 105.893 48.0762L105.92 48.8965L105.906 49.7715L105.934 50.373C105.934 50.4824 105.92 50.7559 105.893 51.1934C105.874 51.4395 105.861 51.8086 105.852 52.3008L104.676 52.2871H103.951C103.76 52.2871 103.614 52.2826 103.514 52.2734L103.281 52.2461C103.217 52.2461 103.117 52.2643 102.98 52.3008L103.008 49.6484L102.953 47.9395C102.953 47.8939 102.962 47.8073 102.98 47.6797C102.543 47.6888 101.891 47.6979 101.025 47.707H100.123C99.3483 47.707 98.487 47.6934 97.5391 47.666C97.2383 47.6569 97.0423 47.6523 96.9512 47.6523C96.8145 47.6523 96.6048 47.6615 96.3223 47.6797L96.2949 47.502L96.3359 46.5586L96.3086 46.2578L96.3496 45.6973L96.3223 45.5879C96.7507 44.7767 97.0241 44.2845 97.1426 44.1113L100.273 39.2988C100.975 38.2598 101.531 37.4714 101.941 36.9336C102.361 36.3867 102.652 35.9811 102.816 35.7168C103.072 35.3066 103.295 34.9831 103.486 34.7461C103.769 34.3906 103.951 34.14 104.033 33.9941C104.571 33.9668 104.908 33.9531 105.045 33.9531C105.218 33.9531 105.542 33.9668 106.016 33.9941L106.043 34.1582L105.988 35.1699L106.016 35.5254L105.975 36.0859L106.002 36.6465L105.975 38L105.961 38.5879L105.975 39.3535L105.961 40.0645L105.975 41.0352L105.961 41.9648L105.975 43.0449L105.934 45.3828C106.253 45.3828 106.649 45.3919 107.123 45.4102H107.451C107.597 45.4102 107.816 45.401 108.107 45.3828ZM102.98 45.3555C103.035 44.8997 103.062 44.5579 103.062 44.3301C103.062 44.2389 103.053 44.0703 103.035 43.8242C103.026 43.569 103.021 43.4049 103.021 43.332L103.062 42.2656L103.035 41.3496L103.076 38.9844L103.062 37.9043C103.062 37.8132 103.072 37.599 103.09 37.2617C103.017 37.3711 102.889 37.5352 102.707 37.7539C102.579 37.9635 102.475 38.1185 102.393 38.2188C102.037 38.6562 101.641 39.1986 101.203 39.8457L99.9727 41.8145C99.8542 41.9967 99.722 42.2109 99.5762 42.457C99.3301 42.8581 99.0339 43.3184 98.6875 43.8379C98.3503 44.3574 98.0677 44.8633 97.8398 45.3555C98.1133 45.3281 98.3001 45.3145 98.4004 45.3145L99.0566 45.3281H100.369L102.201 45.3555H102.98Z" fill="#14809E"/>
</svg>
