<svg width="172" height="172" viewBox="0 0 172 172" fill="none" xmlns="http://www.w3.org/2000/svg">
<circle cx="86" cy="86" r="83" stroke="#ECECEC" stroke-width="6"/>
<circle cx="86" cy="86" r="79" fill="#DDDDDD"/>
<path d="M37.1174 69.7087C37.0669 69.7478 37.03 69.8019 37.0121 69.8633C36.9942 69.9246 36.9962 69.99 37.0178 70.0502C39.6229 77.2573 43.4315 90.1624 40.2045 101.787L39.0843 106.268C39.0625 106.355 39.0608 106.446 39.0793 106.533C39.0978 106.621 39.1361 106.703 39.1911 106.774C39.2462 106.844 39.3167 106.901 39.3971 106.941C39.4776 106.98 39.5659 107 39.6554 107H40.4109C40.5429 107.001 40.6722 106.962 40.7825 106.89C40.8929 106.818 40.9795 106.714 41.0316 106.593C41.8418 104.7 44.5387 96.7251 44.7523 93.6096C44.7561 93.5307 44.79 93.4563 44.8469 93.4017C44.9038 93.347 44.9795 93.3163 45.0584 93.3157H56.8705C56.9447 93.3156 57.0164 93.3423 57.0724 93.3909C57.1284 93.4395 57.1649 93.5068 57.1753 93.5802L58.358 106.427C58.3808 106.586 58.4601 106.732 58.5816 106.837C58.703 106.942 58.8583 107 59.0191 107H59.785C59.9465 107 60.1013 106.936 60.2155 106.822C60.3297 106.707 60.3939 106.552 60.3939 106.391V93.3906C60.3942 93.3425 60.4054 93.2951 60.4265 93.2518C60.5697 92.9521 61.0986 91.5752 60.3939 88.7542C59.7426 86.1476 59.2542 86.1281 58.4401 86.1476C55.357 86.2213 46.7263 86.6911 45.048 86.7836C44.9703 86.7877 44.8939 86.7617 44.8349 86.711C44.7758 86.6603 44.7386 86.5887 44.7308 86.5113C44.4918 84.4514 42.9672 71.9693 40.8557 69.8567C40.621 69.5997 40.3377 69.3918 40.0221 69.2451C39.7066 69.0984 39.3651 69.0158 39.0174 69.0021C38.6698 68.9883 38.3228 69.0437 37.9967 69.165C37.6706 69.2863 37.3717 69.4711 37.1174 69.7087Z" stroke="url(#paint0_linear_762_6316)" stroke-width="1.30328" stroke-linecap="round" stroke-linejoin="round"/>
<path d="M45.0888 93.3164H41.5068M60.7194 93.3164H56.1605" stroke="url(#paint1_linear_762_6316)" stroke-width="1.30328" stroke-miterlimit="10"/>
<path d="M133.883 69.7087C133.933 69.7478 133.97 69.8019 133.988 69.8633C134.006 69.9246 134.004 69.99 133.982 70.0502C131.377 77.2573 127.568 90.1624 130.796 101.787L131.916 106.268C131.938 106.355 131.939 106.446 131.921 106.533C131.902 106.621 131.864 106.703 131.809 106.774C131.754 106.844 131.683 106.901 131.603 106.941C131.522 106.98 131.434 107 131.345 107H130.589C130.457 107.001 130.328 106.962 130.217 106.89C130.107 106.818 130.02 106.714 129.968 106.593C129.158 104.7 126.461 96.7251 126.248 93.6096C126.244 93.5307 126.21 93.4563 126.153 93.4017C126.096 93.347 126.021 93.3163 125.942 93.3157H114.129C114.055 93.3156 113.984 93.3423 113.928 93.3909C113.872 93.4395 113.835 93.5068 113.825 93.5802L112.642 106.427C112.619 106.586 112.54 106.732 112.418 106.837C112.297 106.942 112.142 107 111.981 107H111.215C111.054 107 110.899 106.936 110.784 106.822C110.67 106.707 110.606 106.552 110.606 106.391V93.3906C110.606 93.3425 110.595 93.2951 110.574 93.2518C110.43 92.9521 109.901 91.5752 110.606 88.7542C111.257 86.1476 111.746 86.1281 112.56 86.1476C115.643 86.2213 124.274 86.6911 125.952 86.7836C126.03 86.7877 126.106 86.7617 126.165 86.711C126.224 86.6603 126.261 86.5887 126.269 86.5113C126.508 84.4514 128.033 71.9693 130.144 69.8567C130.379 69.5997 130.662 69.3918 130.978 69.2451C131.293 69.0984 131.635 69.0158 131.983 69.0021C132.33 68.9883 132.677 69.0437 133.003 69.165C133.329 69.2863 133.628 69.4711 133.883 69.7087Z" stroke="url(#paint2_linear_762_6316)" stroke-width="1.30328" stroke-linecap="round" stroke-linejoin="round"/>
<path d="M125.911 93.3164H129.493M110.281 93.3164H114.84" stroke="url(#paint3_linear_762_6316)" stroke-width="1.30328" stroke-miterlimit="10"/>
<path d="M104.964 86.7173L102.169 76.9427C102.056 76.5324 101.811 76.1706 101.472 75.9128C101.133 75.6551 100.719 75.5155 100.293 75.5156H70.7069C69.8276 75.5156 69.0654 76.1021 68.8309 76.9427L66.0364 86.7173C65.6847 87.9489 66.6227 89.2001 67.9125 89.2001H72.2117L69.8666 106.794H73.775L75.0843 97.0197H95.9354L97.2252 106.794H101.134L98.7885 89.2001H103.088C104.377 89.2001 105.315 87.9489 104.964 86.7173ZM75.5924 93.1099L76.12 89.2001H94.8802L95.4078 93.1099H75.5924Z" fill="url(#paint4_linear_762_6316)"/>
<path d="M49.4418 137C49.2018 137 49.0151 136.94 48.8818 136.82C48.7485 136.687 48.6818 136.507 48.6818 136.28C48.6818 136.053 48.7485 135.887 48.8818 135.78C49.0151 135.66 49.2018 135.6 49.4418 135.6H52.0418V124.26H52.9018L50.0018 126.18C49.8285 126.273 49.6618 126.313 49.5018 126.3C49.3551 126.287 49.2285 126.233 49.1218 126.14C49.0285 126.033 48.9618 125.913 48.9218 125.78C48.8818 125.633 48.8885 125.487 48.9418 125.34C48.9951 125.18 49.1085 125.047 49.2818 124.94L52.0418 123.12C52.2151 123.013 52.3818 122.927 52.5418 122.86C52.7018 122.793 52.8618 122.76 53.0218 122.76C53.2085 122.76 53.3618 122.82 53.4818 122.94C53.6151 123.047 53.6818 123.22 53.6818 123.46V135.6H56.0818C56.3218 135.6 56.5085 135.66 56.6418 135.78C56.7751 135.887 56.8418 136.053 56.8418 136.28C56.8418 136.52 56.7751 136.7 56.6418 136.82C56.5085 136.94 56.3218 137 56.0818 137H49.4418ZM64.334 137.18C62.7207 137.18 61.494 136.56 60.654 135.32C59.814 134.08 59.394 132.287 59.394 129.94C59.394 128.367 59.5807 127.047 59.954 125.98C60.3273 124.9 60.8807 124.087 61.614 123.54C62.3607 122.993 63.2673 122.72 64.334 122.72C65.9607 122.72 67.1873 123.333 68.014 124.56C68.854 125.773 69.274 127.56 69.274 129.92C69.274 131.493 69.0873 132.82 68.714 133.9C68.3407 134.98 67.7873 135.8 67.054 136.36C66.3207 136.907 65.414 137.18 64.334 137.18ZM64.334 135.76C65.454 135.76 66.2807 135.287 66.814 134.34C67.3607 133.38 67.634 131.907 67.634 129.92C67.634 127.92 67.3607 126.46 66.814 125.54C66.2807 124.607 65.454 124.14 64.334 124.14C63.2273 124.14 62.4007 124.607 61.854 125.54C61.3073 126.473 61.034 127.933 61.034 129.92C61.034 131.907 61.3073 133.38 61.854 134.34C62.4007 135.287 63.2273 135.76 64.334 135.76ZM81.7824 137.18C81.1558 137.18 80.5424 137.127 79.9424 137.02C79.3424 136.913 78.7824 136.76 78.2624 136.56C77.7558 136.36 77.2958 136.107 76.8824 135.8C76.7224 135.68 76.6091 135.547 76.5424 135.4C76.4891 135.24 76.4758 135.087 76.5024 134.94C76.5424 134.78 76.6091 134.647 76.7024 134.54C76.8091 134.433 76.9358 134.373 77.0824 134.36C77.2291 134.347 77.3891 134.393 77.5624 134.5C78.1624 134.927 78.8024 135.24 79.4824 135.44C80.1624 135.627 80.9291 135.72 81.7824 135.72C82.9824 135.72 83.8691 135.5 84.4424 135.06C85.0291 134.607 85.3224 134.013 85.3224 133.28C85.3224 132.68 85.1091 132.213 84.6824 131.88C84.2691 131.533 83.5691 131.26 82.5824 131.06L80.5024 130.64C79.2491 130.373 78.3091 129.94 77.6824 129.34C77.0691 128.727 76.7624 127.913 76.7624 126.9C76.7624 126.273 76.8891 125.707 77.1424 125.2C77.3958 124.68 77.7491 124.24 78.2024 123.88C78.6558 123.507 79.1958 123.22 79.8224 123.02C80.4491 122.82 81.1424 122.72 81.9024 122.72C82.7424 122.72 83.5224 122.84 84.2424 123.08C84.9758 123.307 85.6358 123.653 86.2224 124.12C86.3691 124.24 86.4691 124.38 86.5224 124.54C86.5758 124.687 86.5824 124.833 86.5424 124.98C86.5024 125.113 86.4291 125.227 86.3224 125.32C86.2291 125.413 86.1024 125.467 85.9424 125.48C85.7958 125.493 85.6291 125.44 85.4424 125.32C84.9091 124.92 84.3558 124.633 83.7824 124.46C83.2091 124.273 82.5758 124.18 81.8824 124.18C81.1758 124.18 80.5624 124.287 80.0424 124.5C79.5358 124.713 79.1358 125.027 78.8424 125.44C78.5624 125.84 78.4224 126.307 78.4224 126.84C78.4224 127.48 78.6158 127.987 79.0024 128.36C79.4024 128.733 80.0491 129.007 80.9424 129.18L83.0224 129.62C84.3691 129.9 85.3624 130.327 86.0024 130.9C86.6558 131.46 86.9824 132.227 86.9824 133.2C86.9824 133.787 86.8624 134.327 86.6224 134.82C86.3824 135.313 86.0358 135.74 85.5824 136.1C85.1291 136.447 84.5824 136.713 83.9424 136.9C83.3024 137.087 82.5824 137.18 81.7824 137.18ZM93.6871 137.18C92.6604 137.18 91.7738 136.98 91.0271 136.58C90.2938 136.167 89.7204 135.587 89.3071 134.84C88.9071 134.093 88.7071 133.2 88.7071 132.16C88.7071 131.147 88.9071 130.267 89.3071 129.52C89.7071 128.76 90.2538 128.167 90.9471 127.74C91.6538 127.313 92.4671 127.1 93.3871 127.1C94.0404 127.1 94.6271 127.213 95.1471 127.44C95.6671 127.653 96.1071 127.967 96.4671 128.38C96.8404 128.793 97.1204 129.293 97.3071 129.88C97.5071 130.467 97.6071 131.127 97.6071 131.86C97.6071 132.073 97.5471 132.233 97.4271 132.34C97.3071 132.433 97.1338 132.48 96.9071 132.48H89.9471V131.42H96.5271L96.2071 131.68C96.2071 130.96 96.1004 130.353 95.8871 129.86C95.6738 129.353 95.3604 128.967 94.9471 128.7C94.5471 128.433 94.0404 128.3 93.4271 128.3C92.7471 128.3 92.1671 128.46 91.6871 128.78C91.2204 129.087 90.8671 129.52 90.6271 130.08C90.3871 130.627 90.2671 131.267 90.2671 132V132.12C90.2671 133.347 90.5604 134.28 91.1471 134.92C91.7471 135.56 92.5938 135.88 93.6871 135.88C94.1404 135.88 94.5871 135.82 95.0271 135.7C95.4804 135.58 95.9204 135.38 96.3471 135.1C96.5338 134.98 96.7004 134.927 96.8471 134.94C97.0071 134.94 97.1338 134.987 97.2271 135.08C97.3204 135.16 97.3804 135.267 97.4071 135.4C97.4471 135.52 97.4338 135.653 97.3671 135.8C97.3138 135.947 97.2004 136.073 97.0271 136.18C96.5871 136.5 96.0671 136.747 95.4671 136.92C94.8671 137.093 94.2738 137.18 93.6871 137.18ZM103.012 137.18C102.345 137.18 101.745 137.053 101.212 136.8C100.692 136.533 100.278 136.173 99.9716 135.72C99.665 135.267 99.5116 134.76 99.5116 134.2C99.5116 133.48 99.6916 132.913 100.052 132.5C100.425 132.087 101.032 131.793 101.872 131.62C102.725 131.447 103.885 131.36 105.352 131.36H106.252V132.42H105.372C104.292 132.42 103.438 132.473 102.812 132.58C102.198 132.673 101.765 132.84 101.512 133.08C101.272 133.32 101.152 133.66 101.152 134.1C101.152 134.647 101.338 135.093 101.712 135.44C102.098 135.787 102.618 135.96 103.272 135.96C103.805 135.96 104.272 135.833 104.672 135.58C105.085 135.327 105.405 134.98 105.632 134.54C105.872 134.1 105.992 133.593 105.992 133.02V130.74C105.992 129.913 105.825 129.32 105.492 128.96C105.158 128.587 104.612 128.4 103.852 128.4C103.385 128.4 102.918 128.46 102.452 128.58C101.985 128.7 101.492 128.893 100.972 129.16C100.785 129.253 100.625 129.287 100.492 129.26C100.358 129.22 100.252 129.147 100.172 129.04C100.092 128.933 100.045 128.813 100.032 128.68C100.018 128.533 100.045 128.393 100.112 128.26C100.192 128.127 100.312 128.02 100.472 127.94C101.058 127.647 101.638 127.433 102.212 127.3C102.785 127.167 103.332 127.1 103.852 127.1C104.692 127.1 105.385 127.24 105.932 127.52C106.478 127.787 106.885 128.2 107.152 128.76C107.418 129.307 107.552 130.013 107.552 130.88V136.3C107.552 136.567 107.485 136.773 107.352 136.92C107.232 137.067 107.052 137.14 106.812 137.14C106.558 137.14 106.365 137.067 106.232 136.92C106.098 136.773 106.032 136.567 106.032 136.3V134.74H106.212C106.105 135.247 105.898 135.68 105.592 136.04C105.298 136.4 104.932 136.68 104.492 136.88C104.052 137.08 103.558 137.18 103.012 137.18ZM114.457 137.18C113.697 137.18 113.057 137.047 112.537 136.78C112.03 136.5 111.65 136.1 111.397 135.58C111.144 135.047 111.017 134.4 111.017 133.64V128.54H109.677C109.45 128.54 109.277 128.487 109.157 128.38C109.037 128.26 108.977 128.1 108.977 127.9C108.977 127.7 109.037 127.547 109.157 127.44C109.277 127.333 109.45 127.28 109.677 127.28H111.017V124.98C111.017 124.713 111.09 124.513 111.237 124.38C111.384 124.233 111.584 124.16 111.837 124.16C112.09 124.16 112.284 124.233 112.417 124.38C112.564 124.513 112.637 124.713 112.637 124.98V127.28H115.157C115.384 127.28 115.557 127.333 115.677 127.44C115.797 127.547 115.857 127.7 115.857 127.9C115.857 128.1 115.797 128.26 115.677 128.38C115.557 128.487 115.384 128.54 115.157 128.54H112.637V133.48C112.637 134.24 112.797 134.82 113.117 135.22C113.437 135.607 113.957 135.8 114.677 135.8C114.93 135.8 115.144 135.773 115.317 135.72C115.504 135.667 115.657 135.64 115.777 135.64C115.897 135.627 115.997 135.667 116.077 135.76C116.157 135.853 116.197 136.013 116.197 136.24C116.197 136.4 116.164 136.547 116.097 136.68C116.044 136.813 115.944 136.907 115.797 136.96C115.637 137.013 115.424 137.06 115.157 137.1C114.904 137.153 114.67 137.18 114.457 137.18ZM120.829 137.18C120.229 137.18 119.623 137.107 119.009 136.96C118.409 136.813 117.849 136.56 117.329 136.2C117.196 136.107 117.103 136 117.049 135.88C116.996 135.747 116.976 135.62 116.989 135.5C117.016 135.367 117.069 135.253 117.149 135.16C117.243 135.067 117.349 135.013 117.469 135C117.603 134.973 117.749 135 117.909 135.08C118.429 135.4 118.929 135.627 119.409 135.76C119.903 135.88 120.389 135.94 120.869 135.94C121.629 135.94 122.203 135.8 122.589 135.52C122.976 135.24 123.169 134.86 123.169 134.38C123.169 134.007 123.043 133.713 122.789 133.5C122.536 133.273 122.136 133.1 121.589 132.98L119.769 132.58C118.929 132.407 118.303 132.107 117.889 131.68C117.489 131.253 117.289 130.7 117.289 130.02C117.289 129.42 117.443 128.907 117.749 128.48C118.069 128.04 118.516 127.7 119.089 127.46C119.663 127.22 120.329 127.1 121.089 127.1C121.676 127.1 122.229 127.18 122.749 127.34C123.283 127.487 123.763 127.727 124.189 128.06C124.323 128.153 124.409 128.267 124.449 128.4C124.503 128.52 124.509 128.647 124.469 128.78C124.443 128.9 124.383 129.007 124.289 129.1C124.196 129.18 124.083 129.227 123.949 129.24C123.816 129.253 123.676 129.213 123.529 129.12C123.129 128.853 122.723 128.66 122.309 128.54C121.896 128.407 121.489 128.34 121.089 128.34C120.343 128.34 119.776 128.487 119.389 128.78C119.003 129.073 118.809 129.46 118.809 129.94C118.809 130.313 118.929 130.62 119.169 130.86C119.409 131.1 119.783 131.273 120.289 131.38L122.109 131.76C122.976 131.947 123.623 132.247 124.049 132.66C124.489 133.06 124.709 133.607 124.709 134.3C124.709 135.18 124.356 135.88 123.649 136.4C122.943 136.92 122.003 137.18 120.829 137.18Z" fill="#888888"/>
<path d="M64.7129 33.4473H65.5605C65.6243 33.5475 65.6699 33.6204 65.6973 33.666C65.9525 34.1035 66.1484 34.3906 66.2852 34.5273C66.4036 34.5638 67.028 34.582 68.1582 34.582C68.86 34.582 69.4844 34.5775 70.0312 34.5684L70.3047 34.5273L71.959 34.5137L75.0488 34.541H79.2734L80.0801 34.418C80.1986 34.3359 80.3262 34.1172 80.4629 33.7617C80.4993 33.6797 80.5495 33.5658 80.6133 33.4199L81.2148 33.4062C81.306 33.4062 81.4427 33.4108 81.625 33.4199C81.6341 34.0488 81.6387 34.9967 81.6387 36.2637L81.6523 37.4805L81.6387 38.1777C81.6387 38.4147 81.6204 38.6198 81.584 38.793C81.2103 38.9115 80.8822 38.9844 80.5996 39.0117C80.3626 38.6562 80.1029 38.1413 79.8203 37.4668C79.5469 36.7923 79.3737 36.4186 79.3008 36.3457C79.1914 36.2272 79.0638 36.1497 78.918 36.1133C78.6992 36.0677 77.7331 36.0449 76.0195 36.0449C75.7643 36.0449 75.4453 36.0632 75.0625 36.0996C75.0078 36.4551 74.9805 36.7467 74.9805 36.9746L74.9941 38.8066V42.8262L75.0488 47.1602L75.0352 48.9375C75.0352 49.5664 75.0898 50.0404 75.1992 50.3594C75.3451 50.4232 75.6139 50.4824 76.0059 50.5371C76.0788 50.5462 76.416 50.6191 77.0176 50.7559C77.291 50.8197 77.5326 50.8926 77.7422 50.9746C77.7878 51.3027 77.8105 51.5033 77.8105 51.5762C77.8105 51.6582 77.7969 51.7767 77.7695 51.9316C77.569 51.9408 77.4049 51.9453 77.2773 51.9453C76.3385 51.9453 75.541 51.9134 74.8848 51.8496C74.2285 51.7767 73.0391 51.7402 71.3164 51.7402C71.043 51.7402 70.2409 51.7949 68.9102 51.9043C68.3906 51.9408 68.0534 51.959 67.8984 51.959C67.8893 51.8223 67.8802 51.7174 67.8711 51.6445L67.8574 51.3301V51.2207C68.0579 50.9564 68.4362 50.7604 68.9922 50.6328C69.9401 50.4049 70.5964 50.1999 70.9609 50.0176C71.0521 49.8444 71.1068 49.6165 71.125 49.334C71.1888 48.2402 71.2207 46.4993 71.2207 44.1113L71.1523 38.9434C71.1523 37.5215 71.125 36.6602 71.0703 36.3594C71.0521 36.2773 71.0202 36.2181 70.9746 36.1816C70.929 36.1361 70.8652 36.1087 70.7832 36.0996C70.5007 36.0632 69.5801 36.0449 68.0215 36.0449C67.1647 36.0449 66.5905 36.127 66.2988 36.291C65.9069 36.5189 65.319 37.1387 64.5352 38.1504C64.3073 38.4421 64.1387 38.5879 64.0293 38.5879C63.61 38.3691 63.3411 38.1914 63.2227 38.0547C63.5052 37.4622 63.8971 36.2773 64.3984 34.5C64.5443 33.9805 64.6491 33.6296 64.7129 33.4473ZM83.2793 43.127C83.2793 42.1243 83.3385 41.3405 83.457 40.7754C83.7305 39.4173 83.9948 38.4329 84.25 37.8223C84.651 36.8743 85.1204 36.1087 85.6582 35.5254C86.2051 34.9329 86.834 34.4863 87.5449 34.1855C87.9642 34.0033 88.5202 33.9121 89.2129 33.9121C90.0605 33.9121 90.8854 34.2083 91.6875 34.8008C92.4896 35.3932 93.2051 36.373 93.834 37.7402C94.4629 39.0983 94.7773 40.8073 94.7773 42.8672C94.7773 44.3893 94.6042 45.8203 94.2578 47.1602C94.0391 47.9714 93.7246 48.7233 93.3145 49.416C92.9134 50.0996 92.5807 50.5736 92.3164 50.8379C91.8607 51.2845 91.3594 51.64 90.8125 51.9043C90.2656 52.1686 89.8236 52.3008 89.4863 52.3008C88.4928 52.3008 87.7363 52.2005 87.2168 52C86.6973 51.8086 86.196 51.4577 85.7129 50.9473C85.2389 50.4368 84.8105 49.7852 84.4277 48.9922C84.054 48.1992 83.7852 47.4336 83.6211 46.6953C83.3932 45.6654 83.2793 44.4759 83.2793 43.127ZM86.8203 44.9316C86.8203 46.9368 86.8841 48.2949 87.0117 49.0059C87.1393 49.7077 87.3809 50.2363 87.7363 50.5918C88.1009 50.9382 88.4837 51.1113 88.8848 51.1113C89.2949 51.1113 89.6458 51.002 89.9375 50.7832C90.2292 50.5645 90.4753 50.2227 90.6758 49.7578C90.8854 49.2839 91.0312 48.541 91.1133 47.5293C91.25 45.8796 91.3184 44.6992 91.3184 43.9883L91.2773 42.1836V40.2559C91.2773 39.3444 91.2135 38.4967 91.0859 37.7129C90.9583 36.929 90.7852 36.3685 90.5664 36.0312C90.3568 35.6849 90.1016 35.4479 89.8008 35.3203C89.5091 35.1836 89.2266 35.1152 88.9531 35.1152C88.6159 35.1152 88.2513 35.2839 87.8594 35.6211C87.4674 35.9492 87.1849 36.5553 87.0117 37.4395C86.8385 38.3236 86.752 39.832 86.752 41.9648L86.7793 42.9355C86.8066 43.8743 86.8203 44.5397 86.8203 44.9316ZM105.77 34.0488L106.275 34.0352C106.339 34.0352 106.503 34.0397 106.768 34.0488C106.385 35.8809 106.107 36.9427 105.934 37.2344C105.824 37.4167 105.715 37.5169 105.605 37.5352C104.512 37.5807 103.933 37.6035 103.869 37.6035H103.5L102.625 37.6172C102.479 37.6172 102.26 37.6081 101.969 37.5898C101.203 37.5625 100.647 37.5488 100.301 37.5488C100.201 37.5488 100.05 37.5534 99.8496 37.5625C99.8132 37.8177 99.7949 38 99.7949 38.1094L99.7266 39.8867L99.6719 41.1719C100.064 40.9805 100.474 40.8392 100.902 40.748C101.34 40.6478 101.791 40.5977 102.256 40.5977C102.939 40.5977 103.605 40.7298 104.252 40.9941C104.908 41.2585 105.482 41.6322 105.975 42.1152C106.339 42.4798 106.695 42.9674 107.041 43.5781C107.287 44.0156 107.424 44.3438 107.451 44.5625C107.561 45.3646 107.615 45.7884 107.615 45.834C107.615 46.5358 107.538 47.1784 107.383 47.7617C107.237 48.3359 106.909 48.9785 106.398 49.6895C105.888 50.4004 105.428 50.8926 105.018 51.166C104.398 51.5853 103.723 51.877 102.994 52.041C102.274 52.2142 101.39 52.3008 100.342 52.3008C99.1113 52.3008 98.0814 52.0046 97.252 51.4121C96.7598 51.0566 96.5137 50.61 96.5137 50.0723C96.5137 49.6803 96.6549 49.3431 96.9375 49.0605C97.2292 48.778 97.5846 48.6367 98.0039 48.6367C98.651 48.6367 99.3073 49.0514 99.9727 49.8809C100.365 50.3822 100.661 50.6875 100.861 50.7969C101.171 50.9701 101.522 51.0566 101.914 51.0566C102.434 51.0566 102.939 50.9017 103.432 50.5918C103.933 50.2728 104.339 49.7943 104.648 49.1562C104.967 48.5091 105.127 47.9076 105.127 47.3516C105.127 46.3945 104.799 45.5742 104.143 44.8906C103.495 44.1979 102.721 43.8516 101.818 43.8516C101.354 43.8516 100.948 43.9062 100.602 44.0156C100.428 44.0703 100.105 44.2572 99.6309 44.5762L99.043 44.959C98.9336 45.0046 98.8288 45.0273 98.7285 45.0273C98.5918 45.0273 98.4779 44.9909 98.3867 44.918C98.3229 44.8542 98.291 44.7676 98.291 44.6582L98.4551 40.3242C98.4551 40.1328 98.4642 39.9642 98.4824 39.8184C98.5007 39.6725 98.5143 39.2943 98.5234 38.6836C98.5417 38.0638 98.5599 37.6217 98.5781 37.3574C98.6055 36.9655 98.6237 36.6419 98.6328 36.3867C98.6328 36.2044 98.6419 36.0267 98.6602 35.8535C98.6693 35.735 98.6738 35.6484 98.6738 35.5938L98.6602 35.0879C98.6602 34.8783 98.806 34.7279 99.0977 34.6367C99.2526 34.5911 99.9818 34.5684 101.285 34.5684L104.43 34.6094C104.931 34.6094 105.25 34.5775 105.387 34.5137C105.533 34.4408 105.66 34.2858 105.77 34.0488Z" fill="#555555"/>
<defs>
<linearGradient id="paint0_linear_762_6316" x1="48.8759" y1="69" x2="48.8759" y2="107" gradientUnits="userSpaceOnUse">
<stop stop-color="#C9C9C9"/>
<stop offset="1" stop-color="#B4B4B4"/>
</linearGradient>
<linearGradient id="paint1_linear_762_6316" x1="51.1131" y1="93.3164" x2="51.1131" y2="94.3164" gradientUnits="userSpaceOnUse">
<stop stop-color="#C9C9C9"/>
<stop offset="1" stop-color="#B4B4B4"/>
</linearGradient>
<linearGradient id="paint2_linear_762_6316" x1="122.124" y1="69" x2="122.124" y2="107" gradientUnits="userSpaceOnUse">
<stop stop-color="#C9C9C9"/>
<stop offset="1" stop-color="#B4B4B4"/>
</linearGradient>
<linearGradient id="paint3_linear_762_6316" x1="119.887" y1="93.3164" x2="119.887" y2="94.3164" gradientUnits="userSpaceOnUse">
<stop stop-color="#C9C9C9"/>
<stop offset="1" stop-color="#B4B4B4"/>
</linearGradient>
<linearGradient id="paint4_linear_762_6316" x1="85.5001" y1="75.5156" x2="85.5001" y2="106.794" gradientUnits="userSpaceOnUse">
<stop stop-color="#CDCDCD"/>
<stop offset="1" stop-color="#B4B4B4"/>
</linearGradient>
</defs>
</svg>
