<svg width="172" height="172" viewBox="0 0 172 172" fill="none" xmlns="http://www.w3.org/2000/svg">
<circle cx="86" cy="86" r="79" fill="#9CDA9C"/>
<mask id="path-2-inside-1_762_6301" fill="white">
<path d="M86 3.01C86 1.34762 87.3481 -0.00550148 89.0094 0.0526687C99.2764 0.412154 109.405 2.60874 118.911 6.54636C129.345 10.8683 138.825 17.203 146.811 25.1888C154.797 33.1747 161.132 42.6552 165.454 53.0892C169.776 63.5232 172 74.7063 172 86C172 97.2937 169.776 108.477 165.454 118.911C161.132 129.345 154.797 138.825 146.811 146.811C138.825 154.797 129.345 161.132 118.911 165.454C109.404 169.391 99.2764 171.588 89.0094 171.947C87.3481 172.006 86 170.652 86 168.99C86 167.328 87.3481 165.986 89.0093 165.923C98.4855 165.567 107.831 163.527 116.607 159.892C126.311 155.873 135.128 149.981 142.554 142.554C149.981 135.128 155.873 126.311 159.892 116.607C163.911 106.903 165.98 96.5031 165.98 86C165.98 75.4969 163.911 65.0966 159.892 55.393C155.873 45.6894 149.981 36.8724 142.554 29.4456C135.128 22.0188 126.311 16.1275 116.607 12.1081C107.831 8.47304 98.4855 6.43342 89.0093 6.07663C87.3481 6.01408 86 4.67237 86 3.01Z"/>
</mask>
<path d="M86 3.01C86 1.34762 87.3481 -0.00550148 89.0094 0.0526687C99.2764 0.412154 109.405 2.60874 118.911 6.54636C129.345 10.8683 138.825 17.203 146.811 25.1888C154.797 33.1747 161.132 42.6552 165.454 53.0892C169.776 63.5232 172 74.7063 172 86C172 97.2937 169.776 108.477 165.454 118.911C161.132 129.345 154.797 138.825 146.811 146.811C138.825 154.797 129.345 161.132 118.911 165.454C109.404 169.391 99.2764 171.588 89.0094 171.947C87.3481 172.006 86 170.652 86 168.99C86 167.328 87.3481 165.986 89.0093 165.923C98.4855 165.567 107.831 163.527 116.607 159.892C126.311 155.873 135.128 149.981 142.554 142.554C149.981 135.128 155.873 126.311 159.892 116.607C163.911 106.903 165.98 96.5031 165.98 86C165.98 75.4969 163.911 65.0966 159.892 55.393C155.873 45.6894 149.981 36.8724 142.554 29.4456C135.128 22.0188 126.311 16.1275 116.607 12.1081C107.831 8.47304 98.4855 6.43342 89.0093 6.07663C87.3481 6.01408 86 4.67237 86 3.01Z" stroke="#54BA54" stroke-width="12" mask="url(#path-2-inside-1_762_6301)"/>
<path fill-rule="evenodd" clip-rule="evenodd" d="M35.0399 78.2923C34.8521 78.2264 34.6458 78.2378 34.4664 78.324C34.2871 78.4102 34.1493 78.5641 34.0834 78.7518C34.0175 78.9396 34.0288 79.1459 34.115 79.3253C34.2012 79.5046 34.3551 79.6424 34.5429 79.7083L34.8039 79.7993C35.4719 80.0343 35.9109 80.1893 36.2339 80.3483C36.5369 80.4973 36.6699 80.6183 36.7579 80.7463C36.8479 80.8783 36.9179 81.0603 36.9579 81.4233C36.9979 81.8033 36.9999 82.2983 36.9999 83.0383V85.6403C36.9999 88.5823 37.0629 89.5523 37.9299 90.4663C38.7959 91.3803 40.1899 91.3803 42.9799 91.3803H48.2819C49.8429 91.3803 50.6239 91.3803 51.1749 90.9303C51.7269 90.4803 51.8849 89.7163 52.1999 88.1883L52.6999 85.7633C53.0469 84.0233 53.2199 83.1543 52.7759 82.5773C52.3319 82.0003 50.8159 82.0003 49.1309 82.0003H38.4919C38.4876 81.7539 38.4733 81.5077 38.4489 81.2623C38.3949 80.7653 38.2789 80.3123 37.9969 79.9003C37.7129 79.4843 37.3349 79.2183 36.8939 79.0013C36.4819 78.7993 35.9579 78.6153 35.3419 78.3983L35.0399 78.2923ZM47.5169 84.4573C47.8169 84.7433 47.8289 85.2173 47.5429 85.5173L44.6859 88.5173C44.6158 88.5909 44.5316 88.6494 44.4382 88.6894C44.3449 88.7294 44.2444 88.75 44.1429 88.75C44.0413 88.75 43.9408 88.7294 43.8475 88.6894C43.7542 88.6494 43.6699 88.5909 43.5999 88.5173L42.4569 87.3173C42.386 87.2466 42.3301 87.1624 42.2923 87.0698C42.2545 86.9771 42.2356 86.8778 42.2368 86.7777C42.238 86.6776 42.2592 86.5788 42.2992 86.487C42.3391 86.3952 42.3971 86.3124 42.4696 86.2434C42.5421 86.1744 42.6276 86.1206 42.7212 86.0851C42.8149 86.0497 42.9146 86.0334 43.0146 86.0371C43.1147 86.0408 43.2129 86.0645 43.3036 86.1068C43.3944 86.1491 43.4757 86.2091 43.5429 86.2833L44.1429 86.9133L46.4569 84.4833C46.594 84.3394 46.7827 84.2558 46.9815 84.2509C47.1802 84.246 47.3728 84.3203 47.5169 84.4573Z" fill="white"/>
<path d="M39.5 94C39.8978 94 40.2794 94.158 40.5607 94.4393C40.842 94.7206 41 95.1022 41 95.5C41 95.8978 40.842 96.2794 40.5607 96.5607C40.2794 96.842 39.8978 97 39.5 97C39.1022 97 38.7206 96.842 38.4393 96.5607C38.158 96.2794 38 95.8978 38 95.5C38 95.1022 38.158 94.7206 38.4393 94.4393C38.7206 94.158 39.1022 94 39.5 94ZM48.5 94C48.8978 94 49.2794 94.158 49.5607 94.4393C49.842 94.7206 50 95.1022 50 95.5C50 95.8978 49.842 96.2794 49.5607 96.5607C49.2794 96.842 48.8978 97 48.5 97C48.1022 97 47.7206 96.842 47.4393 96.5607C47.158 96.2794 47 95.8978 47 95.5C47 95.1022 47.158 94.7206 47.4393 94.4393C47.7206 94.158 48.1022 94 48.5 94Z" fill="white"/>
<path d="M67.0404 95C66.7471 95 66.5204 94.9267 66.3604 94.78C66.2137 94.62 66.1404 94.3933 66.1404 94.1V81.8C66.1404 81.5067 66.2137 81.2867 66.3604 81.14C66.5204 80.98 66.7471 80.9 67.0404 80.9H74.4804C74.7071 80.9 74.8804 80.96 75.0004 81.08C75.1204 81.2 75.1804 81.3667 75.1804 81.58C75.1804 81.8067 75.1204 81.98 75.0004 82.1C74.8804 82.22 74.7071 82.28 74.4804 82.28H67.7404V87.16H74.0604C74.2871 87.16 74.4604 87.22 74.5804 87.34C74.7004 87.4467 74.7604 87.6133 74.7604 87.84C74.7604 88.0667 74.7004 88.24 74.5804 88.36C74.4604 88.48 74.2871 88.54 74.0604 88.54H67.7404V93.62H74.4804C74.7071 93.62 74.8804 93.68 75.0004 93.8C75.1204 93.92 75.1804 94.0867 75.1804 94.3C75.1804 94.5267 75.1204 94.7 75.0004 94.82C74.8804 94.94 74.7071 95 74.4804 95H67.0404ZM82.0605 95.18C80.4472 95.18 79.2205 94.56 78.3805 93.32C77.5405 92.08 77.1205 90.2867 77.1205 87.94C77.1205 86.3667 77.3072 85.0467 77.6805 83.98C78.0539 82.9 78.6072 82.0867 79.3405 81.54C80.0872 80.9933 80.9939 80.72 82.0605 80.72C83.6872 80.72 84.9139 81.3333 85.7405 82.56C86.5805 83.7733 87.0005 85.56 87.0005 87.92C87.0005 89.4933 86.8139 90.82 86.4405 91.9C86.0672 92.98 85.5139 93.8 84.7805 94.36C84.0472 94.9067 83.1405 95.18 82.0605 95.18ZM82.0605 93.76C83.1805 93.76 84.0072 93.2867 84.5405 92.34C85.0872 91.38 85.3605 89.9067 85.3605 87.92C85.3605 85.92 85.0872 84.46 84.5405 83.54C84.0072 82.6067 83.1805 82.14 82.0605 82.14C80.9539 82.14 80.1272 82.6067 79.5805 83.54C79.0339 84.4733 78.7605 85.9333 78.7605 87.92C78.7605 89.9067 79.0339 91.38 79.5805 92.34C80.1272 93.2867 80.9539 93.76 82.0605 93.76ZM96.4127 95.14C96.1594 95.14 95.9594 95.0667 95.8127 94.92C95.6661 94.7733 95.5927 94.5667 95.5927 94.3V91.98H89.8527C89.5861 91.98 89.3727 91.92 89.2127 91.8C89.0661 91.6667 88.9927 91.48 88.9927 91.24C88.9927 91.0933 89.0261 90.9467 89.0927 90.8C89.1594 90.64 89.2794 90.44 89.4527 90.2L95.5527 81.32C95.6727 81.1333 95.8061 80.9933 95.9527 80.9C96.0994 80.8067 96.2727 80.76 96.4727 80.76C96.6861 80.76 96.8661 80.8267 97.0127 80.96C97.1727 81.0933 97.2527 81.3067 97.2527 81.6V90.58H98.7127C98.9661 90.58 99.1594 90.64 99.2927 90.76C99.4261 90.88 99.4927 91.0533 99.4927 91.28C99.4927 91.5067 99.4261 91.68 99.2927 91.8C99.1594 91.92 98.9661 91.98 98.7127 91.98H97.2527V94.3C97.2527 94.5667 97.1794 94.7733 97.0327 94.92C96.8861 95.0667 96.6794 95.14 96.4127 95.14ZM95.5927 90.58V82.82H96.0727L90.4727 91.02V90.58H95.5927ZM101.485 95.14C101.272 95.14 101.098 95.0933 100.965 95C100.845 94.8933 100.772 94.76 100.745 94.6C100.732 94.4267 100.772 94.2333 100.865 94.02L106.365 81.5C106.485 81.2333 106.625 81.0467 106.785 80.94C106.958 80.82 107.145 80.76 107.345 80.76C107.545 80.76 107.725 80.82 107.885 80.94C108.058 81.0467 108.198 81.2333 108.305 81.5L113.825 94.02C113.932 94.2333 113.972 94.4267 113.945 94.6C113.932 94.7733 113.865 94.9067 113.745 95C113.625 95.0933 113.458 95.14 113.245 95.14C113.005 95.14 112.812 95.08 112.665 94.96C112.518 94.8267 112.398 94.64 112.305 94.4L110.825 90.98L111.625 91.4H103.025L103.845 90.98L102.385 94.4C102.265 94.6533 102.138 94.84 102.005 94.96C101.872 95.08 101.698 95.14 101.485 95.14ZM107.325 82.82L104.105 90.4L103.625 90.02H111.025L110.585 90.4L107.365 82.82H107.325ZM117.715 95C117.475 95 117.289 94.94 117.155 94.82C117.022 94.6867 116.955 94.5067 116.955 94.28C116.955 94.0533 117.022 93.8867 117.155 93.78C117.289 93.66 117.475 93.6 117.715 93.6H120.315V82.26H121.175L118.275 84.18C118.102 84.2733 117.935 84.3133 117.775 84.3C117.629 84.2867 117.502 84.2333 117.395 84.14C117.302 84.0333 117.235 83.9133 117.195 83.78C117.155 83.6333 117.162 83.4867 117.215 83.34C117.269 83.18 117.382 83.0467 117.555 82.94L120.315 81.12C120.489 81.0133 120.655 80.9267 120.815 80.86C120.975 80.7933 121.135 80.76 121.295 80.76C121.482 80.76 121.635 80.82 121.755 80.94C121.889 81.0467 121.955 81.22 121.955 81.46V93.6H124.355C124.595 93.6 124.782 93.66 124.915 93.78C125.049 93.8867 125.115 94.0533 125.115 94.28C125.115 94.52 125.049 94.7 124.915 94.82C124.782 94.94 124.595 95 124.355 95H117.715ZM132.907 95.18C132.147 95.18 131.387 95.0667 130.627 94.84C129.881 94.6133 129.201 94.26 128.587 93.78C128.427 93.6733 128.321 93.5467 128.267 93.4C128.214 93.2533 128.207 93.1067 128.247 92.96C128.287 92.8133 128.361 92.6933 128.467 92.6C128.574 92.4933 128.701 92.4333 128.847 92.42C129.007 92.4067 129.174 92.46 129.347 92.58C129.894 92.9667 130.461 93.2533 131.047 93.44C131.634 93.6267 132.247 93.72 132.887 93.72C133.541 93.72 134.101 93.6 134.567 93.36C135.047 93.1067 135.407 92.76 135.647 92.32C135.901 91.8667 136.027 91.34 136.027 90.74C136.027 89.82 135.761 89.0667 135.227 88.48C134.694 87.8933 133.961 87.6 133.027 87.6C132.454 87.6 131.927 87.7067 131.447 87.92C130.967 88.1333 130.527 88.4733 130.127 88.94C130.034 89.0467 129.921 89.14 129.787 89.22C129.667 89.2867 129.527 89.32 129.367 89.32C129.141 89.32 128.961 89.26 128.827 89.14C128.707 89.0067 128.647 88.8333 128.647 88.62V81.66C128.647 81.4067 128.714 81.22 128.847 81.1C128.981 80.9667 129.167 80.9 129.407 80.9H136.207C136.461 80.9 136.647 80.96 136.767 81.08C136.901 81.2 136.967 81.3733 136.967 81.6C136.967 81.8267 136.901 82 136.767 82.12C136.647 82.24 136.461 82.3 136.207 82.3H130.267V87.92H129.827C130.174 87.36 130.654 86.9333 131.267 86.64C131.881 86.3333 132.567 86.18 133.327 86.18C134.221 86.18 134.987 86.3667 135.627 86.74C136.281 87.1133 136.781 87.64 137.127 88.32C137.487 88.9867 137.667 89.7667 137.667 90.66C137.667 91.54 137.474 92.32 137.087 93C136.701 93.68 136.154 94.2133 135.447 94.6C134.741 94.9867 133.894 95.18 132.907 95.18Z" fill="white"/>
<path d="M56.3833 118.333C55.9167 117.35 54.9167 116.667 53.75 116.667H50V115H60V116.667H57.2833C57.6833 117.15 57.9833 117.717 58.1583 118.333H60V120H58.3167C58.1083 122.333 56.1417 124.167 53.75 124.167H53.1417L58.75 130H56.4417L50.8333 124.167V122.5H53.75C55.2167 122.5 56.4333 121.417 56.6333 120H50V118.333H56.3833Z" fill="white"/>
<path d="M68.3441 129C68.1041 129 67.9175 128.94 67.7841 128.82C67.6508 128.687 67.5841 128.507 67.5841 128.28C67.5841 128.053 67.6508 127.887 67.7841 127.78C67.9175 127.66 68.1041 127.6 68.3441 127.6H70.9441V116.26H71.8041L68.9041 118.18C68.7308 118.273 68.5641 118.313 68.4041 118.3C68.2575 118.287 68.1308 118.233 68.0241 118.14C67.9308 118.033 67.8641 117.913 67.8241 117.78C67.7841 117.633 67.7908 117.487 67.8441 117.34C67.8975 117.18 68.0108 117.047 68.1841 116.94L70.9441 115.12C71.1175 115.013 71.2841 114.927 71.4441 114.86C71.6041 114.793 71.7641 114.76 71.9241 114.76C72.1108 114.76 72.2641 114.82 72.3841 114.94C72.5175 115.047 72.5841 115.22 72.5841 115.46V127.6H74.9841C75.2241 127.6 75.4108 127.66 75.5441 127.78C75.6775 127.887 75.7441 128.053 75.7441 128.28C75.7441 128.52 75.6775 128.7 75.5441 128.82C75.4108 128.94 75.2241 129 74.9841 129H68.3441ZM85.5963 129.14C85.343 129.14 85.143 129.067 84.9963 128.92C84.8497 128.773 84.7763 128.567 84.7763 128.3V125.98H79.0363C78.7697 125.98 78.5563 125.92 78.3963 125.8C78.2497 125.667 78.1763 125.48 78.1763 125.24C78.1763 125.093 78.2097 124.947 78.2763 124.8C78.343 124.64 78.463 124.44 78.6363 124.2L84.7363 115.32C84.8563 115.133 84.9897 114.993 85.1363 114.9C85.283 114.807 85.4563 114.76 85.6563 114.76C85.8697 114.76 86.0497 114.827 86.1963 114.96C86.3563 115.093 86.4363 115.307 86.4363 115.6V124.58H87.8963C88.1497 124.58 88.343 124.64 88.4763 124.76C88.6097 124.88 88.6763 125.053 88.6763 125.28C88.6763 125.507 88.6097 125.68 88.4763 125.8C88.343 125.92 88.1497 125.98 87.8963 125.98H86.4363V128.3C86.4363 128.567 86.363 128.773 86.2163 128.92C86.0697 129.067 85.863 129.14 85.5963 129.14ZM84.7763 124.58V116.82H85.2563L79.6563 125.02V124.58H84.7763ZM91.7085 130.9C91.5752 131.073 91.4352 131.173 91.2885 131.2C91.1418 131.227 91.0152 131.2 90.9085 131.12C90.8018 131.04 90.7418 130.927 90.7285 130.78C90.7285 130.633 90.7952 130.473 90.9285 130.3C91.1418 130.02 91.2885 129.733 91.3685 129.44C91.4485 129.16 91.4885 128.9 91.4885 128.66L91.5685 129.08C91.2218 129.08 90.9418 128.98 90.7285 128.78C90.5285 128.567 90.4285 128.3 90.4285 127.98C90.4285 127.66 90.5218 127.4 90.7085 127.2C90.9085 126.987 91.1685 126.88 91.4885 126.88C91.8352 126.88 92.1085 127 92.3085 127.24C92.5085 127.467 92.6085 127.8 92.6085 128.24C92.6085 128.52 92.5818 128.807 92.5285 129.1C92.4752 129.407 92.3818 129.713 92.2485 130.02C92.1152 130.327 91.9352 130.62 91.7085 130.9ZM99.7793 129.18C98.726 129.18 97.8193 129.027 97.0593 128.72C96.3126 128.413 95.7393 127.967 95.3393 127.38C94.9526 126.793 94.7593 126.087 94.7593 125.26C94.7593 124.607 94.8926 124.027 95.1593 123.52C95.426 123 95.7993 122.58 96.2793 122.26C96.7593 121.94 97.3126 121.74 97.9393 121.66V121.96C97.0726 121.773 96.3793 121.367 95.8593 120.74C95.3526 120.1 95.0993 119.347 95.0993 118.48C95.0993 117.68 95.286 117.007 95.6593 116.46C96.046 115.9 96.5926 115.473 97.2993 115.18C98.006 114.873 98.8326 114.72 99.7793 114.72C100.739 114.72 101.566 114.873 102.259 115.18C102.966 115.473 103.513 115.9 103.899 116.46C104.286 117.007 104.479 117.68 104.479 118.48C104.479 119.053 104.359 119.587 104.119 120.08C103.893 120.56 103.566 120.96 103.139 121.28C102.713 121.6 102.213 121.82 101.639 121.94V121.66C102.586 121.793 103.346 122.187 103.919 122.84C104.506 123.48 104.799 124.287 104.799 125.26C104.799 126.087 104.599 126.793 104.199 127.38C103.813 127.967 103.239 128.413 102.479 128.72C101.733 129.027 100.833 129.18 99.7793 129.18ZM99.7793 127.82C100.913 127.82 101.766 127.6 102.339 127.16C102.926 126.72 103.219 126.053 103.219 125.16C103.219 124.28 102.926 123.627 102.339 123.2C101.766 122.76 100.913 122.54 99.7793 122.54C98.6593 122.54 97.806 122.76 97.2193 123.2C96.6326 123.627 96.3393 124.28 96.3393 125.16C96.3393 126.053 96.6326 126.72 97.2193 127.16C97.806 127.6 98.6593 127.82 99.7793 127.82ZM99.7793 121.18C100.433 121.18 100.986 121.08 101.439 120.88C101.906 120.667 102.266 120.367 102.519 119.98C102.773 119.593 102.899 119.14 102.899 118.62C102.899 117.82 102.619 117.2 102.059 116.76C101.513 116.307 100.753 116.08 99.7793 116.08C98.806 116.08 98.046 116.307 97.4993 116.76C96.9526 117.2 96.6793 117.82 96.6793 118.62C96.6793 119.42 96.9526 120.047 97.4993 120.5C98.046 120.953 98.806 121.18 99.7793 121.18ZM111.771 129.18C110.158 129.18 108.931 128.56 108.091 127.32C107.251 126.08 106.831 124.287 106.831 121.94C106.831 120.367 107.018 119.047 107.391 117.98C107.765 116.9 108.318 116.087 109.051 115.54C109.798 114.993 110.705 114.72 111.771 114.72C113.398 114.72 114.625 115.333 115.451 116.56C116.291 117.773 116.711 119.56 116.711 121.92C116.711 123.493 116.525 124.82 116.151 125.9C115.778 126.98 115.225 127.8 114.491 128.36C113.758 128.907 112.851 129.18 111.771 129.18ZM111.771 127.76C112.891 127.76 113.718 127.287 114.251 126.34C114.798 125.38 115.071 123.907 115.071 121.92C115.071 119.92 114.798 118.46 114.251 117.54C113.718 116.607 112.891 116.14 111.771 116.14C110.665 116.14 109.838 116.607 109.291 117.54C108.745 118.473 108.471 119.933 108.471 121.92C108.471 123.907 108.745 125.38 109.291 126.34C109.838 127.287 110.665 127.76 111.771 127.76ZM123.764 129.18C122.15 129.18 120.924 128.56 120.084 127.32C119.244 126.08 118.824 124.287 118.824 121.94C118.824 120.367 119.01 119.047 119.384 117.98C119.757 116.9 120.31 116.087 121.044 115.54C121.79 114.993 122.697 114.72 123.764 114.72C125.39 114.72 126.617 115.333 127.444 116.56C128.284 117.773 128.704 119.56 128.704 121.92C128.704 123.493 128.517 124.82 128.144 125.9C127.77 126.98 127.217 127.8 126.484 128.36C125.75 128.907 124.844 129.18 123.764 129.18ZM123.764 127.76C124.884 127.76 125.71 127.287 126.244 126.34C126.79 125.38 127.064 123.907 127.064 121.92C127.064 119.92 126.79 118.46 126.244 117.54C125.71 116.607 124.884 116.14 123.764 116.14C122.657 116.14 121.83 116.607 121.284 117.54C120.737 118.473 120.464 119.933 120.464 121.92C120.464 123.907 120.737 125.38 121.284 126.34C121.83 127.287 122.657 127.76 123.764 127.76Z" fill="white"/>
<path d="M64.7129 33.4473H65.5605C65.6243 33.5475 65.6699 33.6204 65.6973 33.666C65.9525 34.1035 66.1484 34.3906 66.2852 34.5273C66.4036 34.5638 67.028 34.582 68.1582 34.582C68.86 34.582 69.4844 34.5775 70.0312 34.5684L70.3047 34.5273L71.959 34.5137L75.0488 34.541H79.2734L80.0801 34.418C80.1986 34.3359 80.3262 34.1172 80.4629 33.7617C80.4993 33.6797 80.5495 33.5658 80.6133 33.4199L81.2148 33.4062C81.306 33.4062 81.4427 33.4108 81.625 33.4199C81.6341 34.0488 81.6387 34.9967 81.6387 36.2637L81.6523 37.4805L81.6387 38.1777C81.6387 38.4147 81.6204 38.6198 81.584 38.793C81.2103 38.9115 80.8822 38.9844 80.5996 39.0117C80.3626 38.6562 80.1029 38.1413 79.8203 37.4668C79.5469 36.7923 79.3737 36.4186 79.3008 36.3457C79.1914 36.2272 79.0638 36.1497 78.918 36.1133C78.6992 36.0677 77.7331 36.0449 76.0195 36.0449C75.7643 36.0449 75.4453 36.0632 75.0625 36.0996C75.0078 36.4551 74.9805 36.7467 74.9805 36.9746L74.9941 38.8066V42.8262L75.0488 47.1602L75.0352 48.9375C75.0352 49.5664 75.0898 50.0404 75.1992 50.3594C75.3451 50.4232 75.6139 50.4824 76.0059 50.5371C76.0788 50.5462 76.416 50.6191 77.0176 50.7559C77.291 50.8197 77.5326 50.8926 77.7422 50.9746C77.7878 51.3027 77.8105 51.5033 77.8105 51.5762C77.8105 51.6582 77.7969 51.7767 77.7695 51.9316C77.569 51.9408 77.4049 51.9453 77.2773 51.9453C76.3385 51.9453 75.541 51.9134 74.8848 51.8496C74.2285 51.7767 73.0391 51.7402 71.3164 51.7402C71.043 51.7402 70.2409 51.7949 68.9102 51.9043C68.3906 51.9408 68.0534 51.959 67.8984 51.959C67.8893 51.8223 67.8802 51.7174 67.8711 51.6445L67.8574 51.3301V51.2207C68.0579 50.9564 68.4362 50.7604 68.9922 50.6328C69.9401 50.4049 70.5964 50.1999 70.9609 50.0176C71.0521 49.8444 71.1068 49.6165 71.125 49.334C71.1888 48.2402 71.2207 46.4993 71.2207 44.1113L71.1523 38.9434C71.1523 37.5215 71.125 36.6602 71.0703 36.3594C71.0521 36.2773 71.0202 36.2181 70.9746 36.1816C70.929 36.1361 70.8652 36.1087 70.7832 36.0996C70.5007 36.0632 69.5801 36.0449 68.0215 36.0449C67.1647 36.0449 66.5905 36.127 66.2988 36.291C65.9069 36.5189 65.319 37.1387 64.5352 38.1504C64.3073 38.4421 64.1387 38.5879 64.0293 38.5879C63.61 38.3691 63.3411 38.1914 63.2227 38.0547C63.5052 37.4622 63.8971 36.2773 64.3984 34.5C64.5443 33.9805 64.6491 33.6296 64.7129 33.4473ZM83.2793 43.127C83.2793 42.1243 83.3385 41.3405 83.457 40.7754C83.7305 39.4173 83.9948 38.4329 84.25 37.8223C84.651 36.8743 85.1204 36.1087 85.6582 35.5254C86.2051 34.9329 86.834 34.4863 87.5449 34.1855C87.9642 34.0033 88.5202 33.9121 89.2129 33.9121C90.0605 33.9121 90.8854 34.2083 91.6875 34.8008C92.4896 35.3932 93.2051 36.373 93.834 37.7402C94.4629 39.0983 94.7773 40.8073 94.7773 42.8672C94.7773 44.3893 94.6042 45.8203 94.2578 47.1602C94.0391 47.9714 93.7246 48.7233 93.3145 49.416C92.9134 50.0996 92.5807 50.5736 92.3164 50.8379C91.8607 51.2845 91.3594 51.64 90.8125 51.9043C90.2656 52.1686 89.8236 52.3008 89.4863 52.3008C88.4928 52.3008 87.7363 52.2005 87.2168 52C86.6973 51.8086 86.196 51.4577 85.7129 50.9473C85.2389 50.4368 84.8105 49.7852 84.4277 48.9922C84.054 48.1992 83.7852 47.4336 83.6211 46.6953C83.3932 45.6654 83.2793 44.4759 83.2793 43.127ZM86.8203 44.9316C86.8203 46.9368 86.8841 48.2949 87.0117 49.0059C87.1393 49.7077 87.3809 50.2363 87.7363 50.5918C88.1009 50.9382 88.4837 51.1113 88.8848 51.1113C89.2949 51.1113 89.6458 51.002 89.9375 50.7832C90.2292 50.5645 90.4753 50.2227 90.6758 49.7578C90.8854 49.2839 91.0312 48.541 91.1133 47.5293C91.25 45.8796 91.3184 44.6992 91.3184 43.9883L91.2773 42.1836V40.2559C91.2773 39.3444 91.2135 38.4967 91.0859 37.7129C90.9583 36.929 90.7852 36.3685 90.5664 36.0312C90.3568 35.6849 90.1016 35.4479 89.8008 35.3203C89.5091 35.1836 89.2266 35.1152 88.9531 35.1152C88.6159 35.1152 88.2513 35.2839 87.8594 35.6211C87.4674 35.9492 87.1849 36.5553 87.0117 37.4395C86.8385 38.3236 86.752 39.832 86.752 41.9648L86.7793 42.9355C86.8066 43.8743 86.8203 44.5397 86.8203 44.9316ZM101.121 42.9492C101.112 42.7487 101.107 42.5983 101.107 42.498C101.107 42.3978 101.112 42.2428 101.121 42.0332C101.194 42.015 101.363 41.9466 101.627 41.8281C102.256 41.5456 102.885 41.4043 103.514 41.4043C104.762 41.4043 105.811 41.8691 106.658 42.7988C107.515 43.7285 107.943 44.9954 107.943 46.5996C107.943 48.3405 107.424 49.7259 106.385 50.7559C105.355 51.7858 103.928 52.3008 102.105 52.3008C101.285 52.3008 100.556 52.1322 99.918 51.7949C99.2799 51.4577 98.7148 50.9837 98.2227 50.373C97.7305 49.7533 97.3522 49.1107 97.0879 48.4453C96.6686 47.3516 96.459 46.1712 96.459 44.9043C96.459 43.8197 96.6458 42.6667 97.0195 41.4453C97.3932 40.224 97.9583 39.153 98.7148 38.2324C99.4805 37.3027 100.346 36.5371 101.312 35.9355C102.279 35.3249 103.131 34.8828 103.869 34.6094C105.291 34.0898 106.367 33.8301 107.096 33.8301C107.232 33.8301 107.337 33.8757 107.41 33.9668C107.492 34.0579 107.533 34.1992 107.533 34.3906C107.533 34.5911 107.51 34.7507 107.465 34.8691C107.273 34.9512 106.923 35.0514 106.412 35.1699C105.255 35.4616 104.243 35.9447 103.377 36.6191C102.511 37.2936 101.868 37.9909 101.449 38.7109C100.875 39.7044 100.479 40.821 100.26 42.0605C100.041 43.291 99.9316 44.5124 99.9316 45.7246C99.9316 47.0918 100.018 48.2129 100.191 49.0879C100.374 49.9538 100.679 50.5736 101.107 50.9473C101.399 51.1842 101.814 51.3027 102.352 51.3027C102.661 51.3027 102.903 51.2572 103.076 51.166C103.468 50.9655 103.751 50.7467 103.924 50.5098C104.243 50.0632 104.452 49.5391 104.553 48.9375C104.662 48.3359 104.717 47.707 104.717 47.0508C104.717 45.401 104.484 44.2663 104.02 43.6465C103.564 43.0267 102.994 42.7168 102.311 42.7168C102.01 42.7168 101.613 42.7943 101.121 42.9492Z" fill="#278827"/>
</svg>
