<svg width="172" height="172" viewBox="0 0 172 172" fill="none" xmlns="http://www.w3.org/2000/svg">
<circle cx="86" cy="86" r="79" fill="#B3D9E2"/>
<circle cx="86" cy="86" r="83" stroke="#D3F5FF" stroke-width="6"/>
<mask id="path-3-inside-1_762_6177" fill="white">
<path d="M164.257 58.3732C165.824 57.8198 166.651 56.0981 166.043 54.5508C161.966 44.1743 155.907 34.68 148.194 26.6036C140.481 18.5271 131.275 12.0374 121.097 7.48753C119.579 6.80911 117.821 7.55622 117.196 9.09668C116.572 10.6371 117.316 12.3872 118.832 13.0696C128.222 17.2966 136.716 23.3011 143.84 30.7613C150.965 38.2215 156.572 46.9825 160.363 56.5563C160.975 58.1019 162.689 58.9266 164.257 58.3732Z"/>
</mask>
<path d="M164.257 58.3732C165.824 57.8198 166.651 56.0981 166.043 54.5508C161.966 44.1743 155.907 34.68 148.194 26.6036C140.481 18.5271 131.275 12.0374 121.097 7.48753C119.579 6.80911 117.821 7.55622 117.196 9.09668C116.572 10.6371 117.316 12.3872 118.832 13.0696C128.222 17.2966 136.716 23.3011 143.84 30.7613C150.965 38.2215 156.572 46.9825 160.363 56.5563C160.975 58.1019 162.689 58.9266 164.257 58.3732Z" stroke="#B3D9E2" stroke-width="8" mask="url(#path-3-inside-1_762_6177)"/>
<path d="M64.7129 33.4473H65.5605C65.6243 33.5475 65.6699 33.6204 65.6973 33.666C65.9525 34.1035 66.1484 34.3906 66.2852 34.5273C66.4036 34.5638 67.028 34.582 68.1582 34.582C68.86 34.582 69.4844 34.5775 70.0312 34.5684L70.3047 34.5273L71.959 34.5137L75.0488 34.541H79.2734L80.0801 34.418C80.1986 34.3359 80.3262 34.1172 80.4629 33.7617C80.4993 33.6797 80.5495 33.5658 80.6133 33.4199L81.2148 33.4062C81.306 33.4062 81.4427 33.4108 81.625 33.4199C81.6341 34.0488 81.6387 34.9967 81.6387 36.2637L81.6523 37.4805L81.6387 38.1777C81.6387 38.4147 81.6204 38.6198 81.584 38.793C81.2103 38.9115 80.8822 38.9844 80.5996 39.0117C80.3626 38.6562 80.1029 38.1413 79.8203 37.4668C79.5469 36.7923 79.3737 36.4186 79.3008 36.3457C79.1914 36.2272 79.0638 36.1497 78.918 36.1133C78.6992 36.0677 77.7331 36.0449 76.0195 36.0449C75.7643 36.0449 75.4453 36.0632 75.0625 36.0996C75.0078 36.4551 74.9805 36.7467 74.9805 36.9746L74.9941 38.8066V42.8262L75.0488 47.1602L75.0352 48.9375C75.0352 49.5664 75.0898 50.0404 75.1992 50.3594C75.3451 50.4232 75.6139 50.4824 76.0059 50.5371C76.0788 50.5462 76.416 50.6191 77.0176 50.7559C77.291 50.8197 77.5326 50.8926 77.7422 50.9746C77.7878 51.3027 77.8105 51.5033 77.8105 51.5762C77.8105 51.6582 77.7969 51.7767 77.7695 51.9316C77.569 51.9408 77.4049 51.9453 77.2773 51.9453C76.3385 51.9453 75.541 51.9134 74.8848 51.8496C74.2285 51.7767 73.0391 51.7402 71.3164 51.7402C71.043 51.7402 70.2409 51.7949 68.9102 51.9043C68.3906 51.9408 68.0534 51.959 67.8984 51.959C67.8893 51.8223 67.8802 51.7174 67.8711 51.6445L67.8574 51.3301V51.2207C68.0579 50.9564 68.4362 50.7604 68.9922 50.6328C69.9401 50.4049 70.5964 50.1999 70.9609 50.0176C71.0521 49.8444 71.1068 49.6165 71.125 49.334C71.1888 48.2402 71.2207 46.4993 71.2207 44.1113L71.1523 38.9434C71.1523 37.5215 71.125 36.6602 71.0703 36.3594C71.0521 36.2773 71.0202 36.2181 70.9746 36.1816C70.929 36.1361 70.8652 36.1087 70.7832 36.0996C70.5007 36.0632 69.5801 36.0449 68.0215 36.0449C67.1647 36.0449 66.5905 36.127 66.2988 36.291C65.9069 36.5189 65.319 37.1387 64.5352 38.1504C64.3073 38.4421 64.1387 38.5879 64.0293 38.5879C63.61 38.3691 63.3411 38.1914 63.2227 38.0547C63.5052 37.4622 63.8971 36.2773 64.3984 34.5C64.5443 33.9805 64.6491 33.6296 64.7129 33.4473ZM83.2793 43.127C83.2793 42.1243 83.3385 41.3405 83.457 40.7754C83.7305 39.4173 83.9948 38.4329 84.25 37.8223C84.651 36.8743 85.1204 36.1087 85.6582 35.5254C86.2051 34.9329 86.834 34.4863 87.5449 34.1855C87.9642 34.0033 88.5202 33.9121 89.2129 33.9121C90.0605 33.9121 90.8854 34.2083 91.6875 34.8008C92.4896 35.3932 93.2051 36.373 93.834 37.7402C94.4629 39.0983 94.7773 40.8073 94.7773 42.8672C94.7773 44.3893 94.6042 45.8203 94.2578 47.1602C94.0391 47.9714 93.7246 48.7233 93.3145 49.416C92.9134 50.0996 92.5807 50.5736 92.3164 50.8379C91.8607 51.2845 91.3594 51.64 90.8125 51.9043C90.2656 52.1686 89.8236 52.3008 89.4863 52.3008C88.4928 52.3008 87.7363 52.2005 87.2168 52C86.6973 51.8086 86.196 51.4577 85.7129 50.9473C85.2389 50.4368 84.8105 49.7852 84.4277 48.9922C84.054 48.1992 83.7852 47.4336 83.6211 46.6953C83.3932 45.6654 83.2793 44.4759 83.2793 43.127ZM86.8203 44.9316C86.8203 46.9368 86.8841 48.2949 87.0117 49.0059C87.1393 49.7077 87.3809 50.2363 87.7363 50.5918C88.1009 50.9382 88.4837 51.1113 88.8848 51.1113C89.2949 51.1113 89.6458 51.002 89.9375 50.7832C90.2292 50.5645 90.4753 50.2227 90.6758 49.7578C90.8854 49.2839 91.0312 48.541 91.1133 47.5293C91.25 45.8796 91.3184 44.6992 91.3184 43.9883L91.2773 42.1836V40.2559C91.2773 39.3444 91.2135 38.4967 91.0859 37.7129C90.9583 36.929 90.7852 36.3685 90.5664 36.0312C90.3568 35.6849 90.1016 35.4479 89.8008 35.3203C89.5091 35.1836 89.2266 35.1152 88.9531 35.1152C88.6159 35.1152 88.2513 35.2839 87.8594 35.6211C87.4674 35.9492 87.1849 36.5553 87.0117 37.4395C86.8385 38.3236 86.752 39.832 86.752 41.9648L86.7793 42.9355C86.8066 43.8743 86.8203 44.5397 86.8203 44.9316ZM97.0469 34.4453C97.4115 34.4453 97.9811 34.4316 98.7559 34.4043L102.105 34.4727L104.936 34.4316L106.562 34.4453L107.123 34.418C107.242 34.418 107.415 34.4271 107.643 34.4453C107.67 34.7826 107.684 35.0605 107.684 35.2793C107.684 35.5436 107.497 36.1816 107.123 37.1934C106.859 37.9043 106.617 38.5924 106.398 39.2578C106.189 39.9232 106.029 40.4017 105.92 40.6934C105.665 41.3496 105.464 41.9193 105.318 42.4023C105.163 42.776 104.99 43.2318 104.799 43.7695L104.129 45.6426C104.02 45.9707 103.805 46.554 103.486 47.3926L102.393 50.4277C102.301 50.6283 102.256 50.7832 102.256 50.8926C102.256 51.0384 102.352 51.1842 102.543 51.3301C102.743 51.4668 102.844 51.6035 102.844 51.7402C102.844 51.9134 102.766 52.0957 102.611 52.2871H102.256L101.23 52.2734C101.176 52.2643 101.016 52.2643 100.752 52.2734C100.488 52.2917 100.278 52.3008 100.123 52.3008C100.005 52.3008 99.8223 52.2962 99.5762 52.2871C99.6035 52.0137 99.7904 51.5169 100.137 50.7969C100.337 50.3685 100.779 49.252 101.463 47.4473L103.91 41.0762L104.525 39.4492C104.644 39.2031 104.776 38.8613 104.922 38.4238C104.967 38.2871 105.054 38.0501 105.182 37.7129C104.288 37.6673 103.564 37.6445 103.008 37.6445L100.971 37.6719L99.3438 37.6445C98.8333 37.6445 98.487 37.7174 98.3047 37.8633C98.1224 38 97.9948 38.2507 97.9219 38.6152C97.849 38.9798 97.7533 39.2122 97.6348 39.3125C97.5254 39.4036 97.334 39.4492 97.0605 39.4492C96.9056 39.4492 96.7871 39.4036 96.7051 39.3125C96.623 39.2214 96.582 39.0892 96.582 38.916C96.582 38.4785 96.6367 37.8086 96.7461 36.9062C96.8099 36.4505 96.86 36.0085 96.8965 35.5801C96.9421 35.1426 96.9922 34.7643 97.0469 34.4453Z" fill="#14809E"/>
<path d="M54.3337 89H59.6673V90.7143H54.3337V89ZM63.2498 94.4771L64.5121 93.26C64.1298 92.8229 63.712 92.4114 63.2587 92.0514L61.9964 93.2686C60.5806 92.17 58.8178 91.5712 57.0005 91.5714C54.8786 91.5714 52.8437 92.3842 51.3433 93.8309C49.8429 95.2776 49 97.2398 49 99.2857C49 103.546 52.5736 107 57.0005 107C58.5066 107.001 59.9824 106.591 61.2578 105.819C62.5332 105.046 63.5563 103.942 64.2093 102.633C64.8624 101.325 65.1188 99.8649 64.949 98.4219C64.7793 96.9789 64.1902 95.6115 63.2498 94.4771ZM60.4 101.1L59 102.5L56.1116 99.1429V95H57.8894V98.2857L60.4 101.1Z" fill="white"/>
<path d="M79.2402 105.18C77.6269 105.18 76.4002 104.56 75.5602 103.32C74.7202 102.08 74.3002 100.287 74.3002 97.94C74.3002 96.3667 74.4869 95.0467 74.8602 93.98C75.2336 92.9 75.7869 92.0867 76.5202 91.54C77.2669 90.9933 78.1736 90.72 79.2402 90.72C80.8669 90.72 82.0936 91.3333 82.9202 92.56C83.7602 93.7733 84.1802 95.56 84.1802 97.92C84.1802 99.4933 83.9936 100.82 83.6202 101.9C83.2469 102.98 82.6936 103.8 81.9602 104.36C81.2269 104.907 80.3202 105.18 79.2402 105.18ZM79.2402 103.76C80.3602 103.76 81.1869 103.287 81.7202 102.34C82.2669 101.38 82.5402 99.9067 82.5402 97.92C82.5402 95.92 82.2669 94.46 81.7202 93.54C81.1869 92.6067 80.3602 92.14 79.2402 92.14C78.1336 92.14 77.3069 92.6067 76.7602 93.54C76.2136 94.4733 75.9402 95.9333 75.9402 97.92C75.9402 99.9067 76.2136 101.38 76.7602 102.34C77.3069 103.287 78.1336 103.76 79.2402 103.76ZM91.2324 105.18C90.1791 105.18 89.2724 105.027 88.5124 104.72C87.7658 104.413 87.1924 103.967 86.7924 103.38C86.4058 102.793 86.2124 102.087 86.2124 101.26C86.2124 100.607 86.3458 100.027 86.6124 99.52C86.8791 99 87.2524 98.58 87.7324 98.26C88.2124 97.94 88.7658 97.74 89.3924 97.66V97.96C88.5258 97.7733 87.8324 97.3667 87.3124 96.74C86.8058 96.1 86.5524 95.3467 86.5524 94.48C86.5524 93.68 86.7391 93.0067 87.1124 92.46C87.4991 91.9 88.0458 91.4733 88.7524 91.18C89.4591 90.8733 90.2858 90.72 91.2324 90.72C92.1924 90.72 93.0191 90.8733 93.7124 91.18C94.4191 91.4733 94.9658 91.9 95.3524 92.46C95.7391 93.0067 95.9324 93.68 95.9324 94.48C95.9324 95.0533 95.8124 95.5867 95.5724 96.08C95.3458 96.56 95.0191 96.96 94.5924 97.28C94.1658 97.6 93.6658 97.82 93.0924 97.94V97.66C94.0391 97.7933 94.7991 98.1867 95.3724 98.84C95.9591 99.48 96.2524 100.287 96.2524 101.26C96.2524 102.087 96.0524 102.793 95.6524 103.38C95.2658 103.967 94.6924 104.413 93.9324 104.72C93.1858 105.027 92.2858 105.18 91.2324 105.18ZM91.2324 103.82C92.3658 103.82 93.2191 103.6 93.7924 103.16C94.3791 102.72 94.6724 102.053 94.6724 101.16C94.6724 100.28 94.3791 99.6267 93.7924 99.2C93.2191 98.76 92.3658 98.54 91.2324 98.54C90.1124 98.54 89.2591 98.76 88.6724 99.2C88.0858 99.6267 87.7924 100.28 87.7924 101.16C87.7924 102.053 88.0858 102.72 88.6724 103.16C89.2591 103.6 90.1124 103.82 91.2324 103.82ZM91.2324 97.18C91.8858 97.18 92.4391 97.08 92.8924 96.88C93.3591 96.6667 93.7191 96.3667 93.9724 95.98C94.2258 95.5933 94.3524 95.14 94.3524 94.62C94.3524 93.82 94.0724 93.2 93.5124 92.76C92.9658 92.3067 92.2058 92.08 91.2324 92.08C90.2591 92.08 89.4991 92.3067 88.9524 92.76C88.4058 93.2 88.1324 93.82 88.1324 94.62C88.1324 95.42 88.4058 96.0467 88.9524 96.5C89.4991 96.9533 90.2591 97.18 91.2324 97.18ZM99.5246 105.08C99.1913 105.08 98.9246 104.98 98.7246 104.78C98.5246 104.567 98.4246 104.3 98.4246 103.98C98.4246 103.66 98.5246 103.4 98.7246 103.2C98.9246 102.987 99.1913 102.88 99.5246 102.88C99.8579 102.88 100.118 102.987 100.305 103.2C100.505 103.4 100.605 103.66 100.605 103.98C100.605 104.3 100.505 104.567 100.305 104.78C100.118 104.98 99.8579 105.08 99.5246 105.08ZM99.5246 97.4C99.1913 97.4 98.9246 97.2933 98.7246 97.08C98.5246 96.8667 98.4246 96.6067 98.4246 96.3C98.4246 95.9667 98.5246 95.7 98.7246 95.5C98.9246 95.3 99.1913 95.2 99.5246 95.2C99.8579 95.2 100.118 95.3 100.305 95.5C100.505 95.7 100.605 95.9667 100.605 96.3C100.605 96.6067 100.505 96.8667 100.305 97.08C100.118 97.2933 99.8579 97.4 99.5246 97.4ZM104.875 105C104.635 105 104.449 104.94 104.315 104.82C104.182 104.687 104.115 104.507 104.115 104.28C104.115 104.053 104.182 103.887 104.315 103.78C104.449 103.66 104.635 103.6 104.875 103.6H107.475V92.26H108.335L105.435 94.18C105.262 94.2733 105.095 94.3133 104.935 94.3C104.789 94.2867 104.662 94.2333 104.555 94.14C104.462 94.0333 104.395 93.9133 104.355 93.78C104.315 93.6333 104.322 93.4867 104.375 93.34C104.429 93.18 104.542 93.0467 104.715 92.94L107.475 91.12C107.649 91.0133 107.815 90.9267 107.975 90.86C108.135 90.7933 108.295 90.76 108.455 90.76C108.642 90.76 108.795 90.82 108.915 90.94C109.049 91.0467 109.115 91.22 109.115 91.46V103.6H111.515C111.755 103.6 111.942 103.66 112.075 103.78C112.209 103.887 112.275 104.053 112.275 104.28C112.275 104.52 112.209 104.7 112.075 104.82C111.942 104.94 111.755 105 111.515 105H104.875ZM117.128 105.14C116.941 105.14 116.781 105.093 116.648 105C116.514 104.907 116.428 104.78 116.388 104.62C116.361 104.447 116.401 104.26 116.508 104.06L122.928 91.6V92.32H115.728C115.488 92.32 115.301 92.26 115.168 92.14C115.034 92.0067 114.968 91.8267 114.968 91.6C114.968 91.3733 115.034 91.2 115.168 91.08C115.301 90.96 115.488 90.9 115.728 90.9H123.668C123.908 90.9 124.101 90.96 124.248 91.08C124.394 91.2 124.468 91.3733 124.468 91.6C124.468 91.7867 124.441 91.9533 124.388 92.1C124.348 92.2333 124.288 92.3867 124.208 92.56L118.048 104.58C117.954 104.767 117.834 104.907 117.688 105C117.541 105.093 117.354 105.14 117.128 105.14Z" fill="white"/>
</svg>
