<svg width="172" height="172" viewBox="0 0 172 172" fill="none" xmlns="http://www.w3.org/2000/svg">
<circle cx="86" cy="86" r="79" fill="#9CDA9C"/>
<mask id="path-2-inside-1_762_6227" fill="white">
<path d="M86 3.01C86 1.34762 87.3482 -0.00550137 89.0095 0.0526576C104.965 0.611199 120.472 5.60197 133.779 14.4936C147.922 23.9434 158.945 37.3748 165.454 53.0892C171.963 68.8037 173.666 86.0954 170.348 102.778C167.029 119.46 158.839 134.784 146.811 146.811C134.784 158.839 119.46 167.029 102.778 170.348C86.0954 173.666 68.8037 171.963 53.0892 165.454C37.3748 158.945 23.9434 147.922 14.4936 133.779C5.60196 120.472 0.611198 104.965 0.0526574 89.0095C-0.00550145 87.3482 1.34762 86 3.01 86C4.67237 86 6.01408 87.3482 6.07661 89.0094C6.63239 103.774 11.2689 118.117 19.4991 130.435C28.2874 143.587 40.7785 153.838 55.393 159.892C70.0074 165.945 86.0887 167.529 101.603 164.443C117.118 161.357 131.369 153.74 142.554 142.554C153.74 131.369 161.357 117.118 164.443 101.603C167.529 86.0887 165.945 70.0074 159.892 55.393C153.838 40.7785 143.587 28.2874 130.435 19.4991C118.117 11.2689 103.774 6.6324 89.0094 6.07661C87.3482 6.01408 86 4.67237 86 3.01Z"/>
</mask>
<path d="M86 3.01C86 1.34762 87.3482 -0.00550137 89.0095 0.0526576C104.965 0.611199 120.472 5.60197 133.779 14.4936C147.922 23.9434 158.945 37.3748 165.454 53.0892C171.963 68.8037 173.666 86.0954 170.348 102.778C167.029 119.46 158.839 134.784 146.811 146.811C134.784 158.839 119.46 167.029 102.778 170.348C86.0954 173.666 68.8037 171.963 53.0892 165.454C37.3748 158.945 23.9434 147.922 14.4936 133.779C5.60196 120.472 0.611198 104.965 0.0526574 89.0095C-0.00550145 87.3482 1.34762 86 3.01 86C4.67237 86 6.01408 87.3482 6.07661 89.0094C6.63239 103.774 11.2689 118.117 19.4991 130.435C28.2874 143.587 40.7785 153.838 55.393 159.892C70.0074 165.945 86.0887 167.529 101.603 164.443C117.118 161.357 131.369 153.74 142.554 142.554C153.74 131.369 161.357 117.118 164.443 101.603C167.529 86.0887 165.945 70.0074 159.892 55.393C153.838 40.7785 143.587 28.2874 130.435 19.4991C118.117 11.2689 103.774 6.6324 89.0094 6.07661C87.3482 6.01408 86 4.67237 86 3.01Z" stroke="#54BA54" stroke-width="12" mask="url(#path-2-inside-1_762_6227)"/>
<path fill-rule="evenodd" clip-rule="evenodd" d="M36.0399 78.2923C35.8521 78.2264 35.6458 78.2378 35.4664 78.324C35.2871 78.4102 35.1493 78.5641 35.0834 78.7518C35.0175 78.9396 35.0288 79.1459 35.115 79.3253C35.2012 79.5046 35.3551 79.6424 35.5429 79.7083L35.8039 79.7993C36.4719 80.0343 36.9109 80.1893 37.2339 80.3483C37.5369 80.4973 37.6699 80.6183 37.7579 80.7463C37.8479 80.8783 37.9179 81.0603 37.9579 81.4233C37.9979 81.8033 37.9999 82.2983 37.9999 83.0383V85.6403C37.9999 88.5823 38.0629 89.5523 38.9299 90.4663C39.7959 91.3803 41.1899 91.3803 43.9799 91.3803H49.2819C50.8429 91.3803 51.6239 91.3803 52.1749 90.9303C52.7269 90.4803 52.8849 89.7163 53.1999 88.1883L53.6999 85.7633C54.0469 84.0233 54.2199 83.1543 53.7759 82.5773C53.3319 82.0003 51.8159 82.0003 50.1309 82.0003H39.4919C39.4876 81.7539 39.4733 81.5077 39.4489 81.2623C39.3949 80.7653 39.2789 80.3123 38.9969 79.9003C38.7129 79.4843 38.3349 79.2183 37.8939 79.0013C37.4819 78.7993 36.9579 78.6153 36.3419 78.3983L36.0399 78.2923ZM48.5169 84.4573C48.8169 84.7433 48.8289 85.2173 48.5429 85.5173L45.6859 88.5173C45.6158 88.5909 45.5316 88.6494 45.4382 88.6894C45.3449 88.7294 45.2444 88.75 45.1429 88.75C45.0413 88.75 44.9408 88.7294 44.8475 88.6894C44.7542 88.6494 44.6699 88.5909 44.5999 88.5173L43.4569 87.3173C43.386 87.2466 43.3301 87.1624 43.2923 87.0698C43.2545 86.9771 43.2356 86.8778 43.2368 86.7777C43.238 86.6776 43.2592 86.5788 43.2992 86.487C43.3391 86.3952 43.3971 86.3124 43.4696 86.2434C43.5421 86.1744 43.6276 86.1206 43.7212 86.0851C43.8149 86.0497 43.9146 86.0334 44.0146 86.0371C44.1147 86.0408 44.2129 86.0645 44.3036 86.1068C44.3944 86.1491 44.4757 86.2091 44.5429 86.2833L45.1429 86.9133L47.4569 84.4833C47.594 84.3394 47.7827 84.2558 47.9815 84.2509C48.1802 84.246 48.3728 84.3203 48.5169 84.4573Z" fill="white"/>
<path d="M40.5 94C40.8978 94 41.2794 94.158 41.5607 94.4393C41.842 94.7206 42 95.1022 42 95.5C42 95.8978 41.842 96.2794 41.5607 96.5607C41.2794 96.842 40.8978 97 40.5 97C40.1022 97 39.7206 96.842 39.4393 96.5607C39.158 96.2794 39 95.8978 39 95.5C39 95.1022 39.158 94.7206 39.4393 94.4393C39.7206 94.158 40.1022 94 40.5 94ZM49.5 94C49.8978 94 50.2794 94.158 50.5607 94.4393C50.842 94.7206 51 95.1022 51 95.5C51 95.8978 50.842 96.2794 50.5607 96.5607C50.2794 96.842 49.8978 97 49.5 97C49.1022 97 48.7206 96.842 48.4393 96.5607C48.158 96.2794 48 95.8978 48 95.5C48 95.1022 48.158 94.7206 48.4393 94.4393C48.7206 94.158 49.1022 94 49.5 94Z" fill="white"/>
<path d="M68.0677 95C67.7744 95 67.5477 94.9267 67.3877 94.78C67.2411 94.62 67.1677 94.3933 67.1677 94.1V81.8C67.1677 81.5067 67.2411 81.2867 67.3877 81.14C67.5477 80.98 67.7744 80.9 68.0677 80.9H75.5077C75.7344 80.9 75.9077 80.96 76.0277 81.08C76.1477 81.2 76.2077 81.3667 76.2077 81.58C76.2077 81.8067 76.1477 81.98 76.0277 82.1C75.9077 82.22 75.7344 82.28 75.5077 82.28H68.7677V87.16H75.0877C75.3144 87.16 75.4877 87.22 75.6077 87.34C75.7277 87.4467 75.7877 87.6133 75.7877 87.84C75.7877 88.0667 75.7277 88.24 75.6077 88.36C75.4877 88.48 75.3144 88.54 75.0877 88.54H68.7677V93.62H75.5077C75.7344 93.62 75.9077 93.68 76.0277 93.8C76.1477 93.92 76.2077 94.0867 76.2077 94.3C76.2077 94.5267 76.1477 94.7 76.0277 94.82C75.9077 94.94 75.7344 95 75.5077 95H68.0677ZM83.0879 95.18C81.4746 95.18 80.2479 94.56 79.4079 93.32C78.5679 92.08 78.1479 90.2867 78.1479 87.94C78.1479 86.3667 78.3346 85.0467 78.7079 83.98C79.0812 82.9 79.6346 82.0867 80.3679 81.54C81.1146 80.9933 82.0212 80.72 83.0879 80.72C84.7146 80.72 85.9412 81.3333 86.7679 82.56C87.6079 83.7733 88.0279 85.56 88.0279 87.92C88.0279 89.4933 87.8412 90.82 87.4679 91.9C87.0946 92.98 86.5412 93.8 85.8079 94.36C85.0746 94.9067 84.1679 95.18 83.0879 95.18ZM83.0879 93.76C84.2079 93.76 85.0346 93.2867 85.5679 92.34C86.1146 91.38 86.3879 89.9067 86.3879 87.92C86.3879 85.92 86.1146 84.46 85.5679 83.54C85.0346 82.6067 84.2079 82.14 83.0879 82.14C81.9812 82.14 81.1546 82.6067 80.6079 83.54C80.0612 84.4733 79.7879 85.9333 79.7879 87.92C79.7879 89.9067 80.0612 91.38 80.6079 92.34C81.1546 93.2867 81.9812 93.76 83.0879 93.76ZM97.4401 95.14C97.1867 95.14 96.9867 95.0667 96.8401 94.92C96.6934 94.7733 96.6201 94.5667 96.6201 94.3V91.98H90.8801C90.6134 91.98 90.4001 91.92 90.2401 91.8C90.0934 91.6667 90.0201 91.48 90.0201 91.24C90.0201 91.0933 90.0534 90.9467 90.1201 90.8C90.1867 90.64 90.3067 90.44 90.4801 90.2L96.5801 81.32C96.7001 81.1333 96.8334 80.9933 96.9801 80.9C97.1267 80.8067 97.3001 80.76 97.5001 80.76C97.7134 80.76 97.8934 80.8267 98.0401 80.96C98.2001 81.0933 98.2801 81.3067 98.2801 81.6V90.58H99.7401C99.9934 90.58 100.187 90.64 100.32 90.76C100.453 90.88 100.52 91.0533 100.52 91.28C100.52 91.5067 100.453 91.68 100.32 91.8C100.187 91.92 99.9934 91.98 99.7401 91.98H98.2801V94.3C98.2801 94.5667 98.2067 94.7733 98.0601 94.92C97.9134 95.0667 97.7067 95.14 97.4401 95.14ZM96.6201 90.58V82.82H97.1001L91.5001 91.02V90.58H96.6201ZM103.712 95C103.419 95 103.192 94.9267 103.032 94.78C102.886 94.62 102.812 94.3933 102.812 94.1V81.8C102.812 81.5067 102.886 81.2867 103.032 81.14C103.192 80.98 103.419 80.9 103.712 80.9H108.452C109.426 80.9 110.246 81.0467 110.912 81.34C111.592 81.62 112.112 82.0333 112.472 82.58C112.832 83.1267 113.012 83.7933 113.012 84.58C113.012 85.46 112.752 86.1933 112.232 86.78C111.726 87.3667 111.032 87.7533 110.152 87.94V87.66C111.152 87.78 111.932 88.14 112.492 88.74C113.066 89.34 113.352 90.1333 113.352 91.12C113.352 92.3733 112.946 93.3333 112.132 94C111.319 94.6667 110.172 95 108.692 95H103.712ZM104.412 93.68H108.532C109.599 93.68 110.399 93.4667 110.932 93.04C111.466 92.6133 111.732 91.9667 111.732 91.1C111.732 90.22 111.466 89.5733 110.932 89.16C110.399 88.7333 109.599 88.52 108.532 88.52H104.412V93.68ZM104.412 87.2H108.212C109.252 87.2 110.039 86.9867 110.572 86.56C111.119 86.1333 111.392 85.52 111.392 84.72C111.392 83.8933 111.119 83.2733 110.572 82.86C110.039 82.4333 109.252 82.22 108.212 82.22H104.412V87.2ZM120.588 95.18C118.975 95.18 117.748 94.56 116.908 93.32C116.068 92.08 115.648 90.2867 115.648 87.94C115.648 86.3667 115.835 85.0467 116.208 83.98C116.581 82.9 117.135 82.0867 117.868 81.54C118.615 80.9933 119.521 80.72 120.588 80.72C122.215 80.72 123.441 81.3333 124.268 82.56C125.108 83.7733 125.528 85.56 125.528 87.92C125.528 89.4933 125.341 90.82 124.968 91.9C124.595 92.98 124.041 93.8 123.308 94.36C122.575 94.9067 121.668 95.18 120.588 95.18ZM120.588 93.76C121.708 93.76 122.535 93.2867 123.068 92.34C123.615 91.38 123.888 89.9067 123.888 87.92C123.888 85.92 123.615 84.46 123.068 83.54C122.535 82.6067 121.708 82.14 120.588 82.14C119.481 82.14 118.655 82.6067 118.108 83.54C117.561 84.4733 117.288 85.9333 117.288 87.92C117.288 89.9067 117.561 91.38 118.108 92.34C118.655 93.2867 119.481 93.76 120.588 93.76ZM132.88 95.18C132.12 95.18 131.36 95.0667 130.6 94.84C129.853 94.6133 129.173 94.26 128.56 93.78C128.4 93.6733 128.293 93.5467 128.24 93.4C128.187 93.2533 128.18 93.1067 128.22 92.96C128.26 92.8133 128.333 92.6933 128.44 92.6C128.547 92.4933 128.673 92.4333 128.82 92.42C128.98 92.4067 129.147 92.46 129.32 92.58C129.867 92.9667 130.433 93.2533 131.02 93.44C131.607 93.6267 132.22 93.72 132.86 93.72C133.513 93.72 134.073 93.6 134.54 93.36C135.02 93.1067 135.38 92.76 135.62 92.32C135.873 91.8667 136 91.34 136 90.74C136 89.82 135.733 89.0667 135.2 88.48C134.667 87.8933 133.933 87.6 133 87.6C132.427 87.6 131.9 87.7067 131.42 87.92C130.94 88.1333 130.5 88.4733 130.1 88.94C130.007 89.0467 129.893 89.14 129.76 89.22C129.64 89.2867 129.5 89.32 129.34 89.32C129.113 89.32 128.933 89.26 128.8 89.14C128.68 89.0067 128.62 88.8333 128.62 88.62V81.66C128.62 81.4067 128.687 81.22 128.82 81.1C128.953 80.9667 129.14 80.9 129.38 80.9H136.18C136.433 80.9 136.62 80.96 136.74 81.08C136.873 81.2 136.94 81.3733 136.94 81.6C136.94 81.8267 136.873 82 136.74 82.12C136.62 82.24 136.433 82.3 136.18 82.3H130.24V87.92H129.8C130.147 87.36 130.627 86.9333 131.24 86.64C131.853 86.3333 132.54 86.18 133.3 86.18C134.193 86.18 134.96 86.3667 135.6 86.74C136.253 87.1133 136.753 87.64 137.1 88.32C137.46 88.9867 137.64 89.7667 137.64 90.66C137.64 91.54 137.447 92.32 137.06 93C136.673 93.68 136.127 94.2133 135.42 94.6C134.713 94.9867 133.867 95.18 132.88 95.18Z" fill="white"/>
<path d="M62.3833 118.333C61.9167 117.35 60.9167 116.667 59.75 116.667H56V115H66V116.667H63.2833C63.6833 117.15 63.9833 117.717 64.1583 118.333H66V120H64.3167C64.1083 122.333 62.1417 124.167 59.75 124.167H59.1417L64.75 130H62.4417L56.8333 124.167V122.5H59.75C61.2167 122.5 62.4333 121.417 62.6333 120H56V118.333H62.3833Z" fill="white"/>
<path d="M74.3402 129C74.1002 129 73.9136 128.94 73.7802 128.82C73.6469 128.687 73.5802 128.507 73.5802 128.28C73.5802 128.053 73.6469 127.887 73.7802 127.78C73.9136 127.66 74.1002 127.6 74.3402 127.6H76.9402V116.26H77.8002L74.9002 118.18C74.7269 118.273 74.5602 118.313 74.4002 118.3C74.2536 118.287 74.1269 118.233 74.0202 118.14C73.9269 118.033 73.8602 117.913 73.8202 117.78C73.7802 117.633 73.7869 117.487 73.8402 117.34C73.8936 117.18 74.0069 117.047 74.1802 116.94L76.9402 115.12C77.1136 115.013 77.2802 114.927 77.4402 114.86C77.6002 114.793 77.7602 114.76 77.9202 114.76C78.1069 114.76 78.2602 114.82 78.3802 114.94C78.5136 115.047 78.5802 115.22 78.5802 115.46V127.6H80.9802C81.2202 127.6 81.4069 127.66 81.5402 127.78C81.6736 127.887 81.7402 128.053 81.7402 128.28C81.7402 128.52 81.6736 128.7 81.5402 128.82C81.4069 128.94 81.2202 129 80.9802 129H74.3402ZM85.7124 130.9C85.5791 131.073 85.4391 131.173 85.2924 131.2C85.1458 131.227 85.0191 131.2 84.9124 131.12C84.8058 131.04 84.7458 130.927 84.7324 130.78C84.7324 130.633 84.7991 130.473 84.9324 130.3C85.1458 130.02 85.2924 129.733 85.3724 129.44C85.4524 129.16 85.4924 128.9 85.4924 128.66L85.5724 129.08C85.2258 129.08 84.9458 128.98 84.7324 128.78C84.5324 128.567 84.4324 128.3 84.4324 127.98C84.4324 127.66 84.5258 127.4 84.7124 127.2C84.9124 126.987 85.1724 126.88 85.4924 126.88C85.8391 126.88 86.1124 127 86.3124 127.24C86.5124 127.467 86.6124 127.8 86.6124 128.24C86.6124 128.52 86.5858 128.807 86.5324 129.1C86.4791 129.407 86.3858 129.713 86.2524 130.02C86.1191 130.327 85.9391 130.62 85.7124 130.9ZM90.3632 129C90.0699 129 89.8499 128.933 89.7032 128.8C89.5699 128.653 89.5032 128.46 89.5032 128.22C89.5032 128.073 89.5365 127.933 89.6032 127.8C89.6832 127.653 89.7899 127.507 89.9232 127.36L94.4032 122.56C95.0832 121.827 95.5699 121.153 95.8632 120.54C96.1699 119.913 96.3232 119.28 96.3232 118.64C96.3232 117.84 96.0765 117.233 95.5832 116.82C95.1032 116.393 94.3965 116.18 93.4632 116.18C92.8632 116.18 92.2965 116.273 91.7632 116.46C91.2299 116.647 90.7165 116.933 90.2232 117.32C90.0499 117.453 89.8899 117.513 89.7432 117.5C89.6099 117.487 89.4899 117.433 89.3832 117.34C89.2765 117.247 89.2032 117.127 89.1632 116.98C89.1232 116.833 89.1232 116.687 89.1632 116.54C89.2165 116.393 89.3232 116.26 89.4832 116.14C90.0032 115.713 90.6299 115.373 91.3632 115.12C92.0965 114.853 92.8432 114.72 93.6032 114.72C94.5499 114.72 95.3499 114.867 96.0032 115.16C96.6565 115.453 97.1499 115.887 97.4832 116.46C97.8165 117.02 97.9832 117.707 97.9832 118.52C97.9832 119.08 97.8899 119.633 97.7032 120.18C97.5299 120.713 97.2565 121.26 96.8832 121.82C96.5232 122.38 96.0499 122.96 95.4632 123.56L91.2032 128.06V127.6H97.9432C98.1965 127.6 98.3832 127.66 98.5032 127.78C98.6365 127.887 98.7032 128.053 98.7032 128.28C98.7032 128.52 98.6365 128.7 98.5032 128.82C98.3832 128.94 98.1965 129 97.9432 129H90.3632ZM105.775 129.18C104.722 129.18 103.815 129.027 103.055 128.72C102.309 128.413 101.735 127.967 101.335 127.38C100.949 126.793 100.755 126.087 100.755 125.26C100.755 124.607 100.889 124.027 101.155 123.52C101.422 123 101.795 122.58 102.275 122.26C102.755 121.94 103.309 121.74 103.935 121.66V121.96C103.069 121.773 102.375 121.367 101.855 120.74C101.349 120.1 101.095 119.347 101.095 118.48C101.095 117.68 101.282 117.007 101.655 116.46C102.042 115.9 102.589 115.473 103.295 115.18C104.002 114.873 104.829 114.72 105.775 114.72C106.735 114.72 107.562 114.873 108.255 115.18C108.962 115.473 109.509 115.9 109.895 116.46C110.282 117.007 110.475 117.68 110.475 118.48C110.475 119.053 110.355 119.587 110.115 120.08C109.889 120.56 109.562 120.96 109.135 121.28C108.709 121.6 108.209 121.82 107.635 121.94V121.66C108.582 121.793 109.342 122.187 109.915 122.84C110.502 123.48 110.795 124.287 110.795 125.26C110.795 126.087 110.595 126.793 110.195 127.38C109.809 127.967 109.235 128.413 108.475 128.72C107.729 129.027 106.829 129.18 105.775 129.18ZM105.775 127.82C106.909 127.82 107.762 127.6 108.335 127.16C108.922 126.72 109.215 126.053 109.215 125.16C109.215 124.28 108.922 123.627 108.335 123.2C107.762 122.76 106.909 122.54 105.775 122.54C104.655 122.54 103.802 122.76 103.215 123.2C102.629 123.627 102.335 124.28 102.335 125.16C102.335 126.053 102.629 126.72 103.215 127.16C103.802 127.6 104.655 127.82 105.775 127.82ZM105.775 121.18C106.429 121.18 106.982 121.08 107.435 120.88C107.902 120.667 108.262 120.367 108.515 119.98C108.769 119.593 108.895 119.14 108.895 118.62C108.895 117.82 108.615 117.2 108.055 116.76C107.509 116.307 106.749 116.08 105.775 116.08C104.802 116.08 104.042 116.307 103.495 116.76C102.949 117.2 102.675 117.82 102.675 118.62C102.675 119.42 102.949 120.047 103.495 120.5C104.042 120.953 104.802 121.18 105.775 121.18ZM117.768 129.18C116.154 129.18 114.928 128.56 114.088 127.32C113.248 126.08 112.828 124.287 112.828 121.94C112.828 120.367 113.014 119.047 113.388 117.98C113.761 116.9 114.314 116.087 115.048 115.54C115.794 114.993 116.701 114.72 117.768 114.72C119.394 114.72 120.621 115.333 121.448 116.56C122.288 117.773 122.708 119.56 122.708 121.92C122.708 123.493 122.521 124.82 122.148 125.9C121.774 126.98 121.221 127.8 120.488 128.36C119.754 128.907 118.848 129.18 117.768 129.18ZM117.768 127.76C118.888 127.76 119.714 127.287 120.248 126.34C120.794 125.38 121.068 123.907 121.068 121.92C121.068 119.92 120.794 118.46 120.248 117.54C119.714 116.607 118.888 116.14 117.768 116.14C116.661 116.14 115.834 116.607 115.288 117.54C114.741 118.473 114.468 119.933 114.468 121.92C114.468 123.907 114.741 125.38 115.288 126.34C115.834 127.287 116.661 127.76 117.768 127.76Z" fill="white"/>
<path d="M64.7129 33.4473H65.5605C65.6243 33.5475 65.6699 33.6204 65.6973 33.666C65.9525 34.1035 66.1484 34.3906 66.2852 34.5273C66.4036 34.5638 67.028 34.582 68.1582 34.582C68.86 34.582 69.4844 34.5775 70.0312 34.5684L70.3047 34.5273L71.959 34.5137L75.0488 34.541H79.2734L80.0801 34.418C80.1986 34.3359 80.3262 34.1172 80.4629 33.7617C80.4993 33.6797 80.5495 33.5658 80.6133 33.4199L81.2148 33.4062C81.306 33.4062 81.4427 33.4108 81.625 33.4199C81.6341 34.0488 81.6387 34.9967 81.6387 36.2637L81.6523 37.4805L81.6387 38.1777C81.6387 38.4147 81.6204 38.6198 81.584 38.793C81.2103 38.9115 80.8822 38.9844 80.5996 39.0117C80.3626 38.6562 80.1029 38.1413 79.8203 37.4668C79.5469 36.7923 79.3737 36.4186 79.3008 36.3457C79.1914 36.2272 79.0638 36.1497 78.918 36.1133C78.6992 36.0677 77.7331 36.0449 76.0195 36.0449C75.7643 36.0449 75.4453 36.0632 75.0625 36.0996C75.0078 36.4551 74.9805 36.7467 74.9805 36.9746L74.9941 38.8066V42.8262L75.0488 47.1602L75.0352 48.9375C75.0352 49.5664 75.0898 50.0404 75.1992 50.3594C75.3451 50.4232 75.6139 50.4824 76.0059 50.5371C76.0788 50.5462 76.416 50.6191 77.0176 50.7559C77.291 50.8197 77.5326 50.8926 77.7422 50.9746C77.7878 51.3027 77.8105 51.5033 77.8105 51.5762C77.8105 51.6582 77.7969 51.7767 77.7695 51.9316C77.569 51.9408 77.4049 51.9453 77.2773 51.9453C76.3385 51.9453 75.541 51.9134 74.8848 51.8496C74.2285 51.7767 73.0391 51.7402 71.3164 51.7402C71.043 51.7402 70.2409 51.7949 68.9102 51.9043C68.3906 51.9408 68.0534 51.959 67.8984 51.959C67.8893 51.8223 67.8802 51.7174 67.8711 51.6445L67.8574 51.3301V51.2207C68.0579 50.9564 68.4362 50.7604 68.9922 50.6328C69.9401 50.4049 70.5964 50.1999 70.9609 50.0176C71.0521 49.8444 71.1068 49.6165 71.125 49.334C71.1888 48.2402 71.2207 46.4993 71.2207 44.1113L71.1523 38.9434C71.1523 37.5215 71.125 36.6602 71.0703 36.3594C71.0521 36.2773 71.0202 36.2181 70.9746 36.1816C70.929 36.1361 70.8652 36.1087 70.7832 36.0996C70.5007 36.0632 69.5801 36.0449 68.0215 36.0449C67.1647 36.0449 66.5905 36.127 66.2988 36.291C65.9069 36.5189 65.319 37.1387 64.5352 38.1504C64.3073 38.4421 64.1387 38.5879 64.0293 38.5879C63.61 38.3691 63.3411 38.1914 63.2227 38.0547C63.5052 37.4622 63.8971 36.2773 64.3984 34.5C64.5443 33.9805 64.6491 33.6296 64.7129 33.4473ZM83.2793 43.127C83.2793 42.1243 83.3385 41.3405 83.457 40.7754C83.7305 39.4173 83.9948 38.4329 84.25 37.8223C84.651 36.8743 85.1204 36.1087 85.6582 35.5254C86.2051 34.9329 86.834 34.4863 87.5449 34.1855C87.9642 34.0033 88.5202 33.9121 89.2129 33.9121C90.0605 33.9121 90.8854 34.2083 91.6875 34.8008C92.4896 35.3932 93.2051 36.373 93.834 37.7402C94.4629 39.0983 94.7773 40.8073 94.7773 42.8672C94.7773 44.3893 94.6042 45.8203 94.2578 47.1602C94.0391 47.9714 93.7246 48.7233 93.3145 49.416C92.9134 50.0996 92.5807 50.5736 92.3164 50.8379C91.8607 51.2845 91.3594 51.64 90.8125 51.9043C90.2656 52.1686 89.8236 52.3008 89.4863 52.3008C88.4928 52.3008 87.7363 52.2005 87.2168 52C86.6973 51.8086 86.196 51.4577 85.7129 50.9473C85.2389 50.4368 84.8105 49.7852 84.4277 48.9922C84.054 48.1992 83.7852 47.4336 83.6211 46.6953C83.3932 45.6654 83.2793 44.4759 83.2793 43.127ZM86.8203 44.9316C86.8203 46.9368 86.8841 48.2949 87.0117 49.0059C87.1393 49.7077 87.3809 50.2363 87.7363 50.5918C88.1009 50.9382 88.4837 51.1113 88.8848 51.1113C89.2949 51.1113 89.6458 51.002 89.9375 50.7832C90.2292 50.5645 90.4753 50.2227 90.6758 49.7578C90.8854 49.2839 91.0312 48.541 91.1133 47.5293C91.25 45.8796 91.3184 44.6992 91.3184 43.9883L91.2773 42.1836V40.2559C91.2773 39.3444 91.2135 38.4967 91.0859 37.7129C90.9583 36.929 90.7852 36.3685 90.5664 36.0312C90.3568 35.6849 90.1016 35.4479 89.8008 35.3203C89.5091 35.1836 89.2266 35.1152 88.9531 35.1152C88.6159 35.1152 88.2513 35.2839 87.8594 35.6211C87.4674 35.9492 87.1849 36.5553 87.0117 37.4395C86.8385 38.3236 86.752 39.832 86.752 41.9648L86.7793 42.9355C86.8066 43.8743 86.8203 44.5397 86.8203 44.9316ZM100.26 43.4688C99.1934 42.9128 98.4095 42.2292 97.9082 41.418C97.416 40.5977 97.1699 39.8685 97.1699 39.2305C97.1699 38.6927 97.2565 38.1003 97.4297 37.4531C97.612 36.7969 97.9173 36.2272 98.3457 35.7441C98.7832 35.252 99.3483 34.8464 100.041 34.5273C100.734 34.1992 101.463 34.0352 102.229 34.0352C103.669 34.0352 104.84 34.4453 105.742 35.2656C106.654 36.0859 107.109 37.1022 107.109 38.3145C107.109 38.9069 106.913 39.5221 106.521 40.1602C106.139 40.7891 105.742 41.2129 105.332 41.4316L104.334 42.0332C104.334 42.0788 104.58 42.2383 105.072 42.5117C105.574 42.776 106.13 43.2865 106.74 44.043C107.169 44.5898 107.447 45.0501 107.574 45.4238C107.711 45.7975 107.779 46.276 107.779 46.8594C107.779 47.7344 107.697 48.3861 107.533 48.8145C107.433 49.0697 107.223 49.4434 106.904 49.9355C106.594 50.4186 106.326 50.7559 106.098 50.9473C105.633 51.3301 104.981 51.6764 104.143 51.9863C103.596 52.196 102.99 52.3008 102.324 52.3008C101.54 52.3008 100.807 52.2188 100.123 52.0547C99.6309 51.9362 99.2116 51.7493 98.8652 51.4941C98.3366 51.1022 97.9583 50.7559 97.7305 50.4551C97.5026 50.1543 97.3066 49.7852 97.1426 49.3477C96.9238 48.7461 96.8145 48.1491 96.8145 47.5566C96.8145 46.5723 97.2018 45.679 97.9766 44.877C98.4596 44.3665 99.2207 43.8971 100.26 43.4688ZM101.217 40.2422C101.49 40.4336 102.21 40.8346 103.377 41.4453L103.65 41.1719C104.015 40.8073 104.266 40.4518 104.402 40.1055C104.603 39.5951 104.703 38.9844 104.703 38.2734C104.703 37.3164 104.466 36.5827 103.992 36.0723C103.518 35.5618 102.921 35.3066 102.201 35.3066C101.481 35.3066 100.875 35.5482 100.383 36.0312C99.8906 36.5052 99.6445 37.084 99.6445 37.7676C99.6445 38.2507 99.7676 38.6882 100.014 39.0801C100.26 39.472 100.661 39.8594 101.217 40.2422ZM101.217 44.1113C101.071 44.1113 100.775 44.3665 100.328 44.877C99.7266 45.5788 99.4258 46.4447 99.4258 47.4746C99.4258 48.5866 99.7083 49.457 100.273 50.0859C100.848 50.7057 101.54 51.0156 102.352 51.0156C103.208 51.0156 103.878 50.7741 104.361 50.291C104.854 49.8079 105.1 49.1471 105.1 48.3086C105.1 47.6341 104.936 47.0553 104.607 46.5723C104.288 46.0892 103.664 45.5605 102.734 44.9863C101.814 44.403 101.308 44.1113 101.217 44.1113Z" fill="#278827"/>
</svg>
