<svg width="172" height="172" viewBox="0 0 172 172" fill="none" xmlns="http://www.w3.org/2000/svg">
<circle cx="86" cy="86" r="83" stroke="#ECECEC" stroke-width="6"/>
<circle cx="86" cy="86" r="79" fill="#DDDDDD"/>
<path d="M54.9179 137C54.6246 137 54.4046 136.933 54.2579 136.8C54.1246 136.653 54.0579 136.46 54.0579 136.22C54.0579 136.073 54.0912 135.933 54.1579 135.8C54.2379 135.653 54.3446 135.507 54.4779 135.36L58.9579 130.56C59.6379 129.827 60.1246 129.153 60.4179 128.54C60.7246 127.913 60.8779 127.28 60.8779 126.64C60.8779 125.84 60.6312 125.233 60.1379 124.82C59.6579 124.393 58.9512 124.18 58.0179 124.18C57.4179 124.18 56.8512 124.273 56.3179 124.46C55.7846 124.647 55.2712 124.933 54.7779 125.32C54.6046 125.453 54.4446 125.513 54.2979 125.5C54.1646 125.487 54.0446 125.433 53.9379 125.34C53.8312 125.247 53.7579 125.127 53.7179 124.98C53.6779 124.833 53.6779 124.687 53.7179 124.54C53.7712 124.393 53.8779 124.26 54.0379 124.14C54.5579 123.713 55.1846 123.373 55.9179 123.12C56.6512 122.853 57.3979 122.72 58.1579 122.72C59.1046 122.72 59.9046 122.867 60.5579 123.16C61.2112 123.453 61.7046 123.887 62.0379 124.46C62.3712 125.02 62.5379 125.707 62.5379 126.52C62.5379 127.08 62.4446 127.633 62.2579 128.18C62.0846 128.713 61.8112 129.26 61.4379 129.82C61.0779 130.38 60.6046 130.96 60.0179 131.56L55.7579 136.06V135.6H62.4979C62.7512 135.6 62.9379 135.66 63.0579 135.78C63.1912 135.887 63.2579 136.053 63.2579 136.28C63.2579 136.52 63.1912 136.7 63.0579 136.82C62.9379 136.94 62.7512 137 62.4979 137H54.9179ZM75.7863 137.18C75.1597 137.18 74.5463 137.127 73.9463 137.02C73.3463 136.913 72.7863 136.76 72.2663 136.56C71.7597 136.36 71.2997 136.107 70.8863 135.8C70.7263 135.68 70.613 135.547 70.5463 135.4C70.493 135.24 70.4797 135.087 70.5063 134.94C70.5463 134.78 70.613 134.647 70.7063 134.54C70.813 134.433 70.9397 134.373 71.0863 134.36C71.233 134.347 71.393 134.393 71.5663 134.5C72.1663 134.927 72.8063 135.24 73.4863 135.44C74.1663 135.627 74.933 135.72 75.7863 135.72C76.9863 135.72 77.873 135.5 78.4463 135.06C79.033 134.607 79.3263 134.013 79.3263 133.28C79.3263 132.68 79.113 132.213 78.6863 131.88C78.273 131.533 77.573 131.26 76.5863 131.06L74.5063 130.64C73.253 130.373 72.313 129.94 71.6863 129.34C71.073 128.727 70.7663 127.913 70.7663 126.9C70.7663 126.273 70.893 125.707 71.1463 125.2C71.3997 124.68 71.753 124.24 72.2063 123.88C72.6597 123.507 73.1997 123.22 73.8263 123.02C74.453 122.82 75.1463 122.72 75.9063 122.72C76.7463 122.72 77.5263 122.84 78.2463 123.08C78.9797 123.307 79.6397 123.653 80.2263 124.12C80.373 124.24 80.473 124.38 80.5263 124.54C80.5797 124.687 80.5863 124.833 80.5463 124.98C80.5063 125.113 80.433 125.227 80.3263 125.32C80.233 125.413 80.1063 125.467 79.9463 125.48C79.7997 125.493 79.633 125.44 79.4463 125.32C78.913 124.92 78.3597 124.633 77.7863 124.46C77.213 124.273 76.5797 124.18 75.8863 124.18C75.1797 124.18 74.5663 124.287 74.0463 124.5C73.5397 124.713 73.1397 125.027 72.8463 125.44C72.5663 125.84 72.4263 126.307 72.4263 126.84C72.4263 127.48 72.6197 127.987 73.0063 128.36C73.4063 128.733 74.053 129.007 74.9463 129.18L77.0263 129.62C78.373 129.9 79.3663 130.327 80.0063 130.9C80.6597 131.46 80.9863 132.227 80.9863 133.2C80.9863 133.787 80.8663 134.327 80.6263 134.82C80.3863 135.313 80.0397 135.74 79.5863 136.1C79.133 136.447 78.5863 136.713 77.9463 136.9C77.3063 137.087 76.5863 137.18 75.7863 137.18ZM87.691 137.18C86.6643 137.18 85.7777 136.98 85.031 136.58C84.2977 136.167 83.7243 135.587 83.311 134.84C82.911 134.093 82.711 133.2 82.711 132.16C82.711 131.147 82.911 130.267 83.311 129.52C83.711 128.76 84.2577 128.167 84.951 127.74C85.6577 127.313 86.471 127.1 87.391 127.1C88.0443 127.1 88.631 127.213 89.151 127.44C89.671 127.653 90.111 127.967 90.471 128.38C90.8443 128.793 91.1243 129.293 91.311 129.88C91.511 130.467 91.611 131.127 91.611 131.86C91.611 132.073 91.551 132.233 91.431 132.34C91.311 132.433 91.1377 132.48 90.911 132.48H83.951V131.42H90.531L90.211 131.68C90.211 130.96 90.1043 130.353 89.891 129.86C89.6777 129.353 89.3643 128.967 88.951 128.7C88.551 128.433 88.0443 128.3 87.431 128.3C86.751 128.3 86.171 128.46 85.691 128.78C85.2243 129.087 84.871 129.52 84.631 130.08C84.391 130.627 84.271 131.267 84.271 132V132.12C84.271 133.347 84.5643 134.28 85.151 134.92C85.751 135.56 86.5977 135.88 87.691 135.88C88.1443 135.88 88.591 135.82 89.031 135.7C89.4843 135.58 89.9243 135.38 90.351 135.1C90.5377 134.98 90.7043 134.927 90.851 134.94C91.011 134.94 91.1377 134.987 91.231 135.08C91.3243 135.16 91.3843 135.267 91.411 135.4C91.451 135.52 91.4377 135.653 91.371 135.8C91.3177 135.947 91.2043 136.073 91.031 136.18C90.591 136.5 90.071 136.747 89.471 136.92C88.871 137.093 88.2777 137.18 87.691 137.18ZM97.0155 137.18C96.3489 137.18 95.7489 137.053 95.2155 136.8C94.6955 136.533 94.2822 136.173 93.9755 135.72C93.6689 135.267 93.5155 134.76 93.5155 134.2C93.5155 133.48 93.6955 132.913 94.0555 132.5C94.4289 132.087 95.0355 131.793 95.8755 131.62C96.7289 131.447 97.8889 131.36 99.3555 131.36H100.256V132.42H99.3755C98.2955 132.42 97.4422 132.473 96.8155 132.58C96.2022 132.673 95.7689 132.84 95.5155 133.08C95.2755 133.32 95.1555 133.66 95.1555 134.1C95.1555 134.647 95.3422 135.093 95.7155 135.44C96.1022 135.787 96.6222 135.96 97.2755 135.96C97.8089 135.96 98.2755 135.833 98.6755 135.58C99.0889 135.327 99.4089 134.98 99.6355 134.54C99.8755 134.1 99.9955 133.593 99.9955 133.02V130.74C99.9955 129.913 99.8289 129.32 99.4955 128.96C99.1622 128.587 98.6155 128.4 97.8555 128.4C97.3889 128.4 96.9222 128.46 96.4555 128.58C95.9889 128.7 95.4955 128.893 94.9755 129.16C94.7889 129.253 94.6289 129.287 94.4955 129.26C94.3622 129.22 94.2555 129.147 94.1755 129.04C94.0955 128.933 94.0489 128.813 94.0355 128.68C94.0222 128.533 94.0489 128.393 94.1155 128.26C94.1955 128.127 94.3155 128.02 94.4755 127.94C95.0622 127.647 95.6422 127.433 96.2155 127.3C96.7889 127.167 97.3355 127.1 97.8555 127.1C98.6955 127.1 99.3889 127.24 99.9355 127.52C100.482 127.787 100.889 128.2 101.156 128.76C101.422 129.307 101.556 130.013 101.556 130.88V136.3C101.556 136.567 101.489 136.773 101.356 136.92C101.236 137.067 101.056 137.14 100.816 137.14C100.562 137.14 100.369 137.067 100.236 136.92C100.102 136.773 100.036 136.567 100.036 136.3V134.74H100.216C100.109 135.247 99.9022 135.68 99.5955 136.04C99.3022 136.4 98.9355 136.68 98.4955 136.88C98.0555 137.08 97.5622 137.18 97.0155 137.18ZM108.461 137.18C107.701 137.18 107.061 137.047 106.541 136.78C106.034 136.5 105.654 136.1 105.401 135.58C105.148 135.047 105.021 134.4 105.021 133.64V128.54H103.681C103.454 128.54 103.281 128.487 103.161 128.38C103.041 128.26 102.981 128.1 102.981 127.9C102.981 127.7 103.041 127.547 103.161 127.44C103.281 127.333 103.454 127.28 103.681 127.28H105.021V124.98C105.021 124.713 105.094 124.513 105.241 124.38C105.388 124.233 105.588 124.16 105.841 124.16C106.094 124.16 106.288 124.233 106.421 124.38C106.568 124.513 106.641 124.713 106.641 124.98V127.28H109.161C109.388 127.28 109.561 127.333 109.681 127.44C109.801 127.547 109.861 127.7 109.861 127.9C109.861 128.1 109.801 128.26 109.681 128.38C109.561 128.487 109.388 128.54 109.161 128.54H106.641V133.48C106.641 134.24 106.801 134.82 107.121 135.22C107.441 135.607 107.961 135.8 108.681 135.8C108.934 135.8 109.148 135.773 109.321 135.72C109.508 135.667 109.661 135.64 109.781 135.64C109.901 135.627 110.001 135.667 110.081 135.76C110.161 135.853 110.201 136.013 110.201 136.24C110.201 136.4 110.168 136.547 110.101 136.68C110.048 136.813 109.948 136.907 109.801 136.96C109.641 137.013 109.428 137.06 109.161 137.1C108.908 137.153 108.674 137.18 108.461 137.18ZM114.833 137.18C114.233 137.18 113.627 137.107 113.013 136.96C112.413 136.813 111.853 136.56 111.333 136.2C111.2 136.107 111.107 136 111.053 135.88C111 135.747 110.98 135.62 110.993 135.5C111.02 135.367 111.073 135.253 111.153 135.16C111.247 135.067 111.353 135.013 111.473 135C111.607 134.973 111.753 135 111.913 135.08C112.433 135.4 112.933 135.627 113.413 135.76C113.907 135.88 114.393 135.94 114.873 135.94C115.633 135.94 116.207 135.8 116.593 135.52C116.98 135.24 117.173 134.86 117.173 134.38C117.173 134.007 117.047 133.713 116.793 133.5C116.54 133.273 116.14 133.1 115.593 132.98L113.773 132.58C112.933 132.407 112.307 132.107 111.893 131.68C111.493 131.253 111.293 130.7 111.293 130.02C111.293 129.42 111.447 128.907 111.753 128.48C112.073 128.04 112.52 127.7 113.093 127.46C113.667 127.22 114.333 127.1 115.093 127.1C115.68 127.1 116.233 127.18 116.753 127.34C117.287 127.487 117.767 127.727 118.193 128.06C118.327 128.153 118.413 128.267 118.453 128.4C118.507 128.52 118.513 128.647 118.473 128.78C118.447 128.9 118.387 129.007 118.293 129.1C118.2 129.18 118.087 129.227 117.953 129.24C117.82 129.253 117.68 129.213 117.533 129.12C117.133 128.853 116.727 128.66 116.313 128.54C115.9 128.407 115.493 128.34 115.093 128.34C114.347 128.34 113.78 128.487 113.393 128.78C113.007 129.073 112.813 129.46 112.813 129.94C112.813 130.313 112.933 130.62 113.173 130.86C113.413 131.1 113.787 131.273 114.293 131.38L116.113 131.76C116.98 131.947 117.627 132.247 118.053 132.66C118.493 133.06 118.713 133.607 118.713 134.3C118.713 135.18 118.36 135.88 117.653 136.4C116.947 136.92 116.007 137.18 114.833 137.18Z" fill="#888888"/>
<path d="M37.1174 69.7087C37.0669 69.7478 37.03 69.8019 37.0121 69.8633C36.9942 69.9246 36.9962 69.99 37.0178 70.0502C39.6229 77.2573 43.4315 90.1624 40.2045 101.787L39.0843 106.268C39.0625 106.355 39.0608 106.446 39.0793 106.533C39.0978 106.621 39.1361 106.703 39.1911 106.774C39.2462 106.844 39.3167 106.901 39.3971 106.941C39.4776 106.98 39.5659 107 39.6554 107H40.4109C40.5429 107.001 40.6722 106.962 40.7825 106.89C40.8929 106.818 40.9795 106.714 41.0316 106.593C41.8418 104.7 44.5387 96.7251 44.7523 93.6096C44.7561 93.5307 44.79 93.4563 44.8469 93.4017C44.9038 93.347 44.9795 93.3163 45.0584 93.3157H56.8705C56.9447 93.3156 57.0164 93.3423 57.0724 93.3909C57.1284 93.4395 57.1649 93.5068 57.1753 93.5802L58.358 106.427C58.3808 106.586 58.4601 106.732 58.5816 106.837C58.703 106.942 58.8583 107 59.0191 107H59.785C59.9465 107 60.1013 106.936 60.2155 106.822C60.3297 106.707 60.3939 106.552 60.3939 106.391V93.3906C60.3942 93.3425 60.4054 93.2951 60.4265 93.2518C60.5697 92.9521 61.0986 91.5752 60.3939 88.7542C59.7426 86.1476 59.2542 86.1281 58.4401 86.1476C55.357 86.2213 46.7263 86.6911 45.048 86.7836C44.9703 86.7877 44.8939 86.7617 44.8349 86.711C44.7758 86.6603 44.7386 86.5887 44.7308 86.5113C44.4918 84.4514 42.9672 71.9693 40.8557 69.8567C40.621 69.5997 40.3377 69.3918 40.0221 69.2451C39.7066 69.0984 39.3651 69.0158 39.0174 69.0021C38.6698 68.9883 38.3228 69.0437 37.9967 69.165C37.6706 69.2863 37.3717 69.4711 37.1174 69.7087Z" stroke="url(#paint0_linear_762_6330)" stroke-width="1.30328" stroke-linecap="round" stroke-linejoin="round"/>
<path d="M45.0888 93.3164H41.5068M60.7194 93.3164H56.1605" stroke="url(#paint1_linear_762_6330)" stroke-width="1.30328" stroke-miterlimit="10"/>
<path d="M133.883 69.7087C133.933 69.7478 133.97 69.8019 133.988 69.8633C134.006 69.9246 134.004 69.99 133.982 70.0502C131.377 77.2573 127.568 90.1624 130.796 101.787L131.916 106.268C131.938 106.355 131.939 106.446 131.921 106.533C131.902 106.621 131.864 106.703 131.809 106.774C131.754 106.844 131.683 106.901 131.603 106.941C131.522 106.98 131.434 107 131.345 107H130.589C130.457 107.001 130.328 106.962 130.217 106.89C130.107 106.818 130.02 106.714 129.968 106.593C129.158 104.7 126.461 96.7251 126.248 93.6096C126.244 93.5307 126.21 93.4563 126.153 93.4017C126.096 93.347 126.021 93.3163 125.942 93.3157H114.129C114.055 93.3156 113.984 93.3423 113.928 93.3909C113.872 93.4395 113.835 93.5068 113.825 93.5802L112.642 106.427C112.619 106.586 112.54 106.732 112.418 106.837C112.297 106.942 112.142 107 111.981 107H111.215C111.054 107 110.899 106.936 110.784 106.822C110.67 106.707 110.606 106.552 110.606 106.391V93.3906C110.606 93.3425 110.595 93.2951 110.574 93.2518C110.43 92.9521 109.901 91.5752 110.606 88.7542C111.257 86.1476 111.746 86.1281 112.56 86.1476C115.643 86.2213 124.274 86.6911 125.952 86.7836C126.03 86.7877 126.106 86.7617 126.165 86.711C126.224 86.6603 126.261 86.5887 126.269 86.5113C126.508 84.4514 128.033 71.9693 130.144 69.8567C130.379 69.5997 130.662 69.3918 130.978 69.2451C131.293 69.0984 131.635 69.0158 131.983 69.0021C132.33 68.9883 132.677 69.0437 133.003 69.165C133.329 69.2863 133.628 69.4711 133.883 69.7087Z" stroke="url(#paint2_linear_762_6330)" stroke-width="1.30328" stroke-linecap="round" stroke-linejoin="round"/>
<path d="M125.911 93.3164H129.493M110.281 93.3164H114.84" stroke="url(#paint3_linear_762_6330)" stroke-width="1.30328" stroke-miterlimit="10"/>
<path d="M104.964 86.7173L102.169 76.9427C102.056 76.5324 101.811 76.1706 101.472 75.9128C101.133 75.6551 100.719 75.5155 100.293 75.5156H70.7069C69.8276 75.5156 69.0654 76.1021 68.8309 76.9427L66.0364 86.7173C65.6847 87.9489 66.6227 89.2001 67.9125 89.2001H72.2117L69.8666 106.794H73.775L75.0843 97.0197H95.9354L97.2252 106.794H101.134L98.7885 89.2001H103.088C104.377 89.2001 105.315 87.9489 104.964 86.7173ZM75.5924 93.1099L76.12 89.2001H94.8802L95.4078 93.1099H75.5924Z" fill="url(#paint4_linear_762_6330)"/>
<path d="M64.7129 33.4473H65.5605C65.6243 33.5475 65.6699 33.6204 65.6973 33.666C65.9525 34.1035 66.1484 34.3906 66.2852 34.5273C66.4036 34.5638 67.028 34.582 68.1582 34.582C68.86 34.582 69.4844 34.5775 70.0312 34.5684L70.3047 34.5273L71.959 34.5137L75.0488 34.541H79.2734L80.0801 34.418C80.1986 34.3359 80.3262 34.1172 80.4629 33.7617C80.4993 33.6797 80.5495 33.5658 80.6133 33.4199L81.2148 33.4062C81.306 33.4062 81.4427 33.4108 81.625 33.4199C81.6341 34.0488 81.6387 34.9967 81.6387 36.2637L81.6523 37.4805L81.6387 38.1777C81.6387 38.4147 81.6204 38.6198 81.584 38.793C81.2103 38.9115 80.8822 38.9844 80.5996 39.0117C80.3626 38.6562 80.1029 38.1413 79.8203 37.4668C79.5469 36.7923 79.3737 36.4186 79.3008 36.3457C79.1914 36.2272 79.0638 36.1497 78.918 36.1133C78.6992 36.0677 77.7331 36.0449 76.0195 36.0449C75.7643 36.0449 75.4453 36.0632 75.0625 36.0996C75.0078 36.4551 74.9805 36.7467 74.9805 36.9746L74.9941 38.8066V42.8262L75.0488 47.1602L75.0352 48.9375C75.0352 49.5664 75.0898 50.0404 75.1992 50.3594C75.3451 50.4232 75.6139 50.4824 76.0059 50.5371C76.0788 50.5462 76.416 50.6191 77.0176 50.7559C77.291 50.8197 77.5326 50.8926 77.7422 50.9746C77.7878 51.3027 77.8105 51.5033 77.8105 51.5762C77.8105 51.6582 77.7969 51.7767 77.7695 51.9316C77.569 51.9408 77.4049 51.9453 77.2773 51.9453C76.3385 51.9453 75.541 51.9134 74.8848 51.8496C74.2285 51.7767 73.0391 51.7402 71.3164 51.7402C71.043 51.7402 70.2409 51.7949 68.9102 51.9043C68.3906 51.9408 68.0534 51.959 67.8984 51.959C67.8893 51.8223 67.8802 51.7174 67.8711 51.6445L67.8574 51.3301V51.2207C68.0579 50.9564 68.4362 50.7604 68.9922 50.6328C69.9401 50.4049 70.5964 50.1999 70.9609 50.0176C71.0521 49.8444 71.1068 49.6165 71.125 49.334C71.1888 48.2402 71.2207 46.4993 71.2207 44.1113L71.1523 38.9434C71.1523 37.5215 71.125 36.6602 71.0703 36.3594C71.0521 36.2773 71.0202 36.2181 70.9746 36.1816C70.929 36.1361 70.8652 36.1087 70.7832 36.0996C70.5007 36.0632 69.5801 36.0449 68.0215 36.0449C67.1647 36.0449 66.5905 36.127 66.2988 36.291C65.9069 36.5189 65.319 37.1387 64.5352 38.1504C64.3073 38.4421 64.1387 38.5879 64.0293 38.5879C63.61 38.3691 63.3411 38.1914 63.2227 38.0547C63.5052 37.4622 63.8971 36.2773 64.3984 34.5C64.5443 33.9805 64.6491 33.6296 64.7129 33.4473ZM83.2793 43.127C83.2793 42.1243 83.3385 41.3405 83.457 40.7754C83.7305 39.4173 83.9948 38.4329 84.25 37.8223C84.651 36.8743 85.1204 36.1087 85.6582 35.5254C86.2051 34.9329 86.834 34.4863 87.5449 34.1855C87.9642 34.0033 88.5202 33.9121 89.2129 33.9121C90.0605 33.9121 90.8854 34.2083 91.6875 34.8008C92.4896 35.3932 93.2051 36.373 93.834 37.7402C94.4629 39.0983 94.7773 40.8073 94.7773 42.8672C94.7773 44.3893 94.6042 45.8203 94.2578 47.1602C94.0391 47.9714 93.7246 48.7233 93.3145 49.416C92.9134 50.0996 92.5807 50.5736 92.3164 50.8379C91.8607 51.2845 91.3594 51.64 90.8125 51.9043C90.2656 52.1686 89.8236 52.3008 89.4863 52.3008C88.4928 52.3008 87.7363 52.2005 87.2168 52C86.6973 51.8086 86.196 51.4577 85.7129 50.9473C85.2389 50.4368 84.8105 49.7852 84.4277 48.9922C84.054 48.1992 83.7852 47.4336 83.6211 46.6953C83.3932 45.6654 83.2793 44.4759 83.2793 43.127ZM86.8203 44.9316C86.8203 46.9368 86.8841 48.2949 87.0117 49.0059C87.1393 49.7077 87.3809 50.2363 87.7363 50.5918C88.1009 50.9382 88.4837 51.1113 88.8848 51.1113C89.2949 51.1113 89.6458 51.002 89.9375 50.7832C90.2292 50.5645 90.4753 50.2227 90.6758 49.7578C90.8854 49.2839 91.0312 48.541 91.1133 47.5293C91.25 45.8796 91.3184 44.6992 91.3184 43.9883L91.2773 42.1836V40.2559C91.2773 39.3444 91.2135 38.4967 91.0859 37.7129C90.9583 36.929 90.7852 36.3685 90.5664 36.0312C90.3568 35.6849 90.1016 35.4479 89.8008 35.3203C89.5091 35.1836 89.2266 35.1152 88.9531 35.1152C88.6159 35.1152 88.2513 35.2839 87.8594 35.6211C87.4674 35.9492 87.1849 36.5553 87.0117 37.4395C86.8385 38.3236 86.752 39.832 86.752 41.9648L86.7793 42.9355C86.8066 43.8743 86.8203 44.5397 86.8203 44.9316ZM98.0996 52.3828C97.9538 52.2096 97.8809 52.041 97.8809 51.877C97.8809 51.722 97.9264 51.599 98.0176 51.5078C98.0632 51.444 98.3275 51.321 98.8105 51.1387C99.7585 50.7741 100.574 50.3366 101.258 49.8262C101.941 49.3066 102.516 48.6823 102.98 47.9531C103.445 47.2148 103.773 46.4219 103.965 45.5742C104.165 44.7174 104.275 44.043 104.293 43.5508C104.302 43.3867 104.343 42.9902 104.416 42.3613C104.471 41.8965 104.498 41.3359 104.498 40.6797C104.498 38.3555 104.215 36.7604 103.65 35.8945C103.222 35.2474 102.693 34.9238 102.064 34.9238C101.481 34.9238 100.984 35.2018 100.574 35.7578C100.018 36.5143 99.7402 37.5944 99.7402 38.998C99.7402 39.8639 99.7949 40.6751 99.9043 41.4316C99.9772 41.9329 100.141 42.3932 100.396 42.8125C100.561 43.0859 100.715 43.2637 100.861 43.3457C101.217 43.5189 101.572 43.6055 101.928 43.6055C102.156 43.6055 102.393 43.569 102.639 43.4961L102.844 43.4551C102.953 43.4551 103.053 43.5098 103.145 43.6191C103.236 43.7194 103.281 43.8698 103.281 44.0703C103.281 44.4167 103.145 44.64 102.871 44.7402C102.288 44.959 101.654 45.0684 100.971 45.0684C100.542 45.0684 100.273 45.0501 100.164 45.0137C99.3073 44.7038 98.7741 44.4714 98.5645 44.3164C98.0358 43.9336 97.6302 43.5462 97.3477 43.1543C97.0742 42.7533 96.8691 42.2975 96.7324 41.7871C96.5592 41.1126 96.4727 40.4336 96.4727 39.75C96.4727 38.6654 96.7142 37.6628 97.1973 36.7422C97.6895 35.8125 98.3594 35.1152 99.207 34.6504C100.064 34.1855 100.98 33.9531 101.955 33.9531C103.687 33.9531 105.127 34.6139 106.275 35.9355C107.433 37.2572 108.012 39.1667 108.012 41.6641C108.012 42.8945 107.775 44.207 107.301 45.6016C107.182 45.9479 106.85 46.5996 106.303 47.5566C105.756 48.5046 105.018 49.3704 104.088 50.1543C103.158 50.929 102.178 51.4987 101.148 51.8633C100.118 52.2279 99.2754 52.4102 98.6191 52.4102C98.5007 52.4102 98.3275 52.401 98.0996 52.3828Z" fill="#555555"/>
<defs>
<linearGradient id="paint0_linear_762_6330" x1="48.8759" y1="69" x2="48.8759" y2="107" gradientUnits="userSpaceOnUse">
<stop stop-color="#C9C9C9"/>
<stop offset="1" stop-color="#B4B4B4"/>
</linearGradient>
<linearGradient id="paint1_linear_762_6330" x1="51.1131" y1="93.3164" x2="51.1131" y2="94.3164" gradientUnits="userSpaceOnUse">
<stop stop-color="#C9C9C9"/>
<stop offset="1" stop-color="#B4B4B4"/>
</linearGradient>
<linearGradient id="paint2_linear_762_6330" x1="122.124" y1="69" x2="122.124" y2="107" gradientUnits="userSpaceOnUse">
<stop stop-color="#C9C9C9"/>
<stop offset="1" stop-color="#B4B4B4"/>
</linearGradient>
<linearGradient id="paint3_linear_762_6330" x1="119.887" y1="93.3164" x2="119.887" y2="94.3164" gradientUnits="userSpaceOnUse">
<stop stop-color="#C9C9C9"/>
<stop offset="1" stop-color="#B4B4B4"/>
</linearGradient>
<linearGradient id="paint4_linear_762_6330" x1="85.5001" y1="75.5156" x2="85.5001" y2="106.794" gradientUnits="userSpaceOnUse">
<stop stop-color="#CDCDCD"/>
<stop offset="1" stop-color="#B4B4B4"/>
</linearGradient>
</defs>
</svg>
