<svg width="172" height="172" viewBox="0 0 172 172" fill="none" xmlns="http://www.w3.org/2000/svg">
<circle cx="86" cy="86" r="79" fill="#B3D9E2"/>
<circle cx="86" cy="86" r="83" stroke="#D3F5FF" stroke-width="6"/>
<mask id="path-3-inside-1_762_6207" fill="white">
<path d="M164.257 58.3732C165.824 57.8198 166.651 56.0981 166.043 54.5508C161.966 44.1743 155.907 34.68 148.194 26.6036C140.481 18.5271 131.275 12.0374 121.097 7.48753C119.579 6.80911 117.821 7.55622 117.196 9.09668C116.572 10.6371 117.316 12.3872 118.832 13.0696C128.222 17.2966 136.716 23.3011 143.84 30.7613C150.965 38.2215 156.572 46.9825 160.363 56.5563C160.975 58.1019 162.689 58.9266 164.257 58.3732Z"/>
</mask>
<path d="M164.257 58.3732C165.824 57.8198 166.651 56.0981 166.043 54.5508C161.966 44.1743 155.907 34.68 148.194 26.6036C140.481 18.5271 131.275 12.0374 121.097 7.48753C119.579 6.80911 117.821 7.55622 117.196 9.09668C116.572 10.6371 117.316 12.3872 118.832 13.0696C128.222 17.2966 136.716 23.3011 143.84 30.7613C150.965 38.2215 156.572 46.9825 160.363 56.5563C160.975 58.1019 162.689 58.9266 164.257 58.3732Z" stroke="#B3D9E2" stroke-width="8" mask="url(#path-3-inside-1_762_6207)"/>
<path d="M54.3337 89H59.6673V90.7143H54.3337V89ZM63.2498 94.4771L64.5121 93.26C64.1298 92.8229 63.712 92.4114 63.2587 92.0514L61.9964 93.2686C60.5806 92.17 58.8178 91.5712 57.0005 91.5714C54.8786 91.5714 52.8437 92.3842 51.3433 93.8309C49.8429 95.2776 49 97.2398 49 99.2857C49 103.546 52.5736 107 57.0005 107C58.5066 107.001 59.9824 106.591 61.2578 105.819C62.5332 105.046 63.5563 103.942 64.2093 102.633C64.8624 101.325 65.1188 99.8649 64.949 98.4219C64.7793 96.9789 64.1902 95.6115 63.2498 94.4771ZM60.4 101.1L59 102.5L56.1116 99.1429V95H57.8894V98.2857L60.4 101.1Z" fill="white"/>
<path d="M76.3402 105C76.1002 105 75.9136 104.94 75.7802 104.82C75.6469 104.687 75.5802 104.507 75.5802 104.28C75.5802 104.053 75.6469 103.887 75.7802 103.78C75.9136 103.66 76.1002 103.6 76.3402 103.6H78.9402V92.26H79.8002L76.9002 94.18C76.7269 94.2733 76.5602 94.3133 76.4002 94.3C76.2536 94.2867 76.1269 94.2333 76.0202 94.14C75.9269 94.0333 75.8602 93.9133 75.8202 93.78C75.7802 93.6333 75.7869 93.4867 75.8402 93.34C75.8936 93.18 76.0069 93.0467 76.1802 92.94L78.9402 91.12C79.1136 91.0133 79.2802 90.9267 79.4402 90.86C79.6002 90.7933 79.7602 90.76 79.9202 90.76C80.1069 90.76 80.2602 90.82 80.3802 90.94C80.5136 91.0467 80.5802 91.22 80.5802 91.46V103.6H82.9802C83.2202 103.6 83.4069 103.66 83.5402 103.78C83.6736 103.887 83.7402 104.053 83.7402 104.28C83.7402 104.52 83.6736 104.7 83.5402 104.82C83.4069 104.94 83.2202 105 82.9802 105H76.3402ZM91.7124 105.18C90.6058 105.18 89.6591 104.913 88.8724 104.38C88.0991 103.833 87.5124 103.047 87.1124 102.02C86.7124 100.993 86.5124 99.7533 86.5124 98.3C86.5124 97.0733 86.6391 95.9933 86.8924 95.06C87.1458 94.1267 87.5191 93.34 88.0124 92.7C88.5058 92.0467 89.1058 91.5533 89.8124 91.22C90.5191 90.8867 91.3191 90.72 92.2124 90.72C92.8258 90.72 93.4524 90.84 94.0924 91.08C94.7458 91.32 95.3191 91.66 95.8124 92.1C95.9591 92.2067 96.0458 92.34 96.0724 92.5C96.1124 92.6467 96.1124 92.7933 96.0724 92.94C96.0324 93.0733 95.9591 93.1867 95.8524 93.28C95.7591 93.3733 95.6391 93.4267 95.4924 93.44C95.3458 93.44 95.1924 93.38 95.0324 93.26C94.5791 92.8733 94.1124 92.6 93.6324 92.44C93.1524 92.2667 92.6658 92.18 92.1724 92.18C91.3058 92.18 90.5658 92.3933 89.9524 92.82C89.3524 93.2467 88.8924 93.8933 88.5724 94.76C88.2658 95.6133 88.1124 96.6867 88.1124 97.98V99.84H87.9324C88.0124 99.08 88.2324 98.4267 88.5924 97.88C88.9658 97.32 89.4391 96.8933 90.0124 96.6C90.5858 96.3067 91.2324 96.16 91.9524 96.16C92.7791 96.16 93.5124 96.3467 94.1524 96.72C94.7924 97.0933 95.2924 97.62 95.6524 98.3C96.0124 98.9667 96.1924 99.7333 96.1924 100.6C96.1924 101.48 96.0058 102.267 95.6324 102.96C95.2591 103.653 94.7324 104.2 94.0524 104.6C93.3724 104.987 92.5924 105.18 91.7124 105.18ZM91.6124 103.78C92.1991 103.78 92.7191 103.653 93.1724 103.4C93.6258 103.133 93.9791 102.767 94.2324 102.3C94.4858 101.82 94.6124 101.273 94.6124 100.66C94.6124 100.047 94.4858 99.5067 94.2324 99.04C93.9791 98.5733 93.6258 98.2067 93.1724 97.94C92.7191 97.6733 92.1991 97.54 91.6124 97.54C91.0258 97.54 90.5058 97.6733 90.0524 97.94C89.5991 98.2067 89.2458 98.5733 88.9924 99.04C88.7391 99.5067 88.6124 100.047 88.6124 100.66C88.6124 101.273 88.7391 101.82 88.9924 102.3C89.2458 102.767 89.5991 103.133 90.0524 103.4C90.5058 103.653 91.0258 103.78 91.6124 103.78ZM99.5246 105.08C99.1913 105.08 98.9246 104.98 98.7246 104.78C98.5246 104.567 98.4246 104.3 98.4246 103.98C98.4246 103.66 98.5246 103.4 98.7246 103.2C98.9246 102.987 99.1913 102.88 99.5246 102.88C99.8579 102.88 100.118 102.987 100.305 103.2C100.505 103.4 100.605 103.66 100.605 103.98C100.605 104.3 100.505 104.567 100.305 104.78C100.118 104.98 99.8579 105.08 99.5246 105.08ZM99.5246 97.4C99.1913 97.4 98.9246 97.2933 98.7246 97.08C98.5246 96.8667 98.4246 96.6067 98.4246 96.3C98.4246 95.9667 98.5246 95.7 98.7246 95.5C98.9246 95.3 99.1913 95.2 99.5246 95.2C99.8579 95.2 100.118 95.3 100.305 95.5C100.505 95.7 100.605 95.9667 100.605 96.3C100.605 96.6067 100.505 96.8667 100.305 97.08C100.118 97.2933 99.8579 97.4 99.5246 97.4ZM107.775 105.18C106.162 105.18 104.935 104.56 104.095 103.32C103.255 102.08 102.835 100.287 102.835 97.94C102.835 96.3667 103.022 95.0467 103.395 93.98C103.769 92.9 104.322 92.0867 105.055 91.54C105.802 90.9933 106.709 90.72 107.775 90.72C109.402 90.72 110.629 91.3333 111.455 92.56C112.295 93.7733 112.715 95.56 112.715 97.92C112.715 99.4933 112.529 100.82 112.155 101.9C111.782 102.98 111.229 103.8 110.495 104.36C109.762 104.907 108.855 105.18 107.775 105.18ZM107.775 103.76C108.895 103.76 109.722 103.287 110.255 102.34C110.802 101.38 111.075 99.9067 111.075 97.92C111.075 95.92 110.802 94.46 110.255 93.54C109.722 92.6067 108.895 92.14 107.775 92.14C106.669 92.14 105.842 92.6067 105.295 93.54C104.749 94.4733 104.475 95.9333 104.475 97.92C104.475 99.9067 104.749 101.38 105.295 102.34C105.842 103.287 106.669 103.76 107.775 103.76ZM116.348 105C116.054 105 115.834 104.933 115.688 104.8C115.554 104.653 115.488 104.46 115.488 104.22C115.488 104.073 115.521 103.933 115.588 103.8C115.668 103.653 115.774 103.507 115.908 103.36L120.388 98.56C121.068 97.8267 121.554 97.1533 121.848 96.54C122.154 95.9133 122.308 95.28 122.308 94.64C122.308 93.84 122.061 93.2333 121.568 92.82C121.088 92.3933 120.381 92.18 119.448 92.18C118.848 92.18 118.281 92.2733 117.748 92.46C117.214 92.6467 116.701 92.9333 116.208 93.32C116.034 93.4533 115.874 93.5133 115.728 93.5C115.594 93.4867 115.474 93.4333 115.368 93.34C115.261 93.2467 115.188 93.1267 115.148 92.98C115.108 92.8333 115.108 92.6867 115.148 92.54C115.201 92.3933 115.308 92.26 115.468 92.14C115.988 91.7133 116.614 91.3733 117.348 91.12C118.081 90.8533 118.828 90.72 119.588 90.72C120.534 90.72 121.334 90.8667 121.988 91.16C122.641 91.4533 123.134 91.8867 123.468 92.46C123.801 93.02 123.968 93.7067 123.968 94.52C123.968 95.08 123.874 95.6333 123.688 96.18C123.514 96.7133 123.241 97.26 122.868 97.82C122.508 98.38 122.034 98.96 121.448 99.56L117.188 104.06V103.6H123.928C124.181 103.6 124.368 103.66 124.488 103.78C124.621 103.887 124.688 104.053 124.688 104.28C124.688 104.52 124.621 104.7 124.488 104.82C124.368 104.94 124.181 105 123.928 105H116.348Z" fill="white"/>
<path d="M65.7246 33.4473H66.5723C66.6361 33.5475 66.6816 33.6204 66.709 33.666C66.9642 34.1035 67.1602 34.3906 67.2969 34.5273C67.4154 34.5638 68.0397 34.582 69.1699 34.582C69.8717 34.582 70.4961 34.5775 71.043 34.5684L71.3164 34.5273L72.9707 34.5137L76.0605 34.541H80.2852L81.0918 34.418C81.2103 34.3359 81.3379 34.1172 81.4746 33.7617C81.5111 33.6797 81.5612 33.5658 81.625 33.4199L82.2266 33.4062C82.3177 33.4062 82.4544 33.4108 82.6367 33.4199C82.6458 34.0488 82.6504 34.9967 82.6504 36.2637L82.6641 37.4805L82.6504 38.1777C82.6504 38.4147 82.6322 38.6198 82.5957 38.793C82.222 38.9115 81.8939 38.9844 81.6113 39.0117C81.3743 38.6562 81.1146 38.1413 80.832 37.4668C80.5586 36.7923 80.3854 36.4186 80.3125 36.3457C80.2031 36.2272 80.0755 36.1497 79.9297 36.1133C79.7109 36.0677 78.7448 36.0449 77.0312 36.0449C76.776 36.0449 76.457 36.0632 76.0742 36.0996C76.0195 36.4551 75.9922 36.7467 75.9922 36.9746L76.0059 38.8066V42.8262L76.0605 47.1602L76.0469 48.9375C76.0469 49.5664 76.1016 50.0404 76.2109 50.3594C76.3568 50.4232 76.6257 50.4824 77.0176 50.5371C77.0905 50.5462 77.4277 50.6191 78.0293 50.7559C78.3027 50.8197 78.5443 50.8926 78.7539 50.9746C78.7995 51.3027 78.8223 51.5033 78.8223 51.5762C78.8223 51.6582 78.8086 51.7767 78.7812 51.9316C78.5807 51.9408 78.4167 51.9453 78.2891 51.9453C77.3503 51.9453 76.5527 51.9134 75.8965 51.8496C75.2402 51.7767 74.0508 51.7402 72.3281 51.7402C72.0547 51.7402 71.2526 51.7949 69.9219 51.9043C69.4023 51.9408 69.0651 51.959 68.9102 51.959C68.901 51.8223 68.8919 51.7174 68.8828 51.6445L68.8691 51.3301V51.2207C69.0697 50.9564 69.4479 50.7604 70.0039 50.6328C70.9518 50.4049 71.6081 50.1999 71.9727 50.0176C72.0638 49.8444 72.1185 49.6165 72.1367 49.334C72.2005 48.2402 72.2324 46.4993 72.2324 44.1113L72.1641 38.9434C72.1641 37.5215 72.1367 36.6602 72.082 36.3594C72.0638 36.2773 72.0319 36.2181 71.9863 36.1816C71.9408 36.1361 71.877 36.1087 71.7949 36.0996C71.5124 36.0632 70.5918 36.0449 69.0332 36.0449C68.1764 36.0449 67.6022 36.127 67.3105 36.291C66.9186 36.5189 66.3307 37.1387 65.5469 38.1504C65.319 38.4421 65.1504 38.5879 65.041 38.5879C64.6217 38.3691 64.3529 38.1914 64.2344 38.0547C64.5169 37.4622 64.9089 36.2773 65.4102 34.5C65.556 33.9805 65.6608 33.6296 65.7246 33.4473ZM89.1309 33.9805C89.1764 33.9805 89.4863 33.9714 90.0605 33.9531L90.498 33.9668L91.3594 33.9805C91.3958 34.2721 91.4141 34.4863 91.4141 34.623C91.4141 34.6686 91.4095 34.8099 91.4004 35.0469C91.3913 35.1745 91.3822 35.6621 91.373 36.5098L91.3457 38.5742L91.3594 39.873L91.2637 49.1016V49.8809C91.2637 50.1543 91.3275 50.3503 91.4551 50.4688C91.5827 50.5872 91.9245 50.6875 92.4805 50.7695C92.6992 50.7969 93.1367 50.8698 93.793 50.9883C93.8112 51.0794 93.8203 51.166 93.8203 51.248C93.8203 51.3483 93.8112 51.5671 93.793 51.9043H93.2051C92.804 51.9043 92.2207 51.8861 91.4551 51.8496C90.9902 51.8223 90.6712 51.8086 90.498 51.8086C90.2793 51.8086 89.4727 51.8314 88.0781 51.877C87.9232 51.8861 87.7956 51.8906 87.6953 51.8906H87.4492L87.0527 51.8633L86.6836 51.8906L86 51.8633C85.9089 51.8633 85.722 51.877 85.4395 51.9043C85.4212 51.7038 85.4121 51.5488 85.4121 51.4395C85.4121 51.3392 85.4212 51.1888 85.4395 50.9883C85.804 50.888 86.2279 50.7878 86.7109 50.6875C87.3763 50.5508 87.7819 50.4186 87.9277 50.291C88.0827 50.1543 88.1602 49.9766 88.1602 49.7578L88.1465 48.8281L88.2012 47.8164L88.1875 45.7383L88.1738 45.2051C88.1738 45.1322 88.1829 44.8587 88.2012 44.3848C88.2194 44.1387 88.2285 43.9199 88.2285 43.7285C88.2285 43.61 88.2148 43.2409 88.1875 42.6211L88.2422 41.8418C88.2057 41.2493 88.1875 40.8984 88.1875 40.7891C88.1875 40.6523 88.1921 40.5156 88.2012 40.3789L88.2285 40.0371L88.1875 39.1074L88.2285 38.6836C88.2376 38.4922 88.2422 38.237 88.2422 37.918C88.2422 37.6081 88.2376 37.2298 88.2285 36.7832C87.5814 37.2663 86.8431 37.7493 86.0137 38.2324C85.9225 38.2871 85.5124 38.474 84.7832 38.793C84.4915 38.3555 84.3047 38.0273 84.2227 37.8086C85.1888 37.3073 85.8451 36.9382 86.1914 36.7012C86.7656 36.3001 87.3854 35.7988 88.0508 35.1973C88.3333 34.9329 88.6934 34.5273 89.1309 33.9805ZM95.3926 43.127C95.3926 42.1243 95.4518 41.3405 95.5703 40.7754C95.8438 39.4173 96.1081 38.4329 96.3633 37.8223C96.7643 36.8743 97.2337 36.1087 97.7715 35.5254C98.3184 34.9329 98.9473 34.4863 99.6582 34.1855C100.077 34.0033 100.633 33.9121 101.326 33.9121C102.174 33.9121 102.999 34.2083 103.801 34.8008C104.603 35.3932 105.318 36.373 105.947 37.7402C106.576 39.0983 106.891 40.8073 106.891 42.8672C106.891 44.3893 106.717 45.8203 106.371 47.1602C106.152 47.9714 105.838 48.7233 105.428 49.416C105.027 50.0996 104.694 50.5736 104.43 50.8379C103.974 51.2845 103.473 51.64 102.926 51.9043C102.379 52.1686 101.937 52.3008 101.6 52.3008C100.606 52.3008 99.8496 52.2005 99.3301 52C98.8105 51.8086 98.3092 51.4577 97.8262 50.9473C97.3522 50.4368 96.9238 49.7852 96.541 48.9922C96.1673 48.1992 95.8984 47.4336 95.7344 46.6953C95.5065 45.6654 95.3926 44.4759 95.3926 43.127ZM98.9336 44.9316C98.9336 46.9368 98.9974 48.2949 99.125 49.0059C99.2526 49.7077 99.4941 50.2363 99.8496 50.5918C100.214 50.9382 100.597 51.1113 100.998 51.1113C101.408 51.1113 101.759 51.002 102.051 50.7832C102.342 50.5645 102.589 50.2227 102.789 49.7578C102.999 49.2839 103.145 48.541 103.227 47.5293C103.363 45.8796 103.432 44.6992 103.432 43.9883L103.391 42.1836V40.2559C103.391 39.3444 103.327 38.4967 103.199 37.7129C103.072 36.929 102.898 36.3685 102.68 36.0312C102.47 35.6849 102.215 35.4479 101.914 35.3203C101.622 35.1836 101.34 35.1152 101.066 35.1152C100.729 35.1152 100.365 35.2839 99.9727 35.6211C99.5807 35.9492 99.2982 36.5553 99.125 37.4395C98.9518 38.3236 98.8652 39.832 98.8652 41.9648L98.8926 42.9355C98.9199 43.8743 98.9336 44.5397 98.9336 44.9316Z" fill="#14809E"/>
</svg>
