<svg width="172" height="172" viewBox="0 0 172 172" fill="none" xmlns="http://www.w3.org/2000/svg">
<circle cx="86" cy="86" r="83" stroke="#ECECEC" stroke-width="6"/>
<circle cx="86" cy="86" r="79" fill="#DDDDDD"/>
<path d="M37.1174 69.7087C37.0669 69.7478 37.03 69.8019 37.0121 69.8633C36.9942 69.9246 36.9962 69.99 37.0178 70.0502C39.6229 77.2573 43.4315 90.1624 40.2045 101.787L39.0843 106.268C39.0625 106.355 39.0608 106.446 39.0793 106.533C39.0978 106.621 39.1361 106.703 39.1911 106.774C39.2462 106.844 39.3167 106.901 39.3971 106.941C39.4776 106.98 39.5659 107 39.6554 107H40.4109C40.5429 107.001 40.6722 106.962 40.7825 106.89C40.8929 106.818 40.9795 106.714 41.0316 106.593C41.8418 104.7 44.5387 96.7251 44.7523 93.6096C44.7561 93.5307 44.79 93.4563 44.8469 93.4017C44.9038 93.347 44.9795 93.3163 45.0584 93.3157H56.8705C56.9447 93.3156 57.0164 93.3423 57.0724 93.3909C57.1284 93.4395 57.1649 93.5068 57.1753 93.5802L58.358 106.427C58.3808 106.586 58.4601 106.732 58.5816 106.837C58.703 106.942 58.8583 107 59.0191 107H59.785C59.9465 107 60.1013 106.936 60.2155 106.822C60.3297 106.707 60.3939 106.552 60.3939 106.391V93.3906C60.3942 93.3425 60.4054 93.2951 60.4265 93.2518C60.5697 92.9521 61.0986 91.5752 60.3939 88.7542C59.7426 86.1476 59.2542 86.1281 58.4401 86.1476C55.357 86.2213 46.7263 86.6911 45.048 86.7836C44.9703 86.7877 44.8939 86.7617 44.8349 86.711C44.7758 86.6603 44.7386 86.5887 44.7308 86.5113C44.4918 84.4514 42.9672 71.9693 40.8557 69.8567C40.621 69.5997 40.3377 69.3918 40.0221 69.2451C39.7066 69.0984 39.3651 69.0158 39.0174 69.0021C38.6698 68.9883 38.3228 69.0437 37.9967 69.165C37.6706 69.2863 37.3717 69.4711 37.1174 69.7087Z" stroke="url(#paint0_linear_762_6358)" stroke-width="1.30328" stroke-linecap="round" stroke-linejoin="round"/>
<path d="M45.0888 93.3164H41.5068M60.7194 93.3164H56.1605" stroke="url(#paint1_linear_762_6358)" stroke-width="1.30328" stroke-miterlimit="10"/>
<path d="M133.883 69.7087C133.933 69.7478 133.97 69.8019 133.988 69.8633C134.006 69.9246 134.004 69.99 133.982 70.0502C131.377 77.2573 127.568 90.1624 130.796 101.787L131.916 106.268C131.938 106.355 131.939 106.446 131.921 106.533C131.902 106.621 131.864 106.703 131.809 106.774C131.754 106.844 131.683 106.901 131.603 106.941C131.522 106.98 131.434 107 131.345 107H130.589C130.457 107.001 130.328 106.962 130.217 106.89C130.107 106.818 130.02 106.714 129.968 106.593C129.158 104.7 126.461 96.7251 126.248 93.6096C126.244 93.5307 126.21 93.4563 126.153 93.4017C126.096 93.347 126.021 93.3163 125.942 93.3157H114.129C114.055 93.3156 113.984 93.3423 113.928 93.3909C113.872 93.4395 113.835 93.5068 113.825 93.5802L112.642 106.427C112.619 106.586 112.54 106.732 112.418 106.837C112.297 106.942 112.142 107 111.981 107H111.215C111.054 107 110.899 106.936 110.784 106.822C110.67 106.707 110.606 106.552 110.606 106.391V93.3906C110.606 93.3425 110.595 93.2951 110.574 93.2518C110.43 92.9521 109.901 91.5752 110.606 88.7542C111.257 86.1476 111.746 86.1281 112.56 86.1476C115.643 86.2213 124.274 86.6911 125.952 86.7836C126.03 86.7877 126.106 86.7617 126.165 86.711C126.224 86.6603 126.261 86.5887 126.269 86.5113C126.508 84.4514 128.033 71.9693 130.144 69.8567C130.379 69.5997 130.662 69.3918 130.978 69.2451C131.293 69.0984 131.635 69.0158 131.983 69.0021C132.33 68.9883 132.677 69.0437 133.003 69.165C133.329 69.2863 133.628 69.4711 133.883 69.7087Z" stroke="url(#paint2_linear_762_6358)" stroke-width="1.30328" stroke-linecap="round" stroke-linejoin="round"/>
<path d="M125.911 93.3164H129.493M110.281 93.3164H114.84" stroke="url(#paint3_linear_762_6358)" stroke-width="1.30328" stroke-miterlimit="10"/>
<path d="M104.964 86.7173L102.169 76.9427C102.056 76.5324 101.811 76.1706 101.472 75.9128C101.133 75.6551 100.719 75.5155 100.293 75.5156H70.7069C69.8276 75.5156 69.0654 76.1021 68.8309 76.9427L66.0364 86.7173C65.6847 87.9489 66.6227 89.2001 67.9125 89.2001H72.2117L69.8666 106.794H73.775L75.0843 97.0197H95.9354L97.2252 106.794H101.134L98.7885 89.2001H103.088C104.377 89.2001 105.315 87.9489 104.964 86.7173ZM75.5924 93.1099L76.12 89.2001H94.8802L95.4078 93.1099H75.5924Z" fill="url(#paint4_linear_762_6358)"/>
<path d="M52.3418 137.18C50.7285 137.18 49.5018 136.56 48.6618 135.32C47.8218 134.08 47.4018 132.287 47.4018 129.94C47.4018 128.367 47.5885 127.047 47.9618 125.98C48.3351 124.9 48.8885 124.087 49.6218 123.54C50.3685 122.993 51.2751 122.72 52.3418 122.72C53.9685 122.72 55.1951 123.333 56.0218 124.56C56.8618 125.773 57.2818 127.56 57.2818 129.92C57.2818 131.493 57.0951 132.82 56.7218 133.9C56.3485 134.98 55.7951 135.8 55.0618 136.36C54.3285 136.907 53.4218 137.18 52.3418 137.18ZM52.3418 135.76C53.4618 135.76 54.2885 135.287 54.8218 134.34C55.3685 133.38 55.6418 131.907 55.6418 129.92C55.6418 127.92 55.3685 126.46 54.8218 125.54C54.2885 124.607 53.4618 124.14 52.3418 124.14C51.2351 124.14 50.4085 124.607 49.8618 125.54C49.3151 126.473 49.0418 127.933 49.0418 129.92C49.0418 131.907 49.3151 133.38 49.8618 134.34C50.4085 135.287 51.2351 135.76 52.3418 135.76ZM66.694 137.14C66.4407 137.14 66.2407 137.067 66.094 136.92C65.9473 136.773 65.874 136.567 65.874 136.3V133.98H60.134C59.8673 133.98 59.654 133.92 59.494 133.8C59.3473 133.667 59.274 133.48 59.274 133.24C59.274 133.093 59.3073 132.947 59.374 132.8C59.4407 132.64 59.5607 132.44 59.734 132.2L65.834 123.32C65.954 123.133 66.0873 122.993 66.234 122.9C66.3807 122.807 66.554 122.76 66.754 122.76C66.9673 122.76 67.1473 122.827 67.294 122.96C67.454 123.093 67.534 123.307 67.534 123.6V132.58H68.994C69.2473 132.58 69.4407 132.64 69.574 132.76C69.7073 132.88 69.774 133.053 69.774 133.28C69.774 133.507 69.7073 133.68 69.574 133.8C69.4407 133.92 69.2473 133.98 68.994 133.98H67.534V136.3C67.534 136.567 67.4607 136.773 67.314 136.92C67.1673 137.067 66.9607 137.14 66.694 137.14ZM65.874 132.58V124.82H66.354L60.754 133.02V132.58H65.874ZM81.7824 137.18C81.1558 137.18 80.5424 137.127 79.9424 137.02C79.3424 136.913 78.7824 136.76 78.2624 136.56C77.7558 136.36 77.2958 136.107 76.8824 135.8C76.7224 135.68 76.6091 135.547 76.5424 135.4C76.4891 135.24 76.4758 135.087 76.5024 134.94C76.5424 134.78 76.6091 134.647 76.7024 134.54C76.8091 134.433 76.9358 134.373 77.0824 134.36C77.2291 134.347 77.3891 134.393 77.5624 134.5C78.1624 134.927 78.8024 135.24 79.4824 135.44C80.1624 135.627 80.9291 135.72 81.7824 135.72C82.9824 135.72 83.8691 135.5 84.4424 135.06C85.0291 134.607 85.3224 134.013 85.3224 133.28C85.3224 132.68 85.1091 132.213 84.6824 131.88C84.2691 131.533 83.5691 131.26 82.5824 131.06L80.5024 130.64C79.2491 130.373 78.3091 129.94 77.6824 129.34C77.0691 128.727 76.7624 127.913 76.7624 126.9C76.7624 126.273 76.8891 125.707 77.1424 125.2C77.3958 124.68 77.7491 124.24 78.2024 123.88C78.6558 123.507 79.1958 123.22 79.8224 123.02C80.4491 122.82 81.1424 122.72 81.9024 122.72C82.7424 122.72 83.5224 122.84 84.2424 123.08C84.9758 123.307 85.6358 123.653 86.2224 124.12C86.3691 124.24 86.4691 124.38 86.5224 124.54C86.5758 124.687 86.5824 124.833 86.5424 124.98C86.5024 125.113 86.4291 125.227 86.3224 125.32C86.2291 125.413 86.1024 125.467 85.9424 125.48C85.7958 125.493 85.6291 125.44 85.4424 125.32C84.9091 124.92 84.3558 124.633 83.7824 124.46C83.2091 124.273 82.5758 124.18 81.8824 124.18C81.1758 124.18 80.5624 124.287 80.0424 124.5C79.5358 124.713 79.1358 125.027 78.8424 125.44C78.5624 125.84 78.4224 126.307 78.4224 126.84C78.4224 127.48 78.6158 127.987 79.0024 128.36C79.4024 128.733 80.0491 129.007 80.9424 129.18L83.0224 129.62C84.3691 129.9 85.3624 130.327 86.0024 130.9C86.6558 131.46 86.9824 132.227 86.9824 133.2C86.9824 133.787 86.8624 134.327 86.6224 134.82C86.3824 135.313 86.0358 135.74 85.5824 136.1C85.1291 136.447 84.5824 136.713 83.9424 136.9C83.3024 137.087 82.5824 137.18 81.7824 137.18ZM93.6871 137.18C92.6604 137.18 91.7738 136.98 91.0271 136.58C90.2938 136.167 89.7204 135.587 89.3071 134.84C88.9071 134.093 88.7071 133.2 88.7071 132.16C88.7071 131.147 88.9071 130.267 89.3071 129.52C89.7071 128.76 90.2538 128.167 90.9471 127.74C91.6538 127.313 92.4671 127.1 93.3871 127.1C94.0404 127.1 94.6271 127.213 95.1471 127.44C95.6671 127.653 96.1071 127.967 96.4671 128.38C96.8404 128.793 97.1204 129.293 97.3071 129.88C97.5071 130.467 97.6071 131.127 97.6071 131.86C97.6071 132.073 97.5471 132.233 97.4271 132.34C97.3071 132.433 97.1338 132.48 96.9071 132.48H89.9471V131.42H96.5271L96.2071 131.68C96.2071 130.96 96.1004 130.353 95.8871 129.86C95.6738 129.353 95.3604 128.967 94.9471 128.7C94.5471 128.433 94.0404 128.3 93.4271 128.3C92.7471 128.3 92.1671 128.46 91.6871 128.78C91.2204 129.087 90.8671 129.52 90.6271 130.08C90.3871 130.627 90.2671 131.267 90.2671 132V132.12C90.2671 133.347 90.5604 134.28 91.1471 134.92C91.7471 135.56 92.5938 135.88 93.6871 135.88C94.1404 135.88 94.5871 135.82 95.0271 135.7C95.4804 135.58 95.9204 135.38 96.3471 135.1C96.5338 134.98 96.7004 134.927 96.8471 134.94C97.0071 134.94 97.1338 134.987 97.2271 135.08C97.3204 135.16 97.3804 135.267 97.4071 135.4C97.4471 135.52 97.4338 135.653 97.3671 135.8C97.3138 135.947 97.2004 136.073 97.0271 136.18C96.5871 136.5 96.0671 136.747 95.4671 136.92C94.8671 137.093 94.2738 137.18 93.6871 137.18ZM103.012 137.18C102.345 137.18 101.745 137.053 101.212 136.8C100.692 136.533 100.278 136.173 99.9716 135.72C99.665 135.267 99.5116 134.76 99.5116 134.2C99.5116 133.48 99.6916 132.913 100.052 132.5C100.425 132.087 101.032 131.793 101.872 131.62C102.725 131.447 103.885 131.36 105.352 131.36H106.252V132.42H105.372C104.292 132.42 103.438 132.473 102.812 132.58C102.198 132.673 101.765 132.84 101.512 133.08C101.272 133.32 101.152 133.66 101.152 134.1C101.152 134.647 101.338 135.093 101.712 135.44C102.098 135.787 102.618 135.96 103.272 135.96C103.805 135.96 104.272 135.833 104.672 135.58C105.085 135.327 105.405 134.98 105.632 134.54C105.872 134.1 105.992 133.593 105.992 133.02V130.74C105.992 129.913 105.825 129.32 105.492 128.96C105.158 128.587 104.612 128.4 103.852 128.4C103.385 128.4 102.918 128.46 102.452 128.58C101.985 128.7 101.492 128.893 100.972 129.16C100.785 129.253 100.625 129.287 100.492 129.26C100.358 129.22 100.252 129.147 100.172 129.04C100.092 128.933 100.045 128.813 100.032 128.68C100.018 128.533 100.045 128.393 100.112 128.26C100.192 128.127 100.312 128.02 100.472 127.94C101.058 127.647 101.638 127.433 102.212 127.3C102.785 127.167 103.332 127.1 103.852 127.1C104.692 127.1 105.385 127.24 105.932 127.52C106.478 127.787 106.885 128.2 107.152 128.76C107.418 129.307 107.552 130.013 107.552 130.88V136.3C107.552 136.567 107.485 136.773 107.352 136.92C107.232 137.067 107.052 137.14 106.812 137.14C106.558 137.14 106.365 137.067 106.232 136.92C106.098 136.773 106.032 136.567 106.032 136.3V134.74H106.212C106.105 135.247 105.898 135.68 105.592 136.04C105.298 136.4 104.932 136.68 104.492 136.88C104.052 137.08 103.558 137.18 103.012 137.18ZM114.457 137.18C113.697 137.18 113.057 137.047 112.537 136.78C112.03 136.5 111.65 136.1 111.397 135.58C111.144 135.047 111.017 134.4 111.017 133.64V128.54H109.677C109.45 128.54 109.277 128.487 109.157 128.38C109.037 128.26 108.977 128.1 108.977 127.9C108.977 127.7 109.037 127.547 109.157 127.44C109.277 127.333 109.45 127.28 109.677 127.28H111.017V124.98C111.017 124.713 111.09 124.513 111.237 124.38C111.384 124.233 111.584 124.16 111.837 124.16C112.09 124.16 112.284 124.233 112.417 124.38C112.564 124.513 112.637 124.713 112.637 124.98V127.28H115.157C115.384 127.28 115.557 127.333 115.677 127.44C115.797 127.547 115.857 127.7 115.857 127.9C115.857 128.1 115.797 128.26 115.677 128.38C115.557 128.487 115.384 128.54 115.157 128.54H112.637V133.48C112.637 134.24 112.797 134.82 113.117 135.22C113.437 135.607 113.957 135.8 114.677 135.8C114.93 135.8 115.144 135.773 115.317 135.72C115.504 135.667 115.657 135.64 115.777 135.64C115.897 135.627 115.997 135.667 116.077 135.76C116.157 135.853 116.197 136.013 116.197 136.24C116.197 136.4 116.164 136.547 116.097 136.68C116.044 136.813 115.944 136.907 115.797 136.96C115.637 137.013 115.424 137.06 115.157 137.1C114.904 137.153 114.67 137.18 114.457 137.18ZM120.829 137.18C120.229 137.18 119.623 137.107 119.009 136.96C118.409 136.813 117.849 136.56 117.329 136.2C117.196 136.107 117.103 136 117.049 135.88C116.996 135.747 116.976 135.62 116.989 135.5C117.016 135.367 117.069 135.253 117.149 135.16C117.243 135.067 117.349 135.013 117.469 135C117.603 134.973 117.749 135 117.909 135.08C118.429 135.4 118.929 135.627 119.409 135.76C119.903 135.88 120.389 135.94 120.869 135.94C121.629 135.94 122.203 135.8 122.589 135.52C122.976 135.24 123.169 134.86 123.169 134.38C123.169 134.007 123.043 133.713 122.789 133.5C122.536 133.273 122.136 133.1 121.589 132.98L119.769 132.58C118.929 132.407 118.303 132.107 117.889 131.68C117.489 131.253 117.289 130.7 117.289 130.02C117.289 129.42 117.443 128.907 117.749 128.48C118.069 128.04 118.516 127.7 119.089 127.46C119.663 127.22 120.329 127.1 121.089 127.1C121.676 127.1 122.229 127.18 122.749 127.34C123.283 127.487 123.763 127.727 124.189 128.06C124.323 128.153 124.409 128.267 124.449 128.4C124.503 128.52 124.509 128.647 124.469 128.78C124.443 128.9 124.383 129.007 124.289 129.1C124.196 129.18 124.083 129.227 123.949 129.24C123.816 129.253 123.676 129.213 123.529 129.12C123.129 128.853 122.723 128.66 122.309 128.54C121.896 128.407 121.489 128.34 121.089 128.34C120.343 128.34 119.776 128.487 119.389 128.78C119.003 129.073 118.809 129.46 118.809 129.94C118.809 130.313 118.929 130.62 119.169 130.86C119.409 131.1 119.783 131.273 120.289 131.38L122.109 131.76C122.976 131.947 123.623 132.247 124.049 132.66C124.489 133.06 124.709 133.607 124.709 134.3C124.709 135.18 124.356 135.88 123.649 136.4C122.943 136.92 122.003 137.18 120.829 137.18Z" fill="#888888"/>
<path d="M66.7363 33.4473H67.584C67.6478 33.5475 67.6934 33.6204 67.7207 33.666C67.9759 34.1035 68.1719 34.3906 68.3086 34.5273C68.4271 34.5638 69.0514 34.582 70.1816 34.582C70.8835 34.582 71.5078 34.5775 72.0547 34.5684L72.3281 34.5273L73.9824 34.5137L77.0723 34.541H81.2969L82.1035 34.418C82.222 34.3359 82.3496 34.1172 82.4863 33.7617C82.5228 33.6797 82.5729 33.5658 82.6367 33.4199L83.2383 33.4062C83.3294 33.4062 83.4661 33.4108 83.6484 33.4199C83.6576 34.0488 83.6621 34.9967 83.6621 36.2637L83.6758 37.4805L83.6621 38.1777C83.6621 38.4147 83.6439 38.6198 83.6074 38.793C83.2337 38.9115 82.9056 38.9844 82.623 39.0117C82.3861 38.6562 82.1263 38.1413 81.8438 37.4668C81.5703 36.7923 81.3971 36.4186 81.3242 36.3457C81.2148 36.2272 81.0872 36.1497 80.9414 36.1133C80.7227 36.0677 79.7565 36.0449 78.043 36.0449C77.7878 36.0449 77.4688 36.0632 77.0859 36.0996C77.0312 36.4551 77.0039 36.7467 77.0039 36.9746L77.0176 38.8066V42.8262L77.0723 47.1602L77.0586 48.9375C77.0586 49.5664 77.1133 50.0404 77.2227 50.3594C77.3685 50.4232 77.6374 50.4824 78.0293 50.5371C78.1022 50.5462 78.4395 50.6191 79.041 50.7559C79.3145 50.8197 79.556 50.8926 79.7656 50.9746C79.8112 51.3027 79.834 51.5033 79.834 51.5762C79.834 51.6582 79.8203 51.7767 79.793 51.9316C79.5924 51.9408 79.4284 51.9453 79.3008 51.9453C78.362 51.9453 77.5645 51.9134 76.9082 51.8496C76.252 51.7767 75.0625 51.7402 73.3398 51.7402C73.0664 51.7402 72.2643 51.7949 70.9336 51.9043C70.4141 51.9408 70.0768 51.959 69.9219 51.959C69.9128 51.8223 69.9036 51.7174 69.8945 51.6445L69.8809 51.3301V51.2207C70.0814 50.9564 70.4596 50.7604 71.0156 50.6328C71.9635 50.4049 72.6198 50.1999 72.9844 50.0176C73.0755 49.8444 73.1302 49.6165 73.1484 49.334C73.2122 48.2402 73.2441 46.4993 73.2441 44.1113L73.1758 38.9434C73.1758 37.5215 73.1484 36.6602 73.0938 36.3594C73.0755 36.2773 73.0436 36.2181 72.998 36.1816C72.9525 36.1361 72.8887 36.1087 72.8066 36.0996C72.5241 36.0632 71.6035 36.0449 70.0449 36.0449C69.1882 36.0449 68.6139 36.127 68.3223 36.291C67.9303 36.5189 67.3424 37.1387 66.5586 38.1504C66.3307 38.4421 66.1621 38.5879 66.0527 38.5879C65.6335 38.3691 65.3646 38.1914 65.2461 38.0547C65.5286 37.4622 65.9206 36.2773 66.4219 34.5C66.5677 33.9805 66.6725 33.6296 66.7363 33.4473ZM90.1426 33.9805C90.1882 33.9805 90.498 33.9714 91.0723 33.9531L91.5098 33.9668L92.3711 33.9805C92.4076 34.2721 92.4258 34.4863 92.4258 34.623C92.4258 34.6686 92.4212 34.8099 92.4121 35.0469C92.403 35.1745 92.3939 35.6621 92.3848 36.5098L92.3574 38.5742L92.3711 39.873L92.2754 49.1016V49.8809C92.2754 50.1543 92.3392 50.3503 92.4668 50.4688C92.5944 50.5872 92.9362 50.6875 93.4922 50.7695C93.7109 50.7969 94.1484 50.8698 94.8047 50.9883C94.8229 51.0794 94.832 51.166 94.832 51.248C94.832 51.3483 94.8229 51.5671 94.8047 51.9043H94.2168C93.8158 51.9043 93.2324 51.8861 92.4668 51.8496C92.002 51.8223 91.6829 51.8086 91.5098 51.8086C91.291 51.8086 90.4844 51.8314 89.0898 51.877C88.9349 51.8861 88.8073 51.8906 88.707 51.8906H88.4609L88.0645 51.8633L87.6953 51.8906L87.0117 51.8633C86.9206 51.8633 86.7337 51.877 86.4512 51.9043C86.4329 51.7038 86.4238 51.5488 86.4238 51.4395C86.4238 51.3392 86.4329 51.1888 86.4512 50.9883C86.8158 50.888 87.2396 50.7878 87.7227 50.6875C88.388 50.5508 88.7936 50.4186 88.9395 50.291C89.0944 50.1543 89.1719 49.9766 89.1719 49.7578L89.1582 48.8281L89.2129 47.8164L89.1992 45.7383L89.1855 45.2051C89.1855 45.1322 89.1947 44.8587 89.2129 44.3848C89.2311 44.1387 89.2402 43.9199 89.2402 43.7285C89.2402 43.61 89.2266 43.2409 89.1992 42.6211L89.2539 41.8418C89.2174 41.2493 89.1992 40.8984 89.1992 40.7891C89.1992 40.6523 89.2038 40.5156 89.2129 40.3789L89.2402 40.0371L89.1992 39.1074L89.2402 38.6836C89.2493 38.4922 89.2539 38.237 89.2539 37.918C89.2539 37.6081 89.2493 37.2298 89.2402 36.7832C88.5931 37.2663 87.8548 37.7493 87.0254 38.2324C86.9342 38.2871 86.5241 38.474 85.7949 38.793C85.5033 38.3555 85.3164 38.0273 85.2344 37.8086C86.2005 37.3073 86.8568 36.9382 87.2031 36.7012C87.7773 36.3001 88.3971 35.7988 89.0625 35.1973C89.3451 34.9329 89.7051 34.5273 90.1426 33.9805ZM101.244 33.9805C101.29 33.9805 101.6 33.9714 102.174 33.9531L102.611 33.9668L103.473 33.9805C103.509 34.2721 103.527 34.4863 103.527 34.623C103.527 34.6686 103.523 34.8099 103.514 35.0469C103.505 35.1745 103.495 35.6621 103.486 36.5098L103.459 38.5742L103.473 39.873L103.377 49.1016V49.8809C103.377 50.1543 103.441 50.3503 103.568 50.4688C103.696 50.5872 104.038 50.6875 104.594 50.7695C104.812 50.7969 105.25 50.8698 105.906 50.9883C105.924 51.0794 105.934 51.166 105.934 51.248C105.934 51.3483 105.924 51.5671 105.906 51.9043H105.318C104.917 51.9043 104.334 51.8861 103.568 51.8496C103.104 51.8223 102.785 51.8086 102.611 51.8086C102.393 51.8086 101.586 51.8314 100.191 51.877C100.036 51.8861 99.9089 51.8906 99.8086 51.8906H99.5625L99.166 51.8633L98.7969 51.8906L98.1133 51.8633C98.0221 51.8633 97.8353 51.877 97.5527 51.9043C97.5345 51.7038 97.5254 51.5488 97.5254 51.4395C97.5254 51.3392 97.5345 51.1888 97.5527 50.9883C97.9173 50.888 98.3411 50.7878 98.8242 50.6875C99.4896 50.5508 99.8952 50.4186 100.041 50.291C100.196 50.1543 100.273 49.9766 100.273 49.7578L100.26 48.8281L100.314 47.8164L100.301 45.7383L100.287 45.2051C100.287 45.1322 100.296 44.8587 100.314 44.3848C100.333 44.1387 100.342 43.9199 100.342 43.7285C100.342 43.61 100.328 43.2409 100.301 42.6211L100.355 41.8418C100.319 41.2493 100.301 40.8984 100.301 40.7891C100.301 40.6523 100.305 40.5156 100.314 40.3789L100.342 40.0371L100.301 39.1074L100.342 38.6836C100.351 38.4922 100.355 38.237 100.355 37.918C100.355 37.6081 100.351 37.2298 100.342 36.7832C99.6947 37.2663 98.9564 37.7493 98.127 38.2324C98.0358 38.2871 97.6257 38.474 96.8965 38.793C96.6048 38.3555 96.418 38.0273 96.3359 37.8086C97.3021 37.3073 97.9583 36.9382 98.3047 36.7012C98.8789 36.3001 99.4987 35.7988 100.164 35.1973C100.447 34.9329 100.807 34.5273 101.244 33.9805Z" fill="#555555"/>
<defs>
<linearGradient id="paint0_linear_762_6358" x1="48.8759" y1="69" x2="48.8759" y2="107" gradientUnits="userSpaceOnUse">
<stop stop-color="#C9C9C9"/>
<stop offset="1" stop-color="#B4B4B4"/>
</linearGradient>
<linearGradient id="paint1_linear_762_6358" x1="51.1131" y1="93.3164" x2="51.1131" y2="94.3164" gradientUnits="userSpaceOnUse">
<stop stop-color="#C9C9C9"/>
<stop offset="1" stop-color="#B4B4B4"/>
</linearGradient>
<linearGradient id="paint2_linear_762_6358" x1="122.124" y1="69" x2="122.124" y2="107" gradientUnits="userSpaceOnUse">
<stop stop-color="#C9C9C9"/>
<stop offset="1" stop-color="#B4B4B4"/>
</linearGradient>
<linearGradient id="paint3_linear_762_6358" x1="119.887" y1="93.3164" x2="119.887" y2="94.3164" gradientUnits="userSpaceOnUse">
<stop stop-color="#C9C9C9"/>
<stop offset="1" stop-color="#B4B4B4"/>
</linearGradient>
<linearGradient id="paint4_linear_762_6358" x1="85.5001" y1="75.5156" x2="85.5001" y2="106.794" gradientUnits="userSpaceOnUse">
<stop stop-color="#CDCDCD"/>
<stop offset="1" stop-color="#B4B4B4"/>
</linearGradient>
</defs>
</svg>
