<svg width="172" height="172" viewBox="0 0 172 172" fill="none" xmlns="http://www.w3.org/2000/svg">
<circle cx="86" cy="86" r="79" fill="#9CDA9C"/>
<mask id="path-2-inside-1_762_6257" fill="white">
<path d="M172 86C172 133.496 133.496 172 86 172C38.5035 172 0 133.496 0 86C0 38.5035 38.5035 0 86 0C133.496 0 172 38.5035 172 86ZM6.02 86C6.02 130.172 41.8283 165.98 86 165.98C130.172 165.98 165.98 130.172 165.98 86C165.98 41.8283 130.172 6.02 86 6.02C41.8283 6.02 6.02 41.8283 6.02 86Z"/>
</mask>
<path d="M172 86C172 133.496 133.496 172 86 172C38.5035 172 0 133.496 0 86C0 38.5035 38.5035 0 86 0C133.496 0 172 38.5035 172 86ZM6.02 86C6.02 130.172 41.8283 165.98 86 165.98C130.172 165.98 165.98 130.172 165.98 86C165.98 41.8283 130.172 6.02 86 6.02C41.8283 6.02 6.02 41.8283 6.02 86Z" stroke="#54BA54" stroke-width="12" mask="url(#path-2-inside-1_762_6257)"/>
<path fill-rule="evenodd" clip-rule="evenodd" d="M36.0399 78.2923C35.8521 78.2264 35.6458 78.2378 35.4664 78.324C35.2871 78.4102 35.1493 78.5641 35.0834 78.7518C35.0175 78.9396 35.0288 79.1459 35.115 79.3253C35.2012 79.5046 35.3551 79.6424 35.5429 79.7083L35.8039 79.7993C36.4719 80.0343 36.9109 80.1893 37.2339 80.3483C37.5369 80.4973 37.6699 80.6183 37.7579 80.7463C37.8479 80.8783 37.9179 81.0603 37.9579 81.4233C37.9979 81.8033 37.9999 82.2983 37.9999 83.0383V85.6403C37.9999 88.5823 38.0629 89.5523 38.9299 90.4663C39.7959 91.3803 41.1899 91.3803 43.9799 91.3803H49.2819C50.8429 91.3803 51.6239 91.3803 52.1749 90.9303C52.7269 90.4803 52.8849 89.7163 53.1999 88.1883L53.6999 85.7633C54.0469 84.0233 54.2199 83.1543 53.7759 82.5773C53.3319 82.0003 51.8159 82.0003 50.1309 82.0003H39.4919C39.4876 81.7539 39.4733 81.5077 39.4489 81.2623C39.3949 80.7653 39.2789 80.3123 38.9969 79.9003C38.7129 79.4843 38.3349 79.2183 37.8939 79.0013C37.4819 78.7993 36.9579 78.6153 36.3419 78.3983L36.0399 78.2923ZM48.5169 84.4573C48.8169 84.7433 48.8289 85.2173 48.5429 85.5173L45.6859 88.5173C45.6158 88.5909 45.5316 88.6494 45.4382 88.6894C45.3449 88.7294 45.2444 88.75 45.1429 88.75C45.0413 88.75 44.9408 88.7294 44.8475 88.6894C44.7542 88.6494 44.6699 88.5909 44.5999 88.5173L43.4569 87.3173C43.386 87.2466 43.3301 87.1624 43.2923 87.0698C43.2545 86.9771 43.2356 86.8778 43.2368 86.7777C43.238 86.6776 43.2592 86.5788 43.2992 86.487C43.3391 86.3952 43.3971 86.3124 43.4696 86.2434C43.5421 86.1744 43.6276 86.1206 43.7212 86.0851C43.8149 86.0497 43.9146 86.0334 44.0146 86.0371C44.1147 86.0408 44.2129 86.0645 44.3036 86.1068C44.3944 86.1491 44.4757 86.2091 44.5429 86.2833L45.1429 86.9133L47.4569 84.4833C47.594 84.3394 47.7827 84.2558 47.9815 84.2509C48.1802 84.246 48.3728 84.3203 48.5169 84.4573Z" fill="white"/>
<path d="M40.5 94C40.8978 94 41.2794 94.158 41.5607 94.4393C41.842 94.7206 42 95.1022 42 95.5C42 95.8978 41.842 96.2794 41.5607 96.5607C41.2794 96.842 40.8978 97 40.5 97C40.1022 97 39.7206 96.842 39.4393 96.5607C39.158 96.2794 39 95.8978 39 95.5C39 95.1022 39.158 94.7206 39.4393 94.4393C39.7206 94.158 40.1022 94 40.5 94ZM49.5 94C49.8978 94 50.2794 94.158 50.5607 94.4393C50.842 94.7206 51 95.1022 51 95.5C51 95.8978 50.842 96.2794 50.5607 96.5607C50.2794 96.842 49.8978 97 49.5 97C49.1022 97 48.7206 96.842 48.4393 96.5607C48.158 96.2794 48 95.8978 48 95.5C48 95.1022 48.158 94.7206 48.4393 94.4393C48.7206 94.158 49.1022 94 49.5 94Z" fill="white"/>
<path d="M68.0404 95C67.7471 95 67.5204 94.9267 67.3604 94.78C67.2137 94.62 67.1404 94.3933 67.1404 94.1V81.8C67.1404 81.5067 67.2137 81.2867 67.3604 81.14C67.5204 80.98 67.7471 80.9 68.0404 80.9H75.4804C75.7071 80.9 75.8804 80.96 76.0004 81.08C76.1204 81.2 76.1804 81.3667 76.1804 81.58C76.1804 81.8067 76.1204 81.98 76.0004 82.1C75.8804 82.22 75.7071 82.28 75.4804 82.28H68.7404V87.16H75.0604C75.2871 87.16 75.4604 87.22 75.5804 87.34C75.7004 87.4467 75.7604 87.6133 75.7604 87.84C75.7604 88.0667 75.7004 88.24 75.5804 88.36C75.4604 88.48 75.2871 88.54 75.0604 88.54H68.7404V93.62H75.4804C75.7071 93.62 75.8804 93.68 76.0004 93.8C76.1204 93.92 76.1804 94.0867 76.1804 94.3C76.1804 94.5267 76.1204 94.7 76.0004 94.82C75.8804 94.94 75.7071 95 75.4804 95H68.0404ZM83.0605 95.18C81.4472 95.18 80.2205 94.56 79.3805 93.32C78.5405 92.08 78.1205 90.2867 78.1205 87.94C78.1205 86.3667 78.3072 85.0467 78.6805 83.98C79.0539 82.9 79.6072 82.0867 80.3405 81.54C81.0872 80.9933 81.9939 80.72 83.0605 80.72C84.6872 80.72 85.9139 81.3333 86.7405 82.56C87.5805 83.7733 88.0005 85.56 88.0005 87.92C88.0005 89.4933 87.8139 90.82 87.4405 91.9C87.0672 92.98 86.5139 93.8 85.7805 94.36C85.0472 94.9067 84.1405 95.18 83.0605 95.18ZM83.0605 93.76C84.1805 93.76 85.0072 93.2867 85.5405 92.34C86.0872 91.38 86.3605 89.9067 86.3605 87.92C86.3605 85.92 86.0872 84.46 85.5405 83.54C85.0072 82.6067 84.1805 82.14 83.0605 82.14C81.9539 82.14 81.1272 82.6067 80.5805 83.54C80.0339 84.4733 79.7605 85.9333 79.7605 87.92C79.7605 89.9067 80.0339 91.38 80.5805 92.34C81.1272 93.2867 81.9539 93.76 83.0605 93.76ZM97.4127 95.14C97.1594 95.14 96.9594 95.0667 96.8127 94.92C96.6661 94.7733 96.5927 94.5667 96.5927 94.3V91.98H90.8527C90.5861 91.98 90.3727 91.92 90.2127 91.8C90.0661 91.6667 89.9927 91.48 89.9927 91.24C89.9927 91.0933 90.0261 90.9467 90.0927 90.8C90.1594 90.64 90.2794 90.44 90.4527 90.2L96.5527 81.32C96.6727 81.1333 96.8061 80.9933 96.9527 80.9C97.0994 80.8067 97.2727 80.76 97.4727 80.76C97.6861 80.76 97.8661 80.8267 98.0127 80.96C98.1727 81.0933 98.2527 81.3067 98.2527 81.6V90.58H99.7127C99.9661 90.58 100.159 90.64 100.293 90.76C100.426 90.88 100.493 91.0533 100.493 91.28C100.493 91.5067 100.426 91.68 100.293 91.8C100.159 91.92 99.9661 91.98 99.7127 91.98H98.2527V94.3C98.2527 94.5667 98.1794 94.7733 98.0327 94.92C97.8861 95.0667 97.6794 95.14 97.4127 95.14ZM96.5927 90.58V82.82H97.0727L91.4727 91.02V90.58H96.5927ZM102.485 95.14C102.272 95.14 102.098 95.0933 101.965 95C101.845 94.8933 101.772 94.76 101.745 94.6C101.732 94.4267 101.772 94.2333 101.865 94.02L107.365 81.5C107.485 81.2333 107.625 81.0467 107.785 80.94C107.958 80.82 108.145 80.76 108.345 80.76C108.545 80.76 108.725 80.82 108.885 80.94C109.058 81.0467 109.198 81.2333 109.305 81.5L114.825 94.02C114.932 94.2333 114.972 94.4267 114.945 94.6C114.932 94.7733 114.865 94.9067 114.745 95C114.625 95.0933 114.458 95.14 114.245 95.14C114.005 95.14 113.812 95.08 113.665 94.96C113.518 94.8267 113.398 94.64 113.305 94.4L111.825 90.98L112.625 91.4H104.025L104.845 90.98L103.385 94.4C103.265 94.6533 103.138 94.84 103.005 94.96C102.872 95.08 102.698 95.14 102.485 95.14ZM108.325 82.82L105.105 90.4L104.625 90.02H112.025L111.585 90.4L108.365 82.82H108.325ZM121.615 95.18C120.002 95.18 118.775 94.56 117.935 93.32C117.095 92.08 116.675 90.2867 116.675 87.94C116.675 86.3667 116.862 85.0467 117.235 83.98C117.609 82.9 118.162 82.0867 118.895 81.54C119.642 80.9933 120.549 80.72 121.615 80.72C123.242 80.72 124.469 81.3333 125.295 82.56C126.135 83.7733 126.555 85.56 126.555 87.92C126.555 89.4933 126.369 90.82 125.995 91.9C125.622 92.98 125.069 93.8 124.335 94.36C123.602 94.9067 122.695 95.18 121.615 95.18ZM121.615 93.76C122.735 93.76 123.562 93.2867 124.095 92.34C124.642 91.38 124.915 89.9067 124.915 87.92C124.915 85.92 124.642 84.46 124.095 83.54C123.562 82.6067 122.735 82.14 121.615 82.14C120.509 82.14 119.682 82.6067 119.135 83.54C118.589 84.4733 118.315 85.9333 118.315 87.92C118.315 89.9067 118.589 91.38 119.135 92.34C119.682 93.2867 120.509 93.76 121.615 93.76ZM130.707 95C130.467 95 130.281 94.94 130.147 94.82C130.014 94.6867 129.947 94.5067 129.947 94.28C129.947 94.0533 130.014 93.8867 130.147 93.78C130.281 93.66 130.467 93.6 130.707 93.6H133.307V82.26H134.167L131.267 84.18C131.094 84.2733 130.927 84.3133 130.767 84.3C130.621 84.2867 130.494 84.2333 130.387 84.14C130.294 84.0333 130.227 83.9133 130.187 83.78C130.147 83.6333 130.154 83.4867 130.207 83.34C130.261 83.18 130.374 83.0467 130.547 82.94L133.307 81.12C133.481 81.0133 133.647 80.9267 133.807 80.86C133.967 80.7933 134.127 80.76 134.287 80.76C134.474 80.76 134.627 80.82 134.747 80.94C134.881 81.0467 134.947 81.22 134.947 81.46V93.6H137.347C137.587 93.6 137.774 93.66 137.907 93.78C138.041 93.8867 138.107 94.0533 138.107 94.28C138.107 94.52 138.041 94.7 137.907 94.82C137.774 94.94 137.587 95 137.347 95H130.707Z" fill="white"/>
<path d="M71.3833 118.333C70.9167 117.35 69.9167 116.667 68.75 116.667H65V115H75V116.667H72.2833C72.6833 117.15 72.9833 117.717 73.1583 118.333H75V120H73.3167C73.1083 122.333 71.1417 124.167 68.75 124.167H68.1417L73.75 130H71.4417L65.8333 124.167V122.5H68.75C70.2167 122.5 71.4333 121.417 71.6333 120H65V118.333H71.3833Z" fill="white"/>
<path d="M86.3117 129.18C85.5517 129.18 84.7917 129.067 84.0317 128.84C83.2851 128.613 82.6051 128.26 81.9917 127.78C81.8317 127.673 81.7251 127.547 81.6717 127.4C81.6184 127.253 81.6117 127.107 81.6517 126.96C81.6917 126.813 81.7651 126.693 81.8717 126.6C81.9784 126.493 82.1051 126.433 82.2517 126.42C82.4117 126.407 82.5784 126.46 82.7517 126.58C83.2984 126.967 83.8651 127.253 84.4517 127.44C85.0384 127.627 85.6517 127.72 86.2917 127.72C86.9451 127.72 87.5051 127.6 87.9717 127.36C88.4517 127.107 88.8117 126.76 89.0517 126.32C89.3051 125.867 89.4317 125.34 89.4317 124.74C89.4317 123.82 89.1651 123.067 88.6317 122.48C88.0984 121.893 87.3651 121.6 86.4317 121.6C85.8584 121.6 85.3317 121.707 84.8517 121.92C84.3717 122.133 83.9317 122.473 83.5317 122.94C83.4384 123.047 83.3251 123.14 83.1917 123.22C83.0717 123.287 82.9317 123.32 82.7717 123.32C82.5451 123.32 82.3651 123.26 82.2317 123.14C82.1117 123.007 82.0517 122.833 82.0517 122.62V115.66C82.0517 115.407 82.1184 115.22 82.2517 115.1C82.3851 114.967 82.5717 114.9 82.8117 114.9H89.6117C89.8651 114.9 90.0517 114.96 90.1717 115.08C90.3051 115.2 90.3717 115.373 90.3717 115.6C90.3717 115.827 90.3051 116 90.1717 116.12C90.0517 116.24 89.8651 116.3 89.6117 116.3H83.6717V121.92H83.2317C83.5784 121.36 84.0584 120.933 84.6717 120.64C85.2851 120.333 85.9717 120.18 86.7317 120.18C87.6251 120.18 88.3917 120.367 89.0317 120.74C89.6851 121.113 90.1851 121.64 90.5317 122.32C90.8917 122.987 91.0717 123.767 91.0717 124.66C91.0717 125.54 90.8784 126.32 90.4917 127C90.1051 127.68 89.5584 128.213 88.8517 128.6C88.1451 128.987 87.2984 129.18 86.3117 129.18ZM97.0239 129.18C96.4239 129.18 95.7972 129.06 95.1439 128.82C94.4906 128.58 93.9172 128.233 93.4239 127.78C93.2772 127.673 93.1839 127.547 93.1439 127.4C93.1172 127.253 93.1239 127.113 93.1639 126.98C93.2039 126.833 93.2706 126.713 93.3639 126.62C93.4706 126.513 93.5972 126.46 93.7439 126.46C93.8906 126.447 94.0439 126.5 94.2039 126.62C94.6572 127.007 95.1239 127.287 95.6039 127.46C96.0839 127.633 96.5706 127.72 97.0639 127.72C97.9306 127.72 98.6639 127.507 99.2639 127.08C99.8772 126.653 100.337 126.007 100.644 125.14C100.964 124.273 101.124 123.2 101.124 121.92V120.06H101.304C101.224 120.807 100.997 121.46 100.624 122.02C100.264 122.58 99.7972 123.007 99.2239 123.3C98.6506 123.593 98.0039 123.74 97.2839 123.74C96.4572 123.74 95.7239 123.553 95.0839 123.18C94.4439 122.807 93.9439 122.28 93.5839 121.6C93.2239 120.92 93.0439 120.153 93.0439 119.3C93.0439 118.407 93.2306 117.62 93.6039 116.94C93.9906 116.247 94.5172 115.707 95.1839 115.32C95.8639 114.92 96.6439 114.72 97.5239 114.72C98.6306 114.72 99.5706 114.993 100.344 115.54C101.131 116.073 101.724 116.853 102.124 117.88C102.524 118.907 102.724 120.147 102.724 121.6C102.724 122.827 102.597 123.907 102.344 124.84C102.091 125.773 101.717 126.567 101.224 127.22C100.731 127.86 100.131 128.347 99.4239 128.68C98.7172 129.013 97.9172 129.18 97.0239 129.18ZM97.6239 122.36C98.2239 122.36 98.7506 122.227 99.2039 121.96C99.6572 121.693 100.011 121.327 100.264 120.86C100.517 120.38 100.644 119.833 100.644 119.22C100.644 118.607 100.517 118.067 100.264 117.6C100.011 117.133 99.6572 116.767 99.2039 116.5C98.7506 116.233 98.2239 116.1 97.6239 116.1C97.0372 116.1 96.5172 116.233 96.0639 116.5C95.6239 116.767 95.2706 117.133 95.0039 117.6C94.7506 118.067 94.6239 118.607 94.6239 119.22C94.6239 119.833 94.7506 120.38 95.0039 120.86C95.2706 121.327 95.6239 121.693 96.0639 121.96C96.5172 122.227 97.0372 122.36 97.6239 122.36ZM109.996 129.18C108.383 129.18 107.156 128.56 106.316 127.32C105.476 126.08 105.056 124.287 105.056 121.94C105.056 120.367 105.243 119.047 105.616 117.98C105.989 116.9 106.543 116.087 107.276 115.54C108.023 114.993 108.929 114.72 109.996 114.72C111.623 114.72 112.849 115.333 113.676 116.56C114.516 117.773 114.936 119.56 114.936 121.92C114.936 123.493 114.749 124.82 114.376 125.9C114.003 126.98 113.449 127.8 112.716 128.36C111.983 128.907 111.076 129.18 109.996 129.18ZM109.996 127.76C111.116 127.76 111.943 127.287 112.476 126.34C113.023 125.38 113.296 123.907 113.296 121.92C113.296 119.92 113.023 118.46 112.476 117.54C111.943 116.607 111.116 116.14 109.996 116.14C108.889 116.14 108.063 116.607 107.516 117.54C106.969 118.473 106.696 119.933 106.696 121.92C106.696 123.907 106.969 125.38 107.516 126.34C108.063 127.287 108.889 127.76 109.996 127.76Z" fill="white"/>
<path d="M65.7246 33.4473H66.5723C66.6361 33.5475 66.6816 33.6204 66.709 33.666C66.9642 34.1035 67.1602 34.3906 67.2969 34.5273C67.4154 34.5638 68.0397 34.582 69.1699 34.582C69.8717 34.582 70.4961 34.5775 71.043 34.5684L71.3164 34.5273L72.9707 34.5137L76.0605 34.541H80.2852L81.0918 34.418C81.2103 34.3359 81.3379 34.1172 81.4746 33.7617C81.5111 33.6797 81.5612 33.5658 81.625 33.4199L82.2266 33.4062C82.3177 33.4062 82.4544 33.4108 82.6367 33.4199C82.6458 34.0488 82.6504 34.9967 82.6504 36.2637L82.6641 37.4805L82.6504 38.1777C82.6504 38.4147 82.6322 38.6198 82.5957 38.793C82.222 38.9115 81.8939 38.9844 81.6113 39.0117C81.3743 38.6562 81.1146 38.1413 80.832 37.4668C80.5586 36.7923 80.3854 36.4186 80.3125 36.3457C80.2031 36.2272 80.0755 36.1497 79.9297 36.1133C79.7109 36.0677 78.7448 36.0449 77.0312 36.0449C76.776 36.0449 76.457 36.0632 76.0742 36.0996C76.0195 36.4551 75.9922 36.7467 75.9922 36.9746L76.0059 38.8066V42.8262L76.0605 47.1602L76.0469 48.9375C76.0469 49.5664 76.1016 50.0404 76.2109 50.3594C76.3568 50.4232 76.6257 50.4824 77.0176 50.5371C77.0905 50.5462 77.4277 50.6191 78.0293 50.7559C78.3027 50.8197 78.5443 50.8926 78.7539 50.9746C78.7995 51.3027 78.8223 51.5033 78.8223 51.5762C78.8223 51.6582 78.8086 51.7767 78.7812 51.9316C78.5807 51.9408 78.4167 51.9453 78.2891 51.9453C77.3503 51.9453 76.5527 51.9134 75.8965 51.8496C75.2402 51.7767 74.0508 51.7402 72.3281 51.7402C72.0547 51.7402 71.2526 51.7949 69.9219 51.9043C69.4023 51.9408 69.0651 51.959 68.9102 51.959C68.901 51.8223 68.8919 51.7174 68.8828 51.6445L68.8691 51.3301V51.2207C69.0697 50.9564 69.4479 50.7604 70.0039 50.6328C70.9518 50.4049 71.6081 50.1999 71.9727 50.0176C72.0638 49.8444 72.1185 49.6165 72.1367 49.334C72.2005 48.2402 72.2324 46.4993 72.2324 44.1113L72.1641 38.9434C72.1641 37.5215 72.1367 36.6602 72.082 36.3594C72.0638 36.2773 72.0319 36.2181 71.9863 36.1816C71.9408 36.1361 71.877 36.1087 71.7949 36.0996C71.5124 36.0632 70.5918 36.0449 69.0332 36.0449C68.1764 36.0449 67.6022 36.127 67.3105 36.291C66.9186 36.5189 66.3307 37.1387 65.5469 38.1504C65.319 38.4421 65.1504 38.5879 65.041 38.5879C64.6217 38.3691 64.3529 38.1914 64.2344 38.0547C64.5169 37.4622 64.9089 36.2773 65.4102 34.5C65.556 33.9805 65.6608 33.6296 65.7246 33.4473ZM89.1309 33.9805C89.1764 33.9805 89.4863 33.9714 90.0605 33.9531L90.498 33.9668L91.3594 33.9805C91.3958 34.2721 91.4141 34.4863 91.4141 34.623C91.4141 34.6686 91.4095 34.8099 91.4004 35.0469C91.3913 35.1745 91.3822 35.6621 91.373 36.5098L91.3457 38.5742L91.3594 39.873L91.2637 49.1016V49.8809C91.2637 50.1543 91.3275 50.3503 91.4551 50.4688C91.5827 50.5872 91.9245 50.6875 92.4805 50.7695C92.6992 50.7969 93.1367 50.8698 93.793 50.9883C93.8112 51.0794 93.8203 51.166 93.8203 51.248C93.8203 51.3483 93.8112 51.5671 93.793 51.9043H93.2051C92.804 51.9043 92.2207 51.8861 91.4551 51.8496C90.9902 51.8223 90.6712 51.8086 90.498 51.8086C90.2793 51.8086 89.4727 51.8314 88.0781 51.877C87.9232 51.8861 87.7956 51.8906 87.6953 51.8906H87.4492L87.0527 51.8633L86.6836 51.8906L86 51.8633C85.9089 51.8633 85.722 51.877 85.4395 51.9043C85.4212 51.7038 85.4121 51.5488 85.4121 51.4395C85.4121 51.3392 85.4212 51.1888 85.4395 50.9883C85.804 50.888 86.2279 50.7878 86.7109 50.6875C87.3763 50.5508 87.7819 50.4186 87.9277 50.291C88.0827 50.1543 88.1602 49.9766 88.1602 49.7578L88.1465 48.8281L88.2012 47.8164L88.1875 45.7383L88.1738 45.2051C88.1738 45.1322 88.1829 44.8587 88.2012 44.3848C88.2194 44.1387 88.2285 43.9199 88.2285 43.7285C88.2285 43.61 88.2148 43.2409 88.1875 42.6211L88.2422 41.8418C88.2057 41.2493 88.1875 40.8984 88.1875 40.7891C88.1875 40.6523 88.1921 40.5156 88.2012 40.3789L88.2285 40.0371L88.1875 39.1074L88.2285 38.6836C88.2376 38.4922 88.2422 38.237 88.2422 37.918C88.2422 37.6081 88.2376 37.2298 88.2285 36.7832C87.5814 37.2663 86.8431 37.7493 86.0137 38.2324C85.9225 38.2871 85.5124 38.474 84.7832 38.793C84.4915 38.3555 84.3047 38.0273 84.2227 37.8086C85.1888 37.3073 85.8451 36.9382 86.1914 36.7012C86.7656 36.3001 87.3854 35.7988 88.0508 35.1973C88.3333 34.9329 88.6934 34.5273 89.1309 33.9805ZM106.535 51.9453H105.113C104.776 51.9453 104.512 51.9408 104.32 51.9316C104.02 51.9225 103.837 51.918 103.773 51.918L102.844 51.959L102.598 51.9316C102.379 51.9043 102.11 51.8906 101.791 51.8906C101.49 51.8906 100.975 51.9043 100.246 51.9316C99.8997 51.9408 99.6901 51.9453 99.6172 51.9453L98.2363 51.918L96.0215 51.9453H95.1465V51.0156C96.4408 49.375 97.4115 48.2311 98.0586 47.584C98.7148 46.9277 99.6445 45.8431 100.848 44.3301C101.686 43.291 102.26 42.3613 102.57 41.541C102.889 40.7207 103.049 40.0098 103.049 39.4082C103.049 38.7337 102.949 38.1276 102.748 37.5898C102.557 37.0521 102.21 36.6283 101.709 36.3184C101.217 36.0085 100.679 35.8535 100.096 35.8535C99.5033 35.8535 98.9701 35.9993 98.4961 36.291C98.0221 36.5827 97.6758 36.9518 97.457 37.3984C97.1198 38.0456 96.9147 38.7201 96.8418 39.4219H95.8438C95.8164 39.0299 95.8027 38.7018 95.8027 38.4375C95.8027 37.5534 96.1445 36.7057 96.8281 35.8945C97.8854 34.6367 99.3757 34.0078 101.299 34.0078C102.903 34.0078 104.165 34.4635 105.086 35.375C106.007 36.2773 106.467 37.4167 106.467 38.793C106.467 39.3398 106.38 39.8548 106.207 40.3379C105.961 40.9941 105.66 41.5638 105.305 42.0469C104.958 42.5299 103.997 43.5599 102.42 45.1367C101.281 46.276 99.8542 47.625 98.1406 49.1836L99.6582 49.2109L102.146 49.1562L103.596 49.1836C104.361 49.1836 104.867 49.1016 105.113 48.9375C105.368 48.7734 105.601 48.3861 105.811 47.7754C105.856 47.6296 105.938 47.4108 106.057 47.1191L106.959 47.0645L107.137 47.1191C107.182 47.1921 107.205 47.2604 107.205 47.3242C107.205 47.4701 107.182 47.6523 107.137 47.8711C107.091 48.0898 107.036 48.4499 106.973 48.9512C106.918 49.4525 106.772 50.4505 106.535 51.9453Z" fill="#278827"/>
</svg>
