<svg width="172" height="172" viewBox="0 0 172 172" fill="none" xmlns="http://www.w3.org/2000/svg">
<circle cx="86" cy="86" r="79" fill="#B3D9E2"/>
<circle cx="86" cy="86" r="83" stroke="#D3F5FF" stroke-width="6"/>
<mask id="path-3-inside-1_762_6197" fill="white">
<path d="M164.257 58.3732C165.824 57.8198 166.651 56.0981 166.043 54.5508C161.966 44.1743 155.907 34.68 148.194 26.6036C140.481 18.5271 131.275 12.0374 121.097 7.48753C119.579 6.80911 117.821 7.55622 117.196 9.09668C116.572 10.6371 117.316 12.3872 118.832 13.0696C128.222 17.2966 136.716 23.3011 143.84 30.7613C150.965 38.2215 156.572 46.9825 160.363 56.5563C160.975 58.1019 162.689 58.9266 164.257 58.3732Z"/>
</mask>
<path d="M164.257 58.3732C165.824 57.8198 166.651 56.0981 166.043 54.5508C161.966 44.1743 155.907 34.68 148.194 26.6036C140.481 18.5271 131.275 12.0374 121.097 7.48753C119.579 6.80911 117.821 7.55622 117.196 9.09668C116.572 10.6371 117.316 12.3872 118.832 13.0696C128.222 17.2966 136.716 23.3011 143.84 30.7613C150.965 38.2215 156.572 46.9825 160.363 56.5563C160.975 58.1019 162.689 58.9266 164.257 58.3732Z" stroke="#B3D9E2" stroke-width="8" mask="url(#path-3-inside-1_762_6197)"/>
<path d="M65.7246 33.4473H66.5723C66.6361 33.5475 66.6816 33.6204 66.709 33.666C66.9642 34.1035 67.1602 34.3906 67.2969 34.5273C67.4154 34.5638 68.0397 34.582 69.1699 34.582C69.8717 34.582 70.4961 34.5775 71.043 34.5684L71.3164 34.5273L72.9707 34.5137L76.0605 34.541H80.2852L81.0918 34.418C81.2103 34.3359 81.3379 34.1172 81.4746 33.7617C81.5111 33.6797 81.5612 33.5658 81.625 33.4199L82.2266 33.4062C82.3177 33.4062 82.4544 33.4108 82.6367 33.4199C82.6458 34.0488 82.6504 34.9967 82.6504 36.2637L82.6641 37.4805L82.6504 38.1777C82.6504 38.4147 82.6322 38.6198 82.5957 38.793C82.222 38.9115 81.8939 38.9844 81.6113 39.0117C81.3743 38.6562 81.1146 38.1413 80.832 37.4668C80.5586 36.7923 80.3854 36.4186 80.3125 36.3457C80.2031 36.2272 80.0755 36.1497 79.9297 36.1133C79.7109 36.0677 78.7448 36.0449 77.0312 36.0449C76.776 36.0449 76.457 36.0632 76.0742 36.0996C76.0195 36.4551 75.9922 36.7467 75.9922 36.9746L76.0059 38.8066V42.8262L76.0605 47.1602L76.0469 48.9375C76.0469 49.5664 76.1016 50.0404 76.2109 50.3594C76.3568 50.4232 76.6257 50.4824 77.0176 50.5371C77.0905 50.5462 77.4277 50.6191 78.0293 50.7559C78.3027 50.8197 78.5443 50.8926 78.7539 50.9746C78.7995 51.3027 78.8223 51.5033 78.8223 51.5762C78.8223 51.6582 78.8086 51.7767 78.7812 51.9316C78.5807 51.9408 78.4167 51.9453 78.2891 51.9453C77.3503 51.9453 76.5527 51.9134 75.8965 51.8496C75.2402 51.7767 74.0508 51.7402 72.3281 51.7402C72.0547 51.7402 71.2526 51.7949 69.9219 51.9043C69.4023 51.9408 69.0651 51.959 68.9102 51.959C68.901 51.8223 68.8919 51.7174 68.8828 51.6445L68.8691 51.3301V51.2207C69.0697 50.9564 69.4479 50.7604 70.0039 50.6328C70.9518 50.4049 71.6081 50.1999 71.9727 50.0176C72.0638 49.8444 72.1185 49.6165 72.1367 49.334C72.2005 48.2402 72.2324 46.4993 72.2324 44.1113L72.1641 38.9434C72.1641 37.5215 72.1367 36.6602 72.082 36.3594C72.0638 36.2773 72.0319 36.2181 71.9863 36.1816C71.9408 36.1361 71.877 36.1087 71.7949 36.0996C71.5124 36.0632 70.5918 36.0449 69.0332 36.0449C68.1764 36.0449 67.6022 36.127 67.3105 36.291C66.9186 36.5189 66.3307 37.1387 65.5469 38.1504C65.319 38.4421 65.1504 38.5879 65.041 38.5879C64.6217 38.3691 64.3529 38.1914 64.2344 38.0547C64.5169 37.4622 64.9089 36.2773 65.4102 34.5C65.556 33.9805 65.6608 33.6296 65.7246 33.4473ZM89.1309 33.9805C89.1764 33.9805 89.4863 33.9714 90.0605 33.9531L90.498 33.9668L91.3594 33.9805C91.3958 34.2721 91.4141 34.4863 91.4141 34.623C91.4141 34.6686 91.4095 34.8099 91.4004 35.0469C91.3913 35.1745 91.3822 35.6621 91.373 36.5098L91.3457 38.5742L91.3594 39.873L91.2637 49.1016V49.8809C91.2637 50.1543 91.3275 50.3503 91.4551 50.4688C91.5827 50.5872 91.9245 50.6875 92.4805 50.7695C92.6992 50.7969 93.1367 50.8698 93.793 50.9883C93.8112 51.0794 93.8203 51.166 93.8203 51.248C93.8203 51.3483 93.8112 51.5671 93.793 51.9043H93.2051C92.804 51.9043 92.2207 51.8861 91.4551 51.8496C90.9902 51.8223 90.6712 51.8086 90.498 51.8086C90.2793 51.8086 89.4727 51.8314 88.0781 51.877C87.9232 51.8861 87.7956 51.8906 87.6953 51.8906H87.4492L87.0527 51.8633L86.6836 51.8906L86 51.8633C85.9089 51.8633 85.722 51.877 85.4395 51.9043C85.4212 51.7038 85.4121 51.5488 85.4121 51.4395C85.4121 51.3392 85.4212 51.1888 85.4395 50.9883C85.804 50.888 86.2279 50.7878 86.7109 50.6875C87.3763 50.5508 87.7819 50.4186 87.9277 50.291C88.0827 50.1543 88.1602 49.9766 88.1602 49.7578L88.1465 48.8281L88.2012 47.8164L88.1875 45.7383L88.1738 45.2051C88.1738 45.1322 88.1829 44.8587 88.2012 44.3848C88.2194 44.1387 88.2285 43.9199 88.2285 43.7285C88.2285 43.61 88.2148 43.2409 88.1875 42.6211L88.2422 41.8418C88.2057 41.2493 88.1875 40.8984 88.1875 40.7891C88.1875 40.6523 88.1921 40.5156 88.2012 40.3789L88.2285 40.0371L88.1875 39.1074L88.2285 38.6836C88.2376 38.4922 88.2422 38.237 88.2422 37.918C88.2422 37.6081 88.2376 37.2298 88.2285 36.7832C87.5814 37.2663 86.8431 37.7493 86.0137 38.2324C85.9225 38.2871 85.5124 38.474 84.7832 38.793C84.4915 38.3555 84.3047 38.0273 84.2227 37.8086C85.1888 37.3073 85.8451 36.9382 86.1914 36.7012C86.7656 36.3001 87.3854 35.7988 88.0508 35.1973C88.3333 34.9329 88.6934 34.5273 89.1309 33.9805ZM99.1934 43.6875C98.9199 43.3411 98.6966 43.0677 98.5234 42.8672C100.182 41.6641 101.29 40.6842 101.846 39.9277C102.21 39.4447 102.393 38.9206 102.393 38.3555C102.393 37.7721 102.183 37.2663 101.764 36.8379C101.344 36.4095 100.866 36.1953 100.328 36.1953C99.2161 36.1953 98.2044 36.8743 97.293 38.2324L96.4316 37.7676C96.8691 36.8105 97.2975 36.0951 97.7168 35.6211C98.1452 35.138 98.7513 34.7279 99.5352 34.3906C100.128 34.1354 100.866 34.0078 101.75 34.0078C102.944 34.0078 103.865 34.3086 104.512 34.9102C105.159 35.5026 105.482 36.25 105.482 37.1523C105.482 37.8633 105.259 38.5469 104.812 39.2031C104.366 39.8503 103.573 40.5612 102.434 41.3359H102.721C103.942 41.3359 104.936 41.8053 105.701 42.7441C106.476 43.6829 106.863 44.7083 106.863 45.8203C106.863 46.7591 106.645 47.7389 106.207 48.7598C105.779 49.7806 104.986 50.6419 103.828 51.3438C102.671 52.0365 101.249 52.3828 99.5625 52.3828C97.931 52.3828 96.6868 52.0957 95.8301 51.5215C95.2832 51.1569 95.0098 50.7285 95.0098 50.2363C95.0098 49.89 95.1419 49.5892 95.4062 49.334C95.6706 49.0788 96.0078 48.9512 96.418 48.9512C96.7643 48.9512 97.0833 49.0423 97.375 49.2246C97.6667 49.4069 98.0632 49.8171 98.5645 50.4551C98.8197 50.7832 99.0658 50.9928 99.3027 51.084C99.722 51.2572 100.027 51.3438 100.219 51.3438C100.702 51.3438 101.203 51.1797 101.723 50.8516C102.251 50.5234 102.671 49.9811 102.98 49.2246C103.29 48.459 103.445 47.5703 103.445 46.5586C103.445 45.474 103.172 44.6217 102.625 44.002C102.087 43.373 101.495 43.0586 100.848 43.0586C100.374 43.0586 99.8223 43.2682 99.1934 43.6875Z" fill="#14809E"/>
<path d="M54.3337 89H59.6673V90.7143H54.3337V89ZM63.2498 94.4771L64.5121 93.26C64.1298 92.8229 63.712 92.4114 63.2587 92.0514L61.9964 93.2686C60.5806 92.17 58.8178 91.5712 57.0005 91.5714C54.8786 91.5714 52.8437 92.3842 51.3433 93.8309C49.8429 95.2776 49 97.2398 49 99.2857C49 103.546 52.5736 107 57.0005 107C58.5066 107.001 59.9824 106.591 61.2578 105.819C62.5332 105.046 63.5563 103.942 64.2093 102.633C64.8624 101.325 65.1188 99.8649 64.949 98.4219C64.7793 96.9789 64.1902 95.6115 63.2498 94.4771ZM60.4 101.1L59 102.5L56.1116 99.1429V95H57.8894V98.2857L60.4 101.1Z" fill="white"/>
<path d="M79.2402 105.18C77.6269 105.18 76.4002 104.56 75.5602 103.32C74.7202 102.08 74.3002 100.287 74.3002 97.94C74.3002 96.3667 74.4869 95.0467 74.8602 93.98C75.2336 92.9 75.7869 92.0867 76.5202 91.54C77.2669 90.9933 78.1736 90.72 79.2402 90.72C80.8669 90.72 82.0936 91.3333 82.9202 92.56C83.7602 93.7733 84.1802 95.56 84.1802 97.92C84.1802 99.4933 83.9936 100.82 83.6202 101.9C83.2469 102.98 82.6936 103.8 81.9602 104.36C81.2269 104.907 80.3202 105.18 79.2402 105.18ZM79.2402 103.76C80.3602 103.76 81.1869 103.287 81.7202 102.34C82.2669 101.38 82.5402 99.9067 82.5402 97.92C82.5402 95.92 82.2669 94.46 81.7202 93.54C81.1869 92.6067 80.3602 92.14 79.2402 92.14C78.1336 92.14 77.3069 92.6067 76.7602 93.54C76.2136 94.4733 75.9402 95.9333 75.9402 97.92C75.9402 99.9067 76.2136 101.38 76.7602 102.34C77.3069 103.287 78.1336 103.76 79.2402 103.76ZM91.0724 105.18C90.2991 105.18 89.5191 105.067 88.7324 104.84C87.9591 104.613 87.2858 104.28 86.7124 103.84C86.5391 103.72 86.4258 103.587 86.3724 103.44C86.3191 103.28 86.3058 103.133 86.3324 103C86.3724 102.853 86.4458 102.733 86.5524 102.64C86.6591 102.533 86.7858 102.473 86.9324 102.46C87.0924 102.447 87.2658 102.5 87.4524 102.62C88.0391 103.007 88.6258 103.287 89.2124 103.46C89.7991 103.633 90.4058 103.72 91.0324 103.72C91.7124 103.72 92.2858 103.62 92.7524 103.42C93.2191 103.22 93.5724 102.927 93.8124 102.54C94.0524 102.14 94.1724 101.653 94.1724 101.08C94.1724 100.253 93.8991 99.6267 93.3524 99.2C92.8058 98.7733 92.0124 98.56 90.9724 98.56H89.5524C89.2991 98.56 89.1058 98.5 88.9724 98.38C88.8391 98.2467 88.7724 98.0667 88.7724 97.84C88.7724 97.6267 88.8391 97.46 88.9724 97.34C89.1058 97.2067 89.2991 97.14 89.5524 97.14H90.8324C91.4458 97.14 91.9658 97.0333 92.3924 96.82C92.8324 96.6067 93.1724 96.3067 93.4124 95.92C93.6524 95.52 93.7724 95.04 93.7724 94.48C93.7724 93.7333 93.5324 93.1667 93.0524 92.78C92.5724 92.38 91.8791 92.18 90.9724 92.18C90.3724 92.18 89.8058 92.2667 89.2724 92.44C88.7391 92.6133 88.2124 92.9067 87.6924 93.32C87.5324 93.44 87.3724 93.5 87.2124 93.5C87.0658 93.4867 86.9391 93.44 86.8324 93.36C86.7391 93.2667 86.6658 93.1467 86.6124 93C86.5724 92.8533 86.5791 92.7067 86.6324 92.56C86.6858 92.4 86.7991 92.2533 86.9724 92.12C87.5058 91.6667 88.1324 91.32 88.8524 91.08C89.5724 90.84 90.3124 90.72 91.0724 90.72C91.9791 90.72 92.7524 90.8667 93.3924 91.16C94.0458 91.44 94.5458 91.8533 94.8924 92.4C95.2391 92.9333 95.4124 93.58 95.4124 94.34C95.4124 94.9133 95.2991 95.44 95.0724 95.92C94.8591 96.3867 94.5524 96.7867 94.1524 97.12C93.7658 97.4533 93.2924 97.6933 92.7324 97.84V97.62C93.7058 97.78 94.4591 98.18 94.9924 98.82C95.5391 99.4467 95.8124 100.24 95.8124 101.2C95.8124 102.013 95.6191 102.72 95.2324 103.32C94.8591 103.907 94.3191 104.367 93.6124 104.7C92.9058 105.02 92.0591 105.18 91.0724 105.18ZM99.5246 105.08C99.1913 105.08 98.9246 104.98 98.7246 104.78C98.5246 104.567 98.4246 104.3 98.4246 103.98C98.4246 103.66 98.5246 103.4 98.7246 103.2C98.9246 102.987 99.1913 102.88 99.5246 102.88C99.8579 102.88 100.118 102.987 100.305 103.2C100.505 103.4 100.605 103.66 100.605 103.98C100.605 104.3 100.505 104.567 100.305 104.78C100.118 104.98 99.8579 105.08 99.5246 105.08ZM99.5246 97.4C99.1913 97.4 98.9246 97.2933 98.7246 97.08C98.5246 96.8667 98.4246 96.6067 98.4246 96.3C98.4246 95.9667 98.5246 95.7 98.7246 95.5C98.9246 95.3 99.1913 95.2 99.5246 95.2C99.8579 95.2 100.118 95.3 100.305 95.5C100.505 95.7 100.605 95.9667 100.605 96.3C100.605 96.6067 100.505 96.8667 100.305 97.08C100.118 97.2933 99.8579 97.4 99.5246 97.4ZM110.135 105.14C109.882 105.14 109.682 105.067 109.535 104.92C109.389 104.773 109.315 104.567 109.315 104.3V101.98H103.575C103.309 101.98 103.095 101.92 102.935 101.8C102.789 101.667 102.715 101.48 102.715 101.24C102.715 101.093 102.749 100.947 102.815 100.8C102.882 100.64 103.002 100.44 103.175 100.2L109.275 91.32C109.395 91.1333 109.529 90.9933 109.675 90.9C109.822 90.8067 109.995 90.76 110.195 90.76C110.409 90.76 110.589 90.8267 110.735 90.96C110.895 91.0933 110.975 91.3067 110.975 91.6V100.58H112.435C112.689 100.58 112.882 100.64 113.015 100.76C113.149 100.88 113.215 101.053 113.215 101.28C113.215 101.507 113.149 101.68 113.015 101.8C112.882 101.92 112.689 101.98 112.435 101.98H110.975V104.3C110.975 104.567 110.902 104.773 110.755 104.92C110.609 105.067 110.402 105.14 110.135 105.14ZM109.315 100.58V92.82H109.795L104.195 101.02V100.58H109.315ZM120.068 105.18C119.308 105.18 118.548 105.067 117.788 104.84C117.041 104.613 116.361 104.26 115.748 103.78C115.588 103.673 115.481 103.547 115.428 103.4C115.374 103.253 115.368 103.107 115.408 102.96C115.448 102.813 115.521 102.693 115.628 102.6C115.734 102.493 115.861 102.433 116.008 102.42C116.168 102.407 116.334 102.46 116.508 102.58C117.054 102.967 117.621 103.253 118.208 103.44C118.794 103.627 119.408 103.72 120.048 103.72C120.701 103.72 121.261 103.6 121.728 103.36C122.208 103.107 122.568 102.76 122.808 102.32C123.061 101.867 123.188 101.34 123.188 100.74C123.188 99.82 122.921 99.0667 122.388 98.48C121.854 97.8933 121.121 97.6 120.188 97.6C119.614 97.6 119.088 97.7067 118.608 97.92C118.128 98.1333 117.688 98.4733 117.288 98.94C117.194 99.0467 117.081 99.14 116.948 99.22C116.828 99.2867 116.688 99.32 116.528 99.32C116.301 99.32 116.121 99.26 115.988 99.14C115.868 99.0067 115.808 98.8333 115.808 98.62V91.66C115.808 91.4067 115.874 91.22 116.008 91.1C116.141 90.9667 116.328 90.9 116.568 90.9H123.368C123.621 90.9 123.808 90.96 123.928 91.08C124.061 91.2 124.128 91.3733 124.128 91.6C124.128 91.8267 124.061 92 123.928 92.12C123.808 92.24 123.621 92.3 123.368 92.3H117.428V97.92H116.988C117.334 97.36 117.814 96.9333 118.428 96.64C119.041 96.3333 119.728 96.18 120.488 96.18C121.381 96.18 122.148 96.3667 122.788 96.74C123.441 97.1133 123.941 97.64 124.288 98.32C124.648 98.9867 124.828 99.7667 124.828 100.66C124.828 101.54 124.634 102.32 124.248 103C123.861 103.68 123.314 104.213 122.608 104.6C121.901 104.987 121.054 105.18 120.068 105.18Z" fill="white"/>
</svg>
