<svg width="172" height="172" viewBox="0 0 172 172" fill="none" xmlns="http://www.w3.org/2000/svg">
<circle cx="86" cy="86" r="79" fill="#9CDA9C"/>
<mask id="path-2-inside-1_762_6242" fill="white">
<path d="M86 3.01C86 1.34762 87.3482 -0.00550137 89.0095 0.0526576C104.965 0.611199 120.472 5.60197 133.779 14.4936C147.922 23.9434 158.945 37.3748 165.454 53.0892C171.963 68.8037 173.666 86.0954 170.348 102.778C167.029 119.46 158.839 134.784 146.811 146.811C134.784 158.839 119.46 167.029 102.778 170.348C86.0954 173.666 68.8037 171.963 53.0892 165.454C37.3748 158.945 23.9434 147.922 14.4936 133.779C5.60196 120.472 0.611198 104.965 0.0526574 89.0095C-0.00550145 87.3482 1.34762 86 3.01 86C4.67237 86 6.01408 87.3482 6.07661 89.0094C6.63239 103.774 11.2689 118.117 19.4991 130.435C28.2874 143.587 40.7785 153.838 55.393 159.892C70.0074 165.945 86.0887 167.529 101.603 164.443C117.118 161.357 131.369 153.74 142.554 142.554C153.74 131.369 161.357 117.118 164.443 101.603C167.529 86.0887 165.945 70.0074 159.892 55.393C153.838 40.7785 143.587 28.2874 130.435 19.4991C118.117 11.2689 103.774 6.6324 89.0094 6.07661C87.3482 6.01408 86 4.67237 86 3.01Z"/>
</mask>
<path d="M86 3.01C86 1.34762 87.3482 -0.00550137 89.0095 0.0526576C104.965 0.611199 120.472 5.60197 133.779 14.4936C147.922 23.9434 158.945 37.3748 165.454 53.0892C171.963 68.8037 173.666 86.0954 170.348 102.778C167.029 119.46 158.839 134.784 146.811 146.811C134.784 158.839 119.46 167.029 102.778 170.348C86.0954 173.666 68.8037 171.963 53.0892 165.454C37.3748 158.945 23.9434 147.922 14.4936 133.779C5.60196 120.472 0.611198 104.965 0.0526574 89.0095C-0.00550145 87.3482 1.34762 86 3.01 86C4.67237 86 6.01408 87.3482 6.07661 89.0094C6.63239 103.774 11.2689 118.117 19.4991 130.435C28.2874 143.587 40.7785 153.838 55.393 159.892C70.0074 165.945 86.0887 167.529 101.603 164.443C117.118 161.357 131.369 153.74 142.554 142.554C153.74 131.369 161.357 117.118 164.443 101.603C167.529 86.0887 165.945 70.0074 159.892 55.393C153.838 40.7785 143.587 28.2874 130.435 19.4991C118.117 11.2689 103.774 6.6324 89.0094 6.07661C87.3482 6.01408 86 4.67237 86 3.01Z" stroke="#54BA54" stroke-width="12" mask="url(#path-2-inside-1_762_6242)"/>
<path fill-rule="evenodd" clip-rule="evenodd" d="M36.0399 78.2923C35.8521 78.2264 35.6458 78.2378 35.4664 78.324C35.2871 78.4102 35.1493 78.5641 35.0834 78.7518C35.0175 78.9396 35.0288 79.1459 35.115 79.3253C35.2012 79.5046 35.3551 79.6424 35.5429 79.7083L35.8039 79.7993C36.4719 80.0343 36.9109 80.1893 37.2339 80.3483C37.5369 80.4973 37.6699 80.6183 37.7579 80.7463C37.8479 80.8783 37.9179 81.0603 37.9579 81.4233C37.9979 81.8033 37.9999 82.2983 37.9999 83.0383V85.6403C37.9999 88.5823 38.0629 89.5523 38.9299 90.4663C39.7959 91.3803 41.1899 91.3803 43.9799 91.3803H49.2819C50.8429 91.3803 51.6239 91.3803 52.1749 90.9303C52.7269 90.4803 52.8849 89.7163 53.1999 88.1883L53.6999 85.7633C54.0469 84.0233 54.2199 83.1543 53.7759 82.5773C53.3319 82.0003 51.8159 82.0003 50.1309 82.0003H39.4919C39.4876 81.7539 39.4733 81.5077 39.4489 81.2623C39.3949 80.7653 39.2789 80.3123 38.9969 79.9003C38.7129 79.4843 38.3349 79.2183 37.8939 79.0013C37.4819 78.7993 36.9579 78.6153 36.3419 78.3983L36.0399 78.2923ZM48.5169 84.4573C48.8169 84.7433 48.8289 85.2173 48.5429 85.5173L45.6859 88.5173C45.6158 88.5909 45.5316 88.6494 45.4382 88.6894C45.3449 88.7294 45.2444 88.75 45.1429 88.75C45.0413 88.75 44.9408 88.7294 44.8475 88.6894C44.7542 88.6494 44.6699 88.5909 44.5999 88.5173L43.4569 87.3173C43.386 87.2466 43.3301 87.1624 43.2923 87.0698C43.2545 86.9771 43.2356 86.8778 43.2368 86.7777C43.238 86.6776 43.2592 86.5788 43.2992 86.487C43.3391 86.3952 43.3971 86.3124 43.4696 86.2434C43.5421 86.1744 43.6276 86.1206 43.7212 86.0851C43.8149 86.0497 43.9146 86.0334 44.0146 86.0371C44.1147 86.0408 44.2129 86.0645 44.3036 86.1068C44.3944 86.1491 44.4757 86.2091 44.5429 86.2833L45.1429 86.9133L47.4569 84.4833C47.594 84.3394 47.7827 84.2558 47.9815 84.2509C48.1802 84.246 48.3728 84.3203 48.5169 84.4573Z" fill="white"/>
<path d="M40.5 94C40.8978 94 41.2794 94.158 41.5607 94.4393C41.842 94.7206 42 95.1022 42 95.5C42 95.8978 41.842 96.2794 41.5607 96.5607C41.2794 96.842 40.8978 97 40.5 97C40.1022 97 39.7206 96.842 39.4393 96.5607C39.158 96.2794 39 95.8978 39 95.5C39 95.1022 39.158 94.7206 39.4393 94.4393C39.7206 94.158 40.1022 94 40.5 94ZM49.5 94C49.8978 94 50.2794 94.158 50.5607 94.4393C50.842 94.7206 51 95.1022 51 95.5C51 95.8978 50.842 96.2794 50.5607 96.5607C50.2794 96.842 49.8978 97 49.5 97C49.1022 97 48.7206 96.842 48.4393 96.5607C48.158 96.2794 48 95.8978 48 95.5C48 95.1022 48.158 94.7206 48.4393 94.4393C48.7206 94.158 49.1022 94 49.5 94Z" fill="white"/>
<path d="M68.0404 95C67.7471 95 67.5204 94.9267 67.3604 94.78C67.2137 94.62 67.1404 94.3933 67.1404 94.1V81.8C67.1404 81.5067 67.2137 81.2867 67.3604 81.14C67.5204 80.98 67.7471 80.9 68.0404 80.9H75.4804C75.7071 80.9 75.8804 80.96 76.0004 81.08C76.1204 81.2 76.1804 81.3667 76.1804 81.58C76.1804 81.8067 76.1204 81.98 76.0004 82.1C75.8804 82.22 75.7071 82.28 75.4804 82.28H68.7404V87.16H75.0604C75.2871 87.16 75.4604 87.22 75.5804 87.34C75.7004 87.4467 75.7604 87.6133 75.7604 87.84C75.7604 88.0667 75.7004 88.24 75.5804 88.36C75.4604 88.48 75.2871 88.54 75.0604 88.54H68.7404V93.62H75.4804C75.7071 93.62 75.8804 93.68 76.0004 93.8C76.1204 93.92 76.1804 94.0867 76.1804 94.3C76.1804 94.5267 76.1204 94.7 76.0004 94.82C75.8804 94.94 75.7071 95 75.4804 95H68.0404ZM83.0605 95.18C81.4472 95.18 80.2205 94.56 79.3805 93.32C78.5405 92.08 78.1205 90.2867 78.1205 87.94C78.1205 86.3667 78.3072 85.0467 78.6805 83.98C79.0539 82.9 79.6072 82.0867 80.3405 81.54C81.0872 80.9933 81.9939 80.72 83.0605 80.72C84.6872 80.72 85.9139 81.3333 86.7405 82.56C87.5805 83.7733 88.0005 85.56 88.0005 87.92C88.0005 89.4933 87.8139 90.82 87.4405 91.9C87.0672 92.98 86.5139 93.8 85.7805 94.36C85.0472 94.9067 84.1405 95.18 83.0605 95.18ZM83.0605 93.76C84.1805 93.76 85.0072 93.2867 85.5405 92.34C86.0872 91.38 86.3605 89.9067 86.3605 87.92C86.3605 85.92 86.0872 84.46 85.5405 83.54C85.0072 82.6067 84.1805 82.14 83.0605 82.14C81.9539 82.14 81.1272 82.6067 80.5805 83.54C80.0339 84.4733 79.7605 85.9333 79.7605 87.92C79.7605 89.9067 80.0339 91.38 80.5805 92.34C81.1272 93.2867 81.9539 93.76 83.0605 93.76ZM97.4127 95.14C97.1594 95.14 96.9594 95.0667 96.8127 94.92C96.6661 94.7733 96.5927 94.5667 96.5927 94.3V91.98H90.8527C90.5861 91.98 90.3727 91.92 90.2127 91.8C90.0661 91.6667 89.9927 91.48 89.9927 91.24C89.9927 91.0933 90.0261 90.9467 90.0927 90.8C90.1594 90.64 90.2794 90.44 90.4527 90.2L96.5527 81.32C96.6727 81.1333 96.8061 80.9933 96.9527 80.9C97.0994 80.8067 97.2727 80.76 97.4727 80.76C97.6861 80.76 97.8661 80.8267 98.0127 80.96C98.1727 81.0933 98.2527 81.3067 98.2527 81.6V90.58H99.7127C99.9661 90.58 100.159 90.64 100.293 90.76C100.426 90.88 100.493 91.0533 100.493 91.28C100.493 91.5067 100.426 91.68 100.293 91.8C100.159 91.92 99.9661 91.98 99.7127 91.98H98.2527V94.3C98.2527 94.5667 98.1794 94.7733 98.0327 94.92C97.8861 95.0667 97.6794 95.14 97.4127 95.14ZM96.5927 90.58V82.82H97.0727L91.4727 91.02V90.58H96.5927ZM102.485 95.14C102.272 95.14 102.098 95.0933 101.965 95C101.845 94.8933 101.772 94.76 101.745 94.6C101.732 94.4267 101.772 94.2333 101.865 94.02L107.365 81.5C107.485 81.2333 107.625 81.0467 107.785 80.94C107.958 80.82 108.145 80.76 108.345 80.76C108.545 80.76 108.725 80.82 108.885 80.94C109.058 81.0467 109.198 81.2333 109.305 81.5L114.825 94.02C114.932 94.2333 114.972 94.4267 114.945 94.6C114.932 94.7733 114.865 94.9067 114.745 95C114.625 95.0933 114.458 95.14 114.245 95.14C114.005 95.14 113.812 95.08 113.665 94.96C113.518 94.8267 113.398 94.64 113.305 94.4L111.825 90.98L112.625 91.4H104.025L104.845 90.98L103.385 94.4C103.265 94.6533 103.138 94.84 103.005 94.96C102.872 95.08 102.698 95.14 102.485 95.14ZM108.325 82.82L105.105 90.4L104.625 90.02H112.025L111.585 90.4L108.365 82.82H108.325ZM118.715 95C118.475 95 118.289 94.94 118.155 94.82C118.022 94.6867 117.955 94.5067 117.955 94.28C117.955 94.0533 118.022 93.8867 118.155 93.78C118.289 93.66 118.475 93.6 118.715 93.6H121.315V82.26H122.175L119.275 84.18C119.102 84.2733 118.935 84.3133 118.775 84.3C118.629 84.2867 118.502 84.2333 118.395 84.14C118.302 84.0333 118.235 83.9133 118.195 83.78C118.155 83.6333 118.162 83.4867 118.215 83.34C118.269 83.18 118.382 83.0467 118.555 82.94L121.315 81.12C121.489 81.0133 121.655 80.9267 121.815 80.86C121.975 80.7933 122.135 80.76 122.295 80.76C122.482 80.76 122.635 80.82 122.755 80.94C122.889 81.0467 122.955 81.22 122.955 81.46V93.6H125.355C125.595 93.6 125.782 93.66 125.915 93.78C126.049 93.8867 126.115 94.0533 126.115 94.28C126.115 94.52 126.049 94.7 125.915 94.82C125.782 94.94 125.595 95 125.355 95H118.715ZM133.607 95.18C132.554 95.18 131.647 95.0267 130.887 94.72C130.141 94.4133 129.567 93.9667 129.167 93.38C128.781 92.7933 128.587 92.0867 128.587 91.26C128.587 90.6067 128.721 90.0267 128.987 89.52C129.254 89 129.627 88.58 130.107 88.26C130.587 87.94 131.141 87.74 131.767 87.66V87.96C130.901 87.7733 130.207 87.3667 129.687 86.74C129.181 86.1 128.927 85.3467 128.927 84.48C128.927 83.68 129.114 83.0067 129.487 82.46C129.874 81.9 130.421 81.4733 131.127 81.18C131.834 80.8733 132.661 80.72 133.607 80.72C134.567 80.72 135.394 80.8733 136.087 81.18C136.794 81.4733 137.341 81.9 137.727 82.46C138.114 83.0067 138.307 83.68 138.307 84.48C138.307 85.0533 138.187 85.5867 137.947 86.08C137.721 86.56 137.394 86.96 136.967 87.28C136.541 87.6 136.041 87.82 135.467 87.94V87.66C136.414 87.7933 137.174 88.1867 137.747 88.84C138.334 89.48 138.627 90.2867 138.627 91.26C138.627 92.0867 138.427 92.7933 138.027 93.38C137.641 93.9667 137.067 94.4133 136.307 94.72C135.561 95.0267 134.661 95.18 133.607 95.18ZM133.607 93.82C134.741 93.82 135.594 93.6 136.167 93.16C136.754 92.72 137.047 92.0533 137.047 91.16C137.047 90.28 136.754 89.6267 136.167 89.2C135.594 88.76 134.741 88.54 133.607 88.54C132.487 88.54 131.634 88.76 131.047 89.2C130.461 89.6267 130.167 90.28 130.167 91.16C130.167 92.0533 130.461 92.72 131.047 93.16C131.634 93.6 132.487 93.82 133.607 93.82ZM133.607 87.18C134.261 87.18 134.814 87.08 135.267 86.88C135.734 86.6667 136.094 86.3667 136.347 85.98C136.601 85.5933 136.727 85.14 136.727 84.62C136.727 83.82 136.447 83.2 135.887 82.76C135.341 82.3067 134.581 82.08 133.607 82.08C132.634 82.08 131.874 82.3067 131.327 82.76C130.781 83.2 130.507 83.82 130.507 84.62C130.507 85.42 130.781 86.0467 131.327 86.5C131.874 86.9533 132.634 87.18 133.607 87.18Z" fill="white"/>
<path d="M62.3833 118.333C61.9167 117.35 60.9167 116.667 59.75 116.667H56V115H66V116.667H63.2833C63.6833 117.15 63.9833 117.717 64.1583 118.333H66V120H64.3167C64.1083 122.333 62.1417 124.167 59.75 124.167H59.1417L64.75 130H62.4417L56.8333 124.167V122.5H59.75C61.2167 122.5 62.4333 121.417 62.6333 120H56V118.333H62.3833Z" fill="white"/>
<path d="M74.6002 129.14C74.4136 129.14 74.2536 129.093 74.1202 129C73.9869 128.907 73.9002 128.78 73.8602 128.62C73.8336 128.447 73.8736 128.26 73.9802 128.06L80.4002 115.6V116.32H73.2002C72.9602 116.32 72.7736 116.26 72.6402 116.14C72.5069 116.007 72.4402 115.827 72.4402 115.6C72.4402 115.373 72.5069 115.2 72.6402 115.08C72.7736 114.96 72.9602 114.9 73.2002 114.9H81.1402C81.3802 114.9 81.5736 114.96 81.7202 115.08C81.8669 115.2 81.9402 115.373 81.9402 115.6C81.9402 115.787 81.9136 115.953 81.8602 116.1C81.8202 116.233 81.7602 116.387 81.6802 116.56L75.5202 128.58C75.4269 128.767 75.3069 128.907 75.1602 129C75.0136 129.093 74.8269 129.14 74.6002 129.14ZM85.7124 130.9C85.5791 131.073 85.4391 131.173 85.2924 131.2C85.1458 131.227 85.0191 131.2 84.9124 131.12C84.8058 131.04 84.7458 130.927 84.7324 130.78C84.7324 130.633 84.7991 130.473 84.9324 130.3C85.1458 130.02 85.2924 129.733 85.3724 129.44C85.4524 129.16 85.4924 128.9 85.4924 128.66L85.5724 129.08C85.2258 129.08 84.9458 128.98 84.7324 128.78C84.5324 128.567 84.4324 128.3 84.4324 127.98C84.4324 127.66 84.5258 127.4 84.7124 127.2C84.9124 126.987 85.1724 126.88 85.4924 126.88C85.8391 126.88 86.1124 127 86.3124 127.24C86.5124 127.467 86.6124 127.8 86.6124 128.24C86.6124 128.52 86.5858 128.807 86.5324 129.1C86.4791 129.407 86.3858 129.713 86.2524 130.02C86.1191 130.327 85.9391 130.62 85.7124 130.9ZM90.8832 129C90.6432 129 90.4565 128.94 90.3232 128.82C90.1899 128.687 90.1232 128.507 90.1232 128.28C90.1232 128.053 90.1899 127.887 90.3232 127.78C90.4565 127.66 90.6432 127.6 90.8832 127.6H93.4832V116.26H94.3432L91.4432 118.18C91.2699 118.273 91.1032 118.313 90.9432 118.3C90.7965 118.287 90.6699 118.233 90.5632 118.14C90.4699 118.033 90.4032 117.913 90.3632 117.78C90.3232 117.633 90.3299 117.487 90.3832 117.34C90.4365 117.18 90.5499 117.047 90.7232 116.94L93.4832 115.12C93.6565 115.013 93.8232 114.927 93.9832 114.86C94.1432 114.793 94.3032 114.76 94.4632 114.76C94.6499 114.76 94.8032 114.82 94.9232 114.94C95.0565 115.047 95.1232 115.22 95.1232 115.46V127.6H97.5232C97.7632 127.6 97.9499 127.66 98.0832 127.78C98.2165 127.887 98.2832 128.053 98.2832 128.28C98.2832 128.52 98.2165 128.7 98.0832 128.82C97.9499 128.94 97.7632 129 97.5232 129H90.8832ZM102.355 129C102.062 129 101.842 128.933 101.695 128.8C101.562 128.653 101.495 128.46 101.495 128.22C101.495 128.073 101.529 127.933 101.595 127.8C101.675 127.653 101.782 127.507 101.915 127.36L106.395 122.56C107.075 121.827 107.562 121.153 107.855 120.54C108.162 119.913 108.315 119.28 108.315 118.64C108.315 117.84 108.069 117.233 107.575 116.82C107.095 116.393 106.389 116.18 105.455 116.18C104.855 116.18 104.289 116.273 103.755 116.46C103.222 116.647 102.709 116.933 102.215 117.32C102.042 117.453 101.882 117.513 101.735 117.5C101.602 117.487 101.482 117.433 101.375 117.34C101.269 117.247 101.195 117.127 101.155 116.98C101.115 116.833 101.115 116.687 101.155 116.54C101.209 116.393 101.315 116.26 101.475 116.14C101.995 115.713 102.622 115.373 103.355 115.12C104.089 114.853 104.835 114.72 105.595 114.72C106.542 114.72 107.342 114.867 107.995 115.16C108.649 115.453 109.142 115.887 109.475 116.46C109.809 117.02 109.975 117.707 109.975 118.52C109.975 119.08 109.882 119.633 109.695 120.18C109.522 120.713 109.249 121.26 108.875 121.82C108.515 122.38 108.042 122.96 107.455 123.56L103.195 128.06V127.6H109.935C110.189 127.6 110.375 127.66 110.495 127.78C110.629 127.887 110.695 128.053 110.695 128.28C110.695 128.52 110.629 128.7 110.495 128.82C110.375 128.94 110.189 129 109.935 129H102.355ZM117.768 129.18C116.154 129.18 114.928 128.56 114.088 127.32C113.248 126.08 112.828 124.287 112.828 121.94C112.828 120.367 113.014 119.047 113.388 117.98C113.761 116.9 114.314 116.087 115.048 115.54C115.794 114.993 116.701 114.72 117.768 114.72C119.394 114.72 120.621 115.333 121.448 116.56C122.288 117.773 122.708 119.56 122.708 121.92C122.708 123.493 122.521 124.82 122.148 125.9C121.774 126.98 121.221 127.8 120.488 128.36C119.754 128.907 118.848 129.18 117.768 129.18ZM117.768 127.76C118.888 127.76 119.714 127.287 120.248 126.34C120.794 125.38 121.068 123.907 121.068 121.92C121.068 119.92 120.794 118.46 120.248 117.54C119.714 116.607 118.888 116.14 117.768 116.14C116.661 116.14 115.834 116.607 115.288 117.54C114.741 118.473 114.468 119.933 114.468 121.92C114.468 123.907 114.741 125.38 115.288 126.34C115.834 127.287 116.661 127.76 117.768 127.76Z" fill="white"/>
<path d="M65.7246 33.4473H66.5723C66.6361 33.5475 66.6816 33.6204 66.709 33.666C66.9642 34.1035 67.1602 34.3906 67.2969 34.5273C67.4154 34.5638 68.0397 34.582 69.1699 34.582C69.8717 34.582 70.4961 34.5775 71.043 34.5684L71.3164 34.5273L72.9707 34.5137L76.0605 34.541H80.2852L81.0918 34.418C81.2103 34.3359 81.3379 34.1172 81.4746 33.7617C81.5111 33.6797 81.5612 33.5658 81.625 33.4199L82.2266 33.4062C82.3177 33.4062 82.4544 33.4108 82.6367 33.4199C82.6458 34.0488 82.6504 34.9967 82.6504 36.2637L82.6641 37.4805L82.6504 38.1777C82.6504 38.4147 82.6322 38.6198 82.5957 38.793C82.222 38.9115 81.8939 38.9844 81.6113 39.0117C81.3743 38.6562 81.1146 38.1413 80.832 37.4668C80.5586 36.7923 80.3854 36.4186 80.3125 36.3457C80.2031 36.2272 80.0755 36.1497 79.9297 36.1133C79.7109 36.0677 78.7448 36.0449 77.0312 36.0449C76.776 36.0449 76.457 36.0632 76.0742 36.0996C76.0195 36.4551 75.9922 36.7467 75.9922 36.9746L76.0059 38.8066V42.8262L76.0605 47.1602L76.0469 48.9375C76.0469 49.5664 76.1016 50.0404 76.2109 50.3594C76.3568 50.4232 76.6257 50.4824 77.0176 50.5371C77.0905 50.5462 77.4277 50.6191 78.0293 50.7559C78.3027 50.8197 78.5443 50.8926 78.7539 50.9746C78.7995 51.3027 78.8223 51.5033 78.8223 51.5762C78.8223 51.6582 78.8086 51.7767 78.7812 51.9316C78.5807 51.9408 78.4167 51.9453 78.2891 51.9453C77.3503 51.9453 76.5527 51.9134 75.8965 51.8496C75.2402 51.7767 74.0508 51.7402 72.3281 51.7402C72.0547 51.7402 71.2526 51.7949 69.9219 51.9043C69.4023 51.9408 69.0651 51.959 68.9102 51.959C68.901 51.8223 68.8919 51.7174 68.8828 51.6445L68.8691 51.3301V51.2207C69.0697 50.9564 69.4479 50.7604 70.0039 50.6328C70.9518 50.4049 71.6081 50.1999 71.9727 50.0176C72.0638 49.8444 72.1185 49.6165 72.1367 49.334C72.2005 48.2402 72.2324 46.4993 72.2324 44.1113L72.1641 38.9434C72.1641 37.5215 72.1367 36.6602 72.082 36.3594C72.0638 36.2773 72.0319 36.2181 71.9863 36.1816C71.9408 36.1361 71.877 36.1087 71.7949 36.0996C71.5124 36.0632 70.5918 36.0449 69.0332 36.0449C68.1764 36.0449 67.6022 36.127 67.3105 36.291C66.9186 36.5189 66.3307 37.1387 65.5469 38.1504C65.319 38.4421 65.1504 38.5879 65.041 38.5879C64.6217 38.3691 64.3529 38.1914 64.2344 38.0547C64.5169 37.4622 64.9089 36.2773 65.4102 34.5C65.556 33.9805 65.6608 33.6296 65.7246 33.4473ZM89.1309 33.9805C89.1764 33.9805 89.4863 33.9714 90.0605 33.9531L90.498 33.9668L91.3594 33.9805C91.3958 34.2721 91.4141 34.4863 91.4141 34.623C91.4141 34.6686 91.4095 34.8099 91.4004 35.0469C91.3913 35.1745 91.3822 35.6621 91.373 36.5098L91.3457 38.5742L91.3594 39.873L91.2637 49.1016V49.8809C91.2637 50.1543 91.3275 50.3503 91.4551 50.4688C91.5827 50.5872 91.9245 50.6875 92.4805 50.7695C92.6992 50.7969 93.1367 50.8698 93.793 50.9883C93.8112 51.0794 93.8203 51.166 93.8203 51.248C93.8203 51.3483 93.8112 51.5671 93.793 51.9043H93.2051C92.804 51.9043 92.2207 51.8861 91.4551 51.8496C90.9902 51.8223 90.6712 51.8086 90.498 51.8086C90.2793 51.8086 89.4727 51.8314 88.0781 51.877C87.9232 51.8861 87.7956 51.8906 87.6953 51.8906H87.4492L87.0527 51.8633L86.6836 51.8906L86 51.8633C85.9089 51.8633 85.722 51.877 85.4395 51.9043C85.4212 51.7038 85.4121 51.5488 85.4121 51.4395C85.4121 51.3392 85.4212 51.1888 85.4395 50.9883C85.804 50.888 86.2279 50.7878 86.7109 50.6875C87.3763 50.5508 87.7819 50.4186 87.9277 50.291C88.0827 50.1543 88.1602 49.9766 88.1602 49.7578L88.1465 48.8281L88.2012 47.8164L88.1875 45.7383L88.1738 45.2051C88.1738 45.1322 88.1829 44.8587 88.2012 44.3848C88.2194 44.1387 88.2285 43.9199 88.2285 43.7285C88.2285 43.61 88.2148 43.2409 88.1875 42.6211L88.2422 41.8418C88.2057 41.2493 88.1875 40.8984 88.1875 40.7891C88.1875 40.6523 88.1921 40.5156 88.2012 40.3789L88.2285 40.0371L88.1875 39.1074L88.2285 38.6836C88.2376 38.4922 88.2422 38.237 88.2422 37.918C88.2422 37.6081 88.2376 37.2298 88.2285 36.7832C87.5814 37.2663 86.8431 37.7493 86.0137 38.2324C85.9225 38.2871 85.5124 38.474 84.7832 38.793C84.4915 38.3555 84.3047 38.0273 84.2227 37.8086C85.1888 37.3073 85.8451 36.9382 86.1914 36.7012C86.7656 36.3001 87.3854 35.7988 88.0508 35.1973C88.3333 34.9329 88.6934 34.5273 89.1309 33.9805ZM107.096 45.3828V47.6797C106.604 47.707 106.216 47.7207 105.934 47.7207C105.669 47.7207 105.332 47.707 104.922 47.6797C104.895 47.8984 104.881 48.0306 104.881 48.0762L104.908 48.8965L104.895 49.7715L104.922 50.373C104.922 50.4824 104.908 50.7559 104.881 51.1934C104.863 51.4395 104.849 51.8086 104.84 52.3008L103.664 52.2871H102.939C102.748 52.2871 102.602 52.2826 102.502 52.2734L102.27 52.2461C102.206 52.2461 102.105 52.2643 101.969 52.3008L101.996 49.6484L101.941 47.9395C101.941 47.8939 101.951 47.8073 101.969 47.6797C101.531 47.6888 100.88 47.6979 100.014 47.707H99.1113C98.3366 47.707 97.4753 47.6934 96.5273 47.666C96.2266 47.6569 96.0306 47.6523 95.9395 47.6523C95.8027 47.6523 95.5931 47.6615 95.3105 47.6797L95.2832 47.502L95.3242 46.5586L95.2969 46.2578L95.3379 45.6973L95.3105 45.5879C95.7389 44.7767 96.0124 44.2845 96.1309 44.1113L99.2617 39.2988C99.9635 38.2598 100.52 37.4714 100.93 36.9336C101.349 36.3867 101.641 35.9811 101.805 35.7168C102.06 35.3066 102.283 34.9831 102.475 34.7461C102.757 34.3906 102.939 34.14 103.021 33.9941C103.559 33.9668 103.896 33.9531 104.033 33.9531C104.206 33.9531 104.53 33.9668 105.004 33.9941L105.031 34.1582L104.977 35.1699L105.004 35.5254L104.963 36.0859L104.99 36.6465L104.963 38L104.949 38.5879L104.963 39.3535L104.949 40.0645L104.963 41.0352L104.949 41.9648L104.963 43.0449L104.922 45.3828C105.241 45.3828 105.637 45.3919 106.111 45.4102H106.439C106.585 45.4102 106.804 45.401 107.096 45.3828ZM101.969 45.3555C102.023 44.8997 102.051 44.5579 102.051 44.3301C102.051 44.2389 102.042 44.0703 102.023 43.8242C102.014 43.569 102.01 43.4049 102.01 43.332L102.051 42.2656L102.023 41.3496L102.064 38.9844L102.051 37.9043C102.051 37.8132 102.06 37.599 102.078 37.2617C102.005 37.3711 101.878 37.5352 101.695 37.7539C101.568 37.9635 101.463 38.1185 101.381 38.2188C101.025 38.6562 100.629 39.1986 100.191 39.8457L98.9609 41.8145C98.8424 41.9967 98.7103 42.2109 98.5645 42.457C98.3184 42.8581 98.0221 43.3184 97.6758 43.8379C97.3385 44.3574 97.056 44.8633 96.8281 45.3555C97.1016 45.3281 97.2884 45.3145 97.3887 45.3145L98.0449 45.3281H99.3574L101.189 45.3555H101.969Z" fill="#278827"/>
</svg>
