<svg width="172" height="172" viewBox="0 0 172 172" fill="none" xmlns="http://www.w3.org/2000/svg">
<circle cx="86" cy="86" r="79" fill="#9CDA9C"/>
<mask id="path-2-inside-1_762_6272" fill="white">
<path d="M172 86C172 133.496 133.496 172 86 172C38.5035 172 0 133.496 0 86C0 38.5035 38.5035 0 86 0C133.496 0 172 38.5035 172 86ZM6.02 86C6.02 130.172 41.8283 165.98 86 165.98C130.172 165.98 165.98 130.172 165.98 86C165.98 41.8283 130.172 6.02 86 6.02C41.8283 6.02 6.02 41.8283 6.02 86Z"/>
</mask>
<path d="M172 86C172 133.496 133.496 172 86 172C38.5035 172 0 133.496 0 86C0 38.5035 38.5035 0 86 0C133.496 0 172 38.5035 172 86ZM6.02 86C6.02 130.172 41.8283 165.98 86 165.98C130.172 165.98 165.98 130.172 165.98 86C165.98 41.8283 130.172 6.02 86 6.02C41.8283 6.02 6.02 41.8283 6.02 86Z" stroke="#54BA54" stroke-width="12" mask="url(#path-2-inside-1_762_6272)"/>
<path fill-rule="evenodd" clip-rule="evenodd" d="M36.0399 78.2923C35.8521 78.2264 35.6458 78.2378 35.4664 78.324C35.2871 78.4102 35.1493 78.5641 35.0834 78.7518C35.0175 78.9396 35.0288 79.1459 35.115 79.3253C35.2012 79.5046 35.3551 79.6424 35.5429 79.7083L35.8039 79.7993C36.4719 80.0343 36.9109 80.1893 37.2339 80.3483C37.5369 80.4973 37.6699 80.6183 37.7579 80.7463C37.8479 80.8783 37.9179 81.0603 37.9579 81.4233C37.9979 81.8033 37.9999 82.2983 37.9999 83.0383V85.6403C37.9999 88.5823 38.0629 89.5523 38.9299 90.4663C39.7959 91.3803 41.1899 91.3803 43.9799 91.3803H49.2819C50.8429 91.3803 51.6239 91.3803 52.1749 90.9303C52.7269 90.4803 52.8849 89.7163 53.1999 88.1883L53.6999 85.7633C54.0469 84.0233 54.2199 83.1543 53.7759 82.5773C53.3319 82.0003 51.8159 82.0003 50.1309 82.0003H39.4919C39.4876 81.7539 39.4733 81.5077 39.4489 81.2623C39.3949 80.7653 39.2789 80.3123 38.9969 79.9003C38.7129 79.4843 38.3349 79.2183 37.8939 79.0013C37.4819 78.7993 36.9579 78.6153 36.3419 78.3983L36.0399 78.2923ZM48.5169 84.4573C48.8169 84.7433 48.8289 85.2173 48.5429 85.5173L45.6859 88.5173C45.6158 88.5909 45.5316 88.6494 45.4382 88.6894C45.3449 88.7294 45.2444 88.75 45.1429 88.75C45.0413 88.75 44.9408 88.7294 44.8475 88.6894C44.7542 88.6494 44.6699 88.5909 44.5999 88.5173L43.4569 87.3173C43.386 87.2466 43.3301 87.1624 43.2923 87.0698C43.2545 86.9771 43.2356 86.8778 43.2368 86.7777C43.238 86.6776 43.2592 86.5788 43.2992 86.487C43.3391 86.3952 43.3971 86.3124 43.4696 86.2434C43.5421 86.1744 43.6276 86.1206 43.7212 86.0851C43.8149 86.0497 43.9146 86.0334 44.0146 86.0371C44.1147 86.0408 44.2129 86.0645 44.3036 86.1068C44.3944 86.1491 44.4757 86.2091 44.5429 86.2833L45.1429 86.9133L47.4569 84.4833C47.594 84.3394 47.7827 84.2558 47.9815 84.2509C48.1802 84.246 48.3728 84.3203 48.5169 84.4573Z" fill="white"/>
<path d="M40.5 94C40.8978 94 41.2794 94.158 41.5607 94.4393C41.842 94.7206 42 95.1022 42 95.5C42 95.8978 41.842 96.2794 41.5607 96.5607C41.2794 96.842 40.8978 97 40.5 97C40.1022 97 39.7206 96.842 39.4393 96.5607C39.158 96.2794 39 95.8978 39 95.5C39 95.1022 39.158 94.7206 39.4393 94.4393C39.7206 94.158 40.1022 94 40.5 94ZM49.5 94C49.8978 94 50.2794 94.158 50.5607 94.4393C50.842 94.7206 51 95.1022 51 95.5C51 95.8978 50.842 96.2794 50.5607 96.5607C50.2794 96.842 49.8978 97 49.5 97C49.1022 97 48.7206 96.842 48.4393 96.5607C48.158 96.2794 48 95.8978 48 95.5C48 95.1022 48.158 94.7206 48.4393 94.4393C48.7206 94.158 49.1022 94 49.5 94Z" fill="white"/>
<path d="M68.0677 95C67.7744 95 67.5477 94.9267 67.3877 94.78C67.2411 94.62 67.1677 94.3933 67.1677 94.1V81.8C67.1677 81.5067 67.2411 81.2867 67.3877 81.14C67.5477 80.98 67.7744 80.9 68.0677 80.9H75.5077C75.7344 80.9 75.9077 80.96 76.0277 81.08C76.1477 81.2 76.2077 81.3667 76.2077 81.58C76.2077 81.8067 76.1477 81.98 76.0277 82.1C75.9077 82.22 75.7344 82.28 75.5077 82.28H68.7677V87.16H75.0877C75.3144 87.16 75.4877 87.22 75.6077 87.34C75.7277 87.4467 75.7877 87.6133 75.7877 87.84C75.7877 88.0667 75.7277 88.24 75.6077 88.36C75.4877 88.48 75.3144 88.54 75.0877 88.54H68.7677V93.62H75.5077C75.7344 93.62 75.9077 93.68 76.0277 93.8C76.1477 93.92 76.2077 94.0867 76.2077 94.3C76.2077 94.5267 76.1477 94.7 76.0277 94.82C75.9077 94.94 75.7344 95 75.5077 95H68.0677ZM83.0879 95.18C81.4746 95.18 80.2479 94.56 79.4079 93.32C78.5679 92.08 78.1479 90.2867 78.1479 87.94C78.1479 86.3667 78.3346 85.0467 78.7079 83.98C79.0812 82.9 79.6346 82.0867 80.3679 81.54C81.1146 80.9933 82.0212 80.72 83.0879 80.72C84.7146 80.72 85.9412 81.3333 86.7679 82.56C87.6079 83.7733 88.0279 85.56 88.0279 87.92C88.0279 89.4933 87.8412 90.82 87.4679 91.9C87.0946 92.98 86.5412 93.8 85.8079 94.36C85.0746 94.9067 84.1679 95.18 83.0879 95.18ZM83.0879 93.76C84.2079 93.76 85.0346 93.2867 85.5679 92.34C86.1146 91.38 86.3879 89.9067 86.3879 87.92C86.3879 85.92 86.1146 84.46 85.5679 83.54C85.0346 82.6067 84.2079 82.14 83.0879 82.14C81.9812 82.14 81.1546 82.6067 80.6079 83.54C80.0612 84.4733 79.7879 85.9333 79.7879 87.92C79.7879 89.9067 80.0612 91.38 80.6079 92.34C81.1546 93.2867 81.9812 93.76 83.0879 93.76ZM97.4401 95.14C97.1867 95.14 96.9867 95.0667 96.8401 94.92C96.6934 94.7733 96.6201 94.5667 96.6201 94.3V91.98H90.8801C90.6134 91.98 90.4001 91.92 90.2401 91.8C90.0934 91.6667 90.0201 91.48 90.0201 91.24C90.0201 91.0933 90.0534 90.9467 90.1201 90.8C90.1867 90.64 90.3067 90.44 90.4801 90.2L96.5801 81.32C96.7001 81.1333 96.8334 80.9933 96.9801 80.9C97.1267 80.8067 97.3001 80.76 97.5001 80.76C97.7134 80.76 97.8934 80.8267 98.0401 80.96C98.2001 81.0933 98.2801 81.3067 98.2801 81.6V90.58H99.7401C99.9934 90.58 100.187 90.64 100.32 90.76C100.453 90.88 100.52 91.0533 100.52 91.28C100.52 91.5067 100.453 91.68 100.32 91.8C100.187 91.92 99.9934 91.98 99.7401 91.98H98.2801V94.3C98.2801 94.5667 98.2067 94.7733 98.0601 94.92C97.9134 95.0667 97.7067 95.14 97.4401 95.14ZM96.6201 90.58V82.82H97.1001L91.5001 91.02V90.58H96.6201ZM103.712 95C103.419 95 103.192 94.9267 103.032 94.78C102.886 94.62 102.812 94.3933 102.812 94.1V81.8C102.812 81.5067 102.886 81.2867 103.032 81.14C103.192 80.98 103.419 80.9 103.712 80.9H108.452C109.426 80.9 110.246 81.0467 110.912 81.34C111.592 81.62 112.112 82.0333 112.472 82.58C112.832 83.1267 113.012 83.7933 113.012 84.58C113.012 85.46 112.752 86.1933 112.232 86.78C111.726 87.3667 111.032 87.7533 110.152 87.94V87.66C111.152 87.78 111.932 88.14 112.492 88.74C113.066 89.34 113.352 90.1333 113.352 91.12C113.352 92.3733 112.946 93.3333 112.132 94C111.319 94.6667 110.172 95 108.692 95H103.712ZM104.412 93.68H108.532C109.599 93.68 110.399 93.4667 110.932 93.04C111.466 92.6133 111.732 91.9667 111.732 91.1C111.732 90.22 111.466 89.5733 110.932 89.16C110.399 88.7333 109.599 88.52 108.532 88.52H104.412V93.68ZM104.412 87.2H108.212C109.252 87.2 110.039 86.9867 110.572 86.56C111.119 86.1333 111.392 85.52 111.392 84.72C111.392 83.8933 111.119 83.2733 110.572 82.86C110.039 82.4333 109.252 82.22 108.212 82.22H104.412V87.2ZM117.168 95C116.875 95 116.655 94.9333 116.508 94.8C116.375 94.6533 116.308 94.46 116.308 94.22C116.308 94.0733 116.341 93.9333 116.408 93.8C116.488 93.6533 116.595 93.5067 116.728 93.36L121.208 88.56C121.888 87.8267 122.375 87.1533 122.668 86.54C122.975 85.9133 123.128 85.28 123.128 84.64C123.128 83.84 122.881 83.2333 122.388 82.82C121.908 82.3933 121.201 82.18 120.268 82.18C119.668 82.18 119.101 82.2733 118.568 82.46C118.035 82.6467 117.521 82.9333 117.028 83.32C116.855 83.4533 116.695 83.5133 116.548 83.5C116.415 83.4867 116.295 83.4333 116.188 83.34C116.081 83.2467 116.008 83.1267 115.968 82.98C115.928 82.8333 115.928 82.6867 115.968 82.54C116.021 82.3933 116.128 82.26 116.288 82.14C116.808 81.7133 117.435 81.3733 118.168 81.12C118.901 80.8533 119.648 80.72 120.408 80.72C121.355 80.72 122.155 80.8667 122.808 81.16C123.461 81.4533 123.955 81.8867 124.288 82.46C124.621 83.02 124.788 83.7067 124.788 84.52C124.788 85.08 124.695 85.6333 124.508 86.18C124.335 86.7133 124.061 87.26 123.688 87.82C123.328 88.38 122.855 88.96 122.268 89.56L118.008 94.06V93.6H124.748C125.001 93.6 125.188 93.66 125.308 93.78C125.441 93.8867 125.508 94.0533 125.508 94.28C125.508 94.52 125.441 94.7 125.308 94.82C125.188 94.94 125.001 95 124.748 95H117.168ZM129.68 95C129.44 95 129.253 94.94 129.12 94.82C128.987 94.6867 128.92 94.5067 128.92 94.28C128.92 94.0533 128.987 93.8867 129.12 93.78C129.253 93.66 129.44 93.6 129.68 93.6H132.28V82.26H133.14L130.24 84.18C130.067 84.2733 129.9 84.3133 129.74 84.3C129.593 84.2867 129.467 84.2333 129.36 84.14C129.267 84.0333 129.2 83.9133 129.16 83.78C129.12 83.6333 129.127 83.4867 129.18 83.34C129.233 83.18 129.347 83.0467 129.52 82.94L132.28 81.12C132.453 81.0133 132.62 80.9267 132.78 80.86C132.94 80.7933 133.1 80.76 133.26 80.76C133.447 80.76 133.6 80.82 133.72 80.94C133.853 81.0467 133.92 81.22 133.92 81.46V93.6H136.32C136.56 93.6 136.747 93.66 136.88 93.78C137.013 93.8867 137.08 94.0533 137.08 94.28C137.08 94.52 137.013 94.7 136.88 94.82C136.747 94.94 136.56 95 136.32 95H129.68Z" fill="white"/>
<path d="M63.3833 118.333C62.9167 117.35 61.9167 116.667 60.75 116.667H57V115H67V116.667H64.2833C64.6833 117.15 64.9833 117.717 65.1583 118.333H67V120H65.3167C65.1083 122.333 63.1417 124.167 60.75 124.167H60.1417L65.75 130H63.4417L57.8333 124.167V122.5H60.75C62.2167 122.5 63.4333 121.417 63.6333 120H57V118.333H63.3833Z" fill="white"/>
<path d="M78.5402 129.18C77.7802 129.18 77.0202 129.067 76.2602 128.84C75.5136 128.613 74.8336 128.26 74.2202 127.78C74.0602 127.673 73.9536 127.547 73.9002 127.4C73.8469 127.253 73.8402 127.107 73.8802 126.96C73.9202 126.813 73.9936 126.693 74.1002 126.6C74.2069 126.493 74.3336 126.433 74.4802 126.42C74.6402 126.407 74.8069 126.46 74.9802 126.58C75.5269 126.967 76.0936 127.253 76.6802 127.44C77.2669 127.627 77.8802 127.72 78.5202 127.72C79.1736 127.72 79.7336 127.6 80.2002 127.36C80.6802 127.107 81.0402 126.76 81.2802 126.32C81.5336 125.867 81.6602 125.34 81.6602 124.74C81.6602 123.82 81.3936 123.067 80.8602 122.48C80.3269 121.893 79.5936 121.6 78.6602 121.6C78.0869 121.6 77.5602 121.707 77.0802 121.92C76.6002 122.133 76.1602 122.473 75.7602 122.94C75.6669 123.047 75.5536 123.14 75.4202 123.22C75.3002 123.287 75.1602 123.32 75.0002 123.32C74.7736 123.32 74.5936 123.26 74.4602 123.14C74.3402 123.007 74.2802 122.833 74.2802 122.62V115.66C74.2802 115.407 74.3469 115.22 74.4802 115.1C74.6136 114.967 74.8002 114.9 75.0402 114.9H81.8402C82.0936 114.9 82.2802 114.96 82.4002 115.08C82.5336 115.2 82.6002 115.373 82.6002 115.6C82.6002 115.827 82.5336 116 82.4002 116.12C82.2802 116.24 82.0936 116.3 81.8402 116.3H75.9002V121.92H75.4602C75.8069 121.36 76.2869 120.933 76.9002 120.64C77.5136 120.333 78.2002 120.18 78.9602 120.18C79.8536 120.18 80.6202 120.367 81.2602 120.74C81.9136 121.113 82.4136 121.64 82.7602 122.32C83.1202 122.987 83.3002 123.767 83.3002 124.66C83.3002 125.54 83.1069 126.32 82.7202 127C82.3336 127.68 81.7869 128.213 81.0802 128.6C80.3736 128.987 79.5269 129.18 78.5402 129.18ZM86.7124 130.9C86.5791 131.073 86.4391 131.173 86.2924 131.2C86.1458 131.227 86.0191 131.2 85.9124 131.12C85.8058 131.04 85.7458 130.927 85.7324 130.78C85.7324 130.633 85.7991 130.473 85.9324 130.3C86.1458 130.02 86.2924 129.733 86.3724 129.44C86.4524 129.16 86.4924 128.9 86.4924 128.66L86.5724 129.08C86.2258 129.08 85.9458 128.98 85.7324 128.78C85.5324 128.567 85.4324 128.3 85.4324 127.98C85.4324 127.66 85.5258 127.4 85.7124 127.2C85.9124 126.987 86.1724 126.88 86.4924 126.88C86.8391 126.88 87.1124 127 87.3124 127.24C87.5124 127.467 87.6124 127.8 87.6124 128.24C87.6124 128.52 87.5858 128.807 87.5324 129.1C87.4791 129.407 87.3858 129.713 87.2524 130.02C87.1191 130.327 86.9391 130.62 86.7124 130.9ZM91.3632 129C91.0699 129 90.8499 128.933 90.7032 128.8C90.5699 128.653 90.5032 128.46 90.5032 128.22C90.5032 128.073 90.5365 127.933 90.6032 127.8C90.6832 127.653 90.7899 127.507 90.9232 127.36L95.4032 122.56C96.0832 121.827 96.5699 121.153 96.8632 120.54C97.1699 119.913 97.3232 119.28 97.3232 118.64C97.3232 117.84 97.0765 117.233 96.5832 116.82C96.1032 116.393 95.3965 116.18 94.4632 116.18C93.8632 116.18 93.2965 116.273 92.7632 116.46C92.2299 116.647 91.7165 116.933 91.2232 117.32C91.0499 117.453 90.8899 117.513 90.7432 117.5C90.6099 117.487 90.4899 117.433 90.3832 117.34C90.2765 117.247 90.2032 117.127 90.1632 116.98C90.1232 116.833 90.1232 116.687 90.1632 116.54C90.2165 116.393 90.3232 116.26 90.4832 116.14C91.0032 115.713 91.6299 115.373 92.3632 115.12C93.0965 114.853 93.8432 114.72 94.6032 114.72C95.5499 114.72 96.3499 114.867 97.0032 115.16C97.6565 115.453 98.1499 115.887 98.4832 116.46C98.8165 117.02 98.9832 117.707 98.9832 118.52C98.9832 119.08 98.8899 119.633 98.7032 120.18C98.5299 120.713 98.2565 121.26 97.8832 121.82C97.5232 122.38 97.0499 122.96 96.4632 123.56L92.2032 128.06V127.6H98.9432C99.1965 127.6 99.3832 127.66 99.5032 127.78C99.6365 127.887 99.7032 128.053 99.7032 128.28C99.7032 128.52 99.6365 128.7 99.5032 128.82C99.3832 128.94 99.1965 129 98.9432 129H91.3632ZM105.795 129.18C105.195 129.18 104.569 129.06 103.915 128.82C103.262 128.58 102.689 128.233 102.195 127.78C102.049 127.673 101.955 127.547 101.915 127.4C101.889 127.253 101.895 127.113 101.935 126.98C101.975 126.833 102.042 126.713 102.135 126.62C102.242 126.513 102.369 126.46 102.515 126.46C102.662 126.447 102.815 126.5 102.975 126.62C103.429 127.007 103.895 127.287 104.375 127.46C104.855 127.633 105.342 127.72 105.835 127.72C106.702 127.72 107.435 127.507 108.035 127.08C108.649 126.653 109.109 126.007 109.415 125.14C109.735 124.273 109.895 123.2 109.895 121.92V120.06H110.075C109.995 120.807 109.769 121.46 109.395 122.02C109.035 122.58 108.569 123.007 107.995 123.3C107.422 123.593 106.775 123.74 106.055 123.74C105.229 123.74 104.495 123.553 103.855 123.18C103.215 122.807 102.715 122.28 102.355 121.6C101.995 120.92 101.815 120.153 101.815 119.3C101.815 118.407 102.002 117.62 102.375 116.94C102.762 116.247 103.289 115.707 103.955 115.32C104.635 114.92 105.415 114.72 106.295 114.72C107.402 114.72 108.342 114.993 109.115 115.54C109.902 116.073 110.495 116.853 110.895 117.88C111.295 118.907 111.495 120.147 111.495 121.6C111.495 122.827 111.369 123.907 111.115 124.84C110.862 125.773 110.489 126.567 109.995 127.22C109.502 127.86 108.902 128.347 108.195 128.68C107.489 129.013 106.689 129.18 105.795 129.18ZM106.395 122.36C106.995 122.36 107.522 122.227 107.975 121.96C108.429 121.693 108.782 121.327 109.035 120.86C109.289 120.38 109.415 119.833 109.415 119.22C109.415 118.607 109.289 118.067 109.035 117.6C108.782 117.133 108.429 116.767 107.975 116.5C107.522 116.233 106.995 116.1 106.395 116.1C105.809 116.1 105.289 116.233 104.835 116.5C104.395 116.767 104.042 117.133 103.775 117.6C103.522 118.067 103.395 118.607 103.395 119.22C103.395 119.833 103.522 120.38 103.775 120.86C104.042 121.327 104.395 121.693 104.835 121.96C105.289 122.227 105.809 122.36 106.395 122.36ZM118.768 129.18C117.154 129.18 115.928 128.56 115.088 127.32C114.248 126.08 113.828 124.287 113.828 121.94C113.828 120.367 114.014 119.047 114.388 117.98C114.761 116.9 115.314 116.087 116.048 115.54C116.794 114.993 117.701 114.72 118.768 114.72C120.394 114.72 121.621 115.333 122.448 116.56C123.288 117.773 123.708 119.56 123.708 121.92C123.708 123.493 123.521 124.82 123.148 125.9C122.774 126.98 122.221 127.8 121.488 128.36C120.754 128.907 119.848 129.18 118.768 129.18ZM118.768 127.76C119.888 127.76 120.714 127.287 121.248 126.34C121.794 125.38 122.068 123.907 122.068 121.92C122.068 119.92 121.794 118.46 121.248 117.54C120.714 116.607 119.888 116.14 118.768 116.14C117.661 116.14 116.834 116.607 116.288 117.54C115.741 118.473 115.468 119.933 115.468 121.92C115.468 123.907 115.741 125.38 116.288 126.34C116.834 127.287 117.661 127.76 118.768 127.76Z" fill="white"/>
<path d="M65.7246 33.4473H66.5723C66.6361 33.5475 66.6816 33.6204 66.709 33.666C66.9642 34.1035 67.1602 34.3906 67.2969 34.5273C67.4154 34.5638 68.0397 34.582 69.1699 34.582C69.8717 34.582 70.4961 34.5775 71.043 34.5684L71.3164 34.5273L72.9707 34.5137L76.0605 34.541H80.2852L81.0918 34.418C81.2103 34.3359 81.3379 34.1172 81.4746 33.7617C81.5111 33.6797 81.5612 33.5658 81.625 33.4199L82.2266 33.4062C82.3177 33.4062 82.4544 33.4108 82.6367 33.4199C82.6458 34.0488 82.6504 34.9967 82.6504 36.2637L82.6641 37.4805L82.6504 38.1777C82.6504 38.4147 82.6322 38.6198 82.5957 38.793C82.222 38.9115 81.8939 38.9844 81.6113 39.0117C81.3743 38.6562 81.1146 38.1413 80.832 37.4668C80.5586 36.7923 80.3854 36.4186 80.3125 36.3457C80.2031 36.2272 80.0755 36.1497 79.9297 36.1133C79.7109 36.0677 78.7448 36.0449 77.0312 36.0449C76.776 36.0449 76.457 36.0632 76.0742 36.0996C76.0195 36.4551 75.9922 36.7467 75.9922 36.9746L76.0059 38.8066V42.8262L76.0605 47.1602L76.0469 48.9375C76.0469 49.5664 76.1016 50.0404 76.2109 50.3594C76.3568 50.4232 76.6257 50.4824 77.0176 50.5371C77.0905 50.5462 77.4277 50.6191 78.0293 50.7559C78.3027 50.8197 78.5443 50.8926 78.7539 50.9746C78.7995 51.3027 78.8223 51.5033 78.8223 51.5762C78.8223 51.6582 78.8086 51.7767 78.7812 51.9316C78.5807 51.9408 78.4167 51.9453 78.2891 51.9453C77.3503 51.9453 76.5527 51.9134 75.8965 51.8496C75.2402 51.7767 74.0508 51.7402 72.3281 51.7402C72.0547 51.7402 71.2526 51.7949 69.9219 51.9043C69.4023 51.9408 69.0651 51.959 68.9102 51.959C68.901 51.8223 68.8919 51.7174 68.8828 51.6445L68.8691 51.3301V51.2207C69.0697 50.9564 69.4479 50.7604 70.0039 50.6328C70.9518 50.4049 71.6081 50.1999 71.9727 50.0176C72.0638 49.8444 72.1185 49.6165 72.1367 49.334C72.2005 48.2402 72.2324 46.4993 72.2324 44.1113L72.1641 38.9434C72.1641 37.5215 72.1367 36.6602 72.082 36.3594C72.0638 36.2773 72.0319 36.2181 71.9863 36.1816C71.9408 36.1361 71.877 36.1087 71.7949 36.0996C71.5124 36.0632 70.5918 36.0449 69.0332 36.0449C68.1764 36.0449 67.6022 36.127 67.3105 36.291C66.9186 36.5189 66.3307 37.1387 65.5469 38.1504C65.319 38.4421 65.1504 38.5879 65.041 38.5879C64.6217 38.3691 64.3529 38.1914 64.2344 38.0547C64.5169 37.4622 64.9089 36.2773 65.4102 34.5C65.556 33.9805 65.6608 33.6296 65.7246 33.4473ZM89.1309 33.9805C89.1764 33.9805 89.4863 33.9714 90.0605 33.9531L90.498 33.9668L91.3594 33.9805C91.3958 34.2721 91.4141 34.4863 91.4141 34.623C91.4141 34.6686 91.4095 34.8099 91.4004 35.0469C91.3913 35.1745 91.3822 35.6621 91.373 36.5098L91.3457 38.5742L91.3594 39.873L91.2637 49.1016V49.8809C91.2637 50.1543 91.3275 50.3503 91.4551 50.4688C91.5827 50.5872 91.9245 50.6875 92.4805 50.7695C92.6992 50.7969 93.1367 50.8698 93.793 50.9883C93.8112 51.0794 93.8203 51.166 93.8203 51.248C93.8203 51.3483 93.8112 51.5671 93.793 51.9043H93.2051C92.804 51.9043 92.2207 51.8861 91.4551 51.8496C90.9902 51.8223 90.6712 51.8086 90.498 51.8086C90.2793 51.8086 89.4727 51.8314 88.0781 51.877C87.9232 51.8861 87.7956 51.8906 87.6953 51.8906H87.4492L87.0527 51.8633L86.6836 51.8906L86 51.8633C85.9089 51.8633 85.722 51.877 85.4395 51.9043C85.4212 51.7038 85.4121 51.5488 85.4121 51.4395C85.4121 51.3392 85.4212 51.1888 85.4395 50.9883C85.804 50.888 86.2279 50.7878 86.7109 50.6875C87.3763 50.5508 87.7819 50.4186 87.9277 50.291C88.0827 50.1543 88.1602 49.9766 88.1602 49.7578L88.1465 48.8281L88.2012 47.8164L88.1875 45.7383L88.1738 45.2051C88.1738 45.1322 88.1829 44.8587 88.2012 44.3848C88.2194 44.1387 88.2285 43.9199 88.2285 43.7285C88.2285 43.61 88.2148 43.2409 88.1875 42.6211L88.2422 41.8418C88.2057 41.2493 88.1875 40.8984 88.1875 40.7891C88.1875 40.6523 88.1921 40.5156 88.2012 40.3789L88.2285 40.0371L88.1875 39.1074L88.2285 38.6836C88.2376 38.4922 88.2422 38.237 88.2422 37.918C88.2422 37.6081 88.2376 37.2298 88.2285 36.7832C87.5814 37.2663 86.8431 37.7493 86.0137 38.2324C85.9225 38.2871 85.5124 38.474 84.7832 38.793C84.4915 38.3555 84.3047 38.0273 84.2227 37.8086C85.1888 37.3073 85.8451 36.9382 86.1914 36.7012C86.7656 36.3001 87.3854 35.7988 88.0508 35.1973C88.3333 34.9329 88.6934 34.5273 89.1309 33.9805ZM100.109 42.9492C100.1 42.7487 100.096 42.5983 100.096 42.498C100.096 42.3978 100.1 42.2428 100.109 42.0332C100.182 42.015 100.351 41.9466 100.615 41.8281C101.244 41.5456 101.873 41.4043 102.502 41.4043C103.751 41.4043 104.799 41.8691 105.646 42.7988C106.503 43.7285 106.932 44.9954 106.932 46.5996C106.932 48.3405 106.412 49.7259 105.373 50.7559C104.343 51.7858 102.917 52.3008 101.094 52.3008C100.273 52.3008 99.5443 52.1322 98.9062 51.7949C98.2682 51.4577 97.7031 50.9837 97.2109 50.373C96.7188 49.7533 96.3405 49.1107 96.0762 48.4453C95.6569 47.3516 95.4473 46.1712 95.4473 44.9043C95.4473 43.8197 95.6341 42.6667 96.0078 41.4453C96.3815 40.224 96.9466 39.153 97.7031 38.2324C98.4688 37.3027 99.3346 36.5371 100.301 35.9355C101.267 35.3249 102.119 34.8828 102.857 34.6094C104.279 34.0898 105.355 33.8301 106.084 33.8301C106.221 33.8301 106.326 33.8757 106.398 33.9668C106.48 34.0579 106.521 34.1992 106.521 34.3906C106.521 34.5911 106.499 34.7507 106.453 34.8691C106.262 34.9512 105.911 35.0514 105.4 35.1699C104.243 35.4616 103.231 35.9447 102.365 36.6191C101.499 37.2936 100.857 37.9909 100.438 38.7109C99.8633 39.7044 99.4668 40.821 99.248 42.0605C99.0293 43.291 98.9199 44.5124 98.9199 45.7246C98.9199 47.0918 99.0065 48.2129 99.1797 49.0879C99.362 49.9538 99.6673 50.5736 100.096 50.9473C100.387 51.1842 100.802 51.3027 101.34 51.3027C101.65 51.3027 101.891 51.2572 102.064 51.166C102.456 50.9655 102.739 50.7467 102.912 50.5098C103.231 50.0632 103.441 49.5391 103.541 48.9375C103.65 48.3359 103.705 47.707 103.705 47.0508C103.705 45.401 103.473 44.2663 103.008 43.6465C102.552 43.0267 101.982 42.7168 101.299 42.7168C100.998 42.7168 100.602 42.7943 100.109 42.9492Z" fill="#278827"/>
</svg>
